<?xml version="1.0" encoding="UTF-8" standalone="no"?>
<!-- Created with Inkscape (http://www.inkscape.org/) -->

<svg
   xmlns:dc="http://purl.org/dc/elements/1.1/"
   xmlns:cc="http://creativecommons.org/ns#"
   xmlns:rdf="http://www.w3.org/1999/02/22-rdf-syntax-ns#"
   xmlns:svg="http://www.w3.org/2000/svg"
   xmlns="http://www.w3.org/2000/svg"
   xmlns:sodipodi="http://sodipodi.sourceforge.net/DTD/sodipodi-0.dtd"
   xmlns:inkscape="http://www.inkscape.org/namespaces/inkscape"
   width="32px"
   height="32px"
   id="svg2999"
   version="1.1"
   inkscape:version="0.48.3.1 r9886"
   sodipodi:docname="New document 1">
  <defs
     id="defs3001" />
  <sodipodi:namedview
     id="base"
     pagecolor="#ffffff"
     bordercolor="#666666"
     borderopacity="1.0"
     inkscape:pageopacity="0.0"
     inkscape:pageshadow="2"
     inkscape:zoom="11.197802"
     inkscape:cx="16"
     inkscape:cy="16"
     inkscape:current-layer="layer1"
     showgrid="true"
     inkscape:grid-bbox="true"
     inkscape:document-units="px"
     inkscape:window-width="513"
     inkscape:window-height="418"
     inkscape:window-x="729"
     inkscape:window-y="107"
     inkscape:window-maximized="0" />
  <metadata
     id="metadata3004">
    <rdf:RDF>
      <cc:Work
         rdf:about="">
        <dc:format>image/svg+xml</dc:format>
        <dc:type
           rdf:resource="http://purl.org/dc/dcmitype/StillImage" />
        <dc:title></dc:title>
      </cc:Work>
    </rdf:RDF>
  </metadata>
  <g
     id="layer1"
     inkscape:label="Layer 1"
     inkscape:groupmode="layer">
    <path
       style="color:#000000;fill:#444444;fill-opacity:1;fill-rule:nonzero;stroke:none;stroke-width:0;marker:none;visibility:visible;display:inline;overflow:visible;enable-background:accumulate"
       d="m 15.339146,9.3337696 c -2,0 -3.685167,0.7145824 -3.250001,2.6666664 l 1.916667,8.666667 c 0.06839,0.30674 0.252783,0.666667 0.666667,0.666667 l 1.333333,0 1.333334,0 c 0.413884,0 0.59828,-0.359927 0.666666,-0.666667 l 1.916667,-8.666667 c 0.435165,-1.952084 -1.25,-2.6666664 -3.25,-2.6666664 l -0.666667,0 z M 8.0058117,13.33377 c -1.3333333,0 -2.6009253,0.798149 -2,2 l 2.6666667,5.333333 c 0.222223,0.444444 0.666667,0.666667 1.3333326,0.666667 l 1.333334,0 c 0,0 0.820202,0.02424 0.666666,-0.666667 l -1.333333,-6 C 10.523407,13.996283 10.005811,13.33377 9.3391454,13.33377 z m 14.6666673,0 c -0.666667,0 -1.184263,0.662513 -1.333333,1.333333 l -1.333334,6 c -0.153536,0.690912 0.666667,0.666667 0.666667,0.666667 l 1.333333,0 c 0.666667,0 1.111111,-0.222223 1.333334,-0.666667 l 2.666666,-5.333333 c 0.600926,-1.201851 -0.666666,-2 -2,-2 z M 4.5891451,17.500437 c -0.2576214,-0.0014 -0.474672,0.157829 -0.5833334,0.5 l -1.2769346,3.992634 c -0.15852,0.499168 -0.050013,0.754614 0.625,0.625 L 6.6724784,22.000437 C 7.3271904,21.87473 7.4356251,21.645602 7.2558117,21.33377 L 5.3391451,18.000437 c -0.194184,-0.336755 -0.4923787,-0.498646 -0.75,-0.5 z m 22.8333339,0 c -0.257621,0.0014 -0.555816,0.163245 -0.75,0.5 l -1.916667,3.333333 c -0.179813,0.311832 -0.07137,0.540957 0.583334,0.666667 l 3.271726,0.632365 c 0.675018,0.129613 0.825187,-0.125827 0.666667,-0.625 l -1.271727,-4.007365 c -0.108666,-0.342171 -0.325712,-0.501355 -0.583333,-0.5 z"
       id="path3798"
       inkscape:connector-curvature="0"
       sodipodi:nodetypes="sccscsccscssssscssssssscssssssccccccssccccccs" />
  </g>
</svg>
