<?xml version="1.0" encoding="UTF-8" standalone="no"?>
<!-- Created with Inkscape (http://www.inkscape.org/) -->

<svg
   xmlns:dc="http://purl.org/dc/elements/1.1/"
   xmlns:cc="http://creativecommons.org/ns#"
   xmlns:rdf="http://www.w3.org/1999/02/22-rdf-syntax-ns#"
   xmlns:svg="http://www.w3.org/2000/svg"
   xmlns="http://www.w3.org/2000/svg"
   xmlns:sodipodi="http://sodipodi.sourceforge.net/DTD/sodipodi-0.dtd"
   xmlns:inkscape="http://www.inkscape.org/namespaces/inkscape"
   width="32px"
   height="32px"
   id="svg3006"
   version="1.1"
   inkscape:version="0.48.3.1 r9886"
   sodipodi:docname="New document 2">
  <defs
     id="defs3008" />
  <sodipodi:namedview
     id="base"
     pagecolor="#ffffff"
     bordercolor="#666666"
     borderopacity="1.0"
     inkscape:pageopacity="0.0"
     inkscape:pageshadow="2"
     inkscape:zoom="4.8982489"
     inkscape:cx="0.17860659"
     inkscape:cy="0.446516"
     inkscape:current-layer="layer1"
     showgrid="true"
     inkscape:grid-bbox="true"
     inkscape:document-units="px"
     inkscape:window-width="773"
     inkscape:window-height="577"
     inkscape:window-x="483"
     inkscape:window-y="148"
     inkscape:window-maximized="0" />
  <metadata
     id="metadata3011">
    <rdf:RDF>
      <cc:Work
         rdf:about="">
        <dc:format>image/svg+xml</dc:format>
        <dc:type
           rdf:resource="http://purl.org/dc/dcmitype/StillImage" />
        <dc:title></dc:title>
      </cc:Work>
    </rdf:RDF>
  </metadata>
  <g
     id="layer1"
     inkscape:label="Layer 1"
     inkscape:groupmode="layer">
    <g
       transform="matrix(0.21868558,0,0,0.29951691,2.5284898,4.0308214)"
       id="g3023">
      <g
         style="fill:#333333"
         id="g3">
        <path
           inkscape:connector-curvature="0"
           style="fill:#333333"
           id="path5"
           d="m 92.289,2.052 c 9.345,1.994 17.144,4.941 22.731,8.239 l 0,0 c 5.506,3.338 9.196,6.843 9.357,11.232 l 0,0 c 0,0.284 -0.019,0.575 -0.06,0.875 l 0,0 c -0.849,5.926 -1.855,15.206 -1.857,15.22 l 0,0 c -0.048,0.442 -0.251,0.866 -0.561,1.186 l 0,0 -1.088,1.11 c -0.523,0.531 -1.3,0.73 -2.013,0.513 l 0,0 -4.027,-1.23 -4.009,3.467 c -0.111,0.097 -0.222,0.179 -0.327,0.25 l 0,0 c -0.071,0.074 -0.119,0.118 -0.147,0.143 l 0,0 0,0 c -0.052,0.046 -0.135,0.125 -0.26,0.22 l 0,0 -6.978,6.473 c -0.136,0.126 -0.285,0.229 -0.444,0.312 l 0,0 c -0.054,0.037 -0.105,0.071 -0.155,0.102 l 0,0 c -0.116,0.07 -0.203,0.112 -0.246,0.133 l 0,0 -0.002,0 c -0.17,0.085 -0.371,0.165 -0.599,0.228 l 0,0 c -0.046,0.011 -0.124,0.032 -0.239,0.054 l 0,0 c -0.026,0.024 -0.054,0.048 -0.081,0.072 l 0,0 -27.454,24.056 -0.073,4.777 c -0.073,1.535 -0.854,2.524 -1.686,3.343 l 0,0 c -0.835,0.763 -1.808,1.373 -3.04,1.591 l 0,0 c -0.257,0.06 -0.546,0.102 -0.859,0.102 l 0,0 c -0.007,0 -0.014,0 -0.021,0 l 0,0 c -0.614,0 -1.218,-0.143 -1.785,-0.395 l 0,0 L 6.025,57.145 C 3.838,56.068 2.306,54.053 1.855,51.658 l 0,0 L 0.058,39.714 C 0.019,39.461 0,39.215 0,38.985 l 0,0 c -0.004,-0.78 0.219,-1.599 0.726,-2.257 l 0,0 0.001,10e-4 c 1.194,-1.582 2.869,-2.306 4.735,-2.39 l 0,0 c 0.465,0 0.956,0.065 1.46,0.26 l 0,0 4.05,1.581 30.596,-14.943 c 0.281,-0.134 0.549,-0.23 0.808,-0.304 l 0,0 c 0.208,-0.224 0.428,-0.39 0.629,-0.517 l 0,0 c 0.102,-0.064 0.166,-0.097 0.188,-0.11 l 0,0 c 0.019,-0.01 0.037,-0.02 0.056,-0.029 l 0,0 c 0.086,-0.061 0.178,-0.116 0.275,-0.163 l 0,0 9.114,-4.465 c 0.033,-0.017 0.058,-0.029 0.076,-0.038 l 0,0 c 0.056,-0.031 0.159,-0.085 0.312,-0.147 l 0,0 c 0.24,-0.091 0.335,-0.102 0.364,-0.112 l 0,0 c 0,0 0,0 0.05,-0.014 l 0,0 c 0.024,-0.006 0.056,-0.015 0.095,-0.023 l 0,0 c 0.268,-0.258 0.547,-0.437 0.832,-0.587 l 0,0 0.859,-0.45 c 0.151,-0.955 0.58,-1.769 1.11,-2.5 l 0,0 c 0.666,-0.894 1.537,-1.663 2.604,-2.193 l 0,0 1.709,-0.838 c 0,-0.184 0,-0.365 0,-0.543 l 0,0 c -0.043,-2.761 1.928,-5.05 4.653,-6.158 l 0,0 C 67.797,0.639 71.224,0.012 75.762,0 l 0,0 c 4.422,0 9.905,0.641 16.527,2.052 l 0,0" />
      </g>
      <path
         inkscape:connector-curvature="0"
         style="fill:#ffffff"
         id="path7"
         d="m 63.052,10.354 -3.008,1.476 c -1.326,0.625 -2.408,2.168 -2.375,3.131 l 0,0 c 0,0 0,0.012 0,0.024 l 0,0 c -0.019,0.93 1.142,2.242 2.566,2.61 l 0,0 14.961,4.092 c 0.396,0.109 0.873,0.164 1.378,0.164 l 0,0 c 1.283,0.004 2.753,-0.367 3.628,-0.944 l 0,0 2.741,-1.782 c 1.269,-0.796 2.343,-2.484 2.331,-3.347 l 0,0 C 85.268,15.725 85.272,15.702 85.27,15.702 l 0,0 c 0.041,-0.832 -1.062,-2.043 -2.493,-2.374 l 0,0 L 68.319,9.784 68.438,9.3 68.319,9.784 C 67.869,9.673 67.317,9.616 66.732,9.617 l 0,0 c -0.009,0 -0.019,0 -0.028,0 l 0,0 c -1.288,0 -2.74,0.285 -3.652,0.737 l 0,0 z" />
      <path
         inkscape:connector-curvature="0"
         style="fill:#ffffff"
         id="path9"
         d="m 84.17,22.16 c 0,0 -0.002,0.012 -0.002,0.045 l 0,0 c -0.026,0.985 1.041,2.248 2.415,2.6 l 0,0 18.684,4.982 c 0.317,0.084 0.685,0.13 1.074,0.13 l 0,0 c 1.287,0.006 2.792,-0.497 3.613,-1.234 l 0,0 2.108,-1.858 c 1.146,-0.989 2.228,-2.928 2.313,-4.01 l 0,0 c 0.005,-0.066 0.009,-0.122 0.009,-0.165 l 0,0 c 0.022,-0.931 -0.963,-2.073 -2.31,-2.384 l 0,0 -17.712,-4.208 c -0.369,-0.091 -0.806,-0.134 -1.269,-0.134 l 0,0 c -1.333,-0.004 -2.895,0.379 -3.82,0.96 l 0,0 -2.672,1.657 c -1.271,0.762 -2.404,2.516 -2.429,3.589 l 0,0 -0.501,-0.025 0.499,0.055 0,0 z" />
      <path
         inkscape:connector-curvature="0"
         style="fill:#ffffff"
         id="path11"
         d="M 91.873,4.008 C 78.53,1.164 70.042,1.556 66.179,3.85 c 4.257,-1.793 12.4,-1.899 24.605,0.702 18.963,4.042 31.321,12.124 30.465,18.108 -0.854,5.984 -1.865,15.854 -1.865,15.854 l 1.089,-1.111 c 0,0 1.01,-9.303 1.865,-15.287 C 123.193,16.132 110.835,8.049 91.873,4.008 z" />
      <path
         inkscape:connector-curvature="0"
         style="fill:#ffffff"
         id="path13"
         d="M 69.384,61.137 6.195,36.464 C 5.058,36.02 3.032,36.831 2.314,37.944 2.693,37.446 3.389,37.292 4.252,37.63 L 67.44,62.303 c 1.453,0.567 2.621,2.307 2.597,3.865 l -0.224,14.454 c -0.015,0.984 -0.494,1.645 -1.202,1.841 1.405,-0.18 3.125,-1.732 3.145,-3.007 L 71.98,65.002 c 0.025,-1.559 -1.144,-3.298 -2.596,-3.865 z" />
      <path
         inkscape:connector-curvature="0"
         style="fill:#ffffff"
         id="path15"
         d="m 117.245,25.379 -2.457,-0.605 c -0.493,1.034 -1.24,2.061 -2.064,2.801 l -2.107,1.858 c -1.088,0.948 -2.747,1.475 -4.275,1.483 -0.127,0 -0.25,-0.014 -0.375,-0.021 l 2.329,0.64 c 1.112,0.324 1.901,1.384 1.916,2.536 0,0.041 0,0.078 -0.002,0.124 l -0.356,6.473 c -0.003,0.057 -0.02,0.108 -0.026,0.164 l 6.853,-5.929 c 0.707,-0.611 1.375,-1.873 1.482,-2.802 l 0.539,-4.626 c 0.105,-0.929 -0.549,-1.872 -1.457,-2.096 z" />
      <path
         inkscape:connector-curvature="0"
         style="fill:#ffffff"
         id="path17"
         d="M 86.066,17.698 85.68,17.603 c -0.165,0.295 -0.359,0.583 -0.578,0.86 0.302,-0.286 0.624,-0.548 0.964,-0.765 z" />
      <path
         inkscape:connector-curvature="0"
         style="fill:#ffffff"
         id="path19"
         d="m 56.796,15.714 -1.5,0.786 c -0.205,0.107 -0.354,0.223 -0.452,0.34 l 3.598,0.989 c -0.794,-0.547 -1.4,-1.29 -1.646,-2.115 z" />
      <path
         inkscape:connector-curvature="0"
         style="fill:#ffffff"
         id="path21"
         d="m 83.168,22.206 c 0,-0.033 0,-0.084 0.006,-0.152 0.069,-0.945 0.549,-1.966 1.247,-2.847 -0.292,0.278 -0.603,0.537 -0.932,0.757 l -2.743,1.782 c -1.089,0.703 -2.626,1.077 -4.062,1.099 l 8.229,2.263 c -1.022,-0.699 -1.725,-1.759 -1.745,-2.902 z" />
      <path
         inkscape:connector-curvature="0"
         style="fill:#ffffff"
         id="path23"
         d="m 53.082,17.391 c -0.165,0 -0.292,0.042 -0.451,0.142 l -7.825,3.831 56.28,16.749 c 1.097,0.342 1.858,1.4 1.873,2.535 0,0.056 -0.002,0.101 -0.002,0.158 l -0.42,6.009 5.91,-5.481 0.039,-0.024 c 0.198,-0.126 0.345,-0.342 0.367,-0.696 l 0.356,-6.461 c 0.002,-0.031 0.002,-0.06 0.002,-0.08 0.017,-0.657 -0.555,-1.417 -1.181,-1.572 L 53.364,17.432 c -0.105,-0.029 -0.2,-0.041 -0.282,-0.041 z" />
    </g>
  </g>
</svg>
