<?xml version="1.0" encoding="UTF-8" standalone="no"?>
<!-- Created with Inkscape (http://www.inkscape.org/) -->

<svg
   xmlns:dc="http://purl.org/dc/elements/1.1/"
   xmlns:cc="http://creativecommons.org/ns#"
   xmlns:rdf="http://www.w3.org/1999/02/22-rdf-syntax-ns#"
   xmlns:svg="http://www.w3.org/2000/svg"
   xmlns="http://www.w3.org/2000/svg"
   xmlns:sodipodi="http://sodipodi.sourceforge.net/DTD/sodipodi-0.dtd"
   xmlns:inkscape="http://www.inkscape.org/namespaces/inkscape"
   width="32px"
   height="32px"
   id="svg3046"
   version="1.1"
   inkscape:version="0.48.3.1 r9886"
   sodipodi:docname="New document 2">
  <defs
     id="defs3048" />
  <sodipodi:namedview
     id="base"
     pagecolor="#ffffff"
     bordercolor="#666666"
     borderopacity="1.0"
     inkscape:pageopacity="0.0"
     inkscape:pageshadow="2"
     inkscape:zoom="5.0476993"
     inkscape:cx="-3.6901531"
     inkscape:cy="19.6919"
     inkscape:current-layer="layer1"
     showgrid="true"
     inkscape:grid-bbox="true"
     inkscape:document-units="px"
     inkscape:window-width="513"
     inkscape:window-height="418"
     inkscape:window-x="807"
     inkscape:window-y="39"
     inkscape:window-maximized="0" />
  <metadata
     id="metadata3051">
    <rdf:RDF>
      <cc:Work
         rdf:about="">
        <dc:format>image/svg+xml</dc:format>
        <dc:type
           rdf:resource="http://purl.org/dc/dcmitype/StillImage" />
        <dc:title></dc:title>
      </cc:Work>
    </rdf:RDF>
  </metadata>
  <g
     id="layer1"
     inkscape:label="Layer 1"
     inkscape:groupmode="layer">
    <g
       transform="matrix(0.04221773,0,0,0.04025423,3.5836487,4.5792547)"
       id="g3019">
      <g
         style="fill:#333333"
         id="g1327">
        <path
           inkscape:connector-curvature="0"
           id="path1329"
           style="fill:#333333;stroke:#eeeeee;stroke-width:3.40799999"
           d="M 66.275,1.768 C 24.94,1.768 1.704,23.139 1.704,66.804 l 0,450.123 c 0,40.844 20.895,62.229 62.192,62.229 l 452.024,0 c 41.307,0 62.229,-20.315 62.229,-62.229 l 0,-450.123 c 0,-42.601 -20.922,-65.036 -63.521,-65.036 -0.004,0 -448.495,-0.143 -448.353,0 z" />
      </g>
      <path
         inkscape:connector-curvature="0"
         id="path4552"
         d="m 433.97618,217.10412 c -42.91415,1.08845 -77.40626,36.26261 -77.40625,79.4375 0,43.86023 35.60853,79.46876 79.46875,79.46875 43.86022,0 79.46875,-35.60851 79.46875,-79.46875 0,-43.86022 -35.60852,-79.43751 -79.46875,-79.4375 -0.68532,0 -1.38132,-0.0173 -2.0625,0 z m 6.78125,26.625 c 8.95305,9e-5 18.03117,2.40635 27.21875,7.1875 l -6.3125,25.53125 c -6.37508,-5.85931 -13.03132,-8.81242 -19.96875,-8.8125 -9.09381,7e-5 -15.25005,4.09383 -18.4375,12.25 l 25.3125,0 -3.03125,12.78125 -24.75,0 c -0.0938,0.93754 -0.12504,2.31255 -0.125,4.09375 l 0,3.71875 26.15625,0 -3.03125,12.8125 -21.3125,0 c 2.76557,8.76564 8.76557,13.12502 18,13.125 10.12492,10e-6 19.59366,-3.28123 28.40625,-9.84375 l 0,26.25 c -7.31259,5.01561 -16.1407,7.49999 -26.5,7.5 -16.73442,-2e-5 -29.10941,-3.79687 -37.125,-11.4375 -8.01564,-7.64062 -12.90626,-16.17185 -14.6875,-25.59375 l -12.71875,0 3.375,-12.8125 7.71875,0 c -0.0938,-0.70306 -0.12501,-1.93745 -0.125,-3.71875 -10e-6,-1.87494 0.0312,-3.24995 0.125,-4.09375 l -9.34375,0 3.3125,-12.78125 7.65625,0 c 6.09373,-24.09365 22.81246,-36.15615 50.1875,-36.15625 z"
         style="font-size:144px;font-style:normal;font-variant:normal;font-weight:normal;font-stretch:normal;text-align:start;line-height:125%;writing-mode:lr-tb;text-anchor:start;fill:#ffffff;fill-opacity:1;stroke:none;font-family:Arial Black;-inkscape-font-specification:Arial Black" />
      <path
         inkscape:connector-curvature="0"
         id="path4559"
         d="m 156.30345,281.1498 c -42.91414,1.08845 -77.406243,36.26261 -77.406243,79.4375 0,43.86023 35.608523,79.46876 79.468743,79.46875 43.86022,0 79.46875,-35.60851 79.46875,-79.46875 0,-43.86022 -35.60852,-79.43751 -79.46875,-79.4375 -0.68532,0 -1.38132,-0.0173 -2.0625,0 z m 0.84375,20.625 c 8.06244,9e-5 14.44524,0.91416 19.15625,2.71875 4.71086,1.80478 8.67961,4.80478 11.9375,9 3.25773,4.19539 5.49991,9.26571 6.71875,15.21875 l -26.84375,4.21875 c -1.35944,-5.01553 -2.92975,-8.32804 -4.6875,-9.96875 -1.75787,-1.64055 -3.75005,-2.46866 -6,-2.46875 -2.7188,10e-5 -4.93755,0.87508 -6.625,2.65625 -1.68755,1.78132 -2.5313,4.31258 -2.53125,7.59375 -5e-5,1.73444 0.17184,3.41413 0.5,5.03125 0.32808,1.61724 1.45308,5.43757 3.375,11.4375 l 21.3125,0 0,16.8125 -18.84375,0 c -0.23442,3.9844 -0.9688,7.56254 -2.1875,10.75 -0.98442,2.43754 -2.60942,4.96878 -4.90625,7.59375 2.62495,-0.60934 4.87495,-0.90623 6.75,-0.90625 2.39057,10e-6 5.49995,0.46877 9.34375,1.40625 5.24994,1.21876 9.45306,1.81253 12.59375,1.8125 2.57805,4e-5 4.78899,-0.21091 6.6875,-0.65625 1.89836,-0.44527 4.40617,-1.37497 7.5,-2.78125 l 9.5625,20.9375 c -4.64071,2.34374 -8.70321,3.98437 -12.21875,4.875 -3.51571,0.89061 -7.31258,1.31249 -11.34375,1.3125 -4.40632,-2e-5 -9.42194,-0.76562 -15.09375,-2.3125 -7.45318,-2.06248 -12.0938,-3.26563 -13.875,-3.59375 -1.78129,-0.32813 -3.68754,-0.46875 -5.75,-0.46875 -6.0469,-1e-5 -12.71878,2.10937 -20.03125,6.375 l -9.09375,-19.96875 c 9.84373,-7.07811 14.78123,-14.14059 14.78125,-21.21875 -2e-5,-0.37495 -0.0625,-1.42184 -0.15625,-3.15625 l -14.625,0 0,-16.8125 10.5,0 c -1.78127,-6.18742 -2.79689,-9.76556 -3.03125,-10.75 -0.28126,-1.49994 -0.43752,-3.3593 -0.4375,-5.5625 -2e-5,-5.85928 1.57029,-11.1171 4.6875,-15.78125 3.11716,-4.66395 7.22653,-8.04678 12.3125,-10.15625 5.0859,-2.10928 11.93746,-3.1874 20.5625,-3.1875 z"
         style="fill:#ffffff;fill-opacity:1;stroke:none" />
      <path
         inkscape:connector-curvature="0"
         sodipodi:nodetypes="cccccccsccscccssssccccsssccsccssssccccccccsssccccsssc"
         id="path4570"
         d="m 287.58114,86.59732 0,0.0625 10.25,0 0,-0.0625 -10.25,0 z m 10.25,-17.9375 0,24.90625 c 10.49994,0.65635 18.53899,3.15635 24.09375,7.46875 5.55461,4.31259 9.15616,10.21884 10.84375,17.71875 l -26.15625,4.125 c -1.31255,-3.32805 -2.47662,-5.61711 -3.53125,-6.90625 -1.05474,-1.28898 -2.81256,-2.59366 -5.25,-3.90625 l 0,20.3125 c 14.24994,3.79693 23.78117,7.81256 28.5625,12.03125 6.32804,5.67193 9.46866,12.87504 9.46875,21.59375 -8e-5,5.1094 -1.1329,9.7969 -3.40625,14.0625 -2.27352,4.26564 -5.17977,7.82814 -8.71875,10.6875 -3.53914,2.85938 -7.29695,4.92969 -11.28125,6.21875 -3.98443,1.28906 -8.85944,2.04688 -14.625,2.28125 l 0,13.28125 -10.25,0 0,-13.28125 c -6.89066,-0.60938 -12.49222,-1.72656 -16.78125,-3.34375 -4.28909,-1.61718 -7.97658,-3.85937 -11.09375,-6.71875 -3.1172,-2.85937 -5.53126,-5.9453 -7.21875,-9.25 -1.68751,-3.30467 -2.96876,-7.28122 -3.8125,-11.96875 l 28.40625,-3.3125 c 0.84373,4.64065 2.00777,8.00003 3.4375,10.0625 1.42966,2.06252 3.78121,3.87502 7.0625,5.46875 l 0,-24.8125 c -9.46878,-2.62495 -16.19534,-4.89058 -20.15625,-6.8125 -3.96096,-1.92182 -7.40627,-5.00776 -10.3125,-9.25 -2.90625,-4.24213 -4.34376,-9.40618 -4.34375,-15.5 -1e-5,-8.34367 2.91405,-15.33585 8.75,-20.9375 5.83591,-5.60146 14.53122,-8.70303 26.0625,-9.3125 l 0,-24.90625 -197.843751,0 0,157.8125 403.812501,0 0,-157.8125 -195.71875,0 z m -10.25,43.0625 c -3.00004,0.98446 -5.10941,2.20321 -6.28125,3.65625 -1.1719,1.45321 -1.75004,3.15633 -1.75,5.125 -3e-5,2.06258 0.61715,3.85164 1.8125,5.375 1.19528,1.52351 3.26559,2.81257 6.21875,3.84375 l 0,-18 z m 10.25,46.6875 0,22.5 c 3.98432,-0.89061 6.89838,-2.36717 8.75,-4.40625 1.8515,-2.03904 2.78118,-4.31247 2.78125,-6.84375 -6e-5,-2.20309 -0.7735,-4.24216 -2.34375,-6.09375 -1.57037,-1.85153 -4.64069,-3.56246 -9.1875,-5.15625 z"
         style="font-size:144px;font-style:normal;font-variant:normal;font-weight:normal;font-stretch:normal;text-align:start;line-height:125%;writing-mode:lr-tb;text-anchor:start;opacity:0.5;fill:#ffffff;fill-opacity:1;stroke:none;font-family:Arial Black;-inkscape-font-specification:Arial Black" />
      <rect
         y="67.238243"
         x="85.166206"
         height="164.24619"
         width="411.62134"
         id="rect4577"
         style="fill:none;stroke:#ffffff;stroke-width:10;stroke-linecap:round;stroke-linejoin:round;stroke-miterlimit:4;stroke-opacity:1;stroke-dasharray:none;stroke-dashoffset:0" />
      <path
         inkscape:connector-curvature="0"
         id="path4579"
         d="m 318.625,380.4375 c -42.91415,1.08846 -77.40625,36.26261 -77.40625,79.4375 0,43.86024 35.60853,79.46876 79.46875,79.46875 43.86021,-3e-5 79.46875,-35.60851 79.46875,-79.46875 -10e-6,-43.86021 -35.60852,-79.43751 -79.46875,-79.4375 -0.68533,10e-6 -1.38132,-0.0173 -2.0625,0 z m -46.71875,34 32.125,0 16.125,35 15.875,-35 32.21875,0 -24.5625,44.4375 20.90625,0 0,15.53125 -29.625,0 0,8.5 29.625,0 0,15.75 -29.625,0 0,18.84375 -29.25,0 0,-18.84375 -30.09375,0 0,-15.75 30.09375,0 0,-8.5 -30.09375,0 0,-15.53125 21.53125,0 -25.25,-44.4375 z"
         style="fill:#ffffff;fill-opacity:1;stroke:none" />
    </g>
  </g>
</svg>
