<?xml version="1.0" encoding="UTF-8" standalone="no"?>
<!-- Created with Inkscape (http://www.inkscape.org/) -->

<svg
   xmlns:dc="http://purl.org/dc/elements/1.1/"
   xmlns:cc="http://creativecommons.org/ns#"
   xmlns:rdf="http://www.w3.org/1999/02/22-rdf-syntax-ns#"
   xmlns:svg="http://www.w3.org/2000/svg"
   xmlns="http://www.w3.org/2000/svg"
   xmlns:sodipodi="http://sodipodi.sourceforge.net/DTD/sodipodi-0.dtd"
   xmlns:inkscape="http://www.inkscape.org/namespaces/inkscape"
   width="32px"
   height="32px"
   id="svg2994"
   version="1.1"
   inkscape:version="0.48.3.1 r9886"
   sodipodi:docname="New document 2">
  <defs
     id="defs2996" />
  <sodipodi:namedview
     id="base"
     pagecolor="#ffffff"
     bordercolor="#666666"
     borderopacity="1.0"
     inkscape:pageopacity="0.0"
     inkscape:pageshadow="2"
     inkscape:zoom="11.197802"
     inkscape:cx="16"
     inkscape:cy="15.151619"
     inkscape:current-layer="layer1"
     showgrid="true"
     inkscape:grid-bbox="true"
     inkscape:document-units="px"
     inkscape:window-width="695"
     inkscape:window-height="566"
     inkscape:window-x="240"
     inkscape:window-y="0"
     inkscape:window-maximized="0" />
  <metadata
     id="metadata2999">
    <rdf:RDF>
      <cc:Work
         rdf:about="">
        <dc:format>image/svg+xml</dc:format>
        <dc:type
           rdf:resource="http://purl.org/dc/dcmitype/StillImage" />
        <dc:title></dc:title>
      </cc:Work>
    </rdf:RDF>
  </metadata>
  <g
     id="layer1"
     inkscape:label="Layer 1"
     inkscape:groupmode="layer">
    <path
       style="fill:#4d4d4d"
       d="M 19.563784,28.711586 C 18.515718,28.171898 16.4126,26.994519 14.890187,26.09519 13.367775,25.195857 11.516653,24.117607 10.776586,23.699077 10.036518,23.280552 9.0094711,22.658138 8.4942584,22.315942 7.979046,21.973745 7.4781806,21.693768 7.3812219,21.693768 7.040388,21.693768 3.4521761,19.510136 3.0358251,19.049347 2.7091097,18.687764 2.6146042,18.158628 2.6146042,16.69096 l 0,-1.89221 0.9928794,-0.895937 c 1.3179351,-1.189258 1.3179351,-1.853397 0,-3.030926 l -0.9928794,-0.8871028 0,-2.978707 c 0,-2.8488895 0.025748,-3.003873 0.5908033,-3.5561807 l 0.5908033,-0.5774728 12.4253872,0 12.425389,0 0.711697,0.6956394 0.711697,0.6956393 -0.06832,9.1267476 c -0.06804,9.09679 -0.07018,9.130516 -0.646572,10.275036 -0.940891,1.868314 -3.60176,4.220507 -6.291759,5.561879 -0.513402,0.256011 -1.082171,0.465471 -1.26393,0.465471 -0.18177,0 -1.187976,-0.441562 -2.236043,-0.98125 z m 1.819969,-8.370604 -0.0054,-7.469721 -2.319191,-1.006152 c -2.296141,-0.996155 -2.324194,-1.001685 -2.822925,-0.556391 -0.697205,0.622501 -1.410416,0.79304 -2.156715,0.515699 C 13.295679,11.533126 12.45578,10.236305 12.624757,9.5782342 12.736182,9.1442702 12.293181,8.8854282 8.6825236,7.2748442 6.4452588,6.2768778 4.5437978,5.460358 4.4570643,5.460358 c -0.086728,0 -0.1577049,0.8820072 -0.1577049,1.9600132 0,1.847797 0.034312,1.977962 0.5993387,2.27353 0.627051,0.3280168 1.5669409,1.9516378 1.5669409,2.7068278 0,0.755187 -0.9398899,2.378809 -1.5669409,2.706825 -0.5293479,0.276906 -0.5990285,0.466857 -0.5966897,1.626549 l 0.00266,1.313028 1.5017097,0.936076 c 0.8259412,0.51484 1.8266514,1.102859 2.2238041,1.306712 0.3971509,0.20386 2.9966868,1.698858 5.7767448,3.322234 6.80319,3.972635 7.193204,4.193757 7.401455,4.196321 0.0993,0.0011 0.178143,-3.359148 0.175261,-7.467492 z m -4.729543,1.839292 c -0.753603,-0.192672 -1.523325,-1.265075 -1.523325,-2.122361 0,-1.03608 0.926238,-1.89315 2.04593,-1.89315 1.204683,0 2.045931,0.849376 2.045931,2.065698 0,1.358422 -1.229893,2.292055 -2.568536,1.949813 z m 1.557607,-1.004096 c 0.447668,-0.43757 0.341282,-1.480493 -0.199847,-1.959161 -1.095875,-0.969375 -2.796294,0.692676 -1.804543,1.763824 0.489719,0.528924 1.556719,0.632905 2.00439,0.195343 z M 8.7974284,17.740173 c -1.3277849,-1.354637 -0.480601,-3.433784 1.3991536,-3.433784 1.190336,0 2.04593,0.848071 2.04593,2.027945 0,1.907966 -2.109248,2.76869 -3.4450836,1.405839 z m 2.1880386,-0.412181 c 1.051437,-0.719841 0.518154,-2.221694 -0.788885,-2.221694 -0.8714946,0 -1.3238364,0.472483 -1.3238364,1.382791 0,0.461342 0.8170558,1.205141 1.3238364,1.205141 0.139663,0 0.494661,-0.164815 0.788885,-0.366238 z m 13.45547,9.092036 c 1.897931,-1.302794 2.838374,-2.29425 3.478857,-3.667563 0.3959,-0.848889 0.439411,-1.698313 0.44418,-8.671934 l 0.0055,-7.7308678 -1.044805,1.378665 c -0.574641,0.758265 -1.928566,2.200266 -3.00872,3.2044468 l -1.963919,1.825782 0,7.408439 c 0,4.074642 0.09132,7.408436 0.20295,7.408436 0.111611,0 0.960401,-0.519933 1.886173,-1.155404 z M 23.30248,10.764126 c 1.827519,-1.5469198 3.479918,-3.4022908 4.116749,-4.6224206 0.912525,-1.7483296 1.766597,-1.6224128 -11.004624,-1.6224128 -6.31029,0 -11.4017035,0.069926 -11.3142511,0.1554209 0.087461,0.085479 1.0868206,0.5592006 2.2208171,1.0527129 1.1339948,0.4935115 2.3407144,1.1117278 2.681594,1.3738168 0.340881,0.262088 0.827183,0.476523 1.080673,0.476523 0.253486,0 0.795463,0.169112 1.20439,0.375804 0.580562,0.293446 0.870549,0.319227 1.323211,0.117635 1.368703,-0.609555 3.057429,0.148898 3.250588,1.459922 0.05728,0.388752 0.602884,0.7349998 2.361119,1.4983828 1.257645,0.54604 2.348854,0.998541 2.424906,1.005562 0.07606,0.0069 0.820723,-0.564905 1.654828,-1.270941 z m -7.648978,-0.04673 c 0.499868,-0.442164 0.582966,-1.4943568 0.151339,-1.9162478 -0.713364,-0.697265 -2.358839,-0.02008 -2.358839,0.970769 0,1.1276238 1.348604,1.7052368 2.207502,0.9454818 z"
       id="path3557"
       inkscape:connector-curvature="0" />
  </g>
</svg>
