<?xml version="1.0" encoding="UTF-8" standalone="no"?>
<!-- Created with Inkscape (http://www.inkscape.org/) -->

<svg
   xmlns:dc="http://purl.org/dc/elements/1.1/"
   xmlns:cc="http://creativecommons.org/ns#"
   xmlns:rdf="http://www.w3.org/1999/02/22-rdf-syntax-ns#"
   xmlns:svg="http://www.w3.org/2000/svg"
   xmlns="http://www.w3.org/2000/svg"
   xmlns:sodipodi="http://sodipodi.sourceforge.net/DTD/sodipodi-0.dtd"
   xmlns:inkscape="http://www.inkscape.org/namespaces/inkscape"
   width="32px"
   height="32px"
   id="svg3032"
   version="1.1"
   inkscape:version="0.48.3.1 r9886"
   sodipodi:docname="New document 2">
  <defs
     id="defs3034" />
  <sodipodi:namedview
     id="base"
     pagecolor="#ffffff"
     bordercolor="#666666"
     borderopacity="1.0"
     inkscape:pageopacity="0.0"
     inkscape:pageshadow="2"
     inkscape:zoom="11.197802"
     inkscape:cx="16"
     inkscape:cy="15.151619"
     inkscape:current-layer="layer1"
     showgrid="true"
     inkscape:grid-bbox="true"
     inkscape:document-units="px"
     inkscape:window-width="685"
     inkscape:window-height="586"
     inkscape:window-x="307"
     inkscape:window-y="47"
     inkscape:window-maximized="0" />
  <metadata
     id="metadata3037">
    <rdf:RDF>
      <cc:Work
         rdf:about="">
        <dc:format>image/svg+xml</dc:format>
        <dc:type
           rdf:resource="http://purl.org/dc/dcmitype/StillImage" />
        <dc:title></dc:title>
      </cc:Work>
    </rdf:RDF>
  </metadata>
  <g
     id="layer1"
     inkscape:label="Layer 1"
     inkscape:groupmode="layer">
    <g
       transform="matrix(0.93006938,0,0,0.88558022,1.0515824,-901.76825)"
       id="g3007">
      <path
         transform="matrix(0.04704436,-0.04281602,0.04281602,0.04704436,-6.9406445,1044.1834)"
         d="m 113.53775,95.709503 c 0,8.809817 -6.93172,15.951587 -15.482422,15.951587 -8.550704,0 -15.48242,-7.14177 -15.48242,-15.951587 0,-8.809816 6.931716,-15.951584 15.48242,-15.951584 8.550702,0 15.482422,7.141768 15.482422,15.951584 z"
         sodipodi:ry="15.951584"
         sodipodi:rx="15.48242"
         sodipodi:cy="95.709503"
         sodipodi:cx="98.055328"
         id="path2619"
         style="fill:#f9f9f9;stroke:none"
         sodipodi:type="arc" />
      <path
         inkscape:connector-curvature="0"
         style="fill:#ac39ac;fill-opacity:0.44392521;fill-rule:evenodd;stroke:none;stroke-width:0.65894747;marker:none;visibility:visible;display:inline;overflow:visible;enable-background:accumulate"
         d="m 24.325737,1028.296 c 2.79663,3.0599 1.499444,8.8034 -2.895496,12.8203 -4.394943,4.0169 -10.231582,4.7939 -13.0282069,1.7341 -2.7966299,-3.0599 -1.499447,-8.8034 2.8954919,-12.8203 4.376307,-3.9999 10.180427,-4.7908 12.994287,-1.7708 l 0.03392,0.037 z"
         id="path6298"
         sodipodi:nodetypes="cssscc" />
      <path
         inkscape:connector-curvature="0"
         sodipodi:nodetypes="ccccc"
         id="path6296"
         d="m 8.5509355,1033.5377 c 4.4458855,1.6297 8.0375165,4.5012 9.6760305,10.2119 l 5.787562,-5.9854 c -1.265985,-5.1291 -4.484051,-8.3621 -9.646455,-9.7068 l -5.8171375,5.4803 z"
         style="fill:#483737;fill-opacity:1;fill-rule:evenodd;stroke:none" />
      <path
         inkscape:connector-curvature="0"
         sodipodi:nodetypes="cssscc"
         id="path5784"
         d="m 24.387462,1028.2846 c 2.796628,3.0598 1.499443,8.8032 -2.895494,12.8203 -4.394947,4.0169 -10.231583,4.7937 -13.0282084,1.734 -2.7966301,-3.0598 -1.4994471,-8.8032 2.8954914,-12.8201 4.376308,-4.0001 10.180427,-4.7911 12.994287,-1.7708 l 0.03392,0.037 z"
         style="fill:none;stroke:none;stroke-width:0;marker:none;visibility:visible;display:inline;overflow:visible;enable-background:accumulate" />
      <path
         inkscape:connector-curvature="0"
         sodipodi:nodetypes="ccssscc"
         id="path6310"
         d="m 24.043614,1028.2825 c 2.78506,1.223 7.001742,0.6051 8.407837,-0.9842 -0.718346,-0.1506 -1.396303,-0.8778 -1.813767,-1.7174 -0.438138,-0.8813 -0.04022,-2.0289 -0.784689,-2.7101 -0.85002,-0.7778 -2.032679,-0.3507 -2.933755,-0.818 -0.792904,-0.4114 -1.048784,-1.28 -1.870215,-2.2439 -1.968227,2.6595 -1.795637,5.8475 -1.005411,8.4736 z"
         style="fill:#483737;fill-opacity:1;fill-rule:evenodd;stroke:none" />
      <path
         inkscape:connector-curvature="0"
         style="fill:#483737;fill-opacity:1;fill-rule:evenodd;stroke:none"
         d="m 8.939499,1043.3417 c -2.7775136,-1.2401 -6.9979024,-0.6479 -8.41370593,0.9327 0.71740903,0.1549 1.39089633,0.8863 1.80320683,1.7285 0.4327336,0.8838 0.02781,2.0288 0.7680753,2.7146 0.8452377,0.7831 2.0304903,0.3632 2.9286873,0.8361 0.7903686,0.4162 1.040922,1.2864 1.8564315,2.2553 1.9844807,-2.6473 1.8314263,-5.8363 1.057305,-8.4672 z"
         id="path6312"
         sodipodi:nodetypes="ccssscc" />
    </g>
  </g>
</svg>
