<?xml version="1.0" encoding="UTF-8" standalone="no"?>
<!-- Created with Inkscape (http://www.inkscape.org/) -->

<svg
   xmlns:dc="http://purl.org/dc/elements/1.1/"
   xmlns:cc="http://creativecommons.org/ns#"
   xmlns:rdf="http://www.w3.org/1999/02/22-rdf-syntax-ns#"
   xmlns:svg="http://www.w3.org/2000/svg"
   xmlns="http://www.w3.org/2000/svg"
   xmlns:sodipodi="http://sodipodi.sourceforge.net/DTD/sodipodi-0.dtd"
   xmlns:inkscape="http://www.inkscape.org/namespaces/inkscape"
   width="32px"
   height="32px"
   id="svg2993"
   version="1.1"
   inkscape:version="0.48.3.1 r9886"
   sodipodi:docname="New document 2">
  <defs
     id="defs2995" />
  <sodipodi:namedview
     id="base"
     pagecolor="#ffffff"
     bordercolor="#666666"
     borderopacity="1.0"
     inkscape:pageopacity="0.0"
     inkscape:pageshadow="2"
     inkscape:zoom="11.197802"
     inkscape:cx="16"
     inkscape:cy="15.151619"
     inkscape:current-layer="layer1"
     showgrid="true"
     inkscape:grid-bbox="true"
     inkscape:document-units="px"
     inkscape:window-width="1360"
     inkscape:window-height="718"
     inkscape:window-x="0"
     inkscape:window-y="0"
     inkscape:window-maximized="1" />
  <metadata
     id="metadata2998">
    <rdf:RDF>
      <cc:Work
         rdf:about="">
        <dc:format>image/svg+xml</dc:format>
        <dc:type
           rdf:resource="http://purl.org/dc/dcmitype/StillImage" />
        <dc:title></dc:title>
      </cc:Work>
    </rdf:RDF>
  </metadata>
  <g
     id="layer1"
     inkscape:label="Layer 1"
     inkscape:groupmode="layer">
    <path
       style="fill:#333333"
       d="M 2.6459515,30.234566 1.643195,28.6705 1.5538918,16.409377 C 1.4652796,4.2431356 0.9839795,2.8302833 2.2081001,2.0555774 l 1.1900278,-0.7531297 13.0236901,0 c 12.671117,0 13.046633,0.025922 13.871244,0.9575129 0.778922,0.8799764 0.85861,1.9030597 0.984076,12.6345194 0.07509,6.422353 0.01584,12.343689 -0.131716,13.158524 -0.147534,0.814834 -0.697197,1.890476 -1.221474,2.390314 -0.906137,0.863898 -1.576531,0.908797 -13.569583,0.908797 -5.487596,-0.162148 -9.5421061,0.979797 -13.7084135,-1.117549 z m 8.5852245,-3.170274 c 0.123612,-0.126498 1.445544,-10.13863 1.445544,-10.948359 0,-0.315003 -1.226457,-0.496893 -3.3504832,-0.496893 -3.3434807,0 -3.3500367,0.0024 -3.13655,1.150892 0.1176634,0.632991 0.4491869,3.097292 0.7367202,5.476223 0.5704598,4.719767 1.156257,5.712457 3.079922,5.219222 0.611254,-0.156729 1.162436,-0.337216 1.224847,-0.401085 z m 13.013287,-0.204201 2.447023,-0.291648 0.121732,-7.852369 0.121737,-7.852368 -3.514199,0 c -1.93281,0 -4.139855,0.128053 -4.904549,0.284561 l -1.390355,0.284561 0,7.834919 c 0,4.309207 0.10799,7.945433 0.239983,8.080503 0.231137,0.236534 1.632898,0.137055 6.878628,-0.488159 z m -8.10908,-16.069673 c -1.567763,-1.0182002 -1.67901,-0.534359 -1.67901,7.302522 0,7.463915 0.02874,7.704075 1.001056,8.365262 l 1.001054,0.68073 0.121813,-7.990223 c 0.09278,-6.086074 -0.01326,-8.077938 -0.444913,-8.358291 z m -3.709932,3.76338 c 0.35234,-0.583405 -0.854772,-0.958304 -3.0855789,-0.958304 -2.4427152,0 -3.6631108,0.418773 -2.8180119,0.966985 0.793061,0.514454 5.5919118,0.507398 5.9035908,-0.0086 z m 12.806261,-4.6006881 1.29791,0 -0.950419,-1.3658943 C 24.644632,7.2440991 24.562519,7.2213223 20.654859,7.2213223 c -4.190146,0 -4.249983,0.036182 -3.677918,2.2236376 0.276131,1.0558561 0.374648,1.0775381 3.62036,0.7967711 1.835076,-0.158741 3.920561,-0.2886211 4.634411,-0.2886211 z M 16.236027,9.0693843 c 0,-0.7632723 -0.789076,-0.9522715 -1.051699,-0.2519044 -0.154964,0.4132554 0.0014,0.6803322 0.39829,0.6803322 0.359375,0 0.653409,-0.1927921 0.653409,-0.4284278 z m 8.008436,-3.4416051 c 0,-0.5564756 -0.741523,-0.6829475 -4.004218,-0.6829475 -3.2627,0 -4.004218,0.1264719 -4.004218,0.6829475 0,0.5564748 0.741518,0.6829467 4.004218,0.6829467 3.262695,0 4.004218,-0.1264719 4.004218,-0.6829467 z"
       id="path3664"
       inkscape:connector-curvature="0"
       sodipodi:nodetypes="ccsscssscsccsssssssscccsscscscsscsccssccscssssssssssssss" />
  </g>
</svg>
