<?xml version="1.0" encoding="UTF-8" standalone="no"?>
<!-- Created with Inkscape (http://www.inkscape.org/) -->

<svg
   xmlns:dc="http://purl.org/dc/elements/1.1/"
   xmlns:cc="http://creativecommons.org/ns#"
   xmlns:rdf="http://www.w3.org/1999/02/22-rdf-syntax-ns#"
   xmlns:svg="http://www.w3.org/2000/svg"
   xmlns="http://www.w3.org/2000/svg"
   xmlns:sodipodi="http://sodipodi.sourceforge.net/DTD/sodipodi-0.dtd"
   xmlns:inkscape="http://www.inkscape.org/namespaces/inkscape"
   width="32px"
   height="32px"
   id="svg3013"
   version="1.1"
   inkscape:version="0.48.3.1 r9886"
   sodipodi:docname="New document 2">
  <defs
     id="defs3015" />
  <sodipodi:namedview
     id="base"
     pagecolor="#ffffff"
     bordercolor="#666666"
     borderopacity="1.0"
     inkscape:pageopacity="0.0"
     inkscape:pageshadow="2"
     inkscape:zoom="11.197802"
     inkscape:cx="16"
     inkscape:cy="15.178857"
     inkscape:current-layer="layer1"
     showgrid="true"
     inkscape:grid-bbox="true"
     inkscape:document-units="px"
     inkscape:window-width="891"
     inkscape:window-height="599"
     inkscape:window-x="133"
     inkscape:window-y="32"
     inkscape:window-maximized="0" />
  <metadata
     id="metadata3018">
    <rdf:RDF>
      <cc:Work
         rdf:about="">
        <dc:format>image/svg+xml</dc:format>
        <dc:type
           rdf:resource="http://purl.org/dc/dcmitype/StillImage" />
        <dc:title></dc:title>
      </cc:Work>
    </rdf:RDF>
  </metadata>
  <g
     id="layer1"
     inkscape:label="Layer 1"
     inkscape:groupmode="layer">
    <g
       style="display:inline"
       id="fast-food-24"
       inkscape:label="fast-food-24"
       transform="matrix(1.6347308,0,0,1.5751952,-524.14567,-1771.0504)"
       inkscape:export-xdpi="89.996864"
       inkscape:export-ydpi="89.996864">
      <g
         id="g16674">
        <path
           inkscape:connector-curvature="0"
           id="path15021"
           d="m 328,1127.3622 c -3,0 -6,1.5 -6,4 l 0,2 17,0 0,-2 c -2e-5,-2.5 -3,-4 -6,-4 z m 0.5,1 c 0.277,0 0.5,0.223 0.5,0.5 0,0.277 -0.223,0.5 -0.5,0.5 -0.277,0 -0.5,-0.223 -0.5,-0.5 0,-0.277 0.223,-0.5 0.5,-0.5 z m 4,0 c 0.277,0 0.5,0.223 0.5,0.5 0,0.277 -0.223,0.5 -0.5,0.5 -0.277,0 -0.5,-0.223 -0.5,-0.5 0,-0.277 0.223,-0.5 0.5,-0.5 z m -6,2 c 0.277,0 0.5,0.223 0.5,0.5 0,0.277 -0.223,0.5 -0.5,0.5 -0.277,0 -0.5,-0.223 -0.5,-0.5 0,-0.277 0.223,-0.5 0.5,-0.5 z m 4,0 c 0.277,0 0.5,0.223 0.5,0.5 0,0.277 -0.223,0.5 -0.5,0.5 -0.277,0 -0.5,-0.223 -0.5,-0.5 0,-0.277 0.223,-0.5 0.5,-0.5 z m 4,0 c 0.277,0 0.5,0.223 0.5,0.5 0,0.277 -0.223,0.5 -0.5,0.5 -0.277,0 -0.5,-0.223 -0.5,-0.5 0,-0.277 0.223,-0.5 0.5,-0.5 z m -12.5,4 c -0.50003,0 -1.00001,0.5 -1,1 10e-6,0.5 0.49997,1 1,1 l 17,0 c 0.50001,0 0.99999,-0.5 1,-1 2e-5,-0.5 -0.49999,-1 -1,-1 z m 0,3 0,1 c 0,1 1,2 2,2 l 13,0 c 1,0 2,-1 2,-2 l 0,-1 z"
           style="opacity:0.3;color:#000000;fill:none;stroke:#ffffff;stroke-width:2;stroke-linecap:round;stroke-linejoin:round;stroke-miterlimit:4;stroke-opacity:1;stroke-dasharray:none;stroke-dashoffset:0;marker:none;visibility:visible;display:inline;overflow:visible;enable-background:accumulate"
           sodipodi:nodetypes="ssccsssssssssssssssssssssssssssssssscsscsssscc" />
        <path
           sodipodi:nodetypes="ssccsssssssssssssssssssssssssssssssscsscsssscc"
           style="color:#000000;fill:#444444;fill-opacity:1;stroke:none;stroke-width:2;marker:none;visibility:visible;display:inline;overflow:visible;enable-background:accumulate"
           d="m 328,1127.3622 c -3,0 -6,1.5 -6,4 l 0,2 17,0 0,-2 c -2e-5,-2.5 -3,-4 -6,-4 z m 0.5,1 c 0.277,0 0.5,0.223 0.5,0.5 0,0.277 -0.223,0.5 -0.5,0.5 -0.277,0 -0.5,-0.223 -0.5,-0.5 0,-0.277 0.223,-0.5 0.5,-0.5 z m 4,0 c 0.277,0 0.5,0.223 0.5,0.5 0,0.277 -0.223,0.5 -0.5,0.5 -0.277,0 -0.5,-0.223 -0.5,-0.5 0,-0.277 0.223,-0.5 0.5,-0.5 z m -6,2 c 0.277,0 0.5,0.223 0.5,0.5 0,0.277 -0.223,0.5 -0.5,0.5 -0.277,0 -0.5,-0.223 -0.5,-0.5 0,-0.277 0.223,-0.5 0.5,-0.5 z m 4,0 c 0.277,0 0.5,0.223 0.5,0.5 0,0.277 -0.223,0.5 -0.5,0.5 -0.277,0 -0.5,-0.223 -0.5,-0.5 0,-0.277 0.223,-0.5 0.5,-0.5 z m 4,0 c 0.277,0 0.5,0.223 0.5,0.5 0,0.277 -0.223,0.5 -0.5,0.5 -0.277,0 -0.5,-0.223 -0.5,-0.5 0,-0.277 0.223,-0.5 0.5,-0.5 z m -12.5,4 c -0.50003,0 -1.00001,0.5 -1,1 10e-6,0.5 0.49997,1 1,1 l 17,0 c 0.50001,0 0.99999,-0.5 1,-1 0,-0.5 -0.5,-1 -1,-1 z m 0,3 0,1 c 0,1 1,2 2,2 l 13,0 c 1,0 2,-1 2,-2 l 0,-1 z"
           id="rect13326-2-5-2-3"
           inkscape:connector-curvature="0" />
      </g>
      <rect
         y="1122.3622"
         x="318"
         height="24.000017"
         width="24"
         id="rect22300-6"
         style="opacity:0.5;color:#000000;fill:none;stroke:none;stroke-width:2;marker:none;visibility:visible;display:inline;overflow:visible;enable-background:accumulate" />
    </g>
  </g>
</svg>
