<?xml version="1.0" encoding="UTF-8" standalone="no"?>
<!-- Created with Inkscape (http://www.inkscape.org/) -->

<svg
   xmlns:dc="http://purl.org/dc/elements/1.1/"
   xmlns:cc="http://creativecommons.org/ns#"
   xmlns:rdf="http://www.w3.org/1999/02/22-rdf-syntax-ns#"
   xmlns:svg="http://www.w3.org/2000/svg"
   xmlns="http://www.w3.org/2000/svg"
   xmlns:sodipodi="http://sodipodi.sourceforge.net/DTD/sodipodi-0.dtd"
   xmlns:inkscape="http://www.inkscape.org/namespaces/inkscape"
   width="32px"
   height="32px"
   id="svg2994"
   version="1.1"
   inkscape:version="0.48.3.1 r9886"
   sodipodi:docname="New document 2">
  <defs
     id="defs2996" />
  <sodipodi:namedview
     id="base"
     pagecolor="#ffffff"
     bordercolor="#666666"
     borderopacity="1.0"
     inkscape:pageopacity="0.0"
     inkscape:pageshadow="2"
     inkscape:zoom="11.197802"
     inkscape:cx="16"
     inkscape:cy="11.57949"
     inkscape:current-layer="layer1"
     showgrid="true"
     inkscape:grid-bbox="true"
     inkscape:document-units="px"
     inkscape:window-width="692"
     inkscape:window-height="533"
     inkscape:window-x="243"
     inkscape:window-y="148"
     inkscape:window-maximized="0" />
  <metadata
     id="metadata2999">
    <rdf:RDF>
      <cc:Work
         rdf:about="">
        <dc:format>image/svg+xml</dc:format>
        <dc:type
           rdf:resource="http://purl.org/dc/dcmitype/StillImage" />
        <dc:title></dc:title>
      </cc:Work>
    </rdf:RDF>
  </metadata>
  <g
     id="layer1"
     inkscape:label="Layer 1"
     inkscape:groupmode="layer">
    <path
       style="fill:#333333"
       d="M 2.8451617,28.79657 C 1.9112677,27.832978 1.8899673,27.544407 1.8899673,15.855844 c 0,-11.1364986 0.057504,-12.0239975 0.8398032,-12.9604566 l 0.8398023,-1.0052992 12.8175722,0 12.817572,0 0.8398,1.0052992 c 0.78178,0.9358437 0.839804,1.8218565 0.839804,12.8240166 0,11.311882 -0.03905,11.866833 -0.910502,12.940726 l -0.910503,1.122009 -12.631479,0 -12.6314809,0 -0.9551944,-0.985569 z m 7.6113193,-8.210864 c 0,-4.100895 -0.159569,-5.76322 -0.6029271,-6.281034 -0.8016878,-0.936323 -4.1275563,-0.954103 -4.9219202,-0.02632 -0.616588,0.720154 -1.1833513,10.202701 -0.6850416,11.461444 0.214687,0.542302 0.8507825,0.650095 3.2385241,0.548805 l 2.9713648,-0.126048 0,-5.576854 z m -5.643132,4.618729 c -0.1119974,-0.175655 1.0435908,-0.319373 2.5679732,-0.319373 1.5243822,0 2.6799708,0.143718 2.5679739,0.319373 -0.1119973,0.175657 -1.2675854,0.319376 -2.5679739,0.319376 -1.3003887,0 -2.4559768,-0.143719 -2.5679732,-0.319376 z M 5.2265799,23.705551 C 5.0273906,23.291029 4.8376549,21.566406 4.8049446,19.873056 l -0.059477,-3.078819 2.6358504,0 2.6358504,0 0.132785,2.235623 0.132786,2.235622 -2.1929817,0 -2.1929808,0 -0.1540189,1.596874 C 5.6246739,24.08665 5.5042401,24.283382 5.2265753,23.705551 z m 0.6171627,-4.356317 c 0,-1.053936 -0.1976884,-1.916247 -0.4393087,-1.916247 -0.2416185,0 -0.4393078,0.862311 -0.4393078,1.916247 0,1.053937 0.1976893,1.916248 0.4393078,1.916248 0.2416203,0 0.4393087,-0.862311 0.4393087,-1.916248 z m 0.088,-4.492894 C 5.637626,14.399832 5.5798753,14.026324 5.8034073,14.026324 c 0.223532,0 0.5217399,0.239531 0.6626855,0.532291 0.1984494,0.412205 0.3178146,0.401335 0.5290959,-0.04818 0.2303446,-0.490079 0.3329646,-0.490079 0.6589632,0 0.3212947,0.483008 0.4587639,0.473223 0.8187102,-0.05828 0.2379199,-0.351311 0.4356092,-0.422681 0.4393087,-0.158599 0.00367,0.264083 -0.2898054,0.718702 -0.6522359,1.010265 -0.5257267,0.422931 -0.6589621,0.422931 -0.6589621,0 0,-0.384832 -0.1554565,-0.405055 -0.5672372,-0.07379 -0.4212221,0.33886 -0.7048889,0.242668 -1.1019932,-0.373693 z M 20.314647,25.974394 c 0.544647,-0.334042 0.493739,-1.177559 -0.365825,-6.061598 -0.549185,-3.120456 -1.278695,-6.09797 -1.621135,-6.616697 -0.72426,-1.09711 -0.821667,-2.932762 -0.176143,-3.3194805 0.883566,-0.5293231 -0.09596,-1.0602882 -1.956017,-1.0602882 l -1.896998,0 0.222425,1.9128107 c 0.122333,1.052046 0.02088,2.153889 -0.225466,2.448538 -0.24634,0.294651 -0.911575,3.179225 -1.478302,6.410166 -0.902018,5.14246 -0.949073,5.924289 -0.377633,6.274514 0.837367,0.513207 7.042487,0.522689 7.875094,0.01204 z m -7.658514,-0.871539 c -0.153907,-0.241387 0.02244,-0.312777 0.413382,-0.167357 0.731636,0.272143 0.715933,0.382479 0.885884,-6.225013 0.118725,-4.615915 0.386372,-5.186398 2.3585,-5.027084 1.541134,0.124495 1.63088,0.220266 2.117055,2.25917 0.851658,3.571657 0.834284,3.61958 -1.312227,3.61958 l -1.904267,0 -0.424048,2.750398 -0.424047,2.7504 2.87745,0.147026 c 2.818343,0.144008 2.803534,0.148741 -0.720917,0.230432 -1.996661,0.04627 -3.717836,-0.103972 -3.866765,-0.337552 z m 2.947066,-7.676462 c 0.17977,-1.020755 0.232012,-1.947852 0.116092,-2.060216 -0.416076,-0.403314 -0.793231,0.388182 -1.090882,2.289319 -0.399948,2.554523 0.522744,2.337665 0.97479,-0.229103 z m 12.864925,3.159313 c 0,-4.100895 -0.15957,-5.76322 -0.602924,-6.281034 -0.80169,-0.936323 -4.127558,-0.954103 -4.921923,-0.02632 -0.616587,0.720154 -1.18335,10.202701 -0.685041,11.461444 0.214687,0.542302 0.850783,0.650095 3.238525,0.548805 l 2.971363,-0.126048 0,-5.576854 z m -5.643131,4.618729 c -0.111997,-0.175655 1.043591,-0.319373 2.567973,-0.319373 1.524382,0 2.67997,0.143718 2.567972,0.319373 -0.111997,0.175657 -1.267584,0.319376 -2.567972,0.319376 -1.300388,0 -2.455975,-0.143719 -2.567973,-0.319376 z m 0.530032,-1.171039 C 23.200637,23.799188 23.002947,22.074565 22.915717,20.2009 l -0.158601,-3.406663 2.63585,0 c 2.63585,0 2.63585,0 2.63585,1.277498 0,1.221929 -0.09077,1.283145 -2.086715,1.40729 -1.97983,0.123142 -2.086713,0.07406 -2.086713,-0.958125 0,-0.598352 -0.19769,-1.087913 -0.439309,-1.087913 -0.581752,0 -0.563853,1.412273 0.02513,1.983193 0.255443,0.247608 0.403709,1.483587 0.329481,2.746622 -0.07423,1.263035 -0.261278,2.104802 -0.415668,1.870594 z M 23.94339,14.85634 c -0.294116,-0.456508 -0.351867,-0.830016 -0.128335,-0.830016 0.223532,0 0.521739,0.239531 0.662688,0.532291 0.198448,0.412205 0.317812,0.401335 0.529094,-0.04818 0.230346,-0.490079 0.332964,-0.490079 0.658961,0 0.321297,0.483008 0.458766,0.473223 0.818713,-0.05828 0.237921,-0.351311 0.432578,-0.447124 0.432578,-0.212916 0,0.858515 -0.737212,1.609765 -1.069012,1.089367 -0.211854,-0.332272 -0.485116,-0.354059 -0.841803,-0.06712 -0.370574,0.298116 -0.687658,0.177248 -1.062884,-0.405155 z"
       id="path3794"
       inkscape:connector-curvature="0" />
  </g>
</svg>
