<?xml version="1.0" encoding="UTF-8" standalone="no"?>
<!-- Created with Inkscape (http://www.inkscape.org/) -->

<svg
   xmlns:dc="http://purl.org/dc/elements/1.1/"
   xmlns:cc="http://creativecommons.org/ns#"
   xmlns:rdf="http://www.w3.org/1999/02/22-rdf-syntax-ns#"
   xmlns:svg="http://www.w3.org/2000/svg"
   xmlns="http://www.w3.org/2000/svg"
   xmlns:sodipodi="http://sodipodi.sourceforge.net/DTD/sodipodi-0.dtd"
   xmlns:inkscape="http://www.inkscape.org/namespaces/inkscape"
   width="32px"
   height="32px"
   id="svg3015"
   version="1.1"
   inkscape:version="0.48.3.1 r9886"
   sodipodi:docname="New document 2">
  <defs
     id="defs3017" />
  <sodipodi:namedview
     id="base"
     pagecolor="#ffffff"
     bordercolor="#666666"
     borderopacity="1.0"
     inkscape:pageopacity="0.0"
     inkscape:pageshadow="2"
     inkscape:zoom="11.197802"
     inkscape:cx="16"
     inkscape:cy="15.151619"
     inkscape:current-layer="layer1"
     showgrid="true"
     inkscape:grid-bbox="true"
     inkscape:document-units="px"
     inkscape:window-width="1072"
     inkscape:window-height="527"
     inkscape:window-x="240"
     inkscape:window-y="203"
     inkscape:window-maximized="0" />
  <metadata
     id="metadata3020">
    <rdf:RDF>
      <cc:Work
         rdf:about="">
        <dc:format>image/svg+xml</dc:format>
        <dc:type
           rdf:resource="http://purl.org/dc/dcmitype/StillImage" />
        <dc:title></dc:title>
      </cc:Work>
    </rdf:RDF>
  </metadata>
  <g
     id="layer1"
     inkscape:label="Layer 1"
     inkscape:groupmode="layer">
    <g
       style="display:inline"
       id="fuel-24"
       transform="matrix(1.3125613,0,0,1.3311659,-110.28852,-1557.6823)"
       inkscape:label="fuel-24"
       inkscape:export-xdpi="89.996864"
       inkscape:export-ydpi="89.996864">
      <g
         transform="translate(0,4)"
         id="g15942">
        <g
           id="g13121"
           style="opacity:0.3;color:#000000;fill:#ffffff;fill-opacity:1;fill-rule:nonzero;stroke:#ffffff;stroke-width:2;stroke-linecap:butt;stroke-linejoin:round;stroke-miterlimit:4;stroke-opacity:1;stroke-dasharray:none;stroke-dashoffset:0;marker:none;visibility:visible;display:inline;overflow:visible;enable-background:accumulate"
           transform="translate(83,162)" />
        <g
           transform="translate(83,162)"
           style="display:inline"
           id="g7283-3-3-2">
          <path
             sodipodi:nodetypes="scccccccccscsccccssscccccccsccccsscc"
             style="opacity:0.3;color:#000000;fill:#ffffff;fill-opacity:1;fill-rule:nonzero;stroke:#ffffff;stroke-width:2;stroke-linecap:round;stroke-linejoin:round;marker:none;visibility:visible;display:inline;overflow:visible;enable-background:accumulate"
             d="m 9,1007.3622 c -0.5540096,0 -1,0.446 -1,1 l 0,16 c 0,0.5 0.5,1 1,1 l 9,0 c 0.5,0 1,-0.5 1,-1 l 0,-5 0.5,0 c 0.5,0 0.5,0.5 0.5,0.5 l 0,2 c 0,1 0.5,1.5 1.5,1.5 1,0 1.5,-0.5 1.5,-1.5 0,-1.1667 0,-4.5 0,-5.5 0,-1 -2,-2 -2,-3 l 0,-3 -1,0 -1,-1 0,-1 c 0,-0.554 -0.44599,-1 -1,-1 z m 1,2 7,0 0,4 -7,0 z m 9,3 1,0 c 0,0 0,0.8333 0,1.5 0,1 2,2 2,3 l 0,5 c 0,0.5 -0.5,0.5 -0.5,0.5 0,0 -0.5,0 -0.5,-0.5 0,0 0,-2 0,-2.5 0,-0.5 -0.5,-1 -1,-1 -0.333333,0 -1,0 -1,0 z"
             id="path21806"
             inkscape:connector-curvature="0" />
          <path
             inkscape:connector-curvature="0"
             id="rect7223-2-4-9"
             d="m 9,1007.3622 c -0.5540096,0 -1,0.446 -1,1 l 0,16 c 0,0.5 0.5,1 1,1 l 9,0 c 0.5,0 1,-0.5 1,-1 l 0,-5 0.5,0 c 0.5,0 0.5,0.5 0.5,0.5 l 0,2 c 0,1 0.5,1.5 1.5,1.5 1,0 1.5,-0.5 1.5,-1.5 0,-1.1667 0,-4.5 0,-5.5 0,-1 -2,-2 -2,-3 l 0,-3 -1,0 -1,-1 0,-1 c 0,-0.554 -0.44599,-1 -1,-1 z m 1,2 7,0 0,4 -7,0 z m 9,3 1,0 c 0,0 0,0.8333 0,1.5 0,1 2,2 2,3 l 0,5 c 0,0.5 -0.5,0.5 -0.5,0.5 0,0 -0.5,0 -0.5,-0.5 0,0 0,-2 0,-2.5 0,-0.5 -0.5,-1 -1,-1 -0.333333,0 -1,0 -1,0 z"
             style="color:#000000;fill:#444444;fill-opacity:1;fill-rule:nonzero;stroke:none;stroke-width:2;marker:none;visibility:visible;display:inline;overflow:visible;enable-background:accumulate"
             sodipodi:nodetypes="scccccccccscsccccssscccccccsccccsscc" />
        </g>
      </g>
      <rect
         style="opacity:0.5;color:#000000;fill:none;stroke:none;stroke-width:2;marker:none;visibility:visible;display:inline;overflow:visible;enable-background:accumulate"
         id="rect22176"
         width="24"
         height="24.000017"
         x="84"
         y="1170.3622" />
    </g>
  </g>
</svg>
