<?xml version="1.0" encoding="UTF-8" standalone="no"?>
<!-- Created with Inkscape (http://www.inkscape.org/) -->

<svg
   xmlns:dc="http://purl.org/dc/elements/1.1/"
   xmlns:cc="http://creativecommons.org/ns#"
   xmlns:rdf="http://www.w3.org/1999/02/22-rdf-syntax-ns#"
   xmlns:svg="http://www.w3.org/2000/svg"
   xmlns="http://www.w3.org/2000/svg"
   xmlns:sodipodi="http://sodipodi.sourceforge.net/DTD/sodipodi-0.dtd"
   xmlns:inkscape="http://www.inkscape.org/namespaces/inkscape"
   width="32px"
   height="32px"
   id="svg3026"
   version="1.1"
   inkscape:version="0.48.3.1 r9886"
   sodipodi:docname="New document 2">
  <defs
     id="defs3028" />
  <sodipodi:namedview
     id="base"
     pagecolor="#ffffff"
     bordercolor="#666666"
     borderopacity="1.0"
     inkscape:pageopacity="0.0"
     inkscape:pageshadow="2"
     inkscape:zoom="25.229"
     inkscape:cx="17.95161"
     inkscape:cy="16.961177"
     inkscape:current-layer="layer1"
     showgrid="true"
     inkscape:grid-bbox="true"
     inkscape:document-units="px"
     inkscape:window-width="1360"
     inkscape:window-height="718"
     inkscape:window-x="0"
     inkscape:window-y="0"
     inkscape:window-maximized="1" />
  <metadata
     id="metadata3031">
    <rdf:RDF>
      <cc:Work
         rdf:about="">
        <dc:format>image/svg+xml</dc:format>
        <dc:type
           rdf:resource="http://purl.org/dc/dcmitype/StillImage" />
        <dc:title></dc:title>
      </cc:Work>
    </rdf:RDF>
  </metadata>
  <g
     id="layer1"
     inkscape:label="Layer 1"
     inkscape:groupmode="layer">
    <g
       id="g8499"
       transform="matrix(2.3732943,0,0,1.9417097,-667.96522,-549.2987)"
       style="fill:#333333">
      <path
         id="path6571"
         d="m 293.808,285.16 c 0,0 -1.134,3.843 -4.465,2.697 -0.001,0.003 0.401,-3.347 4.465,-2.697 z"
         inkscape:connector-curvature="0"
         style="fill:#333333" />
      <path
         id="path6573"
         d="m 288.224,289.914 c 0.576,-0.569 1.362,-0.913 2.234,-0.913 1.761,0 3.194,1.427 3.194,3.191 0,0.065 0,0.121 -0.003,0.188 h -0.007 c -0.056,0.69 -0.275,1.548 -0.795,2.612 0,0 -0.895,1.712 -1.612,2.498 l -0.065,0.062 c -0.347,0.35 -0.835,0.569 -1.365,0.569 -0.65,0 -1.226,-0.316 -1.576,-0.805 h -0.009 c -0.35,0.488 -0.925,0.805 -1.575,0.805 -0.536,0 -1.019,-0.217 -1.368,-0.569 l -0.065,-0.062 c -0.712,-0.786 -1.613,-2.498 -1.613,-2.498 -0.52,-1.064 -0.74,-1.928 -0.789,-2.612 h -0.016 c -0.009,-0.064 -0.009,-0.12 -0.009,-0.188 0,-1.764 1.433,-3.191 3.201,-3.191 0.869,-10e-4 1.656,0.343 2.238,0.913"
         inkscape:connector-curvature="0"
         style="fill:#333333" />
      <path
         id="path10957"
         d="m 283.495,283.968 c 0,0 0.674,3.357 3.597,2.635 0,10e-4 -0.089,-2.881 -3.597,-2.635 z"
         inkscape:connector-curvature="0"
         style="fill:#333333" />
      <path
         id="path10959"
         d="m 288.13,289.238 c 0,0 -0.033,-3.447 -0.39,-4.346 -0.357,-0.899 1.201,0 1.201,0 l -0.811,4.346 z"
         inkscape:connector-curvature="0"
         style="fill:#333333" />
    </g>
  </g>
</svg>
