<?xml version="1.0" encoding="UTF-8" standalone="no"?>
<!-- Created with Inkscape (http://www.inkscape.org/) -->

<svg
   xmlns:dc="http://purl.org/dc/elements/1.1/"
   xmlns:cc="http://creativecommons.org/ns#"
   xmlns:rdf="http://www.w3.org/1999/02/22-rdf-syntax-ns#"
   xmlns:svg="http://www.w3.org/2000/svg"
   xmlns="http://www.w3.org/2000/svg"
   xmlns:sodipodi="http://sodipodi.sourceforge.net/DTD/sodipodi-0.dtd"
   xmlns:inkscape="http://www.inkscape.org/namespaces/inkscape"
   width="32px"
   height="32px"
   id="svg2994"
   version="1.1"
   inkscape:version="0.48.3.1 r9886"
   sodipodi:docname="New document 2">
  <defs
     id="defs2996" />
  <sodipodi:namedview
     id="base"
     pagecolor="#ffffff"
     bordercolor="#666666"
     borderopacity="1.0"
     inkscape:pageopacity="0.0"
     inkscape:pageshadow="2"
     inkscape:zoom="11.197802"
     inkscape:cx="16"
     inkscape:cy="15.151619"
     inkscape:current-layer="layer1"
     showgrid="true"
     inkscape:grid-bbox="true"
     inkscape:document-units="px"
     inkscape:window-width="776"
     inkscape:window-height="590"
     inkscape:window-x="159"
     inkscape:window-y="148"
     inkscape:window-maximized="0" />
  <metadata
     id="metadata2999">
    <rdf:RDF>
      <cc:Work
         rdf:about="">
        <dc:format>image/svg+xml</dc:format>
        <dc:type
           rdf:resource="http://purl.org/dc/dcmitype/StillImage" />
        <dc:title></dc:title>
      </cc:Work>
    </rdf:RDF>
  </metadata>
  <g
     id="layer1"
     inkscape:label="Layer 1"
     inkscape:groupmode="layer">
    <path
       style="fill:#333333"
       d="m 0.3424929,16.662119 0,-15.446653 0.5596327,-0.64739905 0.5596329,-0.647399 14.8807355,0 14.880734,0 0.559631,0.647399 0.559634,0.64739905 0,15.446653 0,15.446654 -15.999999,0 -16.0000011,0 0,-15.446654 z M 31.053983,30.211516 c 0.316981,-0.450315 0.360974,-2.201593 0.360974,-14.36985 0,-12.168254 -0.044,-13.919532 -0.360974,-14.369853 l -0.360976,-0.51281905 -14.350513,0 -14.3505152,0 L 1.631004,1.471813 C 1.3140217,1.922134 1.2700291,3.673412 1.2700291,15.841666 c 0,12.168257 0.043993,13.919535 0.3609749,14.36985 l 0.3609748,0.512824 14.3505152,0 14.350513,0 0.360976,-0.512824 z M 7.5772756,26.294147 c -0.194178,-0.193218 -0.278261,-1.439668 -0.278261,-4.12497 l 0,-3.848081 -1.666608,-0.430128 C 4.7157726,17.654397 3.7543076,17.29043 3.4958176,17.082152 3.0888986,16.754275 3.0629434,16.622426 3.3023819,16.09951 c 0.3268267,-0.713765 1.0137657,-0.780736 2.7315687,-0.266306 0.620115,0.185705 1.148291,0.315496 1.173723,0.288424 0.02543,-0.02707 0.06794,-0.308805 0.09446,-0.626071 0.103243,-1.235125 -0.01762,-2.058115 -0.350943,-2.389798 -0.191304,-0.19036 -0.347826,-0.457358 -0.347826,-0.593329 0,-0.171877 2.968116,-0.247221 9.7391314,-0.247221 9.973979,0 10.311881,0.03 9.494874,0.84297 -0.270384,0.269049 -0.388278,2.527099 -0.1446,2.769573 0.08469,0.08427 0.558066,0.03275 1.051944,-0.114487 1.865342,-0.556111 2.583289,-0.303259 2.583289,0.909805 0,0.492736 -0.387776,0.694931 -2.376812,1.23932 l -1.333333,0.364927 0,3.869972 c 0,2.702325 -0.08396,3.95351 -0.278261,4.146858 -0.206426,0.205406 -2.499196,0.276889 -8.881159,0.276889 -6.381965,0 -8.6747354,-0.07148 -8.8811604,-0.276889 z M 7.5309056,8.717006 c 0,-0.17482 0.144717,-0.437368 0.321595,-0.583437 0.401311,-0.331415 3.2092624,-0.935247 4.3740574,-0.940613 0.749114,-0.0034 0.869566,-0.0768 0.869566,-0.529514 0,-0.289028 0.162438,-0.756275 0.360975,-1.038326 0.33677,-0.478433 0.536489,-0.512819 2.978553,-0.512819 2.887691,0 3.385109,0.214579 3.385109,1.460288 0,0.557705 0.08276,0.616746 0.869565,0.620371 1.164796,0.0054 3.972747,0.609198 4.374057,0.940613 0.176878,0.146069 0.321595,0.408617 0.321595,0.583437 0,0.264478 -1.499216,0.317856 -8.927536,0.317856 -7.4283194,0 -8.9275364,-0.05338 -8.9275364,-0.317856 z M 18.617197,6.554417 c -0.0675,-0.348786 -0.361586,-0.403794 -2.158755,-0.403794 -1.797168,0 -2.091251,0.05501 -2.158754,0.403794 -0.07007,0.362033 0.153188,0.403793 2.158754,0.403793 2.005567,0 2.228822,-0.04176 2.158755,-0.403793 z"
       id="path3200"
       inkscape:connector-curvature="0" />
  </g>
</svg>
