<?xml version="1.0" encoding="UTF-8" standalone="no"?>
<!-- Created with Inkscape (http://www.inkscape.org/) -->

<svg
   xmlns:dc="http://purl.org/dc/elements/1.1/"
   xmlns:cc="http://creativecommons.org/ns#"
   xmlns:rdf="http://www.w3.org/1999/02/22-rdf-syntax-ns#"
   xmlns:svg="http://www.w3.org/2000/svg"
   xmlns="http://www.w3.org/2000/svg"
   xmlns:sodipodi="http://sodipodi.sourceforge.net/DTD/sodipodi-0.dtd"
   xmlns:inkscape="http://www.inkscape.org/namespaces/inkscape"
   width="32px"
   height="32px"
   id="svg2997"
   version="1.1"
   inkscape:version="0.48.3.1 r9886"
   sodipodi:docname="New document 2">
  <defs
     id="defs2999" />
  <sodipodi:namedview
     id="base"
     pagecolor="#ffffff"
     bordercolor="#666666"
     borderopacity="1.0"
     inkscape:pageopacity="0.0"
     inkscape:pageshadow="2"
     inkscape:zoom="11.197802"
     inkscape:cx="16"
     inkscape:cy="15.151619"
     inkscape:current-layer="layer1"
     showgrid="true"
     inkscape:grid-bbox="true"
     inkscape:document-units="px"
     inkscape:window-width="689"
     inkscape:window-height="674"
     inkscape:window-x="187"
     inkscape:window-y="64"
     inkscape:window-maximized="0" />
  <metadata
     id="metadata3002">
    <rdf:RDF>
      <cc:Work
         rdf:about="">
        <dc:format>image/svg+xml</dc:format>
        <dc:type
           rdf:resource="http://purl.org/dc/dcmitype/StillImage" />
        <dc:title></dc:title>
      </cc:Work>
    </rdf:RDF>
  </metadata>
  <g
     id="layer1"
     inkscape:label="Layer 1"
     inkscape:groupmode="layer">
    <g
       id="g3"
       style="fill:#333333"
       transform="matrix(0.33966081,0,0,0.33549617,0.07438432,-0.79388102)">
      <path
         d="m 37,76.873 c 0,-0.928 0.709,-1.676 1.594,-1.676 h 4.027 c 0.877,0 1.586,0.748 1.586,1.676 v 4.24 c 0,0.926 -0.709,1.68 -1.586,1.68 H 38.594 C 37.709,82.793 37,82.039 37,81.113 v -4.24 z"
         id="path5"
         style="fill:#333333"
         inkscape:connector-curvature="0" />
    </g>
    <path
       d="m 24.029641,8.1860088 -0.0092,-3.2184144 c 0,-1.7073401 -1.350151,-3.0775063 -3.03385,-3.0775063 H 7.1084197 c -1.6816604,0 -2.9581058,1.3701662 -2.9581058,3.0775063 V 27.293523 c 0,1.707675 1.2764454,3.113739 2.9581058,3.113739 H 20.98662 c 1.683698,0 3.03385,-1.406064 3.03385,-3.113739 l 0.0092,-5.184423 c 0.437144,0.235182 0.943918,0.364348 1.464618,0.364348 1.675887,0 3.039286,-1.34903 3.039286,-3.004368 0,-0.792441 -0.312829,-1.515771 -0.822659,-2.0529 0.413029,-0.244577 0.717364,-0.653882 0.819601,-1.146727 l 1.129713,-5.457851 C 29.75768,10.339894 29.651714,9.8447025 29.369789,9.4528423 29.08787,9.0613185 28.649027,8.7999666 28.16637,8.7358876 L 24.029641,8.1860088 z M 7.1084197,3.2320731 H 20.98662 c 0.897044,0 1.590291,0.7622471 1.590291,1.6935841 l 0.01495,3.0610673 -1.715966,-0.2301505 0.0027,-1.7613552 c 0,-0.4676817 -0.373628,-0.7501692 -0.818583,-0.7501692 H 8.0390904 c -0.4469936,0 -0.8318293,0.2039816 -0.8318293,0.6716632 V 22.347638 c 0,0.463656 0.3848357,1.014205 0.8318293,1.014205 H 20.060025 c 0.444956,0 0.733667,-0.550549 0.733667,-1.014205 v -0.663276 h 1.698305 v 5.609161 c 0,0.928988 -0.608333,1.771755 -1.505377,1.771755 H 7.1084197 c -0.8929681,0 -1.5994626,-0.842767 -1.5994626,-1.771755 V 4.9675944 c 0,-0.931337 0.7064945,-1.7355213 1.5994626,-1.7355213 z M 18.938805,20.342377 c -0.290071,0.335496 -0.86172,0.819282 -1.489073,0.819282 -0.928292,0 -1.683698,-0.773319 -1.683698,-1.69023 0,-0.889064 0.711589,-1.638227 1.604557,-1.681842 L 17.797204,16.450621 16.097203,9.6574949 15.153965,9.0331373 c -0.0394,0.01007 -0.08594,0.018786 -0.138921,0.018786 -0.583877,0 -1.059062,-0.4693597 -1.059062,-1.0460776 0,-0.577053 0.475185,-1.0467478 1.059062,-1.0467478 0.583877,0 1.058722,0.4693597 1.058722,1.0460767 0,0.041938 -0.0054,0.080187 -0.01291,0.1154108 l 0.767294,0.5062645 11.154463,1.4724921 c 0.101898,0.01342 0.193605,0.0681 0.253385,0.150974 0.05944,0.08253 0.08152,0.185529 0.06114,0.285172 l -1.129714,5.456844 c -0.0343,0.1654 -0.178322,0.284501 -0.348831,0.290875 l -7.734756,0.293559 -0.515265,1.641583 c 0.234026,0.204988 0.405214,0.446545 0.494206,0.782042 h 4.873793 c 0.222477,-0.670992 0.843377,-1.139345 1.558023,-1.139345 0.908254,0 1.647356,0.721987 1.647356,1.618768 0,0.897118 -0.739102,1.692579 -1.647356,1.692579 -0.624296,0 -1.187454,-0.494521 -1.467334,-0.830018 h -5.088457 z"
       id="path7"
       style="fill:#333333"
       inkscape:connector-curvature="0" />
  </g>
</svg>
