<?xml version="1.0" encoding="UTF-8" standalone="no"?>
<!-- Created with Inkscape (http://www.inkscape.org/) -->

<svg
   xmlns:dc="http://purl.org/dc/elements/1.1/"
   xmlns:cc="http://creativecommons.org/ns#"
   xmlns:rdf="http://www.w3.org/1999/02/22-rdf-syntax-ns#"
   xmlns:svg="http://www.w3.org/2000/svg"
   xmlns="http://www.w3.org/2000/svg"
   xmlns:sodipodi="http://sodipodi.sourceforge.net/DTD/sodipodi-0.dtd"
   xmlns:inkscape="http://www.inkscape.org/namespaces/inkscape"
   width="32px"
   height="32px"
   id="svg3012"
   version="1.1"
   inkscape:version="0.48.3.1 r9886"
   sodipodi:docname="New document 2">
  <defs
     id="defs3014" />
  <sodipodi:namedview
     id="base"
     pagecolor="#ffffff"
     bordercolor="#666666"
     borderopacity="1.0"
     inkscape:pageopacity="0.0"
     inkscape:pageshadow="2"
     inkscape:zoom="11.197802"
     inkscape:cx="16"
     inkscape:cy="15.151619"
     inkscape:current-layer="layer1"
     showgrid="true"
     inkscape:grid-bbox="true"
     inkscape:document-units="px"
     inkscape:window-width="784"
     inkscape:window-height="650"
     inkscape:window-x="288"
     inkscape:window-y="30"
     inkscape:window-maximized="0" />
  <metadata
     id="metadata3017">
    <rdf:RDF>
      <cc:Work
         rdf:about="">
        <dc:format>image/svg+xml</dc:format>
        <dc:type
           rdf:resource="http://purl.org/dc/dcmitype/StillImage" />
        <dc:title></dc:title>
      </cc:Work>
    </rdf:RDF>
  </metadata>
  <g
     id="layer1"
     inkscape:label="Layer 1"
     inkscape:groupmode="layer">
    <g
       style="display:inline"
       id="religious-muslim-24"
       inkscape:label="religious-muslim-24"
       inkscape:export-xdpi="89.996864"
       inkscape:export-ydpi="89.996864"
       transform="matrix(1.2232581,0,0,1.1451176,-7.0009832,-1227.6107)">
      <g
         id="g21856">
        <path
           id="path7587"
           d="m 18.5,1077.3622 c -4.69442,0 -8.5,3.8056 -8.5,8.5 0,4.6944 3.80558,8.5 8.5,8.5 2.624764,0 4.972051,-1.1929 6.53125,-3.0625 -1.018799,0.6632 -2.225004,1.0625 -3.53125,1.0625 -3.589851,0 -6.5,-2.9101 -6.5,-6.5 0,-3.5899 2.910149,-6.5 6.5,-6.5 1.306246,0 2.512451,0.3993 3.53125,1.0625 -1.559199,-1.8696 -3.906486,-3.0625 -6.53125,-3.0625 z m 5,4 -1,3 -3.5,0 3,2 -1.5,3.5 3,-2 3,2 -1.5,-3.5 3,-2 -3.5,0 -1,-3 z"
           style="opacity:0.3;color:#000000;fill:#ffffff;fill-opacity:1;fill-rule:nonzero;stroke:#ffffff;stroke-width:2;stroke-linecap:butt;stroke-linejoin:round;stroke-miterlimit:4;stroke-opacity:1;stroke-dasharray:none;stroke-dashoffset:0;marker:none;visibility:visible;display:inline;overflow:visible;enable-background:accumulate"
           inkscape:connector-curvature="0" />
        <path
           style="color:#000000;fill:#444444;fill-opacity:1;fill-rule:nonzero;stroke:none;stroke-width:2;marker:none;visibility:visible;display:inline;overflow:visible;enable-background:accumulate"
           d="m 18.5,1077.3622 c -4.69442,0 -8.5,3.8056 -8.5,8.5 0,4.6944 3.80558,8.5 8.5,8.5 2.624764,0 4.972051,-1.1929 6.53125,-3.0625 -1.018799,0.6632 -2.225004,1.0625 -3.53125,1.0625 -3.589851,0 -6.5,-2.9101 -6.5,-6.5 0,-3.5899 2.910149,-6.5 6.5,-6.5 1.306246,0 2.512451,0.3993 3.53125,1.0625 -1.559199,-1.8696 -3.906486,-3.0625 -6.53125,-3.0625 z m 5,4 -1,3 -3.5,0 3,2 -1.5,3.5 3,-2 3,2 -1.5,-3.5 3,-2 -3.5,0 -1,-3 z"
           id="path7552-2"
           inkscape:connector-curvature="0" />
      </g>
      <rect
         style="opacity:0.5;color:#000000;fill:none;stroke:none;stroke-width:2;marker:none;visibility:visible;display:inline;overflow:visible;enable-background:accumulate"
         id="rect22081-5"
         width="24"
         height="24.000017"
         x="6.0000014"
         y="1074.3622" />
    </g>
  </g>
</svg>
