<?xml version="1.0" encoding="UTF-8" standalone="no"?>
<!-- Created with Inkscape (http://www.inkscape.org/) -->

<svg
   xmlns:dc="http://purl.org/dc/elements/1.1/"
   xmlns:cc="http://creativecommons.org/ns#"
   xmlns:rdf="http://www.w3.org/1999/02/22-rdf-syntax-ns#"
   xmlns:svg="http://www.w3.org/2000/svg"
   xmlns="http://www.w3.org/2000/svg"
   xmlns:sodipodi="http://sodipodi.sourceforge.net/DTD/sodipodi-0.dtd"
   xmlns:inkscape="http://www.inkscape.org/namespaces/inkscape"
   width="32px"
   height="32px"
   id="svg3009"
   version="1.1"
   inkscape:version="0.48.3.1 r9886"
   sodipodi:docname="New document 2">
  <defs
     id="defs3011" />
  <sodipodi:namedview
     id="base"
     pagecolor="#ffffff"
     bordercolor="#666666"
     borderopacity="1.0"
     inkscape:pageopacity="0.0"
     inkscape:pageshadow="2"
     inkscape:zoom="11.197802"
     inkscape:cx="16"
     inkscape:cy="15.151619"
     inkscape:current-layer="layer1"
     showgrid="true"
     inkscape:grid-bbox="true"
     inkscape:document-units="px"
     inkscape:window-width="831"
     inkscape:window-height="585"
     inkscape:window-x="333"
     inkscape:window-y="0"
     inkscape:window-maximized="0" />
  <metadata
     id="metadata3014">
    <rdf:RDF>
      <cc:Work
         rdf:about="">
        <dc:format>image/svg+xml</dc:format>
        <dc:type
           rdf:resource="http://purl.org/dc/dcmitype/StillImage" />
        <dc:title></dc:title>
      </cc:Work>
    </rdf:RDF>
  </metadata>
  <g
     id="layer1"
     inkscape:label="Layer 1"
     inkscape:groupmode="layer">
    <g
       id="g1327"
       style="fill:#666666"
       transform="matrix(0.04979605,0,0,0.05134282,1.9499514,1.4157755)">
      <path
         d="M 66.275,1.768 C 24.94,1.768 1.704,23.139 1.704,66.804 l 0,450.123 c 0,40.844 20.895,62.229 62.192,62.229 l 452.024,0 c 41.307,0 62.229,-20.315 62.229,-62.229 l 0,-450.123 c 0,-42.601 -20.922,-65.036 -63.521,-65.036 -0.004,0 -448.495,-0.143 -448.353,0 z"
         style="fill:#666666;stroke:#eeeeee;stroke-width:3.40799998999999998"
         id="path1329"
         inkscape:connector-curvature="0" />
    </g>
    <path
       style="font-size:40px;font-style:normal;font-variant:normal;font-weight:normal;font-stretch:normal;text-align:start;line-height:125%;writing-mode:lr-tb;text-anchor:start;fill:#ffffff;fill-opacity:1;stroke:none;font-family:NPSPICT3;-inkscape-font-specification:NPSPICT3"
       d="m 16.113875,28.262649 1.783282,0 0,-23.1703231 -1.783282,0 0,23.1703231 z m -5.362109,-18.9382971 -3.5994259,0 c -0.561237,1.9e-5 -1.0660064,0.208204 -1.5142993,0.624537 C 5.3012933,10.272121 5.0771378,10.630605 4.9655834,11.024368 L 3.417402,16.33081 c -0.044485,0.115746 -0.066772,0.219843 -0.066772,0.312273 0,0.532097 0.2576858,0.79815 0.7730666,0.798141 0.3593237,9e-6 0.5951101,-0.208176 0.7073593,-0.624546 l 1.4126703,-4.856563 0.7730666,0 -2.3212571,8.636605 2.2545212,0 0,6.72912 c -9.1e-6,0.60125 0.2802711,0.901875 0.8408222,0.901875 0.5605421,0 0.8408221,-0.300625 0.8408221,-0.901875 l 0,-6.762995 0.8418504,0 0,6.79793 c 0,0.577963 0.280271,0.86694 0.8408314,0.86694 0.560533,0 0.840813,-0.288977 0.840822,-0.86694 l 0,-6.764055 2.253492,0 -2.354102,-8.636605 0.80694,0 1.412671,4.856563 c 0.112231,0.41637 0.347674,0.624555 0.70633,0.624546 0.516049,9e-6 0.774078,-0.266044 0.774096,-0.798141 -1.8e-5,-0.115726 -0.02229,-0.219814 -0.06668,-0.312273 l -1.548193,-5.306442 c -0.112258,-0.370476 -0.369944,-0.72896 -0.773057,-1.0754791 -0.493491,-0.416333 -1.031799,-0.624518 -1.614918,-0.624537 l 0,0 z M 9.0362403,8.9422279 c 0.5153714,10e-6 0.9525476,-0.184879 1.3115377,-0.554676 0.35898,-0.369769 0.538471,-0.809053 0.53848,-1.317882 -9e-6,-0.532069 -0.1795,-0.983011 -0.53848,-1.352807 -0.3589901,-0.36976 -0.7961663,-0.554658 -1.3115377,-0.554676 -0.4934812,1.8e-5 -0.9197123,0.184916 -1.2786931,0.554676 -0.3589898,0.369796 -0.5384802,0.820738 -0.5384712,1.352807 -9e-6,0.508829 0.1794814,0.948113 0.5384712,1.317882 0.3589808,0.369797 0.7852119,0.554686 1.2786931,0.554676 l 0,0 z m 15.7363057,-0.03386 c 0.493445,1.8e-5 0.919676,-0.185057 1.278693,-0.555207 0.358954,-0.370113 0.538444,-0.809584 0.538471,-1.318412 -2.7e-5,-0.531362 -0.179517,-0.976303 -0.538471,-1.334815 -0.359017,-0.358464 -0.785248,-0.537716 -1.278693,-0.537734 -0.4935,1.8e-5 -0.919559,0.17927 -1.278179,0.537734 -0.358665,0.358512 -0.537984,0.803453 -0.537957,1.334815 -2.7e-5,0.508828 0.179292,0.948299 0.537957,1.318412 0.35862,0.37015 0.784679,0.555225 1.278179,0.555207 l 0,0 z m 2.389003,0.381072 -4.81086,0 c -0.650234,1.9e-5 -1.205308,0.237128 -1.665231,0.7113381 -0.459951,0.474238 -0.689927,1.058193 -0.6899,1.751873 l 0,5.757386 c -2.7e-5,0.555392 0.246714,0.833075 0.740213,0.833065 0.47086,1e-5 0.706304,-0.277673 0.706331,-0.833065 l 0,-5.618717 0.874704,0 0,15.26199 c -2.7e-5,0.693699 0.336378,1.040544 1.009196,1.040544 0.672764,0 1.009169,-0.346845 1.009187,-1.040544 l 0,-8.845133 0.874705,0 0,8.845133 c -2.8e-5,0.693699 0.336377,1.040544 1.009195,1.040544 0.695359,0 1.043052,-0.346845 1.043079,-1.040544 l 0,-15.26199 0.840822,0 0,5.618717 c -2.7e-5,0.577972 0.235416,0.866949 0.70633,0.866939 0.471546,10e-6 0.707333,-0.288967 0.70736,-0.866939 l 0,-5.723512 C 29.516653,11.116128 29.297974,10.53235 28.860654,10.03517 28.42327,9.5380359 27.856908,9.2894549 27.161549,9.2894359 l 0,0 z"
       id="flowRoot3192"
       sodipodi:nodetypes="ccccccccccssccccccsccccsccccccssccccccssssssscccsccssscccccsccsccccsccccsccccsccccc"
       inkscape:connector-curvature="0" />
  </g>
</svg>
