<?xml version="1.0" encoding="UTF-8" standalone="no"?>
<!-- Created with Inkscape (http://www.inkscape.org/) -->

<svg
   xmlns:dc="http://purl.org/dc/elements/1.1/"
   xmlns:cc="http://creativecommons.org/ns#"
   xmlns:rdf="http://www.w3.org/1999/02/22-rdf-syntax-ns#"
   xmlns:svg="http://www.w3.org/2000/svg"
   xmlns="http://www.w3.org/2000/svg"
   xmlns:sodipodi="http://sodipodi.sourceforge.net/DTD/sodipodi-0.dtd"
   xmlns:inkscape="http://www.inkscape.org/namespaces/inkscape"
   width="32px"
   height="32px"
   id="svg3010"
   version="1.1"
   inkscape:version="0.48.3.1 r9886"
   sodipodi:docname="New document 2">
  <defs
     id="defs3012" />
  <sodipodi:namedview
     id="base"
     pagecolor="#ffffff"
     bordercolor="#666666"
     borderopacity="1.0"
     inkscape:pageopacity="0.0"
     inkscape:pageshadow="2"
     inkscape:zoom="11.197802"
     inkscape:cx="16"
     inkscape:cy="16"
     inkscape:current-layer="layer1"
     showgrid="true"
     inkscape:grid-bbox="true"
     inkscape:document-units="px"
     inkscape:window-width="513"
     inkscape:window-height="661"
     inkscape:window-x="124"
     inkscape:window-y="53"
     inkscape:window-maximized="0" />
  <metadata
     id="metadata3015">
    <rdf:RDF>
      <cc:Work
         rdf:about="">
        <dc:format>image/svg+xml</dc:format>
        <dc:type
           rdf:resource="http://purl.org/dc/dcmitype/StillImage" />
        <dc:title></dc:title>
      </cc:Work>
    </rdf:RDF>
  </metadata>
  <g
     id="layer1"
     inkscape:label="Layer 1"
     inkscape:groupmode="layer">
    <g
       transform="matrix(1.3274452,0,0,1.320003,95.825319,-1639.5834)"
       style="display:inline"
       id="cross-24"
       inkscape:label="cross-24"
       inkscape:export-xdpi="89.996864"
       inkscape:export-ydpi="89.996864">
      <path
         inkscape:connector-curvature="0"
         id="path7139"
         d="m -66.91667,1245.3622 c -0.54166,0 -1.08333,0.5421 -1.08333,1.0833 0,0.2697 0.0882,0.5283 0.30469,0.7448 l 6.67187,6.6719 -6.67187,6.6719 c -0.21656,0.2165 -0.30469,0.4751 -0.30469,0.7448 0,0.5412 0.54167,1.0833 1.08333,1.0833 0.27084,0 0.54167,-0.067 0.77865,-0.3046 l 6.63802,-6.6381 6.63802,6.6381 c 0.23698,0.2374 0.50781,0.3046 0.77865,0.3046 0.54166,0 1.08333,-0.5421 1.08333,-1.0833 0,-0.2697 -0.0882,-0.5283 -0.30469,-0.7448 l -6.67187,-6.6719 6.67187,-6.6719 c 0.21656,-0.2165 0.30469,-0.4751 0.30469,-0.7448 0,-0.5412 -0.54167,-1.0833 -1.08333,-1.0833 -0.27084,0 -0.54167,0.067 -0.77865,0.3047 l -6.63802,6.638 -6.63802,-6.638 c -0.23698,-0.2375 -0.50781,-0.3047 -0.77865,-0.3047 z"
         style="font-size:medium;font-style:normal;font-variant:normal;font-weight:normal;font-stretch:normal;text-indent:0;text-align:start;text-decoration:none;line-height:normal;letter-spacing:normal;word-spacing:normal;text-transform:none;direction:ltr;block-progression:tb;writing-mode:lr-tb;text-anchor:start;baseline-shift:baseline;opacity:0.3;color:#000000;fill:#ffffff;fill-opacity:1;fill-rule:nonzero;stroke:#ffffff;stroke-width:2;stroke-linecap:butt;stroke-linejoin:round;stroke-miterlimit:4;stroke-opacity:1;stroke-dasharray:none;stroke-dashoffset:0;marker:none;visibility:visible;display:inline;overflow:visible;enable-background:accumulate;font-family:Sans;-inkscape-font-specification:Sans"
         sodipodi:nodetypes="ccccccccccccccccccccc" />
      <rect
         style="opacity:0.5;color:#000000;fill:none;stroke:none;stroke-width:2;marker:none;visibility:visible;display:inline;overflow:visible;enable-background:accumulate"
         id="rect22069"
         width="24"
         height="24.000017"
         x="-72"
         y="1242.3622" />
      <path
         sodipodi:nodetypes="ccccccccccccccccccccc"
         style="font-size:medium;font-style:normal;font-variant:normal;font-weight:normal;font-stretch:normal;text-indent:0;text-align:start;text-decoration:none;line-height:normal;letter-spacing:normal;word-spacing:normal;text-transform:none;direction:ltr;block-progression:tb;writing-mode:lr-tb;text-anchor:start;baseline-shift:baseline;color:#000000;fill:#444444;fill-opacity:1;stroke:none;stroke-width:2;marker:none;visibility:visible;display:inline;overflow:visible;enable-background:accumulate;font-family:Sans;-inkscape-font-specification:Sans"
         d="m -66.91667,1245.3622 c -0.54166,0 -1.08333,0.5421 -1.08333,1.0833 0,0.2697 0.0882,0.5283 0.30469,0.7448 l 6.67187,6.6719 -6.67187,6.6719 c -0.21656,0.2165 -0.30469,0.4751 -0.30469,0.7448 0,0.5412 0.54167,1.0833 1.08333,1.0833 0.27084,0 0.54167,-0.067 0.77865,-0.3046 l 6.63802,-6.6381 6.63802,6.6381 c 0.23698,0.2374 0.50781,0.3046 0.77865,0.3046 0.54166,0 1.08333,-0.5421 1.08333,-1.0833 0,-0.2697 -0.0882,-0.5283 -0.30469,-0.7448 l -6.67187,-6.6719 6.67187,-6.6719 c 0.21656,-0.2165 0.30469,-0.4751 0.30469,-0.7448 0,-0.5412 -0.54167,-1.0833 -1.08333,-1.0833 -0.27084,0 -0.54167,0.067 -0.77865,0.3047 l -6.63802,6.638 -6.63802,-6.638 c -0.23698,-0.2375 -0.50781,-0.3047 -0.77865,-0.3047 z"
         id="path15001-8-9"
         inkscape:connector-curvature="0" />
    </g>
  </g>
</svg>
