<?xml version="1.0" encoding="UTF-8" standalone="no"?>
<!-- Created with Inkscape (http://www.inkscape.org/) -->

<svg
   xmlns:dc="http://purl.org/dc/elements/1.1/"
   xmlns:cc="http://creativecommons.org/ns#"
   xmlns:rdf="http://www.w3.org/1999/02/22-rdf-syntax-ns#"
   xmlns:svg="http://www.w3.org/2000/svg"
   xmlns="http://www.w3.org/2000/svg"
   xmlns:sodipodi="http://sodipodi.sourceforge.net/DTD/sodipodi-0.dtd"
   xmlns:inkscape="http://www.inkscape.org/namespaces/inkscape"
   width="32px"
   height="32px"
   id="svg3010"
   version="1.1"
   inkscape:version="0.48.3.1 r9886"
   sodipodi:docname="New document 2">
  <defs
     id="defs3012" />
  <sodipodi:namedview
     id="base"
     pagecolor="#ffffff"
     bordercolor="#666666"
     borderopacity="1.0"
     inkscape:pageopacity="0.0"
     inkscape:pageshadow="2"
     inkscape:zoom="11.197802"
     inkscape:cx="16"
     inkscape:cy="15.151619"
     inkscape:current-layer="layer1"
     showgrid="true"
     inkscape:grid-bbox="true"
     inkscape:document-units="px"
     inkscape:window-width="828"
     inkscape:window-height="595"
     inkscape:window-x="425"
     inkscape:window-y="143"
     inkscape:window-maximized="0" />
  <metadata
     id="metadata3015">
    <rdf:RDF>
      <cc:Work
         rdf:about="">
        <dc:format>image/svg+xml</dc:format>
        <dc:type
           rdf:resource="http://purl.org/dc/dcmitype/StillImage" />
        <dc:title></dc:title>
      </cc:Work>
    </rdf:RDF>
  </metadata>
  <g
     id="layer1"
     inkscape:label="Layer 1"
     inkscape:groupmode="layer">
    <g
       transform="matrix(1.3333333,0,0,1.3333333,-424.10402,-1688.2003)"
       style="display:inline"
       id="waste-basket-24"
       inkscape:label="waste-basket-24"
       inkscape:export-xdpi="89.996864"
       inkscape:export-ydpi="89.996864">
      <path
         style="opacity:0.3;color:#000000;fill:none;stroke:#ffffff;stroke-width:2;stroke-linecap:round;stroke-linejoin:round;stroke-miterlimit:4;stroke-opacity:1;stroke-dasharray:none;stroke-dashoffset:0;marker:none;visibility:visible;display:inline;overflow:visible;enable-background:accumulate"
         d="m 328.5,1268.3622 c -0.277,0 -0.5,0.223 -0.5,0.5 l 0,1.5 -4,0 c -0.554,0 -1,0.446 -1,1 0,0.554 0.446,1 1,1 l 13,0 c 0.554,0 1,-0.446 1,-1 0,-0.554 -0.446,-1 -1,-1 l -4,0 0,-1.5 c 0,-0.277 -0.22299,-0.5 -0.5,-0.5 z m 0.5,1 3,0 0,1 -3,0 z m -5,4 c -0.554,0 -1.07547,0.4536 -0.98437,1 l 1.98437,12 c 0.0904,0.5465 0.446,1 1,1 l 9,0 c 0.554,0 0.9089,-0.4536 1,-1 l 1.98437,-12 c 0.0904,-0.5465 -0.43037,-1 -0.98437,-1 z"
         id="path5667"
         inkscape:connector-curvature="0"
         sodipodi:nodetypes="sscsssssscssscccccscssscsss" />
      <path
         sodipodi:nodetypes="sscsssssscssscccccscssscsss"
         inkscape:connector-curvature="0"
         id="rect5636"
         d="m 328.5,1268.3622 c -0.277,0 -0.5,0.223 -0.5,0.5 l 0,1.5 -4,0 c -0.554,0 -1,0.446 -1,1 0,0.554 0.446,1 1,1 l 13,0 c 0.554,0 1,-0.446 1,-1 0,-0.554 -0.446,-1 -1,-1 l -4,0 0,-1.5 c 0,-0.277 -0.22299,-0.5 -0.5,-0.5 z m 0.5,1 3,0 0,1 -3,0 z m -5,4 c -0.554,0 -1.07547,0.4536 -0.98437,1 l 1.98437,12 c 0.0904,0.5465 0.446,1 1,1 l 9,0 c 0.554,0 0.9089,-0.4536 1,-1 l 1.98437,-12 c 0.0904,-0.5465 -0.43037,-1 -0.98437,-1 z"
         style="color:#000000;fill:#444444;fill-opacity:1;fill-rule:nonzero;stroke:none;stroke-width:2;marker:none;visibility:visible;display:inline;overflow:visible;enable-background:accumulate" />
      <rect
         y="1266.3622"
         x="318"
         height="24.000017"
         width="24"
         id="rect5691"
         style="opacity:0.5;color:#000000;fill:none;stroke:none;stroke-width:2;marker:none;visibility:visible;display:inline;overflow:visible;enable-background:accumulate" />
    </g>
  </g>
</svg>
