<?xml version="1.0" encoding="UTF-8" standalone="no"?>
<!-- Created with Inkscape (http://www.inkscape.org/) -->

<svg
   xmlns:dc="http://purl.org/dc/elements/1.1/"
   xmlns:cc="http://creativecommons.org/ns#"
   xmlns:rdf="http://www.w3.org/1999/02/22-rdf-syntax-ns#"
   xmlns:svg="http://www.w3.org/2000/svg"
   xmlns="http://www.w3.org/2000/svg"
   xmlns:sodipodi="http://sodipodi.sourceforge.net/DTD/sodipodi-0.dtd"
   xmlns:inkscape="http://www.inkscape.org/namespaces/inkscape"
   width="64px"
   height="64px"
   id="svg3079"
   version="1.1"
   inkscape:version="0.48.3.1 r9886"
   sodipodi:docname="orga-relief.svg">
  <defs
     id="defs3081" />
  <sodipodi:namedview
     id="base"
     pagecolor="#ffffff"
     bordercolor="#666666"
     borderopacity="1.0"
     inkscape:pageopacity="0.0"
     inkscape:pageshadow="2"
     inkscape:zoom="1.8319513"
     inkscape:cx="134.15341"
     inkscape:cy="43.412873"
     inkscape:current-layer="layer1"
     showgrid="true"
     inkscape:document-units="px"
     inkscape:grid-bbox="true"
     inkscape:window-width="819"
     inkscape:window-height="670"
     inkscape:window-x="16"
     inkscape:window-y="0"
     inkscape:window-maximized="0" />
  <metadata
     id="metadata3084">
    <rdf:RDF>
      <cc:Work
         rdf:about="">
        <dc:format>image/svg+xml</dc:format>
        <dc:type
           rdf:resource="http://purl.org/dc/dcmitype/StillImage" />
        <dc:title></dc:title>
      </cc:Work>
    </rdf:RDF>
  </metadata>
  <g
     id="layer1"
     inkscape:label="Layer 1"
     inkscape:groupmode="layer">
    <path
       style="fill:#000000"
       d="m 3.7785169,33.158569 0,-13.612703 28.1546471,0 28.154646,0 0,13.612703 0,13.612703 -28.154646,0 -28.1546471,0 0,-13.612703 z M 43.645666,43.438992 c 1.045397,-1.099983 1.337785,-4.047951 0.542188,-5.466565 -1.148314,-2.047544 -3.486747,-1.316041 -4.003783,1.252452 -0.676989,3.363115 1.61666,6.155383 3.461595,4.214113 z m -2.000762,-1.919691 c -0.222489,-1.185815 -0.01448,-2.681589 0.42227,-3.036396 0.333032,-0.270552 0.492087,-0.199067 0.848032,0.381136 0.489058,0.797187 0.543549,1.446798 0.217571,2.593709 -0.298341,1.049666 -1.294741,1.090886 -1.487873,0.06155 z m 9.465009,1.729044 c 0.244115,-0.552951 1.271228,-0.521334 1.43344,0.04413 0.07331,0.255549 0.40995,0.453757 0.770673,0.453757 l 0.640503,0 -0.313099,-1.285645 c -0.172205,-0.707104 -0.528347,-2.280814 -0.791427,-3.497131 -0.449999,-2.080518 -0.513699,-2.205924 -1.075604,-2.117532 -0.540497,0.08503 -0.656829,0.35277 -1.223724,2.816497 -1.00107,4.350668 -1.000161,4.335895 -0.255062,4.151946 0.3484,-0.08602 0.714836,-0.340721 0.8143,-0.566017 z m 0.384511,-2.50931 c 0,-0.322937 0.101763,-0.671287 0.226141,-0.774114 0.124378,-0.102827 0.226142,-0.05394 0.226142,0.108658 0,0.162589 0.06177,0.51094 0.137266,0.774114 0.09007,0.313994 0.01232,0.478498 -0.226142,0.478498 -0.208964,0 -0.363407,-0.249536 -0.363407,-0.587156 z m -44.0976392,-0.47161 0,-3.478802 -0.5653543,0 -0.5653545,0 0,3.478802 0,3.478802 0.5653545,0 0.5653543,0 0,-3.478802 z m 2.0490352,1.890653 0.013761,-1.588149 0.598366,1.588149 c 0.507043,1.345767 0.694769,1.588149 1.230019,1.588149 l 0.631653,0 0,-3.478802 0,-3.478802 -0.554069,0 c -0.515894,0 -0.558742,0.119843 -0.621889,1.739401 l -0.06782,1.739401 -0.609379,-1.739401 C 9.5580969,37.076958 9.3612914,36.788623 8.8792169,36.788623 l -0.5778654,0 0,3.478802 0,3.478802 0.5653543,0 c 0.5295065,0 0.5662269,-0.100702 0.5791144,-1.588149 z m 5.639783,-0.963046 0,-2.551196 0.62189,-0.09572 c 0.493507,-0.07596 0.62189,-0.251842 0.62189,-0.85198 0,-0.738467 -0.0439,-0.758329 -1.865669,-0.844121 l -1.86567,-0.08786 0,0.919748 c 0,0.779393 0.08627,0.919747 0.565355,0.919747 0.558703,0 0.565354,0.03025 0.565354,2.571288 l 0,2.571289 0.678426,0 0.678424,0 0,-2.551195 z m 5.427402,1.794933 c 0,-0.71501 -0.06784,-0.756261 -1.24378,-0.756261 -1.093018,0 -1.243779,-0.07334 -1.243779,-0.605009 0,-0.524341 0.150761,-0.605009 1.130709,-0.605009 1.048572,0 1.130708,-0.05373 1.130708,-0.739687 0,-0.665869 -0.105433,-0.748888 -1.056496,-0.831887 -1.582162,-0.138076 -1.565405,-0.848462 0.02002,-0.848462 1.252155,0 1.262624,-0.0075 1.262624,-0.907513 l 0,-0.907514 -1.795443,0 -1.795443,0 -0.07022,3.479396 -0.07023,3.479397 1.86567,-6.06e-4 c 1.839167,-5.74e-4 1.865669,-0.01133 1.865669,-0.756845 z m 1.809134,-0.453756 c 0,-1.07459 0.06057,-1.210018 0.541159,-1.210018 0.575028,0 0.815691,0.498184 0.815691,1.688516 0,0.611131 0.111652,0.73152 0.678426,0.73152 0.617118,0 0.678425,-0.09045 0.678425,-1.000948 0,-0.550522 -0.142478,-1.261596 -0.316618,-1.580164 -0.271396,-0.496487 -0.271396,-0.665579 0,-1.183892 0.438223,-0.836919 0.396744,-1.462227 -0.159774,-2.40863 -0.443096,-0.753519 -0.581397,-0.803942 -1.978741,-0.72143 l -1.502348,0.08871 -0.06394,3.403175 -0.06394,3.403176 0.685831,0 c 0.649376,0 0.685832,-0.06432 0.685832,-1.210019 z m 0,-3.478802 c 0,-0.793146 0.487603,-1.004398 1.107126,-0.479655 0.476512,0.403611 0.116446,1.235916 -0.534674,1.235916 -0.459854,0 -0.572452,-0.148751 -0.572452,-0.756261 z m 4.567553,3.100671 0.06835,-1.588149 0.625701,1.588149 c 0.498294,1.264773 0.74004,1.588149 1.187244,1.588149 l 0.561543,0 0,-3.478802 0,-3.478802 -0.565353,0 c -0.536235,0 -0.565916,0.08959 -0.576232,1.739401 l -0.01088,1.739401 -0.671172,-1.739401 C 26.964925,37.118288 26.731256,36.788623 26.27599,36.788623 l -0.561729,0 0,3.478802 0,3.478802 0.553536,0 c 0.508317,0 0.55912,-0.129738 0.62189,-1.588149 z m 4.622479,1.134392 c 0.07261,-0.253094 0.408787,-0.453757 0.760205,-0.453757 0.351418,0 0.6876,0.200663 0.760205,0.453757 0.0716,0.249566 0.39964,0.453757 0.728995,0.453757 0.460225,0 0.574113,-0.122528 0.492051,-0.529383 -0.05873,-0.29116 -0.396241,-1.863036 -0.750034,-3.493056 -0.610044,-2.810642 -0.672986,-2.959033 -1.218956,-2.873793 -0.507091,0.07917 -0.648438,0.391302 -1.186111,2.619238 -0.98774,4.092883 -1.000953,4.276994 -0.306942,4.276994 0.324731,0 0.648995,-0.204191 0.720587,-0.453757 z m 0.478716,-2.722541 c 0.05944,-0.415944 0.18611,-0.756261 0.281489,-0.756261 0.09538,0 0.222049,0.340317 0.28149,0.756261 0.08145,0.569955 0.0121,0.756262 -0.28149,0.756262 -0.293593,0 -0.362939,-0.186307 -0.281489,-0.756262 z m 4.804324,0.605009 c 0,-2.541037 0.0067,-2.571288 0.565354,-2.571288 0.477411,0 0.565355,-0.141168 0.565355,-0.907513 l 0,-0.907514 -1.922205,0 -1.922205,0 0,0.907514 c 0,0.806679 0.07538,0.907513 0.678426,0.907513 l 0.678424,0 0,2.571288 0,2.571289 0.678425,0 0.678426,0 0,-2.571289 z m 2.890713,-0.831887 -0.06394,-3.403175 -0.62189,-0.09572 -0.62189,-0.09572 0,3.498895 0,3.498895 0.685831,0 0.685832,0 -0.06394,-3.403176 z m 6.60724,1.890653 c 0,-0.831887 0.0882,-1.512522 0.195991,-1.512522 0.107797,0 0.407447,0.680635 0.665894,1.512522 0.420282,1.352812 0.543642,1.512523 1.168264,1.512523 l 0.698364,0 -0.06394,-3.403176 c -0.06096,-3.244541 -0.08711,-3.407586 -0.56105,-3.497789 -0.456845,-0.08695 -0.502639,0.04781 -0.565355,1.663775 l -0.06824,1.758388 -0.673904,-1.75278 c -0.579254,-1.5066 -0.753944,-1.740279 -1.24378,-1.663775 -0.567003,0.08855 -0.570196,0.106151 -0.633816,3.492181 l -0.06394,3.403176 0.57276,0 c 0.536551,0 0.572761,-0.09562 0.572761,-1.512523 z m 11.533228,0.773655 c 0,-0.652996 -0.1117,-0.749679 -0.961102,-0.831887 l -0.961102,-0.09302 -0.06555,-2.665845 -0.06554,-2.665844 -0.612881,0.09456 -0.612878,0.09456 -0.06394,3.403175 -0.06394,3.403176 1.703469,0 c 1.655579,0 1.703469,-0.02077 1.703469,-0.738868 z M 42.631509,34.058702 c 0.731161,-0.596306 1.611142,-2.603462 1.621414,-3.698299 0.004,-0.426732 -0.192364,-0.529384 -1.012672,-0.529384 -0.626863,0 -1.017639,0.136057 -1.017639,0.354311 0,0.622456 -0.73089,1.460717 -1.273613,1.460717 -1.005907,0 -1.707185,-2.689616 -1.218127,-4.671868 0.526022,-2.13207 1.55792,-2.633068 2.219582,-1.077631 0.332758,0.78225 0.516141,0.905862 1.346332,0.907513 1.079746,0.0022 1.152943,-0.217532 0.630162,-1.89122 -0.378167,-1.210714 -1.472176,-2.554963 -2.307604,-2.835447 -1.59017,-0.533876 -3.438592,1.441627 -3.934091,4.204568 -0.547471,3.052727 0.30379,6.851012 1.774771,7.918961 0.8797,0.638671 2.291628,0.575355 3.171485,-0.142221 z m -34.1040157,-2.110151 0,-2.420037 1.0176377,0 1.017638,0 0,2.420037 0,2.420036 1.017638,0 1.017637,0 0,-6.05009 0,-6.050091 -1.007305,0 -1.007305,0 -0.06687,2.008358 -0.06687,2.008357 -0.9522326,0.03355 -0.9522323,0.03355 -0.065406,-1.966279 -0.065405,-1.96628 -1.074173,-0.0922 -1.0741734,-0.0922 0,6.066665 0,6.066665 1.1307088,0 1.1307085,0 0,-2.420036 z m 6.8219437,1.497917 c 0.230361,-0.883955 0.287991,-0.918385 1.392432,-0.831888 1.018108,0.07973 1.167406,0.178202 1.283488,0.846494 0.114456,0.658935 0.27093,0.768263 1.215857,0.849523 0.955497,0.08217 1.07047,0.02819 0.966575,-0.453757 -1.272191,-5.901469 -2.408485,-11.289593 -2.408485,-11.420651 0,-0.09228 -0.483378,-0.166339 -1.074173,-0.164575 l -1.074174,0.0032 -1.22808,5.668753 c -0.675445,3.117813 -1.271474,5.83891 -1.32451,6.046882 -0.06805,0.266854 0.213624,0.378131 0.957168,0.378131 0.971054,0 1.072422,-0.07225 1.293903,-0.92212 z m 0.830419,-3.462545 c -0.154595,-0.206798 0.316077,-3.177949 0.503432,-3.177949 0.190983,0 0.638425,2.958064 0.479582,3.170544 -0.149218,0.199606 -0.835466,0.204775 -0.983014,0.0075 z m 6.642912,1.435245 0.06473,-2.949419 1.104917,2.949419 1.104916,2.949419 0.986895,0 0.986895,0 0,-6.05009 0,-6.050091 -1.017639,0 -1.017637,0 -0.01156,2.94942 -0.01156,2.949418 -1.121351,-2.949418 -1.121351,-2.94942 -1.015437,0 -1.015438,0 0,6.050091 0,6.05009 1.009449,0 1.009449,0 0.06473,-2.949419 z m 10.040058,2.176009 c 1.579923,-1.579576 2.078525,-5.767229 1.030478,-8.654798 -0.748932,-2.063448 -1.319061,-2.442083 -3.930441,-2.610292 l -2.213322,-0.142568 0,6.11888 0,6.118882 2.245495,-0.103973 c 1.834769,-0.08496 2.359319,-0.217773 2.86779,-0.726131 z m -3.078009,-5.27668 0,-3.025045 0.653373,0 c 0.96608,0 1.615812,0.858258 1.763304,2.32923 0.242107,2.41455 -0.334129,3.72086 -1.641334,3.72086 l -0.775343,0 0,-3.025045 z m 7.236536,0 0,-6.050091 -1.017638,0 -1.017638,0 0,6.050091 0,6.05009 1.017638,0 1.017638,0 0,-6.05009 z m 9.305696,5.142577 c 0.218521,-0.838521 0.3191,-0.907514 1.322966,-0.907514 1.003865,0 1.104443,0.06899 1.322965,0.907514 0.217139,0.833222 0.322749,0.907513 1.290096,0.907513 0.745708,0 1.024232,-0.1105 0.953107,-0.378131 -0.05527,-0.207971 -0.642655,-2.937053 -1.30531,-6.064625 l -1.204824,-5.686494 -1.036254,0.09016 -1.036254,0.09016 -1.294349,5.747586 c -0.711892,3.161172 -1.297297,5.849681 -1.300897,5.974464 -0.0036,0.124783 0.456682,0.226878 1.022854,0.226878 0.940462,0 1.049835,-0.0784 1.2659,-0.907513 z m 0.731632,-3.856933 c 0.06466,-0.29116 0.187356,-0.937764 0.272648,-1.436897 0.263846,-1.544045 0.395852,-1.545823 0.688877,-0.0092 0.327887,1.719341 0.261504,1.97556 -0.511847,1.97556 -0.434264,0 -0.539685,-0.124107 -0.449678,-0.529383 z m 6.69716,2.949419 0,-1.815027 0.961102,-0.03016 c 1.48271,-0.04652 2.042881,-0.362237 2.598089,-1.464314 0.924775,-1.835655 0.556184,-5.303402 -0.675818,-6.358185 -0.319772,-0.27377 -1.328273,-0.482535 -2.713767,-0.561759 l -2.204882,-0.126077 0,6.085274 0,6.085273 1.017638,0 1.017638,0 0,-1.815027 z m 0.08911,-4.965771 c -0.06756,-0.235512 -0.0898,-0.814052 -0.04944,-1.285645 0.136339,-1.59269 1.995604,-1.239608 1.995604,0.378975 0,1.131935 -1.659731,1.905162 -1.946167,0.90667 z"
       id="path3419"
       inkscape:connector-curvature="0" />
  </g>
</svg>
