<?xml version="1.0" standalone="no"?>
<!DOCTYPE svg PUBLIC "-//W3C//DTD SVG 1.1//EN" "http://www.w3.org/Graphics/SVG/1.1/DTD/svg11.dtd" >
<svg viewBox="-59 -256 1792 1792">
  <g transform="matrix(1 0 0 -1 0 1536)">
   <path fill="currentColor"
d="M727 1449q52 -19 52 -115v-19q-22 -152 -120 -152q-68 19 -68 114q0 153 136 172zM1155 1277l34 -114q0 -32 -530 -191l-479 -230l-34 77q371 248 855 420zM1292 1105l51 -153q-383 -210 -445 -210l-136 172q448 191 530 191zM1514 857l17 -115v-38l-342 -95h-154
l-17 -19h-17l-51 114v19q348 134 564 134zM608 838q-160 -516 -240 -516l-376 -191q-51 70 -51 134q74 94 205 134v19h-17l-103 -39l-34 39v76q248 203 616 344zM745 628q74 0 119 -268l-513 -248l-34 134l103 57l102 -38h52z" />
  </g>

</svg>
