<?xml version="1.0" encoding="UTF-8" standalone="no"?>
<!-- Created with Inkscape (http://www.inkscape.org/) -->

<svg
   xmlns:dc="http://purl.org/dc/elements/1.1/"
   xmlns:cc="http://creativecommons.org/ns#"
   xmlns:rdf="http://www.w3.org/1999/02/22-rdf-syntax-ns#"
   xmlns:svg="http://www.w3.org/2000/svg"
   xmlns="http://www.w3.org/2000/svg"
   xmlns:sodipodi="http://sodipodi.sourceforge.net/DTD/sodipodi-0.dtd"
   xmlns:inkscape="http://www.inkscape.org/namespaces/inkscape"
   width="64px"
   height="64px"
   id="svg3063"
   version="1.1"
   inkscape:version="0.48.3.1 r9886"
   sodipodi:docname="orga-acted.svg">
  <defs
     id="defs3065" />
  <sodipodi:namedview
     id="base"
     pagecolor="#ffffff"
     bordercolor="#666666"
     borderopacity="1.0"
     inkscape:pageopacity="0.0"
     inkscape:pageshadow="2"
     inkscape:zoom="2.2706536"
     inkscape:cx="32"
     inkscape:cy="31.999999"
     inkscape:current-layer="layer1"
     showgrid="true"
     inkscape:document-units="px"
     inkscape:grid-bbox="true"
     inkscape:window-width="834"
     inkscape:window-height="655"
     inkscape:window-x="483"
     inkscape:window-y="83"
     inkscape:window-maximized="0" />
  <metadata
     id="metadata3068">
    <rdf:RDF>
      <cc:Work
         rdf:about="">
        <dc:format>image/svg+xml</dc:format>
        <dc:type
           rdf:resource="http://purl.org/dc/dcmitype/StillImage" />
        <dc:title></dc:title>
      </cc:Work>
    </rdf:RDF>
  </metadata>
  <g
     id="layer1"
     inkscape:label="Layer 1"
     inkscape:groupmode="layer">
    <path
       style="fill:#000000"
       d="M 25.7727,58.395003 C 14.608056,55.42812 6.7354053,46.507915 5.70623,35.65844 4.3804471,21.682164 16.03882,8.8826154 30.912194,7.9851944 46.446475,7.0478974 59.523895,18.780526 59.498446,33.631834 c -0.0075,4.368528 -0.7898,7.505517 -2.872573,11.518682 -2.931606,5.648737 -9.353986,10.886666 -15.773158,12.864187 -3.689504,1.136607 -11.493369,1.333407 -15.080015,0.3803 z m 13.085659,-0.877098 c 0.987764,-0.22198 3.224567,-1.052649 4.970674,-1.845935 19.4887,-8.854033 19.531654,-35.33691 0.07169,-44.195286 C 39.545361,9.4940794 37.25587,9.0017064 32.392307,9.0017064 c -21.139155,0 -33.18083605,23.0817356 -20.520386,39.3338856 4.038484,5.184176 10.581442,8.799931 17.670788,9.76519 1.714469,0.233434 7.214569,-0.110705 9.315655,-0.582877 z m -9.229535,-1.729848 -0.861356,-1.788613 -0.207645,1.5062 c -0.308195,2.235552 -1.022743,1.459678 -0.866971,-0.941375 0.203648,-3.13902 0.822698,-3.295951 2.228057,-0.564825 l 0.775048,1.5062 0.217058,-1.5062 c 0.322117,-2.235213 1.033692,-1.464031 0.868613,0.941375 -0.226788,3.304585 -0.851079,3.550279 -2.152804,0.847238 z m 3.897423,1.417376 c -0.327399,-0.553864 -0.612079,-4.47839 -0.336542,-4.639478 0.627821,-0.367038 3.102485,-0.408433 3.297742,-0.05516 0.109132,0.197452 -0.381961,0.412097 -1.091316,0.476995 -1.827841,0.167227 -1.742456,1.19993 0.09921,1.19993 0.763922,0 1.388949,0.169447 1.388949,0.37655 0,0.207102 -0.401803,0.379145 -0.892896,0.382315 -1.259697,0.0081 -1.909852,0.476461 -1.511177,1.088546 0.209139,0.321089 0.78861,0.446012 1.566423,0.33769 0.80872,-0.112626 1.234492,-0.01269 1.234492,0.289775 0,0.448011 -3.510907,0.955575 -3.754885,0.542838 z m -10.018751,-1.379081 -1.669941,-0.561214 0.805427,-1.950775 c 0.442984,-1.072923 0.959356,-2.100475 1.147491,-2.283444 0.421284,-0.409725 3.119694,0.555731 3.034708,1.085774 -0.03321,0.207102 -0.238953,0.311027 -0.457217,0.230942 -0.218263,-0.08008 -0.798645,-0.226924 -1.289738,-0.326311 -1.271718,-0.257364 -1.176372,0.887593 0.09921,1.191371 1.558434,0.371143 1.206267,1.047272 -0.396842,0.761904 -1.797096,-0.319898 -1.94155,0.657663 -0.198422,1.34277 0.65479,0.257353 1.190527,0.616808 1.190527,0.798783 0,0.42258 -0.234858,0.392532 -2.265204,-0.2898 z m 15.228461,-1.49658 c -0.800154,-0.974515 -1.454825,-1.913485 -1.454825,-2.086599 0,-0.686466 0.776101,-0.245764 1.932413,1.097308 l 1.215714,1.412063 0.01329,-1.976888 c 0.01028,-1.526726 0.152983,-1.976888 0.626701,-1.976888 0.504233,0 0.592514,0.451649 0.496054,2.53782 -0.14913,3.225257 -0.807039,3.456199 -2.829368,0.993184 z m 4.979769,-0.61274 C 43.474204,53.25105 42.898287,52.328111 42.435909,51.666057 l -0.84069,-1.203737 1.650456,-0.98861 c 1.934527,-1.158765 2.68904,-0.883224 1.028822,0.375718 -1.404359,1.064926 -1.078483,1.99 0.381302,1.082423 1.384519,-0.860785 1.790474,-0.235956 0.449083,0.691211 -0.869423,0.600948 -1.00723,0.873273 -0.649112,1.282718 0.381521,0.436192 0.632849,0.399395 1.562583,-0.228781 1.290266,-0.871769 1.581818,-0.923123 1.577628,-0.277893 -0.0024,0.38114 -2.709883,2.165163 -3.285816,2.165163 -0.08542,0 -0.35292,-0.381257 -0.594439,-0.847237 z M 18.042727,52.912046 c -0.550309,-0.522166 -1.000561,-1.303696 -1.000561,-1.736728 0,-1.061314 1.72582,-2.635851 2.889105,-2.635851 0.967521,0 2.666689,1.39507 2.666689,2.189432 0,0.74956 -1.084198,0.496345 -1.304988,-0.30478 -0.299469,-1.086614 -1.369705,-1.336895 -2.300158,-0.537905 -1.079305,0.926813 -0.880485,2.564068 0.331196,2.727356 0.936911,0.126257 1.251705,-0.5008 0.396843,-0.790496 -0.27283,-0.09246 -0.36185,-0.304523 -0.197823,-0.471256 0.164026,-0.166732 0.745695,-0.07592 1.292599,0.201809 0.897453,0.455738 0.94131,0.58119 0.449977,1.287112 -0.796298,1.144079 -2.062764,1.172103 -3.222879,0.07131 z m 9.692369,-2.823158 c -5.360875,-1.627826 -9.172227,-4.717574 -11.573519,-9.382297 -1.246341,-2.421131 -1.298469,-2.703408 -1.30022,-7.040853 -0.0018,-4.421816 0.0291,-4.580055 1.44214,-7.387645 7.363388,-14.630469 29.547786,-12.457508 33.878321,3.31838 1.528073,5.566676 -0.33026,11.728919 -4.836946,16.039353 -4.608302,4.407616 -11.783795,6.222117 -17.609776,4.453062 z m 12.035758,-1.82614 c 3.457645,-1.541341 6.473025,-4.38455 8.218576,-7.749324 1.078733,-2.079399 1.366249,-3.140534 1.515998,-5.595079 0.330542,-5.417955 -0.91727,-8.777557 -4.634727,-12.478508 -6.556342,-6.527226 -16.667939,-6.909526 -23.682418,-0.895384 -7.249681,6.215801 -7.593173,16.781703 -0.758697,23.33773 3.804908,3.649885 6.979777,4.820779 12.684701,4.678115 3.510382,-0.08778 4.278695,-0.237547 6.656567,-1.29755 z m -11.220256,-6.501182 0,-4.518602 -4.76211,0 -4.762109,0 0,-3.765501 0,-3.765502 4.762109,0 4.76211,0 0,-4.518601 0,-4.518601 3.991758,0 3.99176,0 -0.122546,4.519314 -0.122544,4.519314 4.86132,-7.16e-4 4.86132,-7.15e-4 0,3.765501 0,3.765501 -4.762109,0 -4.76211,0 0,4.518601 0,4.518602 -3.968424,0 -3.968425,0 0,-4.518602 z m -17.461069,2.63585 c -0.855223,-0.81149 -1.001201,-1.741433 -0.412113,-2.625298 0.321364,-0.482176 0.400569,-0.477239 0.608923,0.03795 0.131728,0.325725 0.209477,0.744595 0.172774,0.930823 -0.183497,0.931073 0.126814,1.27997 1.138418,1.27997 0.611137,0 1.325453,-0.203337 1.58737,-0.45186 0.740146,-0.702301 0.563581,-1.856267 -0.317475,-2.074886 -0.811629,-0.201393 -1.128848,-1.238755 -0.378804,-1.238755 0.767593,0 2.441624,1.898349 2.200281,2.495117 -0.128759,0.318383 -0.234107,0.730115 -0.234107,0.914962 0,0.417966 -2.124484,1.485072 -2.956611,1.485072 -0.338233,0 -0.972129,-0.338895 -1.408656,-0.7531 z M 48.2657,44.904475 c -0.201242,-0.190952 0.773974,-2.11248 1.573861,-3.101073 0.183472,-0.226753 4.505797,2.337957 4.505797,2.673575 0,0.534799 -0.893113,0.31326 -2.629363,-0.652218 l -1.706986,-0.949208 -0.619912,1.137483 c -0.664608,1.219491 -0.726177,1.268348 -1.123397,0.891441 z m 2.111234,-3.887396 c 0,-0.250618 0.342034,-0.540539 0.760076,-0.644269 0.844905,-0.20965 1.543435,-2.08748 0.857247,-2.304513 -0.478782,-0.151433 -0.592926,-1.206403 -0.129164,-1.193784 0.674874,0.01836 4.370657,3.291923 4.130118,3.658271 -0.397703,0.605715 -5.618277,1.055727 -5.618277,0.484295 z m 3.893124,-1.371094 c -0.353222,-0.335159 -0.837938,-0.494607 -1.077146,-0.354327 -0.788002,0.462109 -0.453734,0.963707 0.642222,0.963707 0.992463,0 1.026656,-0.04791 0.434924,-0.60938 z M 8.850251,38.908258 c -1.283909,-1.859295 0.77989,-4.286497 3.162294,-3.719126 0.935283,0.222738 1.854881,1.529779 1.854881,2.636375 0,0.999496 -1.522831,2.053308 -2.967171,2.053308 -1.044942,0 -1.542451,-0.235542 -2.050004,-0.970557 z m 3.438671,-0.466736 c 0.767329,-0.589575 0.824598,-0.800991 0.414114,-1.528768 -0.599887,-1.063585 -2.273733,-0.958887 -3.074431,0.192307 -0.487541,0.700953 -0.477008,0.881125 0.08254,1.412062 0.82998,0.787543 1.47917,0.768503 2.577773,-0.0756 z m 39.4966,-2.298056 c -0.209973,-0.322373 0.659163,-1.103628 2.417636,-2.173172 0.645766,-0.39277 0.552421,-0.451297 -0.750695,-0.470687 -1.060193,-0.01578 -1.488159,-0.187611 -1.488159,-0.597521 0,-0.44442 0.338705,-0.536232 1.488159,-0.403391 0.818487,0.09459 1.979252,0.184063 2.579476,0.198826 1.602863,0.03942 1.345213,0.933479 -0.496053,1.721317 -0.873053,0.373562 -1.58737,0.822915 -1.58737,0.998564 0,0.175649 0.714317,0.319361 1.58737,0.319361 0.873053,0 1.58737,0.169448 1.58737,0.37655 0,0.474544 -5.02978,0.502957 -5.337734,0.03015 z M 9.402949,33.956258 c -2.4421293,-0.242391 -1.76789,-1.79643 0.894487,-2.06169 l 1.387357,-0.138226 -1.686581,-0.686526 c -1.187388,-0.483328 -1.68658,-0.911258 -1.68658,-1.445809 0,-0.64957 0.179195,-0.725277 1.240132,-0.52394 0.682074,0.12944 1.842838,0.235345 2.579477,0.235345 0.885645,0 1.339343,0.179194 1.339343,0.528994 0,0.395593 -0.425318,0.489959 -1.68658,0.374201 l -1.686581,-0.154793 1.190528,0.550191 c 0.65479,0.302604 1.413751,0.557832 1.68658,0.567173 0.272829,0.0093 0.496053,0.251393 0.496053,0.537892 0,0.538901 -1.056347,0.931942 -2.777897,1.033585 -0.644278,0.03804 -0.446452,0.138856 0.564243,0.287554 0.855993,0.125938 1.629835,0.440788 1.71965,0.699666 0.165829,0.477973 -0.415003,0.509891 -3.573631,0.196383 z m 42.779745,-3.24974 c -0.556639,-0.528178 -1.012075,-1.306921 -1.012075,-1.730541 0,-2.06642 3.682774,-3.140021 4.93803,-1.439532 1.243089,1.684011 0.460071,3.331502 -1.842532,3.87672 -0.83681,0.198144 -1.292905,0.04344 -2.083423,-0.706647 z m 3.024312,-0.864642 c 0.886999,-0.761677 0.902691,-1.037854 0.102112,-1.797493 -0.838107,-0.795253 -1.595985,-0.744927 -2.560225,0.170008 -1.625316,1.542206 0.736449,3.105899 2.458113,1.627485 z M 11.18874,27.938885 C 9.891383,27.576051 9.105317,27.146098 9.105317,26.799323 c 0,-0.306287 0.223224,-0.478714 0.496053,-0.383171 0.272829,0.09554 1.433593,0.466185 2.579476,0.823649 1.145883,0.357464 2.083423,0.805764 2.083423,0.996223 0,0.457427 -0.576731,0.401706 -3.075529,-0.297139 z m 38.984022,-1.624701 c -0.240304,-0.368942 3.481281,-2.239462 4.470228,-2.246796 0.866093,-0.0064 0.535722,0.610952 -0.595263,1.112378 -2.894379,1.283235 -3.636518,1.500501 -3.874965,1.134418 z m -36.9006,-1.170643 c -1.248656,-0.587653 -1.743804,-0.656475 -2.320488,-0.32253 -0.403216,0.233491 -0.826714,0.335722 -0.941108,0.227177 -0.309886,-0.29404 1.249979,-2.984078 1.838266,-3.170145 0.39789,-0.12585 0.410847,0.012 0.05964,0.634674 -0.408771,0.724744 -0.279929,0.870189 1.449624,1.636394 2.399884,1.063167 2.308897,0.995157 1.871818,1.399146 -0.223539,0.206614 -0.999736,0.04615 -1.957757,-0.404716 z m 35.518112,-1.550518 c 3.89e-4,-0.258879 0.815828,-0.959331 1.812086,-1.556561 1.282623,-0.768901 1.687859,-1.203074 1.388239,-1.487373 -0.510967,-0.48484 -0.551834,-1.00398 -0.07903,-1.00398 0.479795,0 2.546924,3.030568 2.255649,3.30695 -0.130681,0.123997 -0.520455,-0.04294 -0.866168,-0.370981 -0.573533,-0.544205 -0.777546,-0.501029 -2.329946,0.493102 -1.901253,1.217525 -2.181852,1.29715 -2.180828,0.618843 z M 14.13776,21.702527 12.225459,20.109934 13.635762,18.817747 c 1.61532,-1.480035 2.245768,-1.395164 0.979841,0.131907 -0.599958,0.723721 -0.726227,1.143452 -0.428868,1.425605 0.297358,0.282153 0.717639,0.08023 1.427474,-0.685818 1.097358,-1.184266 1.398596,-0.650006 0.42691,0.757144 -0.504764,0.730976 -0.516041,0.944408 -0.06852,1.296829 0.416557,0.328034 0.731892,0.170042 1.417928,-0.710424 0.485232,-0.62275 1.056271,-1.030216 1.268976,-0.905479 0.37674,0.220932 -1.816692,3.190841 -2.345163,3.175354 -0.145357,-0.0042 -1.124821,-0.724411 -2.176586,-1.600338 z m 33.356339,0.253344 c -0.13047,-0.123799 -0.138577,-0.469005 -0.01802,-0.767126 0.310907,-0.768774 -1.048934,-2.076551 -1.894446,-1.821917 -0.38154,0.114903 -0.788471,0.06342 -0.904289,-0.114393 -0.115823,-0.177818 0.766001,-0.777778 1.959604,-1.333242 3.694504,-1.719301 4.185493,-1.356954 2.644423,1.951555 -1.050073,2.254385 -1.300719,2.546802 -1.787279,2.085123 z m 1.225085,-3.287882 c 0.08929,-0.436846 -0.06084,-0.557665 -0.496053,-0.399199 -0.733623,0.267122 -0.8577,1.412881 -0.128041,1.182357 0.272828,-0.0862 0.55367,-0.438617 0.624094,-0.783158 z m -29.24418,-1.614592 c -0.724489,-0.975284 -1.190454,-1.988537 -1.061314,-2.30786 0.164714,-0.40729 0.668124,0.007 1.76938,1.456199 1.411472,1.857409 1.660589,2.590273 0.880493,2.590273 -0.163366,0 -0.878218,-0.782376 -1.588559,-1.738612 z M 43.210431,16.46618 c -0.01969,-1.691164 -0.09723,-1.896393 -0.496053,-1.312917 -1.088269,1.592132 -1.356999,1.852422 -1.769231,1.71367 -0.54844,-0.184596 1.898153,-4.099726 2.561948,-4.099726 0.297905,0 0.524213,0.747095 0.598831,1.976888 l 0.119949,1.976887 0.780038,-1.223788 c 0.429018,-0.673083 1.024144,-1.223787 1.322493,-1.223787 0.735826,0 -1.640749,3.910848 -2.476646,4.075524 -0.49593,0.0977 -0.622602,-0.274162 -0.641329,-1.882751 z M 21.291682,15.58299 c -0.591127,-1.143652 -1.074776,-2.160337 -1.074776,-2.2593 0,-0.423427 1.348345,-0.126168 2.319794,0.511426 2.044809,1.342074 2.150722,1.347113 1.454274,0.0692 -0.361215,-0.662795 -0.539188,-1.486321 -0.395495,-1.830058 0.19012,-0.454799 0.561355,-0.0098 1.363362,1.634324 0.606157,1.242615 0.959328,2.409489 0.784824,2.593051 -0.179057,0.188354 -0.955166,-0.02336 -1.781506,-0.485988 -1.64036,-0.918347 -2.029647,-0.839308 -1.39635,0.283508 0.505869,0.896892 0.554812,1.563205 0.114822,1.563205 -0.172796,0 -0.797823,-0.935715 -1.388949,-2.079367 z m 18.152511,0.646831 c -0.216382,-0.144067 -0.609185,-0.727919 -0.872894,-1.297452 -0.565791,-1.221944 -1.138009,-1.330504 -1.488588,-0.282412 -0.138548,0.414205 -0.526846,0.753101 -0.862884,0.753101 -0.401519,0 -0.525948,-0.21026 -0.362949,-0.613307 0.136417,-0.337319 0.444591,-1.354005 0.684832,-2.259301 0.47769,-1.800072 1.265505,-2.088678 3.300227,-1.209002 1.245295,0.538381 1.411763,2.169865 0.250796,2.457941 -0.657255,0.163087 -0.704693,0.339061 -0.350955,1.301894 0.437106,1.189771 0.338129,1.571785 -0.29758,1.148538 z m 0.416875,-3.46332 c 0.135146,-0.20749 -0.2231,-0.546385 -0.796101,-0.753099 -1.377182,-0.496831 -1.386992,-0.494162 -1.386992,0.377255 0,0.547418 0.264562,0.7531 0.968684,0.7531 0.532777,0 1.079261,-0.169765 1.214409,-0.377256 z m -12.11182,0.907047 c -0.391661,-1.79015 -0.57446,-2.077852 -1.218663,-1.918003 -0.480639,0.119263 -0.757885,-0.0057 -0.757885,-0.341517 0,-0.291264 0.223225,-0.531437 0.496054,-0.533717 0.272829,-0.0023 1.165724,-0.109174 1.984212,-0.237543 0.987346,-0.154853 1.488159,-0.0901 1.488159,0.19242 0,0.234199 -0.285403,0.425818 -0.634228,0.425818 -0.541312,0 -0.593743,0.330995 -0.357878,2.259301 0.357442,2.922258 -0.369566,3.033691 -0.999771,0.153241 z m 3.843809,1.478476 c -0.145509,-0.138068 -0.264562,-1.324201 -0.264562,-2.635851 l 0,-2.384817 1.488159,0.0058 c 1.555881,0.006 2.822734,0.502055 2.205984,0.863736 -0.197459,0.115796 -0.83226,0.161247 -1.410669,0.101 -0.578409,-0.06024 -1.137929,0.103797 -1.243378,0.364541 -0.271571,0.671516 0.113209,0.924259 1.4071,0.924259 0.618412,0 1.124386,0.169447 1.124386,0.37655 0,0.207102 -0.625027,0.37655 -1.388948,0.37655 -0.970059,0 -1.388949,0.170344 -1.388949,0.564825 0,0.346353 0.37119,0.564826 0.95965,0.564826 1.214992,0 2.21509,0.358208 2.21509,0.793386 0,0.386994 -3.30567,0.463061 -3.703863,0.08523 z"
       id="path3190"
       inkscape:connector-curvature="0" />
  </g>
</svg>
