<?xml version="1.0" standalone="no"?>
<!DOCTYPE svg PUBLIC "-//W3C//DTD SVG 1.1//EN" "http://www.w3.org/Graphics/SVG/1.1/DTD/svg11.dtd" >
<svg viewBox="0 -256 1792 1792">
  <g transform="matrix(1 0 0 -1 0 1536)">
   <path fill="currentColor"
d="M616 1741h17q430 0 495 -528h172q0 287 -205 510v18h85q205 -203 205 -546q-65 -546 -530 -546q-360 0 -477 459v70h-172v-18q0 -280 205 -494v-17h-85q-205 176 -205 564q69 528 495 528zM446 1600l17 -17h33l69 70h-17q-102 -17 -102 -53zM685 1653q35 -70 85 -70
l51 17v18zM548 1565l51 -17l17 17v53h-17zM651 1618v-70l50 17zM241 1406h170l69 142l-69 35h-17q-114 -90 -153 -177zM787 1565l51 -159h154v18q0 63 -154 159zM496 1530l-50 -124h170v106zM651 1512v-106h154q-25 90 -69 124zM223 1371l-17 -158h172v70l16 88h-171z
M428 1371l-17 -123v-35h188q0 88 52 88l-18 17v18l18 18v17h-223zM668 1371l51 -158h51q12 88 51 88l-16 17v18l16 18v17h-153zM855 1371v-53l68 -105h120v35l-17 123h-171zM599 1160l-16 18h-120v-107l33 -35h103l34 159zM873 1195v-17q17 -142 50 -142h155l17 124v18h-120
l-85 -18v35h-17zM701 1178v-35l18 -54h17v19l-17 70h-18zM1128 1178v-53l-16 -89h171l17 142h-172zM651 1143l-18 -107h52v18l-17 89h-17zM496 984q0 -48 155 -176q68 26 68 53l-51 123h-172zM701 984v-18l35 -88h119v106h-154zM890 984v-106l102 -17l68 123h-170zM1026 843
l69 -35q83 40 153 158v18h-136q-27 0 -86 -141zM787 843l68 -70v70h-68zM890 843v-70l68 35v35h-68zM701 808v-35l120 -35l-68 88zM992 826q0 -53 -51 -53l-18 -18v-17h18l119 35zM121 543h1264v-140h-1264v140zM138 244h35v-211l-35 35v176zM275 244h68l51 -53v-88l-68 -70
q-120 0 -120 123v18zM428 244h52l34 -123h17q11 123 52 123h33v-211h-33v105h-18q-17 -105 -51 -105h-18l-16 105h-17v-105h-35v211zM941 244h34q103 0 103 -106v-35l-68 -70h-52l-68 70v35q10 106 51 106zM1112 244h34v-211h-34v211zM1180 244h35q40 0 50 -123h18l34 123
h51v-211h-35v105h-16l-17 -105h-17q-35 0 -52 105h-16v-105h-35v211zM258 174v-71l33 -35h18l51 53l-17 88h-52zM923 156v-35l52 -53h17l51 70q-25 71 -51 71h-17zM719 138h51l35 -35h-86v35z" />
  </g>

</svg>
