<?xml version="1.0" encoding="UTF-8" standalone="no"?>
<!-- Created with Inkscape (http://www.inkscape.org/) -->

<svg
   xmlns:dc="http://purl.org/dc/elements/1.1/"
   xmlns:cc="http://creativecommons.org/ns#"
   xmlns:rdf="http://www.w3.org/1999/02/22-rdf-syntax-ns#"
   xmlns:svg="http://www.w3.org/2000/svg"
   xmlns="http://www.w3.org/2000/svg"
   xmlns:sodipodi="http://sodipodi.sourceforge.net/DTD/sodipodi-0.dtd"
   xmlns:inkscape="http://www.inkscape.org/namespaces/inkscape"
   width="64px"
   height="64px"
   id="svg3079"
   version="1.1"
   inkscape:version="0.48.3.1 r9886"
   sodipodi:docname="orga-jen.svg">
  <defs
     id="defs3081" />
  <sodipodi:namedview
     id="base"
     pagecolor="#ffffff"
     bordercolor="#666666"
     borderopacity="1.0"
     inkscape:pageopacity="0.0"
     inkscape:pageshadow="2"
     inkscape:zoom="1.8319513"
     inkscape:cx="134.15341"
     inkscape:cy="43.412873"
     inkscape:current-layer="layer1"
     showgrid="true"
     inkscape:document-units="px"
     inkscape:grid-bbox="true"
     inkscape:window-width="819"
     inkscape:window-height="670"
     inkscape:window-x="16"
     inkscape:window-y="0"
     inkscape:window-maximized="0" />
  <metadata
     id="metadata3084">
    <rdf:RDF>
      <cc:Work
         rdf:about="">
        <dc:format>image/svg+xml</dc:format>
        <dc:type
           rdf:resource="http://purl.org/dc/dcmitype/StillImage" />
        <dc:title></dc:title>
      </cc:Work>
    </rdf:RDF>
  </metadata>
  <g
     id="layer1"
     inkscape:label="Layer 1"
     inkscape:groupmode="layer">
    <path
       style="fill:#000000"
       d="m 23.201587,60.929393 c -0.111047,-0.174112 0.0523,-0.305898 0.352525,-0.28446 0.158222,0.0113 0.287676,0.09356 0.287676,0.18279 0,0.17873 -0.536695,0.263962 -0.640201,0.10167 z m -0.467668,-0.714996 c -0.380983,-0.290402 -0.542013,-0.927944 -0.357947,-1.417138 l 0.128291,-0.340953 0.0099,0.324479 c 0.01518,0.498023 0.133891,0.702216 0.520867,0.89613 0.427906,0.214426 0.872086,0.226975 1.30283,0.03676 0.433233,-0.191288 0.401849,-0.322228 -0.08822,-0.368016 -0.394871,-0.03684 -0.407471,-0.05518 -0.395472,-0.575422 0.01904,-0.825404 0.300699,-0.982829 1.758462,-0.982829 0.648068,0 1.178311,-0.04984 1.178311,-0.1108 0,-0.187035 -0.757581,-0.740483 -1.013599,-0.740483 -0.286728,0 -0.317616,-0.273726 -0.05474,-0.485127 0.313646,-0.252251 0.728427,-0.04174 1.306712,0.663315 0.470379,0.573455 0.613706,0.673095 0.968179,0.673095 0.489097,0 0.685318,-0.262209 0.583285,-0.779437 -0.08891,-0.450702 0.156149,-0.327612 0.27704,0.139146 0.217575,0.840078 0.564145,0.833742 1.561419,-0.02856 1.046701,-0.905046 1.5,-0.882592 1.632682,0.0809 0.06474,0.470309 0.111485,0.531485 0.433011,0.567092 0.198213,0.02198 0.408811,-0.0072 0.467986,-0.06434 0.09387,-0.09097 -0.05799,-1.702638 -0.340444,-3.612655 l -0.08825,-0.596817 0.259928,0.251886 c 0.204865,0.198524 0.255574,0.389332 0.239382,0.900836 -0.01134,0.356928 0.02614,1.346708 0.08321,2.199504 l 0.103744,1.550544 -2.025813,0 c -1.225057,0 -2.127083,-0.0525 -2.282024,-0.132881 -0.185288,-0.09609 -0.294172,-0.09609 -0.393338,0 -0.0882,0.08544 -0.883805,0.132881 -2.230086,0.132881 -1.59781,0 -2.126038,0.03862 -2.232737,0.16321 -0.170704,0.199315 -0.06193,0.322619 0.286824,0.325102 0.52114,0.0036 0.635535,0.174664 0.471631,0.704796 -0.247752,0.801339 -1.388523,1.146038 -2.071033,0.625794 z m 8.806843,-2.5346 c 0.258004,-0.15844 0.118559,-0.55579 -0.210998,-0.60124 -0.278394,-0.03836 -1.147793,0.428748 -1.14957,0.617678 -0.0015,0.125698 1.151808,0.11177 1.360568,-0.01646 z m -16.703305,2.288366 c -0.25884,-0.132408 -0.470616,-0.294168 -0.470616,-0.359456 0,-0.151666 0.04444,-0.149272 0.435692,0.0235 0.286224,0.126374 0.36482,0.102728 0.707339,-0.212826 0.21193,-0.195248 0.465001,-0.502766 0.562375,-0.683383 0.236766,-0.439187 0.224567,-1.315095 -0.02311,-1.657749 -0.135061,-0.186846 -0.170985,-0.383492 -0.110491,-0.60471 l 0.08965,-0.327826 0.226678,0.486452 c 0.495001,1.062249 0.214784,2.773964 -0.552019,3.37201 -0.328726,0.25638 -0.29095,0.257955 -0.865509,-0.03596 z m 21.753821,-0.222178 c -0.247686,-0.184534 -0.309179,-0.353787 -0.341444,-0.93979 -0.03185,-0.578822 -0.01904,-0.638628 0.0677,-0.314514 0.228567,0.854684 0.832266,1.095054 1.604402,0.638832 0.489423,-0.289192 0.633794,-0.854192 0.424285,-1.66048 -0.07954,-0.306084 -0.104276,-0.674554 -0.05496,-0.818818 0.08771,-0.256682 0.0916,-0.255783 0.180488,0.04174 0.146756,0.49116 0.128269,2.272792 -0.02704,2.603064 -0.157964,0.335962 -0.799409,0.681934 -1.256537,0.677742 -0.162126,-0.0018 -0.430721,-0.103984 -0.59687,-0.227759 z m 2.636156,0.04138 c -0.234775,-0.09874 -0.397368,-0.2081 -0.361332,-0.243022 0.03607,-0.03488 0.214561,0.0026 0.396716,0.08276 0.291712,0.128794 0.36988,0.111218 0.655623,-0.147467 0.178428,-0.161528 0.410381,-0.453871 0.515443,-0.649645 0.183229,-0.341398 0.177607,-0.365418 -0.137416,-0.587792 -0.365821,-0.258232 -0.440373,-0.813345 -0.182807,-1.361152 0.29492,-0.627236 0.726709,-0.28946 0.731123,0.571934 0.0015,0.26641 0.05911,0.333646 0.284076,0.330567 0.323697,-0.0044 0.721605,-0.261168 0.721605,-0.465583 0,-0.07626 -0.08472,-0.138612 -0.188251,-0.138612 -0.197028,0 -0.241122,-0.211392 -0.112061,-0.537305 0.09815,-0.247863 0.841962,-0.256691 1.051108,-0.01246 0.116721,0.136288 0.120446,0.273298 0.01533,0.565392 -0.206428,0.573838 -0.191065,0.592456 0.488793,0.592456 0.425203,0 0.627482,-0.05002 0.627482,-0.155209 0,-0.08534 -0.05192,-0.591566 -0.115372,-1.124902 -0.06348,-0.533336 -0.15066,-1.395361 -0.193799,-1.915605 -0.07827,-0.944045 -0.07792,-0.945486 0.178126,-0.733044 0.274543,0.227794 0.331415,0.524054 0.136793,0.712646 -0.07599,0.07369 -0.04629,0.722096 0.08123,1.774911 0.110543,0.912388 0.166193,1.746718 0.123683,1.854074 -0.12052,0.304349 -1.355902,0.27102 -1.650593,-0.0445 -0.222782,-0.238545 -0.225404,-0.238545 -0.538361,0 -0.17297,0.131848 -0.444246,0.23972 -0.602847,0.23972 -0.191317,0 -0.315675,0.09208 -0.369539,0.273627 -0.168689,0.568552 -0.456187,1.065115 -0.68554,1.184067 -0.300682,0.155939 -0.351132,0.152121 -0.869257,-0.06576 z m 1.363991,-2.372182 c -0.132194,-0.239355 -0.497904,-0.329642 -0.497904,-0.122912 0,0.181454 0.385924,0.503834 0.512436,0.428062 0.06918,-0.04148 0.06333,-0.164126 -0.01452,-0.30515 z m -30.577323,2.30775 c -0.1433931,-0.13896 -0.07804,-0.597806 0.08515,-0.597806 0.187695,0 0.380139,0.337554 0.303208,0.531842 -0.09145,0.230918 -0.199242,0.249224 -0.38836,0.06594 z m 38.882078,0.02358 c -0.110136,-0.06764 -0.138979,-0.200188 -0.08166,-0.375217 0.06452,-0.196931 0.126269,-0.234193 0.226776,-0.136796 0.210368,0.203863 0.304171,0.162979 0.390456,-0.170169 0.09465,-0.365481 0.278299,-0.394823 0.387346,-0.06194 0.101965,0.311318 -0.0177,0.49651 -0.262144,0.405626 -0.126091,-0.0469 -0.215635,0.01736 -0.261611,0.187729 -0.07647,0.283391 -0.142497,0.308319 -0.399167,0.150723 z M 7.7557218,59.003525 c 0,-0.434754 0.022742,-0.612614 0.050591,-0.395232 0.027849,0.217374 0.027849,0.573091 0,0.790472 -0.027849,0.217382 -0.050591,0.03952 -0.050591,-0.39524 z m 47.1917062,0.425642 c -0.0397,-0.100326 -0.03592,-0.274224 0.0085,-0.386422 0.07407,-0.187016 0.09752,-0.187798 0.28158,-0.0094 0.206984,0.200561 0.151779,0.57826 -0.08451,0.57826 -0.07333,0 -0.165882,-0.08206 -0.205613,-0.182414 z m -44.327516,-0.04752 c -0.176348,-0.108272 -0.09324,-0.621371 0.10064,-0.621371 0.192895,0 0.387516,0.334537 0.309386,0.531832 -0.08834,0.223095 -0.165192,0.23988 -0.410026,0.08954 z m 6.852087,-0.571551 c -0.174978,-0.169555 -0.09351,-0.40592 0.283239,-0.821719 0.207064,-0.228533 0.376487,-0.526563 0.376487,-0.662274 0,-0.410458 -0.53274,-1.625674 -0.743782,-1.696621 -0.359717,-0.120919 -0.631046,-0.570065 -0.633883,-1.049291 -0.0023,-0.4153 0.02059,-0.452118 0.195244,-0.311664 0.222871,0.179238 0.706776,1.062168 1.125372,2.053326 l 0.279868,0.662674 0.148564,-0.693457 c 0.08548,-0.398997 0.112765,-0.97109 0.06429,-1.347241 -0.09417,-0.730418 0.03874,-0.927036 0.379849,-0.561806 0.179933,0.192668 0.196725,0.300692 0.08937,0.57479 -0.07274,0.185646 -0.166377,0.621656 -0.208146,0.96892 -0.04178,0.347262 -0.155252,0.81531 -0.252174,1.040106 -0.113187,0.262502 -0.135119,0.471679 -0.06133,0.584722 0.187569,0.287306 0.146549,1.209715 -0.05378,1.209715 -0.09491,0 -0.335303,0.0315 -0.534227,0.07013 -0.198917,0.03854 -0.403634,0.02946 -0.454921,-0.02029 z m 0.863746,-0.714675 c 0.140461,-0.354711 -0.03229,-0.455384 -0.244004,-0.142233 -0.189976,0.280979 -0.192665,0.320635 -0.02171,0.320635 0.107291,0 0.226871,-0.08028 0.265728,-0.178402 z m -8.9407481,-0.0129 c 0.119298,-0.249394 0.229315,-0.29334 0.7363591,-0.29415 0.590522,-8.9e-4 0.5961,-0.0044 0.5961,-0.402271 0,-0.220719 -0.05822,-0.457707 -0.129321,-0.526635 -0.08361,-0.08098 -0.08818,-0.229307 -0.01289,-0.419554 l 0.116395,-0.294248 0.138424,0.34235 c 0.07613,0.18829 0.138415,0.557686 0.138415,0.820883 l 0,0.478523 0.578463,0 0.578463,0 -0.07051,-0.395232 c -0.03881,-0.217382 -0.107847,-0.573099 -0.153466,-0.790481 -0.04918,-0.234345 -0.03229,-0.395231 0.04155,-0.395231 0.233315,0 0.419781,0.688927 0.381449,1.409368 l -0.03822,0.718831 -1.52071,0.02056 -1.5207101,0.02056 0.140253,-0.293207 z m 3.3655011,0.167019 c -0.08283,-0.08028 -0.150601,-0.278495 -0.150601,-0.440531 0,-0.242104 0.03208,-0.268794 0.180051,-0.149789 0.09903,0.07966 0.367273,0.12738 0.596107,0.106093 0.415315,-0.03862 0.415997,-0.03978 0.383509,-0.646753 -0.02007,-0.374309 -0.128579,-0.734725 -0.282365,-0.937565 -0.258315,-0.340713 -0.347837,-0.898861 -0.122528,-0.763925 0.36725,0.219945 0.625683,1.046318 0.625683,2.000668 l 0,0.977738 -0.539628,0 c -0.296802,0 -0.607402,-0.06568 -0.690228,-0.145936 z m 35.376234,-0.116046 c -0.06577,-0.1569 -0.154408,-0.44191 -0.196953,-0.633349 -0.07428,-0.334252 -0.0869,-0.339726 -0.317371,-0.137606 -0.162001,0.142073 -0.343622,0.18528 -0.558805,0.132942 -0.474579,-0.115419 -0.407257,-0.538978 0.183184,-1.15258 0.317127,-0.329561 0.501985,-0.637328 0.501985,-0.835762 0,-0.553974 0.115876,-0.224555 0.248574,0.706629 0.238182,1.671489 0.178888,1.573647 0.95361,1.573647 0.638459,0 0.680258,-0.01834 0.680258,-0.298306 0,-0.164064 -0.06392,-0.434203 -0.141994,-0.600296 -0.0781,-0.166103 -0.102247,-0.401258 -0.0537,-0.522577 0.07952,-0.198613 0.105714,-0.190301 0.26304,0.08348 0.0961,0.167223 0.176725,0.53661 0.17917,0.820882 0.0044,0.550921 0.154904,0.642632 0.640179,0.39096 0.256788,-0.133183 0.335622,-0.482172 0.108905,-0.482172 -0.236151,0 -0.07229,-0.663502 0.175133,-0.708997 0.495616,-0.09114 0.837171,0.08991 0.837171,0.443771 0,0.186001 -0.06777,0.403864 -0.150594,0.48413 -0.230678,0.22354 0.04756,0.413528 0.538309,0.367606 0.334979,-0.03132 0.514971,-0.161776 0.892257,-0.64661 0.259944,-0.334046 0.521422,-0.623114 0.581056,-0.642382 0.05963,-0.01922 0.187984,0.254048 0.285224,0.607354 l 0.176785,0.642382 0.846421,0.03596 c 0.502526,0.02136 0.846415,-0.01318 0.846415,-0.08499 0,-0.174121 -0.801254,-0.741418 -1.047191,-0.741418 -0.114269,0 -0.207769,-0.07538 -0.207769,-0.167526 0,-0.265253 0.346956,-0.474314 0.657223,-0.396015 0.353325,0.08917 1.476208,1.439655 1.476208,1.775427 0,0.235431 -0.07488,0.247454 -1.540775,0.247454 -1.209102,0 -1.60247,-0.04182 -1.827378,-0.194528 -0.262678,-0.178294 -0.305105,-0.178294 -0.508414,0 -0.345451,0.302952 -1.19488,0.255998 -1.430803,-0.07912 -0.191414,-0.271874 -0.193858,-0.27207 -0.381546,-0.03044 -0.161059,0.20738 -0.365695,0.249422 -1.388575,0.285278 -1.159756,0.04068 -1.20365,0.03258 -1.319267,-0.243226 z m 5.547752,-0.707047 c -0.105143,-0.389652 -0.354606,-0.523644 -0.550042,-0.295458 -0.145823,0.170276 -0.128831,0.229725 0.121921,0.426496 0.338666,0.265742 0.520206,0.210182 0.428121,-0.131038 z m -6.008723,-0.564132 c 0.178851,-0.06648 0.293846,-0.534244 0.131349,-0.534244 -0.140727,0 -0.685821,0.397759 -0.685821,0.500434 0,0.12439 0.267084,0.140676 0.554472,0.03382 z m -13.982028,0.37785 c -0.0037,-0.601978 -0.03607,-1.532308 -0.0714,-2.067398 -0.04333,-0.65574 -0.02445,-0.911666 0.05785,-0.785088 0.190725,0.293306 0.325793,3.437706 0.159593,3.715126 -0.109284,0.182406 -0.140431,-0.0018 -0.146038,-0.86264 z M 7.5900623,58.117383 c 0,-0.02172 0.1411785,-0.22493 0.3137346,-0.451585 0.39176,-0.514557 0.390508,-0.548847 -0.02126,-0.581875 -0.1842511,-0.01478 -0.3677907,-0.06158 -0.4078556,-0.103956 -0.040072,-0.04236 0.082448,-0.04984 0.2722621,-0.01656 0.2639515,0.04628 0.3451105,0.01272 0.3451105,-0.143036 0,-0.111983 0.169422,-0.360905 0.376487,-0.553146 0.207072,-0.19224 0.377353,-0.462424 0.378412,-0.600403 0.0015,-0.137979 0.05666,-0.332961 0.123572,-0.433295 0.08635,-0.129481 0.12221,0.02056 0.123573,0.516854 0.0015,0.384596 -0.04044,0.68842 -0.0922,0.675168 -0.21179,-0.0542 -0.658852,0.173996 -0.658852,0.336316 0,0.230545 0.364658,0.222295 0.634497,-0.01432 0.198732,-0.174281 0.218968,-0.15585 0.267048,0.243226 0.02859,0.237486 0.0067,0.431792 -0.04829,0.431792 -0.05518,0 -0.100292,-0.04636 -0.100292,-0.103102 0,-0.05669 -0.169918,-0.107784 -0.37759,-0.113506 -0.298802,-0.008 -0.418611,0.06648 -0.574182,0.357996 l -0.196599,0.368408 0.417315,-0.07306 c 0.289157,-0.05064 0.340236,-0.04112 0.166326,0.03106 -0.309513,0.128404 -0.9412253,0.280782 -0.9412253,0.227046 z m 12.2068027,-1.75439 c -0.09089,-1.087916 -0.10981,-1.964642 -0.04592,-2.1282 0.17834,-0.456772 0.282239,0.587054 0.238605,2.397316 l -0.03807,1.580944 -0.154549,-1.85006 z M 6.8370885,57.909025 c -0.2522184,-0.07832 -0.2645216,-0.09807 -0.062738,-0.10094 0.1380457,-0.0018 0.3639393,0.04344 0.501985,0.10094 0.3197933,0.133164 -0.010148,0.133164 -0.4392323,0 z M 44.388507,56.287961 c -0.09262,-1.078509 -0.109861,-1.881432 -0.04288,-1.997394 0.07237,-0.12535 0.144098,0.428578 0.202813,1.566812 0.123365,2.39146 0.03008,2.642722 -0.159919,0.430582 z m -35.2924971,1.49945 c -0.160867,-0.100744 -0.156304,-0.118151 0.03141,-0.119744 0.120787,-8.9e-4 0.21962,0.05286 0.21962,0.119744 0,0.148322 -0.01415,0.148322 -0.250997,0 z m 27.3222761,-0.48834 c 0.03637,-0.13481 0.125401,-0.280604 0.197821,-0.32398 0.0828,-0.04958 0.100469,-5.4e-5 0.04762,0.133458 -0.04622,0.116772 -0.08407,0.262556 -0.08407,0.323972 0,0.0614 -0.05118,0.111664 -0.113751,0.111664 -0.06259,0 -0.08398,-0.110293 -0.04762,-0.245114 z m 0.932743,-1.443836 c -0.132602,-0.08144 -0.138446,-0.16111 -0.02667,-0.363506 0.114417,-0.207174 0.1762,-0.229316 0.307713,-0.110266 0.0905,0.08196 0.138268,0.246342 0.106143,0.365366 -0.06503,0.241018 -0.137979,0.261434 -0.38719,0.108406 z M 11.76752,55.500985 c -0.134364,-0.08276 -0.09388,-0.632246 0.04659,-0.632246 0.166467,0 0.372902,0.328094 0.322934,0.513258 -0.06392,0.236908 -0.138861,0.261036 -0.369524,0.118988 z m 35.246692,-0.861864 c -0.135838,-0.08338 -0.139667,-0.158894 -0.01911,-0.377158 0.13112,-0.237432 0.174162,-0.25014 0.331303,-0.09787 0.09981,0.09672 0.144468,0.266285 0.09982,0.379026 -0.09074,0.229138 -0.166451,0.246776 -0.412003,0.096 z m 0.627484,-0.36484 c -0.13318,-0.08178 -0.138654,-0.160728 -0.0254,-0.365836 0.126158,-0.228436 0.167489,-0.23924 0.326334,-0.08534 0.100032,0.09694 0.147763,0.262405 0.106069,0.367706 -0.0858,0.21666 -0.163985,0.232688 -0.407033,0.08348 z M 11.480437,52.685273 c -0.623587,-0.322166 -1.089018,-0.83676 -1.312831,-1.45149 -0.1687701,-0.463528 -0.1924281,-1.981508 -0.1876131,-12.03781 0.0044,-9.294924 0.03785,-11.595126 0.1735481,-11.963686 0.24261,-0.65881 0.739781,-1.238692 1.288438,-1.502778 0.454143,-0.218602 0.814919,-0.227956 7.317221,-0.189696 7.567832,0.0445 7.325406,0.01914 8.025012,0.841574 0.198577,0.233454 0.422514,0.660992 0.49763,0.950078 0.153193,0.589537 0.188777,3.5839 0.04244,3.572456 -0.05177,-0.0044 -0.568945,-0.5833 -1.14929,-1.287232 -0.580344,-0.703932 -1.201545,-1.333972 -1.380456,-1.400096 -1.341688,-0.495842 -3.14606,1.22796 -2.603209,2.486962 0.09705,0.22508 0.423388,0.685154 0.725204,1.022396 0.301816,0.337232 1.25467,1.451108 2.117454,2.475266 0.862783,1.024158 1.752232,2.063972 1.976563,2.310704 l 0.407863,0.448602 -0.003,6.977928 c -0.0023,6.544614 -0.01726,7.008906 -0.23662,7.476918 -0.128616,0.274456 -0.395626,0.649272 -0.593344,0.832916 -0.739633,0.686988 -0.599306,0.675124 -7.916594,0.669294 -6.341235,-0.0054 -6.776001,-0.01914 -7.188671,-0.232306 z m 27.97118,-0.0517 C 38.709909,52.376718 38.252211,51.986398 37.908137,51.3173 l -0.324541,-0.631108 0,-6.794212 0,-6.794222 2.806912,-2.703087 c 1.543805,-1.486697 2.84805,-2.828688 2.89833,-2.982197 0.335377,-1.02399 -0.988896,-2.568588 -2.20222,-2.568588 -0.339245,0 -0.619824,0.212816 -1.918811,1.455398 l -1.521458,1.455388 -0.03755,-2.21546 c -0.02066,-1.218508 -0.0044,-2.440522 0.03652,-2.7156 0.149712,-1.010988 0.990741,-1.865518 2.071796,-2.105052 0.347207,-0.0769 3.081603,-0.126268 7.099113,-0.1281 7.847123,-0.0036 7.771319,-0.01504 8.632866,1.307494 l 0.331504,0.508872 0,12.209518 c 0,10.365226 -0.02733,12.272982 -0.181155,12.629642 -0.240197,0.55708 -1.064871,1.264556 -1.66103,1.42498 -0.745085,0.20049 -13.897808,0.166538 -14.486716,-0.03738 z M 31.598945,41.291839 c -0.082,-0.0324 -0.476453,-0.452152 -0.876568,-0.932884 -0.400116,-0.480738 -0.823533,-0.983512 -0.940921,-1.117292 -0.604921,-0.689337 -2.643282,-3.085086 -4.604409,-5.41171 -1.212146,-1.438054 -2.277084,-2.687318 -2.366509,-2.776136 -0.313586,-0.311452 -0.436506,-0.662016 -0.360784,-1.02892 0.162667,-0.788168 1.090996,-1.545844 1.894012,-1.545844 0.358191,0 0.695065,0.293242 1.62015,1.410276 0.282305,0.34089 1.896878,2.247962 3.587943,4.237942 4.582344,5.392327 4.392359,5.153132 4.392359,5.5302 0,0.965839 -1.460357,1.983528 -2.345273,1.634368 z m 2.596262,-1.779762 c 0,-0.351374 -0.13172,-0.592054 -0.660045,-1.205976 -0.36302,-0.421851 -0.739174,-0.865283 -0.835888,-0.985418 -0.16066,-0.199556 0.137416,-0.519516 3.452334,-3.705772 4.769943,-4.584795 4.743899,-4.562635 5.240604,-4.460708 0.878967,0.18036 1.843688,1.362468 1.66608,2.041508 -0.048,0.18351 -7.358804,7.409852 -8.806436,8.704684 -0.03118,0.02786 -0.05666,-0.14687 -0.05666,-0.388318 z M 16.500279,23.543737 c -1.688273,-0.431622 -3.325726,-1.592434 -4.231618,-2.999836 -0.841948,-1.308065 -1.183392,-2.482654 -1.175459,-4.043574 0.02296,-4.511151 4.270861,-7.8977112 8.706841,-6.9413502 1.292409,0.278638 2.276187,0.7790102 3.274557,1.6655182 0.928018,0.824042 1.66897,1.937098 2.095358,3.147632 0.334993,0.951066 0.399901,2.95791 0.129802,4.013174 -0.624461,2.439748 -2.755018,4.53663 -5.240966,5.158124 -0.947254,0.23682 -2.632845,0.23697 -3.558515,4.19e-4 z m 28.125195,-0.729412 c -1.973712,-0.51437 -3.818696,-2.107472 -4.670576,-4.032948 -0.949062,-2.145118 -0.828134,-4.950916 0.302505,-7.018838 0.579818,-1.060469 1.917633,-2.3778432 2.944513,-2.8995202 2.812941,-1.429029 5.764816,-0.985241 8.019923,1.2057282 2.452913,2.383146 2.975386,6.197894 1.275646,9.313968 -0.534516,0.979918 -1.942409,2.35013 -2.939239,2.860584 -0.419766,0.214952 -1.095188,0.474608 -1.500947,0.577024 -0.914115,0.230732 -2.534331,0.227902 -3.431825,-0.0062 z"
       id="path3585"
       inkscape:connector-curvature="0" />
  </g>
</svg>
