<?xml version="1.0" standalone="no"?>
<!DOCTYPE svg PUBLIC "-//W3C//DTD SVG 1.1//EN" "http://www.w3.org/Graphics/SVG/1.1/DTD/svg11.dtd" >
<svg viewBox="0 -256 1792 1792">
  <g transform="matrix(1 0 0 -1 0 1536)">
   <path fill="currentColor"
d="M192 1710h1123l11 -11v-420l-11 -11h-369v-5l380 -387v-299l-11 -12h-309l-380 376v-364l-11 -12h-423l-11 12v1122zM192 473l5 -6v-54l-11 -11l-5 5v55zM263 473l21 -44h5q0 44 11 44l5 -6v-54l-10 -11q-9 0 -27 43h-5v-38h-11v55zM349 473h38l11 -11l-22 -5v-50h-11v50
h-16v16zM453 473h21l10 -11l-31 -5v-12q31 0 31 -10l-31 -6v-16h31v-11h-31l-11 11v49zM550 473h5q33 -4 33 -16v-17l-11 -11l11 -22l-5 -5h-6l-11 22h-16v-17h-11v55zM648 473l26 -49h6v43h11v-54l-11 -11l-22 38h-4q0 -38 -11 -38l-6 5v55zM767 473q22 -43 22 -71l-16 11
h-17l-16 -11l-6 5q20 66 33 66zM859 473l11 -11l-17 -5v-50h-9v50q-22 0 -22 10l5 6h32zM924 473l6 -6v-54l-11 -11l-6 5v55zM1001 473h16l22 -23v-32l-16 -16h-28q-22 9 -22 38v5zM1098 473l22 -44h5q0 44 11 44l6 -6v-54l-11 -11q-10 0 -28 43h-5v-38h-11v55zM1212 473
q11 0 27 -66l-6 -5h-4l-11 11h-16l-17 -11v11q13 60 27 60zM1293 473l6 -6v-54h22v-11h-28l-11 11v49zM550 457v-22h5l17 5v17h-22zM990 445v-5l5 -27h17l16 16v16l-11 12h-16zM762 450l-6 -21l6 -5h11l-6 26h-5zM1207 450l-5 -21l5 -5h11v16zM859 363q45 0 82 -43v-17
l-44 -16l-27 28h-11q-37 0 -37 -38v-39l27 -27h4q22 0 49 27l44 -21q-25 -55 -97 -55q-87 19 -87 81v28q0 78 97 92zM643 358h37q50 -11 54 -27v-6l-27 -22l-44 12h-26v-22q103 0 103 -60v-5q0 -66 -86 -66q-65 0 -93 43l44 28q0 -14 43 -22h21l16 17q-113 25 -113 65v17
q15 48 71 48zM192 353h113q42 0 50 -55v-5q0 -26 -39 -55l44 -65l-5 -5h-50l-48 65h-11v-55l-10 -10h-44l-11 10v164zM398 353h125l11 -11v-17l-11 -10h-81v-28h75l11 -10v-22l-11 -12h-75v-32h86l11 -11v-22l-11 -10h-130l-11 10v164zM979 353h38l11 -11v-99q3 -32 15 -32
h6q33 0 33 54v88h43l11 -11v-114q0 -51 -82 -66q-86 8 -86 76v104zM1180 353h124l11 -11v-17l-11 -10h-75v-28h70l11 -10v-22l-11 -12h-70v-32h86l11 -11v-22l-11 -10h-135l-11 10v164zM246 315v-44h17q27 0 32 16v16l-11 12h-38zM203 123h22l16 -15l-5 -6h-6l-16 11h-6
l-11 -11v-32l22 -6l11 11h11v-5l-16 -17h-22l-22 22v27zM344 123h21q22 -8 22 -37q0 -22 -22 -33h-21l-22 22v27zM484 123q14 0 17 -48h5q6 48 22 48l11 -10v-22l-5 -5l5 -6v-16l-11 -11l-5 33h-6q0 -29 -16 -33l-11 43h-6v-38h-10v55zM637 123q17 -3 17 -43q6 0 20 43h6
l11 -10v-49l-11 -11l-6 17l6 26v12h-6q-3 -55 -20 -55l-11 49h-6v-44h-11v55zM913 123l11 -10l-16 -5v-44l-11 -11l-5 5v50q-17 0 -17 10l6 5h32zM1043 123l11 -10l-15 -5v-44l-11 -11l-5 5v50q-17 0 -17 10l6 5h31zM1147 123h27l11 -10l-33 -5v-12q33 0 33 -10l-33 -6v-10
h28l11 -12l-6 -5h-38l-11 11v49zM1282 123h28l11 -10l-33 -5v-12h27v-16h-27v-10h27l11 -12l-5 -5h-39l-11 11v49zM333 86q5 -19 22 -22q16 3 21 22q-7 25 -21 27q-22 -5 -22 -27zM778 118h11v-60h-11v60z" />
  </g>

</svg>
