<?xml version="1.0" encoding="UTF-8" standalone="no"?>
<svg
   xmlns:dc="http://purl.org/dc/elements/1.1/"
   xmlns:cc="http://creativecommons.org/ns#"
   xmlns:rdf="http://www.w3.org/1999/02/22-rdf-syntax-ns#"
   xmlns:svg="http://www.w3.org/2000/svg"
   xmlns="http://www.w3.org/2000/svg"
   xmlns:sodipodi="http://sodipodi.sourceforge.net/DTD/sodipodi-0.dtd"
   xmlns:inkscape="http://www.inkscape.org/namespaces/inkscape"
   viewBox="0 -256 2285 1792"
   id="svg2"
   version="1.1"
   inkscape:version="0.48.3.1 r9886"
   width="100%"
   height="100%"
   sodipodi:docname="orga-wfp_humanitarian-webfont.svg">
  <metadata
     id="metadata12">
    <rdf:RDF>
      <cc:Work
         rdf:about="">
        <dc:format>image/svg+xml</dc:format>
        <dc:type
           rdf:resource="http://purl.org/dc/dcmitype/StillImage" />
      </cc:Work>
    </rdf:RDF>
  </metadata>
  <defs
     id="defs10" />
  <sodipodi:namedview
     pagecolor="#ffffff"
     bordercolor="#666666"
     borderopacity="1"
     objecttolerance="10"
     gridtolerance="10"
     guidetolerance="10"
     inkscape:pageopacity="0"
     inkscape:pageshadow="2"
     inkscape:window-width="640"
     inkscape:window-height="480"
     id="namedview8"
     showgrid="false"
     inkscape:zoom="0.13169643"
     inkscape:cx="1142.5"
     inkscape:cy="896.00001"
     inkscape:window-x="0"
     inkscape:window-y="0"
     inkscape:window-maximized="0"
     inkscape:current-layer="svg2" />
  <g
     transform="matrix(1.1818057,0,0,-1,-680.97102,1422.1017)"
     id="g4">
    <path
       d="m 1645.55,1152.24 q 11.99,29.41 26.33,54.3201 2.36,4.12 7.4499,11.1899 5.0801,7.0601 7.4801,11.27 -9.65,-4.65 -12.88,-9.71 -10.02,-11.0901 -13.3201,-17.6801 -9.38,-11.45 -13.67,-19.05 -3.3999,-6.1099 -5.5199,-13.3199 -3.82,-2.7299 -5.82,-5.81 -5.23,-8.19 -8.61,-23.6 -0.28,-1.25 -3.22,-4.16 -2.94,-2.91 -4.42,-6.12 -5.6699,-12.1499 -7.75,-27 -5.64,-7.94 -7.1699,-12.12 -4.25,-11.34 -5.1401,-16.4099 -4.9,-11.49 -6.2299,-15.76 -1.5501,-4.9201 -2.9501,-22.03 l -2.04,-4.35 q -5.05,-9.9101 -8.3999,-27.86 -4.8501,-12.52003 -6.5601,-20.30003 -1.54,-6.02002 -1.1899,-14.83 0.3499,-8.81 0.1099,-10.4 -4.4699,-29 -3.34,-42.66 1.45,-16.98 1.19,-21.52 -2.26,-39.24 -2.19,-64.23 0.14,-24.48 2.81,-47.05 l 4.8001,-30.025 h 48.5 q -1.8601,31.842 0.6499,65.255 2.03,26.909 9.51,56.18 6.32,24.72 17.05,54.03 -11.39,-7.80096 -15.8,-15.24 -4.72,-8.10999 -14.74,-29.73 -3.38,-7.29102 -8.4199,-20.99 -5.0501,-13.7 -6.5101,-17.4 -0.42,12.67 3.17,31.36 3.43,17.87 6.41,27.22 8.43,25.89 18.13,43.18 6.49,11.58 16.79,22.14 9.5499,9.909 21.6599,21.5699 -6.1899,3.60004 -18.1799,-4.04999 l -2.66,-1.51001 q -6.74,-1.47998 -12.91,-8.65997 -11.95,-9.96002 -17.6599,-17.79 -4.6701,-9.92004 -6.2001,-10.98 -6.26,-4.44 -11.13,-14.99 -7.0299,-15.22 -8.7999,-14.47 10.45,70.4 43.5299,125.59 23.79,39.55 53.02,62.91 l -0.6,3.4199 q -15.58,-2.11 -23.48,-12.33 l -2.92,-2.78 q -3.31,-0.96 -10.2,-8.4399 -2.7,-3.0301 -4.2801,-6.9101 -1.5899,-3.87 -2.26,-4.4 -6.0799,-4.7899 -9.5699,-11.7 -15.61,-16.84 -19.41,-25.0601 -0.7701,-1.5699 -2.32,-6.01 -1.56,-4.4399 -2.99,-6.75 -2.1001,-3.3599 -9.93,-10.8799 1.06,8.24 16.1,62.07 9.17,32.4399 26.7001,75.36 z M 1695.1,995.4 q 22.3201,56.72 62.8201,122.92 2.2699,3.6901 9.08,15.7201 0.67,1.1699 4.41,7.3099 9.1699,15.4301 15.72,25.4301 6.54,9.99 9.2099,14.26 6.2701,15.64 3.12,22.7799 -3.1499,7.13 -3.5499,9.4101 -2.41,12.92 2.5499,23.15 4.8201,8.1899 6,11.42 1.74,4.8099 3.0701,18.7999 1.48,15.53 3.95,15.88 -2,-19.26 0.12,-34.11 0.94,-6.48 5.41,-16.63 4.47,-10.16 5.78,-16.36 8.69,1.78 21.5599,0.53 8.5,-0.79 20.3101,3.76 3.51,1.37 11.5299,5.89 8.02,4.5199 12.8601,5.83 -4.3301,-4.73 -14.4301,-10.26 -10.11,-5.52 -12.26,-7.02 -5.3299,-3.73 -8.4,-9.09 -7.2799,-12.62 -11.88,-14.91 -5.63,-2.7901 -15.8099,-3.49 -10.17,-0.6899 -13.6,-1.4399 -21.6001,-25.14 -46.75,-73.52 -60.92,-116.54004 -84.9601,-217.38004 13.12,27.56 18.66,37.87 10.3101,19.11 24.61,40.539 27.48,41.02104 65.37,87.86104 28.0701,34.8899 62.6,59.3999 55.88,39.5901 101.11,28.9701 9.48,-2.5601 11.49,-4.9701 -57.5701,9.17 -106.17,-34.8899 -33.12,-29.9501 -59.02,-66.02 -8.48,-11.05 -27.02,-39.8 -9.4199,-14.70003 -25.0499,-43.75003 -38.8101,-72.58 -62.0601,-158.32 -0.97,-5.24396 1.5,-1.36096 35.9401,66.071 74.92,96.67 4.98,3.81097 6.14,9.14099 0.59,2.62 -0.3201,18.89 -0.9099,16.28 7.4601,23.14 1.61,2.40997 5.2799,5.51996 7.48,9.33002 12.4401,22.019 4.96,12.681 7.54,15.241 -0.8999,-4.21997 -4.81,-16.42 -3.91,-12.19 -4.59,-18.83 -0.77,-7.51001 0.6,-20.53 1.38,-13.03 1.51,-16.6801 4.84,-0.75995 12.58,-3.99097 17.42,-6.61902 33.66,-5 0.32,0.031 6.94,1.38098 6.62,1.35999 9.29,0.73004 -4.8299,-2.98004 -15.99,-5.30005 -11.16,-2.32001 -15.87,-5.00995 -12.58,-10.6 -18.02,-11.79 -12.1899,-2.64001 -20.66,2.29004 -6.6899,3.79999 -11.2,1.37 -10.0699,-5.43005 -25.05,-22.41 -27.96,-31.94 -48.39,-76.592 -5.35,-11.879 -10.3999,-25.021 l -5.5701,-15.643 h -49.0399 q -0.14,16.058 0.32,21.859 1.0699,12.882 4.35,32.127 5.05,30.03 9.54,48.95 5.78,24.46 12.74,46.53 15.39,48.92 32.72,92.95 z M 1220.61,562.583 q 20.1801,18.779 49.08,38.298 6.5601,4.46704 26.6901,14.826 52.87,27.04 110.58,28.329 l 288.66,-0.041 q 15.88,0.041 24.8101,-9.55597 7.1899,-7.72003 9.7799,-24.658 1.5501,-9.92401 -0.99,-23.279 -1.9,-10.079 -5.4499,-16.285 -2.6701,-4.66095 -7.6,-9.17999 -4.9301,-4.51898 -15.26,-4.58698 -1.9501,-0.024 -86.15,-0.021 h -168.43 q -84.22,-0.003 -84.22,-0.021 -39.4299,0.15399 -70.22,-4.43604 -30.5601,-4.61798 -49.54,-10.279 -19.7999,-5.81299 -59.46,-22.626 14.78,22.359 37.72,43.516 z m 99.99,129.752 q 24.62,20.04 58.22,34.614 16.55,7.02502 32.6901,11.572 21.11,5.98798 37.96,6.57599 l 247.52,0.041 q 5.3201,-0.32001 7.15,-0.72101 16.37,-9.08997 21.13,-17.675 8.7901,-16.442 5.45,-38.315 -5.09,-32.601 -26.65,-33.225 h -7.2899 -267.51 q -15.59,-0.33405 -22.67,-0.65204 -18.5399,-0.74396 -39.22,-4.18701 -15.35,-2.46899 -29.28,-6.66095 -6.56,-2.01105 -91.63,-43.7531 27.22,53.871 74.13,92.386 z M 1182.42,502.252 q 57.95,38.692 142.04,41.806 l 3.3401,0.19403 369.27,-0.027 q 34.64,0.027 34.4701,-45.463 -0.1001,-10.875 -2.7201,-18.078 -3.38,-9.63 -8.2799,-15.604 -3.9501,-4.94299 -8.51,-6.30197 l -11.38,-1.25101 h -274.65 q -14.83,0.685 -25.11,1.82199 -10.28,1.13599 -20.73,3.32501 -7.0401,1.56998 -50.9501,16.953 -16.0399,5.70499 -34.4199,8.69098 -36.41,6.42502 -68.37,3.72702 -38.3301,-3.29001 -80.4501,-18.358 3.74,6.647 36.4501,28.565 z m 198.91,-131.1 q -20.4399,8.16901 -35.99,19.828 -36.23,27.117 -40.0299,29.123 -44.4801,23.025 -50.8101,25.629 -22.98,9.41901 -42.9399,13.298 l -41.77,5.841 q 4.35,3.13 6.97,4.03299 29.6799,10.274 63.1,12.948 23.37,2.04602 57.05,-3.89398 11.98,-2.17001 27.59,-7.19 75.9399,-24.634 92.71,-24.659 l 275.95,0.043 q 23.1799,0 30.9299,-15.52 12.13,-24.146 3.43,-48.718 -4.27,-11.809 -9.31,-17.061 -6.38,-6.45499 -13.71,-6.45499 h -2.84 -240.06 q -48.14,0 -80.27,12.754 z m 109.36,-96.445 q -9.48,10.975 -24.61,31.457 l -23.6,41.875 h 160.12 q 0.39,-20.965 -3.3099,-45.13 -5.24,-34.072 -18.62,-63.374 -0.1501,-9.664 3.39,-26.841 3.5399,-17.174 4.0099,-24.548 -29.5299,-20.671 -39.0699,-31.082 -6.22,17.231 -11.36,45.855 -5.14,28.622 -5.9301,32.709 -30.1,26.247 -41.02,39.079 z m 165.01,14.92 q -1.21,2.51898 -5.6499,13.795 -4.4401,11.276 -7.4801,15.578 -0.1599,-13.748 -0.5099,-17.065 l -5.3401,-0.60901 q -2.11,6.80801 -6.6699,23.445 l -4.55,23.225 26.65,0.043 q 2.02,-6.45801 2.66,-14.355 0.6299,-7.897 1.61,-12.696 3.2799,-15.519 9.11,-32.265 1.75,-5.07498 5.51,-14.534 3.75,-9.457 5.1799,-13.404 l -3.8099,-4.75601 q -2.26,2.90701 -16.7101,33.598 z m 41.23,-21.569 q -10.79,25.764 -10.38,35.617 5.7799,-8.50497 8.22,-9.94498 l 4.78,3.61697 q -5.8201,17.153 -7.18,22.015 l -7.5,28.634 -27.2,0.043 q 1.5299,-12.598 7.7199,-31.725 7.7801,-24.322 22.99,-54.556 13.38,-26.857 22.75,-39.051 l 6.96,4.52 q -12.83,20.486 -21.1599,40.831 z m 176.56,1040.472 q -10.4399,-5.1 -14.0699,-13.13 -4.88,-10.4 0.49,-15.6 10.6699,-10.24 19.24,7.2699 l 3.23,26.28 q -5.11,-3 -8.89,-4.82 z m 6.2,-43.11 q 4.1101,8.63 14.42,15.73 4.14,2.89 11.3201,7.65 7.1799,4.7699 7.99,5.31 l 6,5.8399 q -4.17,-1.63 -6.4301,-3.13 -27.76,-18.8199 -31.54,-20.72 -5.1398,-2.5399 -24.97,-5.36 -0.52,4.49 -2.3399,13.25 -1.83,8.7601 -1.7901,14.9 0.04,5.38 1.9401,16.62 l 3.1899,23.5599 q -2.12,-2.2399 -2.87,-9.0999 -2.3299,-13.39 -2.76,-15.9199 -2.6799,-15.39 -7.4699,-21.01 -14.4001,-16.9601 -7.4201,-31.4 1.99,-4.13 7.02,-5.6801 8.74,-7.8299 9.34,-8.0499 15.51,-5.86 26.37,17.51 z m -12.88,-32.22 q 5.09,9.3001 12.1299,14.26 11.39,7.87 20.77,13.3301 4.17,2.3999 4.8401,5.72 -8.3401,-3.71 -20.52,-11.9401 -14.12,-9.69 -25.0801,-10.24 -6.75,0.7101 -7.6,0.74 l -11.41,-1.1399 q -1.62,8.0499 -3.7699,13.85 -3.29,8.9699 -3.7301,11.5499 -1.0399,6.29 -0.5799,12.5801 0.16,2.15 1.57,13.09 1.3999,10.9399 1.12,16.89 -2.49,-5.9301 -4.4,-19.9501 -1.92,-14.0199 -5.43,-19.46 -4.97,-7.67 -7.07,-12.99 -5.61,-13.67 1.7,-26.45 l 10.03,-5.61 q 4.67,-6.8401 9.0599,-7.9601 18.52,-4.6699 28.3701,13.73 z m 2.91,-256.32 q 0.7101,1.63 2.97,8.25 2.26,6.62 4.02,9.57001 -12.27,-2.60004 -18.08,-3.34003 -4.73,-0.42096 -8.22,-4.45996 -7.4701,-8.53003 -5.88,-16.37 17.6799,-10.53 25.1899,6.34998 z m 8.46,-15.04 q 24.0399,6.38898 24.84,6.08997 -2.79,-1.65997 -30,-10.53 -4.55,-1.44 -19.63,-14.7 -10.86,-9.37 -21.67,-3.57001 -4.21,2.23999 -5.3099,8.23999 -0.05,0.25 -5.73,5.56903 -3,19.591 16.5599,37.301 3.88,3.52002 11.84,20.59002 7.9601,17.08 10.55,19.71 -0.5601,-5.0501 -7.33,-19.59 -6.76,-14.54002 -8.4801,-19.61002 -2.0499,-5.95001 -2.98,-15.97 -0.9299,-10.02 -1.77,-14.06 2.7101,-0.19 10.17,-1.17999 7.47,-0.98999 11.33,-1.04999 6.9,-0.11999 17.6101,2.76001 z m -10.01,-22.92 q -3.01,-0.65997 -8.8501,-2.19098 -5.83,-1.51898 -7.47,-1.909 -8.76,-2.10004 -19.75,1.33002 -11,3.42999 -15.45,3.38 0.43,6.41998 -1.01,18.8799 -1.43,12.46 1.22,14.64 1.86,4.71002 5.2001,13.83 3.3399,9.13 4.8499,12.94 l 3.2701,11.56996 q -3.75,-6.38 -14.4,-29.85996 -2.0701,-4.591 -7.99,-9.64001 -5.9301,-5.04004 -8.25,-8.10004 -17.73,-23.17 1.86,-35.47 1.37,-0.841 2.2899,-4.20001 0.92,-3.37 1.7,-4.21002 16.15,-17.3199 35.87,2.80005 6.2701,6.57001 27.38,12.7599 l 9.58,3.94 q -2.4299,1.09003 -10.0499,-0.48999 z M 1558.19,752.984 v 0 z m -72.28,230.745 q -2.13,-3.18903 -6.11,-11.399 -3.9801,-8.20001 -7.12,-11.92 -5.13,-6.09998 -9.91,2.15002 -6.4401,11.59 -3.65,15.69 9.19,13.27 26.79,5.479 z m -24.78,-44.199 q -2.49,-7.52002 -18.84,-11.41 -4.55,-1.09998 -7.42,2.10901 -6.07,6.71002 -5.35,14.291 0.5,6.28998 6.38,8.82001 14.49,6.26996 19.4199,3.16998 9.4601,-6.04004 5.81,-16.98 z m -15.82,-46.18 -8.2201,13.2401 q -1.39,10.34 4.64,14.67 6.03,4.33997 14.88,3.94 0.4501,-12.78 -11.2999,-31.85 z m -10.62,-41 q -0.6799,-2.16998 -2.22,-8.16095 -1.5499,-5.979 -2.77,-9.13904 -3.73,-9.92999 -15.86,-5.59998 -5.7099,2.01001 -8.1699,11.95 -2.4501,9.94 3.0699,15.22 6.0101,5.09003 20.25,7.09998 8.0301,-4.00995 5.7,-11.37 z m -11.81,-47.2 q -2.85,-11.452 -3.9,-14.017 -6.98,14.346 -4.31,22.056 9.6,-3.599 8.21,-8.039 z m -14.02,-23.071 q -8.03,17.079 -7.28,19.491 9.9,-6.22101 7.28,-19.491 z m -10.55,28.761 q -4.2201,3.92999 -7.79,13.74 -3.5701,9.79999 -5.0601,12.33 12.3501,8.97003 17.26,-4.62994 5.11,-14.22 -1.6899,-20.03 z M 1371,867.02 q 20.74,16.26 24.15,-3.02002 1.52,-8.71002 -2.9501,-14.35 -4.4799,-5.64001 -11.47,-2.74005 -1.51,0.61005 -4.7099,8.98004 -3.0701,7.98999 -5.02,11.13 z m -19.01,35.86 -0.54,6.22998 q 8.3601,7.67004 24.54,5.81 14.26,-1.48096 10.63,-20.68 -1.48,-7.77002 -9.6601,-10.49 -8.1799,-2.71997 -12.74,-0.71997 -2.61,1.10999 -12.23,19.85 z m 2.22,41.68 q 24.55,18.09 28.49,-6.25 1.87,-11.51 -6.6399,-14.621 -13.7401,-5.02905 -19.9801,-2.14905 -5.51,2.55005 -6.25,10.89 -0.74,8.34003 4.38,12.13 z m -9.15,29.5 q 0.7999,4.10999 6.71,5.78003 15.83,4.48999 21.6799,0.26996 2.56,-1.79999 3.12,-8.07996 0.96,-9.92004 -3.63,-12.95 -9.19,-6.07001 -22.1399,-3.20001 -8.87,1.98999 -5.74,18.18 z m -7.32,-45.46 q -2.16,1.81 -13.35,19.4901 l 0.84,2.77997 q 8.3399,2.67999 13.4,-1.76001 5.0599,-4.45001 3.8499,-14.29 -2.8299,-7.81 -4.7399,-6.22003 z m -29.95,41.4 q -7.52,7.31 2.2899,12.92 10.6901,6.01904 22.39,1.59003 6.87,-2.59003 4.5301,-15.73 0.41,-5.99005 -1.44,-7.32001 -6.8201,-5.28003 -18.51,-2.521 -2.43,0.57098 -5.3,5.28094 -2.88,4.71906 -3.96,5.78003 z m -4.71,41.85 q 6.5901,16.3101 26.13,5.44 4.87,-2.71 5.0701,-10.45 -10.8101,-16.26 -25.0601,-13.19 -12.37,2.59998 -6.14,18.2 z m 0.29,36.29 q 4.6,4.9 20.88,2.34 l 4.02,-2.4101 q 9.65,-11.09 -0.19,-19.36 -3.0199,-2.5599 -21.73,-1.4199 -7.58,15.96 -2.98,20.85 z m 3.87,30.32 q 15.5601,7.41 21.6801,-3.6799 0.75,-14.39 -2.4401,-15.37 -18.45,-5.49 -22.54,5.1999 -4.0899,10.39 3.3001,13.85 z m 19.49,25.8 q 5.15,-16.21 -1.65,-17.64 -17.5199,-3.61 -17.48,9.35 0.05,18 19.13,8.29 z m -14.18,23.32 q 6.8999,3.0601 13.2799,-0.73 4.4501,-2.5699 3.02,-7.47 -1.59,-5.77 -8.7999,-5.9699 -8.2201,0 -9.9301,3.9399 -3.42,7.7101 2.4301,10.23 z m 4.38,18.84 q 7.1699,2.96 10.98,-1.7301 -1.05,-10.8799 -5.78,-10.6499 l -6.3101,1.88 q -1.47,9.45 1.1101,10.5 z m 15.39,12.16 q 8.16,5.75 11.88,4.11 2.9401,-9.74 -1.01,-11.5499 -4.7599,-2.24 -10.87,7.4399 z m 15.29,-26.93 q -12.3199,-4.14 -14.4299,4.1 9.48,12 15.1499,9.9499 3.4601,-1.26 3.62,-6.8099 0.16,-5.5501 -4.34,-7.24 z m 3.52,34.84 q 3.13,11.8201 14.17,8.09 5.49,-10.5299 2.83,-13.36 -2.8001,-3.2 -6.9201,-4.14 -11.45,4.25 -10.08,9.41 z m 26.69,-23.95 q -1.5099,-6.65 -8.1799,-8.3 -9.5701,-2.49 -12.92,1.64 4.62,19.8099 15.91,17.01 6.9499,-1.88 5.1899,-10.35 z m -2.41,25.05 q 4.21,10.36 14.14,6.92 4.99,-11.22 0.25,-14.64 -6.49,-4.67 -11.5901,-2.3199 -5.74,2.7099 -2.7999,10.0399 z m 24.84,-16.66 q 3.54,-6.8101 -3.41,-11.4801 -9.9199,-6.6399 -13.6,0.2301 -4.71,8.82 4.19,13.0499 9.5299,4.4 12.8199,-1.7999 z m 7.49,-19.28 q 7.09,-6.5601 2.02,-13.12 -3.79,-4.9401 -12.67,-6.5901 -10.0399,14.01 -6.97,16.9401 10.11,9.77 17.62,2.77 z m 6.25,32.9 q 5.5501,-1.88 3.1901,-7.4701 l -4.9601,-5.24 q -11.2899,6.61 -6.89,10.37 4.41,3.77 8.66,2.3401 z m 10.65,-16.64 q 3.98,-0.4501 5.0599,-5.37 1.3101,-5.7201 -2.9099,-8.91 -4.99,-3.7801 -10.1801,-3.85 -11.85,-0.23 -5.92,11.61 3.67,7.4399 13.9501,6.52 z m 17.61,-25.57 q 1.9301,-6.39 -6.24,-11.33 -9.17,-5.59 -12.73,-1.76 -7.7001,8.24 -1.26,15.08 14.9299,15.76 20.23,-1.99 z m 7.62,-15.16 q 4.57,-0.65 6.3001,-6.3501 1.7299,-5.6899 0.4399,-9.4099 -1.99,-4.37 -6.74,-7.0601 -8.8099,-5.15 -15.29,-1.35 -7.9199,4.6501 -3.74,15.2001 4.5601,11.13 19.03,8.97 z m 13.88,-33.62 q 4.14,-6.5801 0.47,-12.2401 -9.24,-14.13 -21.03,-7.6399 -11.34,6.31 -3.0099,16.8999 8.0399,10.27 19.5499,7.52 z m 3.02,-20.81 q 4.78,-0.6 7.6799,-8.8199 3.5501,-9.7301 -1.63,-13.6002 -15.34,-11.91 -23.9199,-6.3399 -5.06,3.26 -5.7101,12.83 -1.4299,19.13 23.5801,15.9301 z m -45.47,-86.32 q -3.87,11.259 0.11,14.78 18.52,16.59 27.6599,2.15997 8.15,-12.65 -3.9099,-19.67 -19.11,-11.09 -23.86,2.72998 z m -32.54,-0.53 q 15.74,9.039 23.6899,3.23999 9.5901,-6.95099 4.4,-16.82 -7.8299,-14.81 -26.4,-9.38098 -5.4299,1.60095 -6.2999,10.641 -0.87,9.04999 4.61,12.32 z m -6.1,32.5 q 22.2899,17.7599 28.0599,-3.461 1.9301,-7.07904 -0.07,-10.679 -6.49,-11.88 -23.5701,-9.14001 -6.33,1.06 -8.21,9.84998 -1.88,8.79004 3.79,13.4301 z m -6.81,33.02 q 23.48,15.1 28.38,-2.7101 3.26,-12.05 -3.0499,-15.74 -14.88,-8.86 -23.76,-2.56 -4.5801,3.2901 -5.11,10.83 -0.53,7.5501 3.5399,10.1801 z m 43.69,59.24 q -2.3401,-2.4 -10.9401,-5.7001 -11.62,-4.49 -13.1699,9.5501 -1.13,10.87 16.58,14.42 6.91,1.4099 9.33,-7.7101 1.97,-6.89 -1.8,-10.5599 z m 13.13,-26.62 q -3.67,-6.18 -13.9301,-8.3301 -10.27,-2.1499 -13.55,3.61 -6.6299,13.02 0.76,18.17 10.3301,7.12 19.9401,5.16 4.7,-0.92 6.96,-7.82 2.27,-6.89 -0.18,-10.7899 z m 9.95,-48.51 q 5.51,-9.79 0.5699,-17.17 -6.9199,-10.64 -22.8799,-6.21997 -4.55,1.26996 -5.88,9.30997 -1.42,8.75 2.42,12.7 4.94,5.17 18.34,5.17 5.3501,0 7.43,-3.79 z m -3.69,16.3 q -5.3501,-11.1299 -23.5801,-8.45 -7.39,1.1301 -7.1799,14.9901 14.7999,13.99 23.9399,12.35 14.52,-2.66 6.82,-18.8901 z m -71.12,17.87 q -3.1101,10.91 5.49,15.8601 8.6,4.9399 17.87,2.71 5.4599,-1.3001 6.6699,-9.9301 1.2101,-8.63 -3.77,-12.2899 -20.7999,-15.25 -26.2599,3.6499 z m -26.58,-39.33 q 6.67,7.76 22.28,5.46 5.95,-0.96 7.17,-11.61 1.22,-10.65998 -8.16,-14.32998 -9.37,-3.67999 -17.42,-0.35004 -4.4499,1.88 -5.9599,9.17999 -1.5101,7.30003 2.0899,11.65003 z m -3.73,30.31 q 8.36,11.13 22.41,6.7 6.96,-2.1701 6.72,-14.53 -0.11,-5.73 -4.59,-7.7601 -9.9701,-4.6399 -17.65,-3.5699 -19.21,2.77 -6.89,19.16 z m 0.89,32.99 q 18.91,8.7699 21.5599,-5.04 1.9401,-9.89 -5.47,-13.4 -7.41,-3.5 -15.0499,-1.11 -4.7401,1.49 -5.26,9.41 -0.51,7.9199 4.22,10.14 z m 48.9,24.21 q 9.6699,-6.27 3.0599,-17.83 -10.28,-17.7001 -25.77,-4.99 -3.7999,3.11 -3.8199,10.7699 -0.02,7.66 6.04,10.76 13.85,5.49 20.49,1.2901 z m -7.21,10.48 q -10.8999,-7.58 -19.48,-2.1899 -7.7999,4.8299 -2.1799,14.98 5.7099,10.38 20.12,5.6099 4.4599,-1.4799 1.5399,-18.4 z m -46.67,11.46 2.5399,3.37 q 8.4401,4.5601 14.79,-0.1299 6.2,-4.4 0.6,-10.9901 -6.23,-7.4099 -17.9299,7.75 z m 1.54,-22.92 q 2.38,7.66 15.53,5.6899 8.3101,-12.52 6.03,-15.71 -3.4599,-5.9599 -17.8,-3.9499 -7.8199,1.1799 -3.76,13.97 z m 100.39,-208.52 q 3.2001,-14.02 -6.14,-17.79 -18.88,-7.58002 -24.8999,-2.97003 -19.41,14.71 -2.4501,27.17 27.53,20.23 33.49,-6.40997 z m -10.63,24.34 q -2.12,-2.75 -22.52,-9.42999 -5.1799,-1.73999 -8.9099,5.56 -6.9501,14.23 -0.24,21.05 1.1599,1.19995 17.89,6.77997 6,2.10999 9.47,-0.49097 14.1,-10.949 4.3099,-23.4691 z m 56.37,102.45 q 3.03,-9.99 1.79,-13.57 -1.4799,-4.51996 -12.09,-8.92999 -11.7101,-4.77997 -16.04,0.32001 -10.34,12.10998 -0.89,20.10998 22.12,18.6 27.23,2.07 z m 92.58,44.77 q 9.32,43.16 10.21,56.9901 3.22,50.5599 -20.3,81.98 0.41,-2.4501 2.3301,-12.16 1.91,-9.6999 2.5799,-15.54 1.8901,-16.8099 -2.9499,-37.87 -2.1801,-9.89 -9.4,-26.8099 -6.25,-14.77 -17.14,-30.3 l -45.96,-74.68 q -3.9401,4.22 15.3099,39.2501 7.42,13.3899 19.5,32.4199 12.0901,19.03 18.04,29.73 12.67,23.13 15.5699,46.9 7.27,59.04 -32.97,82.5 10.37,-49.72 -6.75,-71.21 -29.49,-37.26 -48.6799,-80.73 l -6.9001,6.74 q -2.06,1.5699 -2.12,8.65 -1.79,11.2999 -3.79,14.23 -9.46,7.85 -9.73,8.4 -0.11,0.21 -1.12,4.98 -4.3299,9.85 -7.8,12.4099 -3.46,2.5601 -4.4199,3.9 -5.5801,14.03 -9.1901,16.3301 -1.52,0.98 -3.6,4.98 -2.0799,4 -3.34,5.25 -1.26,1.25 -18.49,7.36 -0.22,0.07 -4.84,3.73 -4.62,3.65 -9.13,4.52 -3.86,0.74 -8.66,-1.1901 -4.8,-1.9199 -6.62,-0.9499 -16.3601,8.56 -29.06,-7.44 -11.4201,-2.89 -14.9601,-5.97 -2.9799,-2.57 -5.2199,-6.2701 -11.66,-5.7599 -15.52,-15.7599 -0.9201,-2.3401 -2.62,-12.3501 -3.27,-11.71 -3.3101,-13.8099 1.25,-9.41 1.0401,-10.55 -0.3101,-1.64 -1.7901,-4.9199 -2.35,-10.8101 -0.85,-14.38 0.73,-1.65 -2.3299,-9.92 -2.7301,-7.21 -2.15,-13.16 1.1599,-11.87 1.14,-11.9 -8.6801,-17.1899 -0.1801,-32.3699 -3.4399,-11.23 -3.5799,-15.02 -0.07,-1.74 5.15,-17.57002 -40.4901,43.54002 -59.3701,60.45012 -20.71,18.48 -41.4299,31.0299 -69.71,42.38 -127.24,34.25 6.79,-6.1699 24.83,-19.0399 18.03,-12.8601 26.8,-21.7001 34.01,-34.35 42.98,-44.9399 28.38,-33.38002 58.0599,-81.85002 8.79,-14.38 14.2101,-24.26 14.0599,-25.47 15.6,-28.51 32.11,-63.12 62.62,-137.191 2.73,-6.65399 7.7099,-20.109 4.99,-13.454 7.63,-19.901 10.3401,3.55103 26.88,12.432 2.24,1.16199 16.4701,7.46698 13.5699,5.85699 39.75,12.071 l 64.87,4.38495 79.0399,0.04 q 1.72,13.414 -1.51,38.778 -3.23,25.358 -3.8299,37.478 -1.0501,21.75 0.24,61.87 2.7399,88.1 20.29,168.82999 z m -538.63,212.22 q -18.9,-21.3401 -29.02,-43.0601 -11.956,-25.61 -13.92,-44.5699 38.6099,16.7 80.8699,72.3199 8.6901,11.48 23.9701,37.9601 15.2699,26.47 23.74,37.6799 -48.55,-18.46 -85.64,-60.33 z m -90.694,-48.91 q 20.731,39.61 46.783,64.39 -19.431,-49.36 -21.813,-66.3 -0.44702,-3.1799 -20.597,-128.54 10.035,8.09 30.588,28.95 20.553,20.85 30.793,29.39 8.79,7.32 25.2599,18.54 16.48,11.22 23.65,16.7999 2.24,1.75 24.51,26.85 -14.03,-66.7899 -71.83,-115.73 -62.189,-52.71 -96.515,-92.22 -12.357,138.44 29.171,217.87 z M 837.625,976.31 q 3.54303,55.93 14.825,107.12 13.402,61.11 36.308,81.5599 -2.133,-9.1799 -4.20099,-33.52 -2.11603,-23.46 0.849,-70.9399 2.966,-47.48 3.10602,-54.75 0.69598,-31.65 -2.29602,-52.9301 l -0.46802,-42.93 q 9.33899,12.09 17.613,27.1 22.673,40.77 38.678,60.12 28.499,34.4299 61.42101,60.3199 -3.1101,-13.7799 -19.34201,-45.4999 -1.60095,-3.17 -8.66998,-19.79 -7.06799,-16.61 -16.005,-33.46 -10.97,-20.75 -27.133,-44.55 -16.164,-23.79 -27.843,-45.02 -1.64496,-3.01001 -8.79199,-15.451 -19.212,-33.439 -22.701,-40.909 -6.84601,15.99 -16.446,49.47 -7.354,25.66 -12.725,42.31 -8.94897,27.96 -6.17798,71.73 z M 804.401,775.5 q -16.031,47 -23.275,113.49 -5.13196,46.13 6.27704,80.8 3.13599,-8.94995 6.70496,-22.54 9.17804,-35.09 16.176,-53.54 2.86798,-7.54004 21.753,-45.21 4.70703,-9.38 18.792,-48.554 9.37604,-25.956 17.295,-69.115 4.57898,-24.961 7.50397,-27.12 5.28802,12.889 6.66998,27.578 9.56305,98.041 69.247,161.321 7.36499,-25.2 -0.57696,-70.23 -8.52704,-48.55 -27.906,-96.891 -16.15,-40.132 -22,-59.801 -4.039,-13.213 -8.53198,-30.079 -4.49103,-16.866 -6.85504,-24.158 -70.962,133.805 -81.274,164.049 z m 45.248,-238.104 q -22.435,35.395 -39.365,79.047 -12.726,32.715 -19.983,68.453 -5.99103,29.562 -2.72705,41.886 44.281,-90.471 45.7531,-92.386 6.37994,-8.284 21.587,-27.135 15.209,-18.852 22.225,-28.478 12.592,-17.465 34.66,-51.586 12.059,-18.643 18.548,-28.366 2.68701,23.975 -0.61597,50.956 -4.54901,37.84 3.40198,87.463 7.552,47.528 22.429,96.473 9.16699,-20.402 17.98,-103.133 2.25702,-21.302 -14.824,-177.415 -0.75604,-6.97098 0.76099,-38.314 -39.577,35.448 -75.033,75.572 -17.717,19.991 -34.797,46.963 z M 952.981,295.47 q -42.713,34.579 -61.57,61.747 -21.562,30.972 -43.234,85.195 -10.478,26.986 -11.115,40.788 26.931,-36.793 73.884,-73.266 46.953,-36.473 67.682,-61.117 22.742,-27.02 44.592,-49.885 l 16.23,-9.83099 q -0.98,14.592 -5.6399,24.614 -40.81709,88.469 -32.79,216.729 9.21,-12.889 28.13,-53.223 11.62,-24.902 19.73,-47.647 14.67,-41.363 29.09,-115.334 14.42,-73.972 21.7101,-93.311 -103.52299,39.35 -146.69899,74.554 z M 1164.63,115.512 q -33.4301,-2.424 -55.9301,1.779 -114.933,20.661 -177.101,140.602 49.771,-34.476 81.521,-46.923 12.88,-5.054 41.22,-12.248 28.3401,-7.19701 47.54,-13.34 17.33,-5.569 57.77,-22.795 l 38.88,-8.692 q -0.02,4.78099 -10.1901,17.343 -11.86,14.681 -26,30.04 -14.13,15.36 -18.6599,20.579 -11.6101,13.501 -24.5,42.613 -9.8601,22.15 -19.6901,60.551 -9.84,38.404 -17.0599,57.951 66.38,-44.209 121.81,-165.493 19.14,-41.706 35.23,-59.76 l 19.7001,-22.96 q -8.49,-2.23401 -34.66,-6.67601 -1.48,-0.19199 -23.84,-5.82899 -22.37,-5.637 -36.04,-6.742 z m 292.84,-5.244 q 42.76,-7.896 89.27,-26.0053 9.11,-3.5615 27.87,-14.4209 27.8,-15.9248 50.09,-33.2246 58.78,-45.8184 86.5801,-82.4678 5.22,-5.9111 2.0699,-8.7353 -15.99,-14.2618 -23.14,-7.1475 -12.1599,12.249 -25.46,30.4902 -13.3,18.2422 -29.0699,34.4288 -16.7101,16.9033 -33.87,30.1367 -24.2201,18.7939 -46,31.122 -18.2301,10.1524 -47.9701,10.1524 -4.8299,0.1035 -21.51,0.120094 -16.6799,0.0156 -23.0499,-0.287094 -30.92,-2.4082 -95.51,-22.333 -40.4,-12.3633 -93.02,-20.3613 -47.0699,-7.2627 -91.6099,-2.0723 -73.4501,8.5713 -119.6501,42.209 9.48,-0.191399 42.3101,-3.1426 32.84,-2.9512 50.3899,-1.4072 31.9,2.6172 47.8301,8.16499 16.28,5.6816 40.96,13.0117 24.6901,7.3301 32.89,9.9063 23.23,7.39771 77.8199,13.9977 54.6001,6.603 101.78,-2.135 z m 571.68,1161.892 q 18.9301,-21.37 29.0399,-43.0601 12.03,-25.59 13.96,-44.5699 -38.6799,16.71 -80.9099,72.3199 -8.6899,11.47 -23.95,37.9501 -15.26,26.48 -23.74,37.6899 48.5399,-18.47 85.6,-60.33 z m 90.75,-48.91 q -20.77,39.6899 -46.75,64.39 20.9402,-57.08 21.78,-66.3 0.1201,-1.4 20.6001,-128.54 -10.02,8.09 -30.5801,28.95 -20.5601,20.86 -30.79,29.39 -8.7699,7.3099 -25.2499,18.53 -16.49,11.23 -23.6801,16.8099 -2.23,1.75 -24.5,26.85 14.01,-66.7899 71.8999,-115.73 62.3701,-53 96.4402,-92.22 12.3499,138.37 -29.1702,217.87 z m 106.66,-246.94 q -3.47,55.8701 -14.8101,107.12 -13.3999,61.11 -36.3101,81.5599 2.02,-8.71 4.23,-33.52 2.1001,-23.51 -0.8699,-71.2899 -2.98,-47.78 -3.1101,-54.4 -0.6399,-31.76 2.29,-52.9301 l 0.51,-42.93 q -9.3798,12.09 -17.6899,27.1 -22.6101,40.73 -38.6401,60.12 -28.3699,34.33 -61.46,60.3199 3.0401,-13.26 19.3701,-45.4999 1.6299,-3.23 8.7,-19.82 7.0601,-16.59 15.99,-33.43 10.9299,-20.68 27.0901,-44.47 16.1499,-23.78 27.8398,-45.1 1.5601,-2.84003 8.1401,-14.26 19.8298,-34.41 23.3899,-42.1 6.8401,15.99 16.4399,49.47 7.3702,25.66 12.73,42.31 9.0501,28.14 6.1702,71.73 z m 33.23,-200.81 q 16.02,47.08 23.3201,113.49 5.0498,46.04 -6.28,80.8 -3.0501,-8.35095 -6.7801,-22.54 -9.32,-35.55 -16.1501,-53.54 -2.7897,-7.36005 -21.74,-45.21 -4.4099,-8.78998 -18.8398,-48.554 -9.34,-25.932 -17.24,-69.061 -4.58,-25.013 -7.51,-27.174 -5.31,12.863 -6.6601,27.578 -9.49,97.961 -69.26,161.321 -7.4099,-25.16 0.55,-70.23 8.47,-48.22 27.98,-96.891 15.8201,-39.503 21.95,-59.801 3.9502,-12.988 8.4602,-29.883 4.5,-16.895 6.93,-24.354 70.9299,133.742 81.27,164.049 z m -45.24,-238.104 q 22.5,35.437 39.3499,79.047 12.73,32.682 20.02,68.453 6,29.47 2.6902,41.886 -43.6301,-89.637 -45.74,-92.386 -6.53,-8.49597 -21.6802,-27.269 -15.1599,-18.774 -22.1299,-28.344 -12.6101,-17.528 -34.78,-51.77 -11.99,-18.521 -18.4299,-28.182 -2.6502,24.22 0.5798,50.956 4.5801,37.756 -3.3398,87.463 -7.5801,47.503 -22.4202,96.473 -9.0899,-20.247 -18.02,-103.133 -2.2,-20.754 14.8301,-177.415 0.73,-6.67599 -0.76,-38.314 39.8701,35.709 75.02,75.572 17.47,19.69 34.8101,46.963 z M 2111.26,295.47 q 42.9199,34.957 61.53,61.747 21.5898,31.024 43.2,85.195 10.45,26.386 11.1499,40.788 -26.9299,-36.807 -73.9099,-73.286 -46.98,-36.478 -67.71,-61.097 -23.27,-27.738 -44.5601,-49.885 l -16.21,-9.83099 q 0.9399,14.592 5.6,24.614 40.83,88.288 32.7899,216.729 -9.1099,-12.821 -28.1299,-53.223 -11.76,-25.279 -19.66,-47.647 -14.6899,-41.38 -29.14,-115.353 -14.4399,-73.977 -21.73,-93.292 103.54,39.33 146.78,74.554 z M 1899.57,115.512 q 33.4601,-2.421 55.9701,1.779 114.89,20.653 177.06,140.602 -49.8501,-34.489 -81.52,-46.923 -12.8701,-5.049 -41.1801,-12.241 -28.3101,-7.192 -47.51,-13.347 -16.25,-5.205 -57.84,-22.795 l -38.88,-8.692 q 0.02,4.78099 10.1799,17.343 11.78,14.581 25.72,29.703 13.9401,15.122 18.9501,20.916 11.53,13.412 24.54,42.613 9.83,22.163 19.6699,60.572 9.84,38.41 17.03,57.93 -66.48,-44.297 -121.81,-165.493 -19.08,-41.765 -35.23,-59.76 l -19.65,-22.96 q 8.4301,-2.23401 34.6901,-6.67601 1.37,-0.17599 23.74,-5.81999 22.38,-5.644 36.0699,-6.751 z m -292.84,-5.244 q -42.66,-7.88599 -89.23,-26.0053 -9.09,-3.5195 -27.92,-14.4209 -27.71,-15.8828 -50.0499,-33.2246 -58.6801,-45.6963 -86.61,-82.4678 -5.2301,-5.9277 -2.12,-8.7353 16.1,-14.2647 23.1799,-7.1475 12.12,12.2188 25.4401,30.4609 13.3199,18.2432 29.14,34.458 16.0699,16.4453 33.83,30.1367 24.22,18.7939 46,31.122 18.1799,10.1524 47.97,10.1524 4.8001,0.1035 21.48,0.120094 16.67,0.0156 23.04,-0.287094 31,-2.4102 95.51,-22.333 40.4399,-12.3584 93.02,-20.3613 47.11,-7.2666 91.64,-2.0723 73.48,8.5723 119.62,42.209 -9.4701,-0.191399 -42.3,-3.1426 -32.8299,-2.951201 -50.4,-1.4072 -31.85,2.6142 -47.7899,8.16499 -16.2401,5.66991 -40.8301,12.9678 -24.59,7.2988 -33.02,9.9502 -23.1899,7.3857 -77.83,13.9947 -54.64,6.61 -101.77,-2.132 z M 1494.6,1664.52 1438.46,1428.36 h -59.64 l -37.2699,153.85 -36.4601,-153.85 h -59.4399 l -56.1901,236.16 h 56.12 l 31.99,-162.54 38.51,162.54 h 53.63 l 36.5,-162.54 33.5701,162.54 H 1494.6 z m 185.28,-45.71 h -95.9401 v -43.91 h 88.91 v -45.66 h -88.91 v -100.88 h -53.48 v 236.12 h 149.42 v -45.6699 z m 153.63,-30.25 q 0,10.0199 -4.76,17.22 -4.76,7.2 -11.0601,10.02 -8.3999,3.7799 -16.3899,3.2 -7.99,1.41 -21.28,1.3699 l -9.26,0.03 v -70.5701 h 15.42 q 13.73,0 22.62,1.91 8.74,1.8001 14.9199,7.5601 5.22,5.1699 7.49,12.1399 2.3,7.1101 2.3,17.1201 z m 55.58,1.41 q 0,-15.98 -4.88,-31.03 -4.87,-15.0399 -14.02,-25.45 -12.3999,-13.89 -27.7799,-21.0599 -15.15,-7.12 -38.17,-7.12 h -33.48 V 1428.36 h -53.77 v 236.12 h 88.5 q 19.9301,0 33.55,-3.88 13.84,-3.99 24.14,-11.6899 12.5699,-9.26 19.2699,-23.98 6.64,-14.4301 6.64,-35.02 z"
       id="path6"
       inkscape:connector-curvature="0"
       style="fill:currentColor" />
  </g>
</svg>
