<?xml version="1.0" standalone="no"?>
<!DOCTYPE svg PUBLIC "-//W3C//DTD SVG 1.1//EN" "http://www.w3.org/Graphics/SVG/1.1/DTD/svg11.dtd" >
<svg viewBox="0 -256 1792 1792">
  <g transform="matrix(1 0 0 -1 0 1536)">
   <path fill="currentColor"
d="M755 1343q289 0 453 -255q70 -121 70 -254v-29q0 -281 -263 -456q-130 -74 -263 -74l-81 3q-178 43 -274 142q-165 163 -165 375v7q0 272 219 438q146 103 304 103zM631 1286v-3l7 -7h11l26 17v4h-22q-22 -3 -22 -11zM876 1293v-3l22 -14h7l4 10zM668 1251q0 -7 21 -17
q6 0 33 45v4h-11zM1172 1286q128 -67 128 -149l-4 -2h-15q-35 7 -116 141v3zM324 1276h7l4 -4h3q-46 -104 -124 -137l-4 2v4q25 81 92 121zM288 947q17 -8 17 -18q0 -11 -29 -21l-11 -103q0 -257 235 -424q121 -71 255 -71q202 0 366 174q120 146 120 314v7q0 168 -76 283
h-4l-66 -46l7 -24l-17 -8v-3q138 -51 138 -223q0 -87 -51 -152l7 -10v-8q-32 -85 -99 -152l-14 14v4q59 75 69 117h-3q-38 -32 -117 -32q-12 -11 -12 -28q15 -41 45 -61l21 -18v-2q-55 -71 -175 -111q-48 -17 -157 -17h-26q-79 5 -211 81q-82 65 -82 71q-97 128 -116 261
l-4 89l73 57q47 12 47 50v17l-17 102h-7q-66 -130 -66 -190l-19 -4l-4 4v3q0 81 70 201l3 4h12l11 -7q17 60 69 92q37 18 84 25h8q79 -15 116 -47l18 -24l37 4h8l3 -4h4l7 22v38l-3 18h-15l-29 7h-4q-6 0 -26 -35l-3 -4h-7l-8 7v11q15 18 15 31l-37 22q-53 -36 -62 -36
l-11 11v3l44 43q-19 21 -36 21q-67 -20 -176 -120q-85 -108 -109 -205zM828 1272l15 -32h7q19 0 22 11q0 11 -44 21zM744 1268l-22 -34v-4l7 -8h19l7 8v32l-7 6h-4zM934 1251q6 -14 66 -60h12q20 11 28 25q-9 17 -84 52h-7q-8 -1 -15 -17zM784 1265v-43h11l19 4v11l-26 28
h-4zM1307 1237q62 -65 62 -134l-3 -103l-4 -4h-3q-154 118 -154 170l3 3h7l99 -70h4v4l-25 131l3 3h11zM207 1234h3l4 -4h4q-19 -40 -29 -138h7q77 74 109 81l4 -4v-3q0 -43 -153 -173q-14 0 -15 110q0 52 66 131zM868 1205l33 -64h22l48 25q-12 28 -58 60q-15 0 -45 -21z
M781 1180v-35l7 -32l84 14q0 20 -37 67h-3q-51 -2 -51 -14zM1066 1194l-40 -35v-7q50 -74 62 -74q17 5 54 39q-17 38 -76 77zM920 1113q26 -89 26 -109l-8 -15h8q0 15 21 15q12 9 59 14l-4 3v11l26 24v14q-38 71 -59 71zM119 1127l7 -21l-3 -11l7 -116l-4 -4v-4l4 -14l-4 -3
v-3l4 -18q6 0 44 56l55 47h3q7 0 7 -12q-25 -74 -105 -186q-17 -36 -22 -36q-15 15 -37 149v45q0 79 44 131zM1395 1120h4q25 -14 40 -134v-7q0 -78 -44 -163h-8q-9 6 -91 141q-22 54 -22 75l4 4h11l88 -99v24l-4 14q12 145 22 145zM781 1067l3 -81l15 -4l114 18
q0 34 -26 99h-26q-80 -13 -80 -29v-3zM719 1085l7 -49q0 -32 -33 -85q0 -93 -62 -128h-37l-58 7l-12 -10l16 -89l-4 -32q0 -63 51 -63q45 -22 59 -22l55 18q51 -5 51 -21q0 -82 -70 -82h-7l-33 4q-51 -18 -85 -18l-76 11q-12 0 -18 -42v-4q23 -42 99 -42q39 0 142 38
q117 24 117 50v3q-19 39 -19 103v10q-24 41 -80 68l-7 17l4 4v4l-4 4v2l62 125q0 30 80 45q0 16 52 50v4h-33l-92 -14v-8q0 -27 -14 -32h-4q-14 4 -14 40h-26l-11 10v7q0 10 37 18l3 14l-3 4v10l3 28l-3 28v15h-33zM1059 1028q0 -7 -15 -7q0 -9 32 -11q0 10 -17 18zM35 933
q10 0 81 -194h3q30 105 73 155l7 -7q0 -96 -50 -202q-8 -35 -15 -35h-4q-106 106 -106 240v14q0 26 11 29zM1472 925l7 -6v-8q0 -159 -106 -271h-4l-40 105q-15 0 -22 127l11 15q28 -24 62 -132q0 -14 7 -14q23 83 73 181l5 3h7zM196 741h3q14 0 26 -95h-3l3 -4v-24l-7 -113
v-11l4 -24l-12 -8q-128 89 -157 178l-10 56l7 7l120 -148h7l-3 42v21q0 99 22 123zM1304 739q29 -13 33 -139v-35l109 138l11 7l8 -7q-27 -123 -85 -174q-10 0 -84 -67l-7 8v67l-11 70l3 15v6l-3 14q11 97 26 97zM1264 583l3 -4h4q0 -115 -40 -208h3l139 116q17 26 37 39
q7 0 7 -11q-46 -138 -139 -184q-42 -24 -113 -35l-4 4v3q18 73 18 127l41 89q20 45 44 64zM251 569q36 -33 77 -156l7 -42h-4l11 -68l-11 -3q-145 33 -190 99q-52 87 -55 116v4l7 7q86 -88 179 -152v7q-33 79 -33 184l4 4h8zM1165 444h7l3 -3h4q-15 -79 -87 -177v-4
q22 0 201 61q0 7 25 14l3 -10q-88 -121 -193 -121h-3q-48 0 -118 18v7q32 38 81 134zM349 434q68 -58 118 -156l40 -52q0 -11 -103 -29q-115 0 -168 67q-44 34 -44 53v4h11q95 -49 165 -49q0 -7 50 -18v4q-61 67 -61 109q-26 49 -26 63l4 4h14zM913 215q223 -46 278 -46
l3 -4v-4q-26 -27 -109 -38h-70q-70 13 -172 53h-33q70 -41 128 -103v-7l-8 -7h-7q-109 93 -153 106h-15q-49 -17 -150 -113h-15l-7 7v3q63 72 128 103h4v8l-7 6h-7q-19 0 -161 -56l-66 -11q-98 0 -162 46l9 7h54l205 46h14q69 0 158 -24h14q43 19 147 28z" />
  </g>

</svg>
