<?xml version="1.0" encoding="UTF-8" standalone="no"?>
<!-- Created with Inkscape (http://www.inkscape.org/) -->

<svg
   xmlns:dc="http://purl.org/dc/elements/1.1/"
   xmlns:cc="http://creativecommons.org/ns#"
   xmlns:rdf="http://www.w3.org/1999/02/22-rdf-syntax-ns#"
   xmlns:svg="http://www.w3.org/2000/svg"
   xmlns="http://www.w3.org/2000/svg"
   xmlns:sodipodi="http://sodipodi.sourceforge.net/DTD/sodipodi-0.dtd"
   xmlns:inkscape="http://www.inkscape.org/namespaces/inkscape"
   width="64px"
   height="64px"
   id="svg3063"
   version="1.1"
   inkscape:version="0.48.3.1 r9886"
   sodipodi:docname="orga-icrc.svg">
  <defs
     id="defs3065" />
  <sodipodi:namedview
     id="base"
     pagecolor="#ffffff"
     bordercolor="#666666"
     borderopacity="1.0"
     inkscape:pageopacity="0.0"
     inkscape:pageshadow="2"
     inkscape:zoom="1.3685542"
     inkscape:cx="-44.72201"
     inkscape:cy="2.9804031"
     inkscape:current-layer="layer1"
     showgrid="true"
     inkscape:document-units="px"
     inkscape:grid-bbox="true"
     inkscape:window-width="834"
     inkscape:window-height="655"
     inkscape:window-x="483"
     inkscape:window-y="83"
     inkscape:window-maximized="0" />
  <metadata
     id="metadata3068">
    <rdf:RDF>
      <cc:Work
         rdf:about="">
        <dc:format>image/svg+xml</dc:format>
        <dc:type
           rdf:resource="http://purl.org/dc/dcmitype/StillImage" />
        <dc:title></dc:title>
      </cc:Work>
    </rdf:RDF>
  </metadata>
  <g
     id="layer1"
     inkscape:label="Layer 1"
     inkscape:groupmode="layer">
    <path
       style="fill:#000000"
       d="m 34.114763,54.592303 -4.84265,-0.03732 0.05438,-1.251377 c 0.05438,-1.250245 0.05471,-1.251412 0.352415,-1.291877 0.163898,-0.02229 0.44548,-0.214575 0.625733,-0.427337 l 0.327737,-0.386844 0.01222,-1.820519 c 0.02004,-2.987171 -0.02669,-4.637401 -0.135703,-4.794125 -0.05654,-0.08127 -0.275264,-0.147722 -0.486131,-0.147722 -0.210875,0 -1.000448,-0.251441 -1.754609,-0.558751 l -1.371205,-0.558761 1.004639,-0.03705 c 1.002194,-0.03696 1.007041,-0.03564 1.991825,0.550599 0.542944,0.32321 1.041522,0.565507 1.107931,0.538448 0.06643,-0.02706 -0.234281,-0.261124 -0.668213,-0.520108 -0.433931,-0.258993 -0.788974,-0.49907 -0.788974,-0.533505 0,-0.0344 0.216538,-0.06261 0.481192,-0.06261 0.389972,0 0.620437,0.11021 1.215722,0.581381 0.40399,0.319761 0.786388,0.56098 0.84977,0.536042 0.100241,-0.03944 -0.332701,-0.457154 -0.983927,-0.94931 -0.177533,-0.134174 -0.152689,-0.153938 0.201846,-0.160561 0.302677,-0.0053 0.500989,0.09265 0.788966,0.391098 0.211574,0.219261 0.384676,0.479368 0.384676,0.57802 0,0.09865 0.09794,0.179371 0.217643,0.179371 0.302153,0 0.278748,-0.06394 -0.216745,-0.592346 -0.238913,-0.254775 -0.407342,-0.514891 -0.374275,-0.57803 0.09916,-0.189398 0.474017,0.124775 0.787536,0.660057 0.161254,0.275317 0.329924,0.502767 0.374806,0.505446 0.157055,0.0094 0.07932,-0.27269 -0.189914,-0.68938 -0.294395,-0.455572 -0.266018,-0.590241 0.124354,-0.590241 0.190122,0 0.317776,0.149517 0.52091,0.610138 0.147992,0.335573 0.271356,0.535008 0.27415,0.443192 0.0025,-0.09182 -0.06643,-0.330152 -0.153829,-0.529623 -0.180535,-0.412073 -0.131196,-0.523707 0.231446,-0.523707 0.223056,0 0.25392,0.06155 0.25392,0.506215 0,0.278421 0.04897,0.541942 0.108822,0.585608 0.06643,0.04846 0.108821,-0.148526 0.108821,-0.506224 0,-0.454918 0.03949,-0.585599 0.176844,-0.585599 0.179737,0 0.170998,0.355549 -0.02336,0.948788 -0.05671,0.173092 -0.0375,0.225841 0.06718,0.184641 0.08057,-0.03175 0.214925,-0.299714 0.29847,-0.595547 0.132061,-0.467616 0.193365,-0.537882 0.469302,-0.537882 0.380177,0 0.384983,0.03095 0.08024,0.517419 -0.367099,0.586068 -0.159932,0.58812 0.23315,0.0027 0.264646,-0.394396 0.425251,-0.519718 0.666059,-0.519718 0.174532,0 0.317327,0.04094 0.317327,0.09091 0,0.04996 -0.181333,0.310123 -0.402968,0.578029 -0.567364,0.685825 -0.300831,0.607769 0.294147,-0.08613 0.351242,-0.40965 0.580568,-0.572785 0.811057,-0.576977 l 0.321352,-0.0062 -0.402968,0.487097 c -0.597721,0.722514 -0.489182,0.762264 0.24948,0.09137 0.588642,-0.534645 0.701396,-0.588764 1.152905,-0.553419 l 0.500448,0.03917 -0.448631,0.321124 c -0.717602,0.513643 -0.844158,0.648207 -0.683495,0.72675 0.111482,0.05447 0.124669,0.714025 0.06502,3.250533 -0.07408,3.148856 -0.07225,3.188578 0.176137,3.794153 0.205845,0.501909 0.345988,0.660897 0.779105,0.88389 l 0.528111,0.271903 -0.02794,1.091824 -0.02794,1.091823 -0.380876,0.0044 c -0.209487,0.0027 -2.560079,-0.01256 -5.223542,-0.03307 z m 0.630713,-4.370485 c -0.03841,-1.033857 -0.235844,-1.156492 -0.283212,-0.175877 -0.0365,0.755808 0.01804,1.042903 0.198179,1.042903 0.07533,0 0.105712,-0.309769 0.08503,-0.867026 z m -0.521892,-0.577366 c 0,-0.07163 -0.07217,-0.05774 -0.163232,0.03148 -0.08978,0.0879 -0.163233,0.217705 -0.163233,0.288352 0,0.07163 0.07217,0.05774 0.163233,-0.03148 0.08978,-0.08799 0.163232,-0.217705 0.163232,-0.288352 z m 1.088242,0.2286 c 0,-0.103516 -0.137607,-0.378081 -0.305786,-0.610138 -0.268812,-0.37091 -0.295893,-0.484064 -0.223921,-0.935728 0.198835,-1.247866 0.07832,-2.376316 -0.253821,-2.376316 -0.04789,0 -0.08706,0.617743 -0.08706,1.372755 l 0,1.372746 -0.326473,-0.369185 c -0.266002,-0.300811 -0.326466,-0.473991 -0.326466,-0.935028 0,-0.365922 0.07475,-0.678008 0.211566,-0.883315 0.194861,-0.292402 0.201347,-0.686418 0.01131,-0.686418 -0.211873,0 -0.487569,0.587704 -0.551459,1.17554 -0.09605,0.883739 0.203766,1.598843 0.843518,2.011916 0.253288,0.163533 0.545431,0.466997 0.649205,0.674356 0.204066,0.407758 0.3594,0.489361 0.3594,0.188815 z m 0.06169,-1.926263 c 0.256364,-0.461824 0.23848,-1.371031 -0.03575,-1.819405 -0.432585,-0.70719 -1.191701,-1.486953 -1.400872,-1.438989 -0.164546,0.03776 -0.06477,0.220358 0.527305,0.965139 0.822224,1.034282 0.943709,1.375426 0.693314,1.946964 -0.29817,0.680581 -0.124253,0.959329 0.216047,0.346291 z M 34.834758,44.59465 c -0.03309,-0.101844 -0.1107,-0.185171 -0.172436,-0.185171 -0.156764,0 -0.140409,0.428937 0.02378,0.624083 0.10923,0.129815 0.143211,0.120742 0.172446,-0.04607 0.02004,-0.114242 0.0093,-0.29103 -0.02378,-0.392875 z m 0.585915,-0.07092 c 0,-0.06278 -0.03916,-0.114216 -0.08706,-0.114216 -0.162884,0 -0.348242,0.307452 -0.344608,0.571601 0.0033,0.252404 0.01247,0.250751 0.217643,-0.03988 0.117719,-0.166787 0.214027,-0.354647 0.214027,-0.417468 z M 7.8882816,53.079847 c 0,-0.812439 0.044982,-1.477164 0.09995,-1.477164 0.2953602,0 0.7812498,-1.449813 1.6358594,-4.881078 0.2903298,-1.16568 1.342994,-5.298537 2.339259,-9.184136 2.117359,-8.258047 3.107298,-12.282436 3.107298,-12.632096 0,-0.359855 -0.693589,-1.027225 -1.25022,-1.202953 -0.462417,-0.145988 -0.478281,-0.168219 -0.548207,-0.768268 -0.03958,-0.33987 -0.03808,-0.908871 0.0033,-1.264464 l 0.07533,-0.646518 3.770912,0.02679 c 2.074006,0.01477 4.490566,0.05094 5.370128,0.08038 l 1.599217,0.05359 -0.0533,1.047812 -0.05338,1.047812 0.521776,0.595388 c 1.233107,1.40711 2.480857,2.566971 2.698234,2.508174 0.119706,-0.03236 0.605704,-0.263609 1.079986,-0.513847 0.474283,-0.250229 1.208846,-0.526652 1.632359,-0.614276 0.423505,-0.08763 0.805994,-0.221128 0.84997,-0.296682 0.04398,-0.07552 0.08065,-1.325445 0.08165,-2.77754 l 0.0017,-2.640182 -0.322059,-0.599412 c -0.191577,-0.356566 -0.430672,-0.631591 -0.590155,-0.678839 -0.24425,-0.07234 -0.274573,-0.161225 -0.340924,-0.999237 -0.04008,-0.505897 -0.05604,-1.09322 -0.03559,-1.305169 l 0.03725,-0.385341 5.108418,-0.03316 c 2.809625,-0.01822 5.137311,0.0107 5.172631,0.0642 0.03534,0.0535 0.03816,0.641902 0.0067,1.307459 l -0.05795,1.210107 -0.464795,0.182333 c -0.760414,0.2983 -0.812713,0.528853 -0.873243,3.849325 -0.04307,2.362265 -0.02602,2.864378 0.09888,2.907938 0.08298,0.02892 0.580668,0.171341 1.105903,0.31641 0.525242,0.14506 1.357743,0.469686 1.850002,0.721374 l 0.895019,0.457623 1.204048,-0.957472 c 0.662226,-0.526607 1.415522,-1.178979 1.67399,-1.449715 l 0.469934,-0.492244 0.01521,-1.052118 c 0.0084,-0.578657 0.06319,-1.108775 0.121893,-1.178033 0.0686,-0.08091 1.942951,-0.09779 5.248311,-0.04713 l 5.141626,0.07879 0,1.197179 0,1.197178 -0.510467,0.291491 c -0.28076,0.160314 -0.601555,0.439265 -0.712887,0.619874 -0.19778,0.320876 -0.197281,0.356168 0.0217,1.541399 0.123264,0.667149 0.5144,2.426846 0.869177,3.910439 0.354784,1.483584 1.28223,5.44304 2.060985,8.798786 1.527196,6.580784 2.467421,10.417136 2.842361,11.597575 0.129907,0.408987 0.427845,1.004976 0.662076,1.324419 0.457736,0.624243 0.461228,0.642221 0.355865,1.832033 l -0.07001,0.790729 -5.398373,-0.03334 -5.398365,-0.03334 -0.03201,-1.007665 c -0.03642,-1.148241 0.03101,-1.306548 0.638554,-1.49966 0.229899,-0.07304 0.594387,-0.329215 0.809977,-0.569213 0.357046,-0.397465 0.385549,-0.480156 0.319763,-0.927769 -0.07916,-0.538731 -2.450692,-11.547895 -3.296138,-15.30153 -0.291178,-1.292789 -0.583329,-2.414148 -0.649222,-2.491921 -0.08718,-0.102915 -0.313852,0.008 -0.832593,0.406749 -0.672927,0.5175 -0.762999,0.66523 -0.720096,1.181102 0.01463,0.176002 -0.10952,0.22118 -0.705961,0.256897 -0.398045,0.02388 -0.75776,0.01441 -0.799367,-0.02087 -0.0863,-0.07331 -0.555017,-1.389469 -0.555017,-1.55852 0,-0.06119 0.367281,-0.111324 0.816179,-0.111324 0.471572,0 0.81618,-0.05421 0.81618,-0.128444 0,-0.07543 -0.378157,-0.128453 -0.916828,-0.128453 l -0.916828,0 -0.334647,-0.729279 c -0.184052,-0.401108 -0.334646,-0.776819 -0.334646,-0.834918 0,-0.0581 0.281582,-0.106433 0.625741,-0.107397 0.704032,-0.0018 1.115439,-0.101606 1.115439,-0.270126 0,-0.06243 -0.479878,-0.113464 -1.066399,-0.113464 l -1.0664,0 -0.502452,-0.802809 -0.502444,-0.802809 0.725467,-0.03502 c 0.399002,-0.01919 0.797546,-0.0657 0.885648,-0.103241 0.356805,-0.152073 -0.178158,-0.307576 -1.085191,-0.315447 l -0.925001,-0.008 -0.705021,-0.764634 -0.705022,-0.764633 0.732227,0 c 0.415606,0 0.732227,-0.05553 0.732227,-0.128453 0,-0.145326 -0.06552,-0.15553 -1.197056,-0.186321 -0.643659,-0.01751 -0.913535,-0.08843 -1.276751,-0.335405 -0.33058,-0.224797 -0.4442,-0.374747 -0.40256,-0.531277 0.07059,-0.265439 -0.341141,-0.414169 -1.691368,-0.610916 -1.360878,-0.198304 -2.070506,-0.178318 -2.070506,0.05827 0,0.312245 -0.108497,0.232933 -0.750935,-0.548918 -0.335145,-0.407873 -0.838645,-0.924134 -1.118881,-1.147242 -0.774315,-0.616479 -0.913435,-0.936223 -0.756505,-1.738686 0.167406,-0.856052 0.01056,-1.095962 -0.3739,-0.572034 -0.314476,0.428512 -0.355874,1.215651 -0.09169,1.743523 0.09504,0.189903 0.415664,0.545638 0.712504,0.790517 0.785857,0.648304 1.135312,0.993436 1.073526,1.060272 -0.02993,0.03237 -0.804913,0.124287 -1.722207,0.204281 -0.917285,0.08003 -1.758808,0.202919 -1.870049,0.273194 -0.111241,0.0703 -0.346112,0.127764 -0.521925,0.127764 -0.199908,0 -0.631903,0.240599 -1.153171,0.642246 -0.810343,0.624411 -0.855907,0.642247 -1.639892,0.642247 -0.44351,0 -0.83665,0.05783 -0.873642,0.128453 -0.04107,0.07844 0.125825,0.128453 0.428868,0.128453 0.272869,0 0.492284,0.04333 0.487586,0.09633 -0.005,0.05297 -0.328028,0.428699 -0.718508,0.834918 l -0.70996,0.738591 -0.737007,0 c -0.405363,0 -0.890047,0.03617 -1.077084,0.08029 -0.638854,0.150817 -0.341249,0.305065 0.588575,0.305065 l 0.928643,0 -0.55555,0.867035 -0.555549,0.867035 -1.098951,0.0642 c -0.744807,0.04351 -1.113511,0.116223 -1.14415,0.225575 -0.03442,0.122731 0.190879,0.155406 0.941256,0.136509 0.542554,-0.01362 1.004631,3.89e-4 1.026831,0.0313 0.0222,0.03086 -0.09937,0.417432 -0.270176,0.85897 l -0.310551,0.802808 -0.915738,0 c -0.949954,0 -1.260014,0.0688 -1.260014,0.279465 0,0.07331 0.425259,0.106885 1.046719,0.08259 l 1.046727,-0.04094 -0.0676,0.760292 c -0.03717,0.418157 -0.08356,0.779171 -0.103118,0.802251 -0.0996,0.117567 -1.09723,0.192715 -1.533398,0.115507 l -0.498187,-0.08816 -0.0017,-0.730712 c -8.31e-4,-0.401887 -0.03766,-0.789845 -0.08165,-0.862127 -0.08966,-0.147377 -0.63601,-0.575058 -0.734613,-0.575058 -0.190272,0 -0.57785,1.531592 -3.492206,13.800101 -0.502386,2.114892 -0.913435,3.986638 -0.913435,4.159439 0,0.417626 0.627421,1.105238 1.221384,1.338559 l 0.465385,0.182811 0.03118,1.241977 0.03118,1.241968 -5.227475,0 -5.2274828,0 0,-1.477173 z M 36.197325,23.081582 c 0.628685,-0.742075 0.742736,-1.158207 0.477034,-1.74056 -0.221227,-0.484878 -0.454726,-0.634094 -0.666948,-0.426196 -0.123572,0.121051 -0.121344,0.188417 0.0138,0.416141 0.08867,0.149446 0.161054,0.388905 0.160829,0.532143 -6.56e-4,0.391381 -0.397671,1.082326 -0.762941,1.327648 -0.301621,0.202574 -0.415764,0.516774 -0.256173,0.705147 0.111158,0.131194 0.478041,-0.157635 1.034405,-0.814323 z m 0.04531,-1.78199 c -0.035,-0.06694 -0.01729,-0.155512 0.03933,-0.196871 0.05671,-0.04138 0.131745,-0.02043 0.166782,0.04651 0.03509,0.06694 0.0173,0.155504 -0.03933,0.196862 -0.05671,0.04139 -0.131745,0.02043 -0.166783,-0.04642 z m -1.328409,1.241411 c 0.03841,-0.58284 0.07017,-1.915165 0.07051,-2.960722 5.4e-4,-1.472522 0.03899,-1.988624 0.170965,-2.289762 0.154826,-0.353391 0.154602,-0.417078 -0.0025,-0.700089 -0.216413,-0.389859 -0.707116,-0.415548 -0.986138,-0.05164 -0.188534,0.245905 -0.189432,0.2837 -0.01688,0.710832 0.153172,0.379134 0.182257,0.897296 0.182257,3.24696 0,2.003277 0.037,2.839538 0.130589,2.949978 0.286355,0.337996 0.381782,0.146466 0.451159,-0.905564 z m -0.291552,-5.191501 c -0.03991,-0.04713 -0.07259,-0.225319 -0.07259,-0.39605 0,-0.422358 0.262127,-0.30403 0.306493,0.138357 0.03268,0.325651 -0.0755,0.444757 -0.23394,0.257693 z m 2.430395,1.694462 c 0,-0.140753 0.08148,-0.170218 0.317004,-0.114622 0.25436,0.06004 0.367273,0.0062 0.57133,-0.273823 0.139869,-0.191751 0.37459,-0.40338 0.521593,-0.470277 0.263107,-0.119725 0.260139,-0.125915 -0.18984,-0.395644 -0.251417,-0.15071 -0.683095,-0.494427 -0.959282,-0.763811 -0.583329,-0.568974 -0.783179,-0.600579 -1.204663,-0.19053 -0.169186,0.164594 -0.38752,0.333556 -0.485175,0.375481 -0.107117,0.04598 -0.198129,0.27124 -0.229408,0.567771 -0.06086,0.576747 -0.0577,0.58567 0.169052,0.48295 0.12699,-0.05748 0.15698,-0.180025 0.110801,-0.452592 -0.07666,-0.45222 0.151401,-0.510955 0.453587,-0.116833 0.246495,0.321504 0.326482,0.321106 0.601022,-0.0027 0.174848,-0.206377 0.19645,-0.312086 0.104997,-0.513794 -0.192566,-0.424692 0.109545,-0.306798 0.568072,0.221684 0.476544,0.549264 0.50858,0.680405 0.166209,0.680405 -0.135553,0 -0.430897,0.116674 -0.656323,0.259284 -0.309121,0.195562 -0.460754,0.227132 -0.616969,0.128453 -0.288967,-0.182545 -0.330249,-0.166787 -0.330249,0.126057 0,0.162224 0.07259,0.256905 0.196849,0.256905 0.108265,0 0.29191,0.08489 0.40809,0.188586 0.273085,0.2438 0.483303,0.246975 0.483303,0.0071 z m -3.950366,-0.131919 c 0.128353,-0.106116 0.347219,-0.178372 0.486364,-0.160562 0.188185,0.02405 0.261794,-0.03988 0.287345,-0.249646 0.03293,-0.270603 0.0042,-0.280224 -0.717219,-0.237672 -0.717735,0.04236 -1.547309,-0.142566 -1.547309,-0.344902 0,-0.08012 1.462234,-0.99792 1.58988,-0.99792 0.123838,0 0.01189,0.34423 -0.202378,0.622421 -0.225684,0.292967 -0.227812,0.3093 -0.02719,0.208526 0.119706,-0.06013 0.401288,-0.09961 0.625733,-0.08772 0.303243,0.016 0.40809,-0.02936 0.40809,-0.176709 0,-0.254227 -0.530855,-1.08031 -0.694229,-1.08031 -0.06835,0 -0.460098,0.265917 -0.870557,0.590931 -0.410459,0.325015 -0.911881,0.672605 -1.114283,0.772424 -0.202395,0.09982 -0.367997,0.239945 -0.367997,0.311388 0,0.191583 0.483869,0.374994 0.762442,0.289014 0.216687,-0.06685 0.229118,-0.04687 0.120204,0.193299 -0.166699,0.367655 0.03209,0.491492 0.369785,0.230332 0.353072,-0.273061 0.480094,-0.256649 0.411457,0.05315 -0.06901,0.311643 0.145672,0.340268 0.479878,0.06393 z m 5.473895,25.177195 c 0,-0.03758 0.271414,-0.273195 0.603143,-0.523672 0.471555,-0.356053 0.691161,-0.445765 1.006617,-0.411215 l 0.403475,0.04421 -0.707349,0.399711 c -0.699459,0.395245 -1.305886,0.623252 -1.305886,0.490988 z m 1.850003,-0.38459 c 0,-0.180432 0.870656,-0.684003 1.074074,-0.621218 0.126149,0.03891 0.202078,0.1229 0.168728,0.186587 C 41.532,43.532451 40.426605,43.91903 40.426605,43.70465 z M 25.947713,42.610457 c -0.2664,-0.212364 -0.717493,-0.568196 -1.002427,-0.790747 -0.284942,-0.222542 -0.505304,-0.418263 -0.489706,-0.434932 0.01563,-0.01662 0.532202,-0.05102 1.148016,-0.07631 l 1.119655,-0.04598 0.806742,0.770691 c 0.443701,0.423887 0.809087,0.814048 0.811956,0.867035 0.0025,0.05297 -0.425667,0.09634 -0.952323,0.09634 -0.884385,0 -0.994553,-0.02954 -1.441913,-0.38611 z m 2.166573,-0.290854 c -0.95737,-0.809193 -1.019272,-1.048802 -0.278199,-1.076967 0.492267,-0.01875 0.567232,0.02547 1.28618,0.757639 0.804556,0.819362 0.827712,0.990341 0.134664,0.994329 -0.24021,0.0018 -0.579629,-0.199125 -1.142645,-0.675001 z m 4.096113,-0.02087 c -0.512912,-0.94641 -0.500166,-1.100445 0.09103,-1.100445 l 0.471887,0 0.281259,0.7694 c 0.298603,0.816851 0.298237,0.818938 -0.164031,0.949363 -0.271796,0.07667 -0.334272,0.0199 -0.680144,-0.618318 z m -2.534777,-0.104966 c -0.362227,-0.370892 -0.646329,-0.732162 -0.631338,-0.802809 0.01497,-0.07066 0.246695,-0.145617 0.5149,-0.166592 0.473833,-0.03705 0.503624,-0.01645 1.052522,0.728439 0.310684,0.421624 0.564887,0.800058 0.564887,0.840957 0,0.04085 -0.18954,0.07437 -0.421194,0.07437 -0.351924,0 -0.529499,-0.110908 -1.079777,-0.674364 z m 1.496706,0.02697 c -0.662709,-0.794673 -0.690771,-1.022486 -0.125942,-1.022486 0.384884,0 0.434497,0.04501 0.707358,0.641301 0.551409,1.205102 0.263241,1.394032 -0.581416,0.381185 z m 2.413168,0.475707 c -0.178058,-0.253236 -0.458111,-1.250484 -0.388501,-1.38342 0.03301,-0.06314 0.302053,-0.114773 0.597788,-0.114773 l 0.537698,0 0,0.631742 c 0,0.347458 -0.02977,0.723169 -0.0661,0.834917 -0.08049,0.24755 -0.514891,0.267668 -0.680926,0.03157 z m 2.874521,0.05368 c -0.03401,-0.06491 0.08905,-0.157104 0.273418,-0.2049 0.362683,-0.09403 0.491867,-0.0306 0.378523,0.185905 -0.08783,0.167734 -0.566758,0.181697 -0.651941,0.01901 z m 2.687908,0.01547 c -0.457645,-0.05456 -0.44815,-0.219447 0.02927,-0.508559 0.214717,-0.130018 0.465702,-0.42761 0.571322,-0.677424 0.178449,-0.42203 0.221394,-0.447569 0.814118,-0.484055 0.404356,-0.02494 0.625741,0.01176 0.625741,0.103578 0,0.225725 -1.07705,1.383632 -1.396747,1.501606 -0.159516,0.05889 -0.449181,0.08808 -0.643701,0.06482 z m 1.507964,-0.0035 -0.369253,-0.04165 0.734564,-0.825412 c 0.674639,-0.75808 0.773558,-0.82542 1.212637,-0.82542 0.262933,0 0.478065,0.05244 0.478065,0.116489 0,0.121086 -0.792865,0.914177 -1.360296,1.360684 -0.20893,0.1644 -0.459416,0.241909 -0.695717,0.215274 z m 1.302526,-0.01654 c -0.13932,-0.101633 -0.06976,-0.204008 0.680634,-1.001528 0.614617,-0.653212 0.65471,-0.674356 1.278681,-0.674356 0.354294,0 0.644175,0.05412 0.644175,0.120291 0,0.06614 -0.404008,0.435021 -0.897796,0.819681 -0.836492,0.651629 -1.455266,0.918598 -1.705694,0.735912 z m -4.03476,-0.129974 c 0,-0.175586 0.41761,-0.417937 0.551659,-0.320151 0.161137,0.11755 -0.09425,0.444076 -0.347335,0.444076 -0.112372,0 -0.204324,-0.0558 -0.204324,-0.123925 z m -3.191033,-0.236302 c -0.101023,-0.13176 -0.182498,-0.448551 -0.182498,-0.709595 l 0,-0.471569 0.501505,0 c 0.492549,0 0.500182,0.0062 0.42723,0.353233 -0.105297,0.500777 -0.310161,0.968835 -0.446969,1.021238 -0.06419,0.02458 -0.198894,-0.06234 -0.299268,-0.193307 z m 0.879586,-0.238716 c -0.02785,-0.05916 -0.0075,-0.295381 0.04523,-0.524989 0.09007,-0.391849 0.125808,-0.417459 0.582555,-0.417459 0.267631,0 0.486597,0.05509 0.486597,0.122405 0,0.289191 -0.266592,0.776881 -0.425559,0.77849 -0.09514,8.84e-4 -0.277625,0.03493 -0.405546,0.07543 -0.127912,0.0405 -0.255391,0.02529 -0.283287,-0.03387 z m 1.576893,-0.26467 c -0.390962,-0.0573 -0.423106,-0.131256 -0.207924,-0.478616 0.154926,-0.250071 1.112704,-0.393654 1.222839,-0.183315 0.06452,0.12328 -0.438879,0.766535 -0.574673,0.734293 -0.04764,-0.01132 -0.245722,-0.04386 -0.440242,-0.07234 z m 1.061028,-0.05438 c 0,-0.426708 0.332102,-0.751864 0.767938,-0.751864 0.479421,0 0.561079,0.204582 0.224977,0.563606 -0.278781,0.297796 -0.992915,0.43319 -0.992915,0.188258 z M 23.540457,40.225686 c -0.319032,-0.393512 -0.596374,-0.769232 -0.61633,-0.834917 -0.02104,-0.06942 0.480644,-0.1164 1.197064,-0.112173 l 1.233332,0.0071 0.462501,0.750131 c 0.254377,0.412569 0.462501,0.785008 0.462501,0.827649 0,0.04262 -0.485782,0.07755 -1.079512,0.07755 l -1.079504,0 -0.580052,-0.715476 z m 2.694742,0.05934 c -0.274881,-0.360882 -0.499791,-0.729244 -0.499791,-0.818585 0,-0.177646 1.053354,-0.355027 1.26659,-0.213283 0.239037,0.158899 1.027454,1.438927 0.962592,1.562817 -0.03609,0.06889 -0.327463,0.12519 -0.647576,0.12519 -0.562292,0 -0.598968,-0.02228 -1.081815,-0.656139 z m 2.19239,0.517057 c -0.249571,-0.172129 -0.957711,-1.414044 -0.885215,-1.552489 0.03076,-0.05872 0.359058,-0.105488 0.729607,-0.103984 0.657104,0.0027 0.681051,0.01494 0.970782,0.498584 0.163382,0.272717 0.345813,0.647199 0.405395,0.832185 0.105372,0.327119 0.09673,0.336333 -0.315365,0.336333 -0.233033,0 -0.488916,0.02733 -0.568628,0.06075 -0.07974,0.03343 -0.231171,8.84e-4 -0.336576,-0.07136 z m 1.571505,-0.154222 c -0.106702,-0.151754 -0.563682,-1.328434 -0.563682,-1.451413 0,-0.02945 0.282523,-0.05359 0.627829,-0.05359 l 0.62782,0 0.351592,0.75488 c 0.193373,0.415186 0.351583,0.790897 0.351583,0.834926 0,0.158705 -1.278572,0.081 -1.395142,-0.0848 z m 1.783285,-0.0035 c 0.03018,-0.09276 -0.04481,-0.275131 -0.166658,-0.405255 -0.138671,-0.148129 -0.221485,-0.397235 -0.221485,-0.666256 0,-0.423047 0.0075,-0.429662 0.485516,-0.429662 0.469468,0 0.489049,0.01592 0.592499,0.481685 0.287354,1.293717 0.309263,1.188159 -0.246619,1.188159 -0.366525,0 -0.483603,-0.04457 -0.443253,-0.168671 z m 1.133166,-0.354886 c -0.06726,-0.294798 -0.166508,-0.673303 -0.22057,-0.841134 l -0.09829,-0.305153 0.873085,0 0.873093,0 -0.03243,0.802809 -0.03243,0.802808 -0.620129,0.03829 -0.620121,0.03829 -0.122275,-0.53598 z m 1.707133,0.437922 c -0.03991,-0.04713 -0.07259,-0.41768 -0.07259,-0.82351 l 0,-0.737884 0.663531,-0.04351 0.663523,-0.04351 -0.07126,0.632352 c -0.104814,0.930298 -0.21332,1.101718 -0.697388,1.101718 -0.22733,0 -0.445971,-0.03856 -0.485873,-0.0856 z m 1.295558,-0.02794 c -0.08401,-0.160447 0.12812,-1.298483 0.28313,-1.518947 0.06843,-0.09737 0.355192,-0.165815 0.694644,-0.165815 l 0.578057,0 -0.247226,0.867035 -0.247219,0.867035 -0.497538,0.03864 c -0.273643,0.02131 -0.52738,-0.0183 -0.563848,-0.08799 z m 1.352481,0.01645 c 0,-0.06049 0.102436,-0.467961 0.227637,-0.905555 l 0.227638,-0.795637 0.751774,0 c 0.413478,0 0.750403,0.04333 0.748715,0.09634 -0.0017,0.05297 -0.160838,0.443148 -0.35367,0.867035 l -0.35062,0.770691 -0.625741,0.03855 c -0.34415,0.02122 -0.625733,-0.01096 -0.625733,-0.07136 z m 1.632359,-0.09274 c 0,-0.1044 0.132626,-0.509019 0.294728,-0.899144 l 0.294728,-0.709312 0.630273,0 c 0.346645,0 0.630273,0.05049 0.630273,0.11227 0,0.192741 -0.567971,1.356723 -0.744349,1.525456 -0.245631,0.234975 -1.105653,0.212213 -1.105653,-0.02927 z m 1.523529,0.01998 c 0,-0.09343 0.150586,-0.498036 0.334646,-0.899144 l 0.334639,-0.72928 0.753595,0 c 0.414475,0 0.753595,0.05262 0.753595,0.116913 0,0.186348 -0.847642,1.400938 -1.080226,1.547864 -0.312405,0.197349 -1.096249,0.171359 -1.096249,-0.03634 z m 1.772851,0.06455 c -0.0931,-0.06791 -0.0025,-0.327083 0.313577,-0.89428 l 0.444666,-0.798661 0.584451,0 c 0.321451,0 0.584459,0.05262 0.584459,0.116913 0,0.133652 -0.80379,1.360578 -0.971496,1.482921 -0.183504,0.133865 -0.81539,0.195429 -0.955657,0.09311 z m 1.558242,-0.128683 c -0.03043,-0.0581 0.14198,-0.433782 0.383071,-0.834917 l 0.438347,-0.729341 0.753154,0 c 0.492068,0 0.753163,0.05085 0.753163,0.146713 0,0.08065 -0.224153,0.456404 -0.49812,0.834918 -0.497164,0.686886 -0.499351,0.688204 -1.136226,0.688204 -0.35096,0 -0.662982,-0.04749 -0.693389,-0.105577 z M 22.97848,38.909986 c -0.390537,-0.03794 -0.434048,-0.08542 -0.680152,-0.742252 -0.144608,-0.385951 -0.262925,-0.759841 -0.262925,-0.830867 0,-0.08074 0.435594,-0.115481 1.162882,-0.09267 l 1.162883,0.03643 0.301321,0.706474 c 0.165727,0.388559 0.290089,0.754075 0.276362,0.812252 -0.02619,0.111015 -1.246852,0.179884 -1.960371,0.110608 z m 2.244506,-0.312732 c -0.244932,-0.316171 -0.575812,-1.032177 -0.575812,-1.246 0,-0.0818 0.312023,-0.134829 0.793505,-0.134829 l 0.793506,0 0.294728,0.709321 c 0.162102,0.390125 0.294728,0.765836 0.294728,0.834917 0,0.06906 -0.309769,0.125606 -0.688383,0.125606 -0.574989,0 -0.72526,-0.04758 -0.912272,-0.289015 z m 1.612487,-0.513794 -0.326989,-0.802808 0.708397,-0.09663 c 0.86699,-0.118257 1.058576,-0.01212 1.271106,0.704386 0.08945,0.301554 0.197547,0.649436 0.240201,0.77307 0.06984,0.202318 -0.0042,0.224788 -0.744084,0.224788 l -0.82165,0 -0.326981,-0.802809 z m 2.289122,0.632396 c -0.17592,-0.250203 -0.450951,-1.069185 -0.450951,-1.342857 0,-0.191291 0.09569,-0.242863 0.495992,-0.267323 0.752572,-0.04598 0.902327,0.05969 1.196149,0.843875 0.146678,0.391478 0.266691,0.762397 0.266691,0.824253 0,0.186825 -1.372868,0.134068 -1.507881,-0.05792 z m 2.574597,0.102198 c -0.03176,-0.03749 0.04523,-0.332539 0.171148,-0.655608 0.209877,-0.538466 0.234929,-0.562209 0.300864,-0.285018 0.03958,0.166301 0.07683,0.461329 0.08281,0.6556 0.0088,0.288086 -0.036,0.353241 -0.243078,0.353241 -0.139661,0 -0.279928,-0.03068 -0.311715,-0.06818 z m 0.903657,-0.163214 c -0.0577,-0.127295 -0.120653,-0.517455 -0.13986,-0.867035 l -0.03492,-0.635606 0.952206,-0.03714 0.952207,-0.03714 0,0.771177 c 0,0.920058 -0.115457,1.037121 -1.022848,1.037121 -0.468404,0 -0.625118,-0.05129 -0.706784,-0.231429 z m 2.017858,-0.121812 c -0.0291,-0.123625 -0.04465,-0.484895 -0.03451,-0.802809 0.01671,-0.526147 0.04473,-0.58161 0.312397,-0.61807 0.255932,-0.03484 0.329675,0.04298 0.569252,0.601048 0.151376,0.352604 0.325135,0.677495 0.386123,0.721992 0.270075,0.197013 0.06186,0.322627 -0.534713,0.322627 -0.522167,0 -0.655724,-0.04298 -0.69852,-0.224788 z m 1.670598,0.151904 c 0,-0.04006 0.224686,-0.398464 0.499309,-0.796388 0.356198,-0.516129 0.57454,-0.723496 0.761769,-0.723496 0.313278,0 0.321767,0.0497 0.157055,0.918412 l -0.127854,0.674356 -0.64514,0 c -0.354826,0 -0.645139,-0.03281 -0.645139,-0.07287 z m 1.575803,-0.151904 c 0.04157,-0.123625 0.131845,-0.499345 0.200631,-0.834918 l 0.125077,-0.610138 0.491153,-0.0018 c 0.270142,-8.84e-4 0.609062,-0.039 0.753163,-0.08454 0.254685,-0.08047 0.260131,-0.06668 0.195211,0.492368 -0.03675,0.316312 -0.116688,0.730048 -0.177684,0.91942 -0.105978,0.329021 -0.145364,0.34431 -0.887003,0.34431 -0.695385,0 -0.768246,-0.02334 -0.700548,-0.224788 z m 1.797188,0.134581 c -3.25e-4,-0.05633 0.07999,-0.391478 0.178406,-0.74471 0.09842,-0.353241 0.195061,-0.714503 0.214767,-0.802809 0.03908,-0.175126 1.462583,-0.238141 1.450901,-0.0642 -0.0033,0.05297 -0.113744,0.443148 -0.244866,0.867035 l -0.238405,0.770691 -0.680127,0.03829 c -0.374075,0.02105 -0.680377,-0.008 -0.680676,-0.0642 z m 1.632899,-0.01326 c 0,-0.05695 0.102436,-0.461541 0.227638,-0.899144 0.248939,-0.870113 0.534122,-1.080602 0.534122,-0.394237 0,0.428176 0.03767,0.435533 0.843385,0.164735 0.296034,-0.0995 0.321028,0.126083 0.08717,0.786706 l -0.157679,0.445446 -0.767323,0 c -0.422025,0 -0.767314,-0.0466 -0.767314,-0.103506 z m 1.958824,-0.410288 c 0.206801,-0.478466 0.435295,-0.68074 0.435295,-0.385349 0,0.233348 0.238014,0.133953 0.615157,-0.256897 0.490238,-0.508064 0.736326,-0.522266 0.556364,-0.0321 -0.176269,0.48012 -0.435594,0.975529 -0.570474,1.08986 -0.06119,0.05191 -0.369435,0.09526 -0.684875,0.09634 l -0.573534,0.0018 0.222067,-0.513794 z m 1.523529,0.328702 c 0,-0.1018 0.04823,-0.220243 0.107092,-0.263211 0.05887,-0.04298 0.174067,-0.349845 0.255932,-0.681942 l 0.148832,-0.603816 0.83231,-0.03749 c 0.543917,-0.0245 0.83231,0.01061 0.83231,0.101455 0,0.193829 -0.425875,1.17386 -0.628078,1.445339 -0.221668,0.297619 -1.548398,0.331629 -1.548398,0.0397 z M 21.978963,36.806757 c -0.03001,-0.09258 -0.06635,-0.48623 -0.08074,-0.87479 l -0.02611,-0.706473 1.006617,-0.03696 1.006617,-0.03696 0,0.394299 c 0,0.216856 0.07051,0.593478 0.156689,0.836934 0.08618,0.243456 0.122907,0.465688 0.08165,0.493853 -0.04132,0.02821 -0.528452,0.06181 -1.08258,0.07481 -0.745123,0.01742 -1.02175,-0.02025 -1.062167,-0.144742 z m 2.356305,-0.200434 c -0.05604,-0.123625 -0.136792,-0.499345 -0.179421,-0.834918 l -0.07749,-0.610138 0.610892,-0.0229 c 0.335985,-0.01265 0.718915,-0.02706 0.850951,-0.0321 0.240667,-0.0092 0.310767,0.162056 0.561461,1.371659 l 0.07317,0.353232 -0.868836,0 c -0.716088,0 -0.886754,-0.03953 -0.970748,-0.224788 z m 1.894061,-0.440769 c -0.284052,-1.129017 -0.281849,-1.133014 0.621518,-1.130768 0.43394,8.85e-4 0.842753,0.04448 0.90848,0.09634 0.06577,0.05191 0.151409,0.32558 0.190388,0.608174 0.039,0.282586 0.101097,0.643848 0.138039,0.802809 0.0656,0.2824 0.04706,0.289006 -0.811906,0.289006 l -0.879062,0 -0.167457,-0.665557 z m 2.132325,0.248098 c -0.0612,-0.229607 -0.126182,-0.619768 -0.144466,-0.867035 l -0.03326,-0.449567 0.707358,0 0.70735,0 0.0042,0.642246 c 0.0025,0.353233 0.04415,0.743402 0.09326,0.867027 0.07982,0.200885 0.01954,0.224788 -0.566841,0.224788 -0.644898,0 -0.658052,-0.0071 -0.767364,-0.417459 z m 4.068143,0.256897 c -0.101314,-0.354788 -0.151476,-1.07633 -0.09377,-1.34872 0.05779,-0.27262 0.116072,-0.289006 1.028834,-0.289006 l 0.967622,0 0,0.819938 c 0,0.74173 -0.02336,0.82733 -0.244857,0.897392 -0.459799,0.145441 -1.609328,0.09025 -1.657827,-0.07959 z m 2.22051,-0.04439 c -0.08298,-0.118053 -0.100125,-0.417856 -0.05055,-0.885888 0.05887,-0.55601 0.115856,-0.707437 0.266309,-0.707437 0.294412,0 0.480768,0.532002 0.39536,1.128663 -0.07982,0.557841 -0.38332,0.788598 -0.611091,0.464662 z m 2.791782,-0.662072 c 0.08564,-0.981428 0.112281,-1.059706 0.360689,-1.059706 0.370915,0 0.411141,0.692776 0.075,1.292284 -0.397222,0.708499 -0.512463,0.646987 -0.435711,-0.232578 z m 0.809528,0.128453 c 0.0025,-1.149082 0.03176,-1.188159 0.881799,-1.188159 l 0.749072,0 0,0.899144 0,0.899153 -0.81618,0 -0.816179,0 0.0017,-0.610138 z m 1.899017,-0.256897 0.0042,-0.867035 0.788974,-0.03776 c 0.892582,-0.04271 0.866266,-0.08569 0.719771,1.175858 l -0.06918,0.595954 -0.723671,0 -0.723679,0 0.0042,-0.867035 z m 1.739086,0.06871 c 0.04207,-0.439097 0.100274,-0.843707 0.1293,-0.899152 0.02902,-0.05545 0.368205,-0.100801 0.753712,-0.100801 0.52289,0 0.70093,0.04492 0.70093,0.176992 0,0.207615 -1.331544,1.621304 -1.527104,1.621304 -0.09917,0 -0.113744,-0.204688 -0.05687,-0.798343 z m 3.733213,0.716723 c -0.104739,-0.03608 -0.190438,-0.08755 -0.190438,-0.114207 0,-0.129647 0.3294,-1.5203 0.372029,-1.570608 0.072,-0.08498 1.365709,-0.0787 1.438304,0.0071 0.076,0.08971 -0.05338,1.264606 -0.162118,1.472301 -0.08516,0.162631 -1.147767,0.312484 -1.457777,0.205572 z M 31.905377,35.367697 c -0.04457,-0.133741 -0.05529,-0.273433 -0.02403,-0.310414 0.09926,-0.117161 0.186589,0.07481 0.144999,0.318744 -0.03808,0.223551 -0.0439,0.223144 -0.121003,-0.008 z m -7.801713,-0.944985 c 3.24e-4,-0.19428 0.05163,-0.569991 0.113935,-0.834918 l 0.113328,-0.481685 0.756656,0 0.756646,0 0,0.834917 0,0.834927 -0.87059,0 -0.870582,0 6.49e-4,-0.353241 z m 1.958217,-0.07508 c 0,-0.241289 0.0306,-0.619344 0.06801,-0.840117 0.06319,-0.373129 0.100216,-0.4014 0.525151,-0.4014 0.346902,0 0.518757,0.07746 0.712721,0.321123 0.140567,0.176612 0.321343,0.321124 0.401712,0.321124 0.101829,0 0.136717,0.146024 0.115091,0.481685 l -0.03101,0.481685 -0.895825,0.03732 -0.895825,0.03732 0,-0.438709 z m 2.111963,0.250901 c -0.03384,-0.104081 -0.0454,-0.323502 -0.02569,-0.487592 0.03085,-0.25695 0.08868,-0.292649 0.416695,-0.257242 0.506543,0.05465 1.142653,0.425082 1.142653,0.665354 0,0.279712 -1.444208,0.354558 -1.533631,0.0795 z m 3.056087,-0.341657 c -0.596033,-0.725936 -0.781225,-0.83023 -1.107848,-0.623906 -0.223272,0.141045 -0.281458,0.138021 -0.36561,-0.01901 -0.05504,-0.102711 -0.100831,-0.228061 -0.101746,-0.278554 -0.0025,-0.147837 0.415024,-0.36876 0.47622,-0.251874 0.03068,0.05863 0.388708,0.05774 0.795576,-0.0018 0.406875,-0.05969 0.852256,-0.07684 0.989738,-0.03802 0.232144,0.06544 0.247651,0.127391 0.217644,0.869325 -0.02777,0.68701 -0.06294,0.804029 -0.251035,0.835855 -0.139553,0.02361 -0.375887,-0.154416 -0.652939,-0.491855 z m 1.143717,-0.360085 c 0,-0.680307 0.02586,-0.768905 0.244858,-0.838172 0.463415,-0.146581 0.709735,-0.08056 0.886305,0.237496 0.09722,0.175144 0.326265,0.409694 0.508971,0.521213 0.242204,0.147837 0.322989,0.27904 0.298237,0.484356 -0.0316,0.261955 -0.100358,0.284186 -0.986156,0.318709 l -0.952215,0.03714 0,-0.760717 z m 2.285298,0.558044 c 0,-0.117753 0.06119,-0.19 0.136035,-0.160562 0.154054,0.06057 0.137125,0.267173 -0.02719,0.331824 -0.05987,0.02352 -0.10883,-0.0535 -0.10883,-0.171262 z m 2.913799,0.121007 c -0.102028,-0.120432 0.171705,-0.82748 0.320363,-0.82748 0.08674,0 0.139377,0.169785 0.139377,0.449567 0,0.350323 -0.04407,0.449577 -0.199509,0.449577 -0.109736,0 -0.226839,-0.03228 -0.260231,-0.07163 z m 0.729317,-0.538474 c -0.03866,-0.335573 -0.0939,-0.711284 -0.122824,-0.834918 -0.04623,-0.197446 0.03368,-0.224788 0.656972,-0.224788 l 0.709577,0 0.113329,0.481685 c 0.06236,0.264927 0.113602,0.640646 0.113935,0.834926 6.57e-4,0.348847 -0.0083,0.353233 -0.700074,0.353233 l -0.70069,0 -0.07026,-0.610138 z m 1.863514,0.502757 c -0.03093,-0.05907 -0.06768,-0.308097 -0.08165,-0.553419 -0.03575,-0.626993 0.323464,-1.037624 0.861053,-0.984248 0.368629,0.03661 0.408373,0.08233 0.553687,0.636879 0.229708,0.876612 0.147901,1.008169 -0.626905,1.008169 -0.357462,0 -0.675238,-0.04828 -0.70616,-0.107381 z m 1.717084,-0.07914 c -0.106568,-0.327818 0.08215,-0.524627 0.247319,-0.257958 0.08065,0.130177 0.146628,0.283435 0.146628,0.340587 0,0.181263 -0.330697,0.111899 -0.393947,-0.08259 z m 1.741181,0 c -0.08336,-0.256419 0.04024,-0.455722 0.282639,-0.455722 0.531944,0 0.756381,0.417476 0.301746,0.561289 -0.381941,0.120813 -0.518824,0.09609 -0.584385,-0.105567 z M 42.739374,34.27728 c -0.194379,-0.117682 -0.429766,-0.342638 -0.52309,-0.499893 -0.09331,-0.157254 -0.235104,-0.285919 -0.31509,-0.285919 -0.154037,0 -0.323705,-0.373669 -0.223414,-0.492049 0.08693,-0.102596 1.016512,-0.08534 1.106218,0.02051 0.04216,0.04979 0.01871,0.158855 -0.05213,0.242457 -0.214759,0.253492 -0.147319,0.447675 0.252107,0.725839 0.656381,0.45712 0.445198,0.706668 -0.244583,0.289041 z m 1.305619,-1.046715 c -0.359665,-0.170643 -0.298536,-0.312555 0.150985,-0.350526 0.380527,-0.0321 0.6924,0.134616 0.6924,0.370255 0,0.144025 -0.524079,0.13176 -0.843385,-0.01972 z M 25.164085,32.747014 c -0.404007,-0.02087 -0.734563,-0.09507 -0.734563,-0.164833 0,-0.06977 0.122832,-0.412958 0.272961,-0.762653 0.29625,-0.690052 0.496856,-0.813986 1.206534,-0.745426 0.464197,0.04483 0.482888,0.10891 0.255541,0.875966 -0.260605,0.879265 -0.208655,0.837889 -1.000473,0.796946 z m 4.516359,-0.04528 c -0.06876,-0.08118 -0.262168,-0.153381 -0.429857,-0.160562 -0.248283,-0.01061 -0.304881,-0.07172 -0.304881,-0.328843 0,-0.247364 0.08951,-0.355991 0.413162,-0.501387 0.516562,-0.232066 0.759008,-0.05182 0.525051,0.390363 -0.123904,0.234171 -0.119289,0.289961 0.03218,0.390037 0.09724,0.0642 0.148391,0.171041 0.113669,0.237345 -0.08418,0.160783 -0.19773,0.152029 -0.349363,-0.02697 z m -3.363986,-0.359467 c 0.03525,-0.208181 0.136842,-0.583901 0.2257,-0.834917 0.127788,-0.361005 0.222167,-0.456403 0.451526,-0.456403 0.28362,0 0.288367,0.01335 0.217003,0.610138 -0.121369,1.014819 -0.145556,1.059706 -0.571214,1.059706 -0.370575,0 -0.38441,-0.01618 -0.323015,-0.378524 z m 4.811012,0.260178 c -0.03783,-0.07234 -0.262667,-0.200019 -0.499567,-0.283797 -0.468986,-0.16585 -0.46206,-0.151515 -0.361112,-0.747266 0.05937,-0.350571 0.106302,-0.399959 0.319805,-0.336714 0.137599,0.04077 0.28056,0.01609 0.317693,-0.05483 0.03708,-0.07092 0.408339,-0.128922 0.824918,-0.128922 0.729791,0 0.755342,0.01052 0.700465,0.289015 -0.03135,0.158952 -0.09543,0.520214 -0.142454,0.802809 -0.08367,0.502802 -0.09626,0.514625 -0.588209,0.552473 -0.276486,0.02122 -0.533674,-0.02052 -0.571539,-0.0928 z m 1.355008,-0.068 c 0,-0.10249 0.05305,-0.478201 0.117835,-0.834918 l 0.117843,-0.648569 0.535104,0 c 0.294304,0 0.535104,0.02733 0.535104,0.06075 0,0.03343 -0.09463,0.308 -0.210277,0.610138 -0.115648,0.302138 -0.236534,0.650497 -0.268645,0.774131 -0.07533,0.290084 -0.826964,0.325014 -0.826964,0.03847 z m 5.643647,-0.122803 c -0.101031,-0.261734 -0.08975,-0.385199 0.05986,-0.654706 l 0.184377,-0.332142 0.320179,0.318002 c 0.176103,0.174905 0.421177,0.355841 0.544607,0.402081 0.132128,0.04952 0.210269,0.172004 0.190006,0.297884 -0.02586,0.160765 -0.175838,0.223444 -0.604464,0.252626 -0.518209,0.03528 -0.581367,0.0095 -0.694562,-0.283745 z m 2.463712,0.208756 c -0.119705,-0.02909 -0.259241,-0.09936 -0.310077,-0.156034 -0.123896,-0.138136 0.01912,-0.64329 0.181384,-0.640487 0.123571,0.0018 0.618399,0.543445 0.618399,0.676496 0,0.110961 -0.262575,0.17532 -0.489706,0.120025 z m 1.686097,-0.317055 c -3.25e-4,-0.158961 -0.07525,-0.457836 -0.166418,-0.664178 -0.107865,-0.244145 -0.128635,-0.418979 -0.05945,-0.500626 0.06918,-0.08162 0.203301,0.133475 0.384069,0.615939 0.332917,0.888541 0.329275,0.83787 0.06011,0.83787 -0.152955,0 -0.217843,-0.08587 -0.218316,-0.289005 z m 0.77641,0.116205 c -0.06685,-0.09504 -0.152606,-0.356354 -0.190621,-0.5807 -0.038,-0.224337 -0.111757,-0.439 -0.163881,-0.477025 -0.05213,-0.03802 -0.09476,-0.152417 -0.09476,-0.254217 0,-0.141965 0.162984,-0.185101 0.699368,-0.185101 l 0.699367,0 0.341689,0.704926 c 0.187927,0.387702 0.311059,0.763422 0.273626,0.834917 -0.10414,0.198896 -1.420153,0.162896 -1.564786,-0.0428 z M 25.300113,30.675452 c 0,-0.149296 0.740898,-1.305354 0.970964,-1.515039 0.170275,-0.155185 1.09669,-0.232216 1.09669,-0.09118 0,0.113959 -0.561653,1.248432 -0.742637,1.500041 -0.116704,0.162242 -0.32353,0.224788 -0.743352,0.224788 -0.319913,0 -0.581665,-0.05341 -0.581665,-0.118611 z m 1.809468,0.0062 c -0.191502,-0.08882 -0.192675,-0.107619 -0.01946,-0.312095 0.101388,-0.119671 0.255841,-0.21759 0.343219,-0.21759 0.221327,0 0.325077,0.386995 0.1407,0.524795 -0.175405,0.131097 -0.191985,0.131274 -0.46448,0.0053 z m 3.84936,-0.135156 c 0,-0.151329 0.280835,-0.485098 0.552606,-0.656784 0.120579,-0.07614 0.209163,-0.267925 0.209163,-0.45276 0,-0.381901 0.155999,-0.470853 0.731279,-0.417017 l 0.429699,0.04024 -0.162102,0.802808 -0.162101,0.802809 -0.799268,0 c -0.439602,0 -0.799276,-0.05368 -0.799276,-0.119274 z m 1.901187,-0.355531 c 0.04265,-0.268711 0.140243,-0.665645 0.216821,-0.882068 0.126423,-0.357309 0.183071,-0.392451 0.615764,-0.381972 0.364745,0.0088 0.465976,0.05598 0.43152,0.200833 -0.02478,0.104117 -0.04922,0.478307 -0.05438,0.831539 l -0.0094,0.642247 -0.638945,0.039 -0.638937,0.039 0.07757,-0.488556 z m 9.536118,0.307744 c -0.06577,-0.07764 -0.119639,-0.18389 -0.119639,-0.236045 0,-0.05217 -0.150253,-0.286256 -0.33389,-0.520223 -0.625542,-0.796964 -0.622283,-0.874958 0.03667,-0.874958 0.515149,0 0.618483,0.04731 0.911565,0.417458 0.325933,0.411623 0.800382,1.173444 0.800382,1.285166 0,0.125712 -1.183337,0.06049 -1.295068,-0.07136 z m -7.020913,-0.457942 c -0.04689,-0.08953 -0.05587,-0.197472 -0.01995,-0.239874 0.0974,-0.11495 0.203584,0.05412 0.150985,0.240387 -0.03683,0.130531 -0.06253,0.130425 -0.131055,-5.13e-4 z m -0.607557,-0.145688 c 0,-0.07065 0.04897,-0.128453 0.108822,-0.128453 0.05987,0 0.108821,0.05783 0.108821,0.128453 0,0.07066 -0.04897,0.128444 -0.108821,0.128444 -0.05987,0 -0.108822,-0.05783 -0.108822,-0.128444 z m -7.879937,-1.554151 c 0.11371,-0.148305 0.493431,-0.524025 0.843825,-0.834917 0.49531,-0.439487 0.730115,-0.565269 1.055167,-0.565269 0.229949,0 0.443144,0.04784 0.473767,0.106337 0.0306,0.05845 -0.272554,0.432987 -0.673726,0.832229 -0.688176,0.68487 -0.76265,0.726051 -1.317592,0.728589 l -0.588193,0.0027 0.206752,-0.269648 z m 5.1902,-0.254111 c 0.07841,-0.690061 0.622083,-1.408242 0.622083,-0.821777 0,0.107725 0.119656,0.249557 0.26591,0.315181 0.240824,0.108079 0.256215,0.159191 0.163232,0.541888 -0.05646,0.232402 -0.102669,0.437382 -0.102669,0.45551 0,0.01813 -0.226814,0.03298 -0.504032,0.03298 l -0.50404,0 0.05953,-0.523769 z m 1.214574,0.185331 c 0.179546,-0.844406 0.37084,-1.202962 0.641789,-1.202962 0.309753,0 0.354776,0.116223 0.348382,0.899153 l -0.005,0.57802 -0.53034,0.03979 c -0.529758,0.03979 -0.530265,0.03944 -0.455117,-0.314004 z m 8.119798,0.136668 c 0.109054,-0.155097 0.08751,-0.180901 -0.127696,-0.152966 -0.196292,0.02547 -0.267373,-0.03626 -0.294005,-0.255403 -0.02785,-0.229404 0.01754,-0.289014 0.220287,-0.289014 0.257812,0 0.739137,0.320991 0.739137,0.492924 0,0.05111 -0.150503,0.160058 -0.334448,0.242015 -0.288808,0.128665 -0.316545,0.123545 -0.203275,-0.03758 z M 30.414824,28.163962 c 0,-0.104347 0.134672,-0.288476 0.299268,-0.409191 0.164597,-0.120706 0.382315,-0.3388 0.483828,-0.484647 0.138605,-0.199135 0.215673,-0.228582 0.30947,-0.118249 0.197131,0.231863 0.07492,0.627886 -0.184002,0.596361 -0.123838,-0.01512 -0.338489,0.114976 -0.47701,0.289015 -0.286513,0.359979 -0.431554,0.402567 -0.431554,0.126711 z m 4.318313,-0.536238 c -0.108539,-0.128108 -0.09069,-0.686992 0.02195,-0.686992 0.130381,0 0.221892,0.450549 0.127953,0.629955 -0.04166,0.0795 -0.109096,0.105196 -0.149895,0.05704 z m -5.188903,-0.196747 c 0,-0.33101 0.25451,-0.490245 0.783536,-0.490245 0.703691,0 0.701621,0.357468 -0.0025,0.450876 -0.160173,0.02122 -0.401405,0.07976 -0.536077,0.129983 -0.175114,0.06535 -0.244849,0.03953 -0.244849,-0.09061 z m 10.628451,0.06641 c -0.139811,-0.165019 -0.07292,-0.42028 0.09069,-0.346167 0.08977,0.04068 0.163233,0.154451 0.163233,0.252865 0,0.188859 -0.131912,0.237318 -0.25392,0.0933 z m -4.643149,-0.379664 c 0,-0.170687 0.02952,-0.179468 0.163241,-0.04846 0.08977,0.08799 0.163233,0.181732 0.163233,0.208403 0,0.0267 -0.07342,0.04846 -0.163233,0.04846 -0.08978,0 -0.163241,-0.09378 -0.163241,-0.208393 z m -6.420597,-0.487371 c 0,-0.140975 1.43946,-0.859121 1.649254,-0.822821 0.380186,0.06579 -0.799658,0.876338 -1.275595,0.876338 -0.205513,0 -0.373659,-0.02405 -0.373659,-0.0535 z m 1.43842,-0.107044 c 0.02303,-0.08834 0.259716,-0.288228 0.525983,-0.444271 0.871705,-0.510849 1.204406,-0.293524 0.431886,0.282099 -0.460097,0.342833 -1.030106,0.439337 -0.957869,0.162172 z m 1.310941,-0.01689 c -0.03492,-0.06668 0.09199,-0.285283 0.282049,-0.485727 0.54247,-0.572113 0.716013,-0.451416 0.397214,0.276263 -0.160589,0.366559 -0.536343,0.482428 -0.679263,0.209464 z m 2.691824,-0.336369 c 0,-0.211939 0.03825,-0.38535 0.08497,-0.38535 0.04673,0 0.140418,0.173411 0.208198,0.38535 0.110186,0.344566 0.101189,0.38535 -0.08497,0.38535 -0.158776,0 -0.208198,-0.09146 -0.208198,-0.38535 z m -1.63235,-4.68082 c 0,-0.03113 0.04897,-0.09237 0.108821,-0.136032 0.05987,-0.04368 0.108822,-0.01813 0.108822,0.05668 0,0.07481 -0.04897,0.136031 -0.108822,0.136031 -0.05987,0 -0.108821,-0.02547 -0.108821,-0.05668 z"
       id="path3273"
       inkscape:connector-curvature="0" />
  </g>
</svg>
