<?xml version="1.0" encoding="UTF-8" standalone="no"?>
<!-- Created with Inkscape (http://www.inkscape.org/) -->

<svg
   xmlns:dc="http://purl.org/dc/elements/1.1/"
   xmlns:cc="http://creativecommons.org/ns#"
   xmlns:rdf="http://www.w3.org/1999/02/22-rdf-syntax-ns#"
   xmlns:svg="http://www.w3.org/2000/svg"
   xmlns="http://www.w3.org/2000/svg"
   xmlns:sodipodi="http://sodipodi.sourceforge.net/DTD/sodipodi-0.dtd"
   xmlns:inkscape="http://www.inkscape.org/namespaces/inkscape"
   width="64px"
   height="64px"
   id="svg3079"
   version="1.1"
   inkscape:version="0.48.3.1 r9886"
   sodipodi:docname="New document 8">
  <defs
     id="defs3081" />
  <sodipodi:namedview
     id="base"
     pagecolor="#ffffff"
     bordercolor="#666666"
     borderopacity="1.0"
     inkscape:pageopacity="0.0"
     inkscape:pageshadow="2"
     inkscape:zoom="1.3942051"
     inkscape:cx="21.322713"
     inkscape:cy="13.322707"
     inkscape:current-layer="layer1"
     showgrid="true"
     inkscape:document-units="px"
     inkscape:grid-bbox="true"
     inkscape:window-width="513"
     inkscape:window-height="418"
     inkscape:window-x="341"
     inkscape:window-y="157"
     inkscape:window-maximized="0" />
  <metadata
     id="metadata3084">
    <rdf:RDF>
      <cc:Work
         rdf:about="">
        <dc:format>image/svg+xml</dc:format>
        <dc:type
           rdf:resource="http://purl.org/dc/dcmitype/StillImage" />
        <dc:title></dc:title>
      </cc:Work>
    </rdf:RDF>
  </metadata>
  <g
     id="layer1"
     inkscape:label="Layer 1"
     inkscape:groupmode="layer">
    <path
       style="fill:#000000"
       d="m 31.176322,56.389428 c -0.88693,-0.05367 -1.086743,-0.08379 -1.088227,-0.164112 -0.0049,-0.266264 -0.633436,-4.87907 -0.668932,-4.909434 -0.02523,-0.02154 -0.236753,-0.06743 -0.470086,-0.101827 -0.663804,-0.09794 -2.199922,-0.478372 -3.045248,-0.754187 -0.423035,-0.138025 -0.784717,-0.234322 -0.803739,-0.213998 -0.01903,0.0203 -0.721037,0.907939 -1.560032,1.972468 -0.838994,1.064528 -1.542063,1.95314 -1.562375,1.974692 -0.04305,0.04566 -1.372378,-0.568929 -2.270801,-1.049907 -0.731676,-0.391704 -2.397798,-1.42919 -2.397798,-1.4931 0,-0.02442 0.453402,-1.052162 1.007562,-2.283929 0.554158,-1.231766 1.007562,-2.268295 1.007562,-2.303396 0,-0.03508 -0.17301,-0.203467 -0.384465,-0.37415 -0.564615,-0.455763 -1.737853,-1.561879 -2.253166,-2.124267 -0.247023,-0.269586 -0.47906,-0.490156 -0.515634,-0.490156 -0.03658,0 -1.129576,0.429831 -2.428888,0.955181 -1.299308,0.52535 -2.383436,0.955189 -2.40917,0.955189 -0.06741,0 -1.161787,-1.579519 -1.5749744,-2.273156 -0.507346,-0.851721 -1.155656,-2.111939 -1.10747,-2.152757 0.02273,-0.01921 0.960072,-0.685774 2.0829734,-1.481153 1.122902,-0.795387 2.05871,-1.460457 2.07958,-1.477949 0.02088,-0.0175 -0.0907,-0.393416 -0.247929,-0.835388 -0.309919,-0.871181 -0.620615,-1.997808 -0.76524,-2.774854 -0.08794,-0.472469 -0.09675,-0.491276 -0.247362,-0.527909 -0.0859,-0.02084 -1.265677,-0.164524 -2.6217304,-0.319177 -1.356052,-0.154661 -2.474854,-0.29001 -2.486226,-0.30079 -0.165694,-0.15708 -0.165694,-4.916034 0,-5.073115 0.01138,-0.0108 1.130174,-0.146137 2.486226,-0.30079 1.3560534,-0.154652 2.5358324,-0.298283 2.6217304,-0.319176 0.150614,-0.03663 0.159426,-0.05545 0.247362,-0.527916 0.144625,-0.777044 0.455321,-1.903667 0.76524,-2.774853 0.157229,-0.441973 0.268799,-0.817897 0.247929,-0.835388 -0.02088,-0.0175 -0.956678,-0.682565 -2.07958,-1.477943 C 9.6105126,21.7368 8.6731736,21.070278 8.6504406,21.051023 c -0.04819,-0.04082 0.600124,-1.301037 1.10747,-2.152755 0.4089754,-0.686573 1.5072884,-2.273155 1.5735934,-2.273155 0.02497,0 1.109095,0.429835 2.409169,0.955185 1.300076,0.525353 2.393699,0.955185 2.430273,0.955185 0.03657,0 0.268608,-0.22057 0.515631,-0.49016 0.515313,-0.562385 1.688551,-1.668503 2.253166,-2.12426 0.211455,-0.170687 0.384465,-0.339058 0.384465,-0.374155 0,-0.0351 -0.453404,-1.071626 -1.007562,-2.303395 -0.55416,-1.231765 -1.007463,-2.258656 -1.007342,-2.281976 2.65e-4,-0.05386 1.275904,-0.865764 2.041417,-1.2993161 0.32083,-0.181703 1.031913,-0.544896 1.580188,-0.807093 l 0.99686,-0.4767275 0.121447,0.13923 c 0.0668,0.076569 0.772795,0.9649605 1.568885,1.9741886 0.796088,1.009228 1.462525,1.851147 1.480962,1.870932 0.01844,0.01979 0.414968,-0.08599 0.88118,-0.235043 0.918953,-0.293807 2.107354,-0.58835 2.927009,-0.725459 0.498376,-0.08337 0.51822,-0.09172 0.556862,-0.234506 0.02203,-0.08143 0.173544,-1.1998801 0.336681,-2.4854381 0.163133,-1.2855615 0.305911,-2.3462035 0.317282,-2.3569835 0.165695,-0.157081 5.185599,-0.157081 5.351293,0 0.01138,0.01077 0.154151,1.071422 0.317283,2.3569835 0.163133,1.285558 0.314641,2.4040071 0.336677,2.4854381 0.03865,0.142785 0.0585,0.151141 0.556865,0.234506 0.819652,0.137109 2.008054,0.431654 2.92701,0.725459 0.466208,0.149058 0.862747,0.254826 0.881195,0.235043 0.01843,-0.01979 0.719995,-0.906948 1.558989,-1.971477 0.838994,-1.0645311 1.542571,-1.9536226 1.563504,-1.9757606 0.04798,-0.05075 1.728875,0.7462165 2.572804,1.2198465 0.789851,0.4432811 2.09415,1.2691451 2.094443,1.3261771 0,0.02331 -0.453177,1.050211 -1.007338,2.281976 -0.554157,1.231769 -1.007562,2.26795 -1.007562,2.302623 0,0.03467 0.232667,0.254652 0.517038,0.488831 0.593226,0.488527 1.759993,1.600776 2.240744,2.136039 0.180045,0.200461 0.357649,0.364477 0.394668,0.364477 0.03701,0 1.131008,-0.429832 2.431086,-0.955185 1.30007,-0.52535 2.38327,-0.955091 2.407104,-0.954975 0.05902,2.97e-4 0.934846,1.244647 1.397519,1.985571 0.499602,0.800055 1.340262,2.393569 1.286736,2.439058 -0.02336,0.01984 -0.9612,0.686848 -2.084101,1.482229 -1.122902,0.795378 -2.058717,1.460455 -2.079583,1.477943 -0.02088,0.0175 0.0907,0.393415 0.24793,0.835388 0.309921,0.871186 0.620618,1.997809 0.765239,2.774853 0.08794,0.472467 0.09675,0.491282 0.247366,0.527916 0.0859,0.02088 1.265672,0.164524 2.621732,0.319176 1.356049,0.154653 2.474849,0.290008 2.486221,0.30079 0.165696,0.157081 0.165696,4.916035 0,5.073115 -0.01137,0.01073 -1.130172,0.146129 -2.486221,0.30079 -1.35606,0.154653 -2.535834,0.298278 -2.621732,0.319177 -0.150614,0.03663 -0.159426,0.05545 -0.247366,0.527909 -0.144621,0.777046 -0.455318,1.903673 -0.765239,2.774854 -0.157227,0.441972 -0.268796,0.817888 -0.24793,0.835372 0.02088,0.0175 0.908954,0.649274 1.973524,1.403975 1.064567,0.754709 2.000818,1.423325 2.080546,1.48582 l 0.144969,0.113617 -0.396546,0.759726 c -0.218107,0.417853 -0.554435,1.024777 -0.747411,1.348737 -0.413182,0.693637 -1.507559,2.273156 -1.574973,2.273156 -0.02572,0 -1.109855,-0.429839 -2.40917,-0.955189 -1.299312,-0.52535 -2.392307,-0.955181 -2.428885,-0.955181 -0.03658,0 -0.268615,0.22057 -0.515637,0.490156 -0.515311,0.562388 -1.688548,1.668504 -2.253164,2.124267 -0.211454,0.170683 -0.384464,0.339048 -0.384464,0.37415 0,0.03508 0.453405,1.07163 1.007562,2.303396 0.554161,1.231767 1.007562,2.259538 1.007562,2.283929 0,0.06393 -1.666119,1.101396 -2.397802,1.4931 -0.898423,0.480978 -2.227739,1.095586 -2.270797,1.049899 -0.02031,-0.02154 -0.723382,-0.910156 -1.562376,-1.974684 -0.838994,-1.064529 -1.54054,-1.951694 -1.558989,-1.97148 -0.01843,-0.01976 -0.414987,0.08598 -0.881195,0.235044 -0.918956,0.293806 -2.107358,0.58835 -2.92701,0.725457 -0.498375,0.08336 -0.518219,0.09172 -0.556865,0.2345 -0.02203,0.08143 -0.173544,1.199885 -0.336677,2.485443 -0.163132,1.285558 -0.306218,2.346493 -0.317961,2.357623 -0.102467,0.09715 -3.176743,0.17199 -4.29237,0.104503 z m -2.973435,-8.008662 0.883846,-1.42163 0.461468,0.08798 c 1.121966,0.213927 1.74871,0.265121 3.245523,0.265121 1.496671,0 2.123597,-0.05118 3.245094,-0.265036 l 0.461042,-0.0879 0.917727,1.473725 c 0.50475,0.810554 0.941593,1.473827 0.970761,1.473944 0.02916,0 0.763566,-1.102959 1.632004,-2.451291 l 1.578978,-2.451509 0.541591,-0.344323 c 1.626647,-1.034156 3.11019,-2.379183 4.298455,-3.897117 2.10219,-2.685403 3.269697,-6.062529 3.269697,-9.457926 0,-5.375881 -2.854802,-10.388358 -7.625987,-13.389751 -0.320217,-0.201439 -0.822481,-0.489247 -1.116147,-0.639572 l -0.533934,-0.273319 -0.0017,-1.646439 -0.0017,-1.646436 -7.636263,0 -7.636259,0 -0.0017,1.646436 -0.0017,1.646439 -0.533934,0.273319 c -2.014715,1.031329 -3.998367,2.688371 -5.472437,4.571398 -2.102187,2.685404 -3.26969,6.062531 -3.26969,9.457925 0,5.352029 2.826957,10.340602 7.568114,13.355043 l 0.541553,0.344323 0.98725,1.533326 c 2.313925,3.593824 2.208981,3.439621 2.279059,3.348769 0.03558,-0.04612 0.462419,-0.723598 0.948532,-1.505498 z m -4.782564,-5.473961 -3.925858,-5.996573 -0.801029,-0.01384 -0.801028,-0.01392 0,-1.456606 0,-1.456607 3.26132,0 3.261319,0 0,1.455409 0,1.455401 -0.289065,0.01509 -0.289069,0.01509 1.644314,2.639326 c 0.904373,1.451629 1.661459,2.667008 1.682418,2.700842 0.02312,0.03733 1.132023,-1.577824 2.820835,-4.108682 1.530501,-2.293604 2.794661,-4.170125 2.809244,-4.17004 0.01458,1.02e-4 1.278703,1.876739 2.809161,4.170336 1.693221,2.537531 2.797595,4.146046 2.820832,4.108526 0.02101,-0.03391 0.778132,-1.249353 1.682505,-2.700982 l 1.644313,-2.639326 -0.289069,-0.01509 -0.289065,-0.01509 0,-1.455401 0,-1.455409 3.261319,0 3.26132,0 0,1.456607 0,1.456606 -0.800995,0.01392 -0.800999,0.01384 -3.858851,5.894086 c -2.122368,3.241754 -3.891722,5.938916 -3.931895,5.993703 -0.06723,0.09168 -0.288188,-0.232081 -2.777553,-4.069963 -1.48748,-2.29327 -2.716439,-4.169566 -2.731023,-4.169558 -0.01458,0 -1.00491,1.507333 -2.20073,3.349624 -1.195815,1.842291 -2.415548,3.719886 -2.710513,4.172436 l -0.536299,0.822819 -3.925859,-5.996574 z m 1.578052,-7.479624 0,-1.457913 0.424234,0 0.424238,0 0,-5.731111 0,-5.731114 -0.424238,0 -0.424234,0 0,-1.457913 0,-1.457916 2.651476,0 2.65148,0 0,1.455881 0,1.455882 -0.437492,0.01459 -0.437496,0.01459 -0.01369,2.852987 -0.01368,2.852989 3.394771,0 3.394767,0 -0.01369,-2.852989 -0.01369,-2.852987 -0.437492,-0.01459 -0.437496,-0.01459 0,-1.455882 0,-1.455881 2.65148,0 2.65148,0 0,1.457916 0,1.457913 -0.424235,0 -0.424238,0 0,5.731114 0,5.731111 0.424238,0 0.424235,0 0,1.457913 0,1.457913 -2.65148,0 -2.65148,0 0,-1.455875 0,-1.455884 0.437496,-0.01462 0.437492,-0.01462 0,-1.382508 0,-1.3825 -3.367378,0 -3.367381,0 0,1.3825 0,1.382508 0.437495,0.01462 0.437492,0.01462 0,1.455884 0,1.455875 -2.651478,0 -2.651478,0 0,-1.457913 z m 5.302956,-10.051953 0,-1.455288 0.278406,-0.01519 0.278406,-0.01519 0.01365,-3.255172 0.01365,-3.255169 -0.742801,0 -0.7428,0 0,0.326772 0,0.326776 -1.829522,0 -1.829519,0 0,-1.809826 0,-1.809824 7.052936,0 7.052935,0 0,1.809824 0,1.809826 -1.829519,0 -1.829523,0 0,-0.326776 0,-0.326772 -0.7428,0 -0.742803,0 0.01365,3.255169 0.01365,3.255172 0.278402,0.01519 0.278407,0.01519 0,1.455288 0,1.455285 -2.49239,0 -2.492394,0 0,-1.455285 z"
       id="path3066"
       inkscape:connector-curvature="0"
       inkscape:transform-center-x="-3.5862728" />
  </g>
</svg>
