<?xml version="1.0" standalone="no"?>
<!DOCTYPE svg PUBLIC "-//W3C//DTD SVG 1.1//EN" "http://www.w3.org/Graphics/SVG/1.1/DTD/svg11.dtd" >
<svg viewBox="0 -256 1792 1792">
  <g transform="matrix(1 0 0 -1 0 1536)">
   <path fill="currentColor"
d="M939.62 -154.176q-6.68097 3.37399 -9.04999 8.21399q-3.89001 7.92601 6.21002 7.92601q8.58997 0 12.92 -4.209q9.64996 -9.33301 19.18 -0.117004q4.23999 4.114 4.34998 7.37801q0.130005 3.50999 0.410034 7.06499l-1.98004 1.81q-7.23999 -6.34899 -18.42 -6.281
q-12.39 0.0780029 -19.551 7.891q-18.329 19.98 -1.79901 44.3261q14.59 21.4834 36.01 7.3946l6.13995 -1.0508q-0.199951 2.4531 8.57001 2.86131l8.75 0.4151l-0.23999 -33.3893q-0.26001 -37.766 -6.83997 -45.64q-15.94 -19.08 -44.66 -4.59399zM965.95 -116.942
q7.16998 3.715 7.16998 17.4088q0 7.7617 -4.20001 12.3184q-4.20996 4.5488 -10.03 4.5488q-5.82904 0 -8.85999 -2.6543q-5.27002 -4.6162 -5.54004 -14.4082q-0.279968 -9.7975 4.71002 -15.0175q6.95996 -7.267 16.75 -2.196zM1268.69 -154.522q-13 6.35901 -13 14.591
q0 1.895 8.58008 1.895q8.58997 0 12.9299 -4.209q4.3501 -4.207 8.88 -4.207q12.03 0 13.79 7.394q3.26001 13.655 1.20996 13.655q-0.75 0 -4.8999 -2.868q-20.4901 -14.124 -35.51 4.95799q-25.28 32.1021 7.20996 50.5347q14.77 8.38869 27.53 0l5.62 -0.698303
q-0.76001 2.8047 8.94995 2.8047h9.69006l-0.470093 -34.0311q-0.589966 -42.231 -14.1799 -49.116q-18.5701 -9.39 -36.3301 -0.703003zM1296.05 -115.104q6.98999 7.20399 5.12 18.3032q-1.85999 11.0947 -10.4801 13.5987q-5.54993 1.61031 -10.08 -0.6651
q-4.54004 -2.26369 -5.91003 -4.7392q-8.92993 -16.1526 3.06006 -26.9676q3.38 -3.057 9.27002 -2.911q5.88 0.155998 9.02002 3.381zM1542.9 -148.906q0.329956 5.522 0.959961 6.388q0.630005 0.866013 4.08997 0.531006q9.28003 -0.901001 11.3301 5.34799
q0.909912 2.80501 -10.77 32.998q-11.7 30.1859 -11.7 31.5775t9.31995 1.3916h9.31995l6.94006 -20.3506q6.96997 -20.3495 7.83997 -20.3495q0.880005 0 7.07007 19.2997q6.19995 19.3047 7.27991 20.4161q1.07007 1.125 9.90002 0.704094l8.82007 -0.423897
l-13.67 -35.49q-13.71 -35.557 -15.9301 -39.709q-5.17993 -9.692 -21.38 -9.698h-9.85999zM373.914 -135.314q-26.814 4.455 -26.814 33.511q0 32.5335 33.664 32.5335q14.262 0 23.121 -9.5127q8.40298 -9.0196 8.41998 -22.4108l0.0110168 -5.969h-23.182
q-21.297 -5.131 -21.125 -8.216q3.86801 -7.22701 13.587 -7.216q13.331 0 13.331 6.992q0 1.42599 7.96899 1.42599q9.55099 0 5.875 -6.881q-5.98898 -11.2 -19.593 -14.028q-7.427 -1.543 -8.44702 -1.368q-1.86099 0.311005 -6.81699 1.13901zM393.149 -93.0332
q1.64502 8.31741 -10.429 10.5q-11.294 2.0596 -15.674 -7.2529q-2.63098 -5.5948 13.695 -5.5098q11.964 0.0605011 12.408 2.2627zM474.956 -134.543q-14.092 3.84 -20.036 15.605q-3.677 7.283 -4.51901 33.0767q-0.837006 25.7802 0.19101 32.415l1.02698 6.6279
h9.32703h9.33099l0.0709839 -24.9091q0.0899963 -36.1055 2.82602 -41.0455q3.332 -6.03699 13.978 -6.846q10.65 -0.817993 16.183 4.542l3.89001 3.76801l0.436981 32.2426l0.440002 32.248h10.164h10.162l-0.454956 -33.3281q-0.463013 -33.3315 -3.70502 -39.2115
q-5.67999 -10.288 -16.87 -14.401q-15.04 -5.535 -32.442 -0.783997zM871 -135.029q-10.97 2.46001 -13.8 12.331q-1.44 5.011 -1.46002 28.5867l-0.0100098 23.5732l8.77002 -0.417999l8.77002 -0.419899l0.290955 -21.1152q0.279053 -21.1188 2.729 -24.7248
q3.66003 -5.405 10.95 -4.546q7.29004 0.867004 9.94904 7.027q2.01099 4.684 2.01099 24.3678v19.6953h8.53998q8.54999 0 9.16003 -1.7539q0.619995 -1.77341 0.519958 -31.2262l-0.109009 -29.471l-9.18097 -0.419006l-8.33002 0.929001q0.869995 1.345 0.0400391 3.425
q-0.830017 2.07401 -4.52905 -1.246q-3.72095 -3.332 -8.961 -4.181q-5.29999 -0.860992 -7.42999 -1.28099q-2.20001 -0.417999 -7.91998 0.866989zM1025.28 -134.979q-14.45 2.49301 -21.29 15.192q-3.40997 6.315 -3.01001 18.349q0.390015 12.0318 4.39001 17.8784
q4.01001 5.8575 10.04 9.7188q6.05005 3.8681 17.84 3.8681q11.8199 0 17.99 -3.957q11.51 -7.3896 14 -25.8603l0.98999 -7.372h-24.09q-24.1 0 -24.1 -1.19199q0 -1.177 1.54004 -5.498q2.45001 -6.774 11.22 -8.08601q8.7699 -1.314 14.71 4.202q3.82996 3.56 11.34 3.56
q7.48999 0 6.04004 -3.694q-8.67004 -22.088 -37.61 -17.109zM1045.86 -94.7207q-4.20996 14.6758 -16.34 12.0947q-11.48 -2.4433 -11.48 -10.5078l2.54004 -1.77731q1.63 -0.379898 12.39 -0.302795q10.77 0.0849991 12.89 0.493195zM1097.74 -135.308
q-27.54 3.94 -27.54 33.505q0 32.5335 33.53 32.5335q12.53 0 21.35 -7.7168q10.3401 -9.0391 10.3401 -24.1057v-6.07h-23.1901q-21.2999 -5.131 -21.12 -8.216q3.85999 -7.22701 13.58 -7.209q13.3301 0 13.3301 6.985q0 1.42599 7.97998 1.42599
q9.55005 0 5.93005 -6.735q-9.68005 -17.919 -34.1901 -14.397zM1116.17 -93.542q2.57996 6.4951 -8 10.4131q-5.91003 2.1894 -13.1901 -1.918q-7.27002 -4.1025 -5.46997 -8.6181q0.800049 -2.0332 13.33 -1.9727q12.52 0.0557022 13.3301 2.0957zM1355.31 -135.096
q-16.3101 1.76599 -23.3601 15.488q-11.34 22.0094 3.64001 39.609q9.08008 10.6631 25.26 10.7959q16.1801 0.141602 24.4601 -10.378q8.03992 -10.2158 8.03992 -22.8919v-4.689h-23.9299h-23.9401q3.06006 -12.509 12.26 -14.761q9.20996 -2.25201 15.64 4.31599
q3.30005 3.38 10.91 3.409q7.62 0.0219955 7.62 -0.749001q0 -4.573 -7.06006 -12.353q-9.08997 -10.027 -29.5399 -7.79599zM1374.52 -94.1465q0 1.1631 -2.10999 5.1045q-4.92004 9.2158 -15.67 6.2373l-9.76001 -11.7207q1.66003 -0.996101 14.59 -0.815399
q12.9501 0.177696 12.9501 1.1943zM1494.64 -134.593q-13.28 3.26001 -19.48 15.526q-3.87 7.669 -3.82007 16.594q0.190063 33.1429 33.6 33.1429q22.6901 0 28.88 -15.8164q3.12 -7.9805 -7.06995 -7.9805q-8.62 0 -10.52 3.8497q-4.33997 8.7685 -14.2 6.6738
q-9.97998 -2.125 -12.26 -15.4815q-2.28003 -13.357 5.96997 -21.345q3.62 -3.505 9.42004 -2.756q10.0499 1.309 11.99 8.814q0.880005 3.404 9.72998 3.404h8.84998l-0.939941 -4.53799q-5.89001 -28.521 -40.15 -20.087zM758.994 -132.262
q-40.037 19.192 -7.09503 54.4085q7.95001 8.4951 23.466 8.5517q26.025 0.0957031 31.285 -25.5019q1.95996 -9.5583 -0.680054 -10.9613q-2.64996 -1.397 -22.667 -1.397h-23.259l0.922974 -3.856q2.60803 -10.877 15.004 -10.877q7.117 0 11.28 3.863
q4.16003 3.856 11.69 3.856q7.52899 0 7.52899 -1.129q0 -9.955 -14.362 -17.048q-16.212 -8.007 -33.114 0.0910034zM788.41 -94.2451q1.02002 0.987305 -1.72095 5.5215q-9.39404 15.5879 -21.849 2.1904l-3.02301 -8.3164q2.12201 -0.6875 13.971 -0.418999
q11.842 0.272499 12.6219 1.0235zM225.376 -98.7998v35.1436l-3.981 0.0830002q-4.399 0.0887985 -13.772 0.127899l-9.77499 0.0459023v8.293v8.288h36.949h36.953v-8.081v-8.082l-12.242 -0.212002q-12.235 -0.201099 -13.812 -1.1464q-1.56799 -0.938499 -1.424 -34.8633
l0.151993 -33.9199l-9.524 -0.414001l-9.52399 -0.412994v35.1502zM277.544 -90.3184v43.5h9.42099h9.41602v-16.4482l2.263 -13.3232q10.347 14.3076 30.191 5.1923q10.179 -4.6796 10.773 -36.8155l0.480011 -25.608h-9.43701h-9.436l-0.459991 23.271
q-0.537994 27.2971 -11.242 27.2033q-13.132 -0.112297 -13.132 -30.9203v-19.554h-9.41602h-9.42099v43.5026zM541.283 -90.3184v43.5h10.051h10.054l18.569 -28.833l18.564 -28.8386l0.392029 28.8386l0.393982 28.833h9.39001h9.38898v-43.5v-43.5026l-10.507 0.0160065
l-10.507 0.0179901l-18.116 28.369l-18.108 28.3692l-0.394043 -28.3862l-0.391968 -28.386h-9.39001h-9.38898v43.5026zM658.651 -133.47q-0.0319824 1.96201 -0.0620117 42.9466q-0.0219727 40.9843 0.0130005 41.9511q0.0549927 1.7539 27.638 1.7539
q33.468 0 41.075 -7.9121q17.431 -18.1035 -1.35602 -34.0664q-4.97498 -4.23631 -2.10297 -5.7285q6.86298 -3.54881 8.71497 -22.2776q1.19702 -12.085 2.19904 -14.565l-9.20905 -2.453h-10.211l-0.812988 6.315q-0.791016 6.158 -1.67999 12.977
q-0.872009 6.669 -2.117 8.931q-3.21698 5.8138 -21.003 5.165l-11.472 -0.414001l0.310974 -16.487l0.311035 -16.487h-10.116q-10.107 0 -10.12 0.350998zM707.042 -84.5264q8.78198 3.878 5.763 14.252q-2.74597 9.4238 -22.628 9.4238h-11.232v-12.6318v-12.6309h12.252
q12.241 0 15.845 1.5869zM819.51 -108.565q0 25.2623 -1.81 25.4293q-1.85004 0.173798 -5.08002 0.197197q-3.25 0.0156021 -3.25 6.1416q0 6.125 5.07001 6.125t5.07001 4.9805q0 18.8584 22.82 18.8691h9.06v-6.3164q0 -6.3154 -4.78003 -6.3154
q-8.26001 0 -8.26001 -7.293q0 -3.9297 5.79004 -3.9297h5.81v-6.1269q0 -6.12399 -3.26099 -6.14159q-8.33905 -0.0557022 -8.33905 -25.6237v-25.258h-9.41998h-9.41998v25.262zM1164.4 -133.302q0 0.520996 16.66 43.0413q16.6699 42.538 16.6699 42.9843
q0 0.458 10.71 0.458q10.7101 0 11.7101 -2.4531q1.03992 -2.5537 28.39 -73.6725l4.17993 -10.877h-10.5699h-10.5701l-2.58997 8.07q-2.59998 8.054 -4.13 9.893q-1.43994 1.72 -17.29 1.57q-15.85 -0.151001 -16.46 -1.895q-0.380005 -1.079 -3.57996 -9.568
l-3.05005 -8.07h-10.04q-10.0399 0 -10.0399 0.518997zM1219.46 -99.5781q0 19.1367 -10.7999 29.9912l-10.9501 -29.5039q0 -1.0522 10.89 -1.0522q10.86 0 10.86 0.564896zM1400.6 -102.249v31.5771h8.69006h8.69995v-4.5205q14.1801 15.085 34.34 3.1729
q9.57007 -5.6494 10.3101 -36.8925l0.589966 -24.909h-9.47998h-9.47998l-0.450073 22.311q-0.469971 22.3059 -3.23999 25.258q-2.66992 2.8594 -8.06995 2.9493q-5.39001 0.0829926 -8.93005 -2.6778q-3.41992 -2.6757 -3.88 -25.2605l-0.459961 -22.58h-9.31995h-9.32007
v31.572zM1183.96 -10.1035q-98.4399 5.25389 -120.41 101.597q-2.63 11.5018 -2.62 33.4998q0.0198975 22.005 2.63989 33.692q8.64001 38.335 32.4901 62.848q16.7999 17.258 37.1799 26.502q26.04 11.827 64.49 11.658q26.8101 -0.109985 38.4 -3.168
q38.12 -10.054 56.65 -34.097q17.9299 -23.257 24.34 -59.798l0.810059 -4.561h-40.27h-40.28l-2.44995 7.522q-10.7201 32.954 -44.42 29.998q-46.74 -4.10901 -46.66 -70.5q0.0500488 -39.671 18.16 -58.004q11.48 -11.6133 29.27 -12.5625q11.64 -0.627998 19.25 2.5429
q20.3199 8.4727 25.87 35.3623l0.819946 3.89461h40.5801h40.58l-0.699951 -10.1719q-1.4801 -21.8525 -14.37 -42.6318q-12.52 -20.1944 -32.1001 -33.0713q-35.45 -23.3164 -87.25 -20.5508zM289.865 -9.33887q-65.445 8.60157 -84.312 58.9297
q-7.689 20.5078 -7.69899 120.779l-0.0180054 84.573l41.665 -0.372986l41.662 -0.376007l0.277008 -82.794q0.32901 -96.149 11.962 -107.416q10.095 -9.7744 29.336 -9.7471q19.549 0.027298 27.986 12.3731q8.53699 12.4912 9.07901 103.739l0.502991 84.549h41.211
h41.219v-85.5q0 -85.522 -1.57001 -96.4205q-9.875 -68.7783 -83.516 -81.2138q-8.66199 -1.46484 -33.752 -1.87207q-25.088 -0.4092 -34.033 0.76953zM492.012 125.089v129.809l42.386 -0.048996l42.389 -0.0509949l38.401 -68.582q13.431 -23.987 20.368 -36.211
q6.93597 -12.223 11.514 -19.735q4.57599 -7.513 5.90497 -8.859q1.328 -1.35201 1.70703 -0.0440063q1.09698 3.733 0.906006 10.038q-0.192017 6.645 0 64.925l0.179993 58.613l38.765 -0.372986l38.76 -0.376007v-129.105v-129.107l-40.571 -0.31152l-40.574 -0.31445
l-23.118 40.3077q-22.855 39.8388 -40.58 70.4399l-17.45 30.124l-0.375977 -70.4721l-0.376038 -70.4717h-39.11h-39.122zM783.284 125.089v129.854l41.655 -0.372986l41.6609 -0.376007v-44.555v-44.555h38.41h38.4v44.555v44.555l41.67 0.376007l41.65 0.372986v-129.831
v-129.828h-41.95h-41.95l-0.019043 50.8711l-0.0209961 50.872h-37.77h-37.76l-0.330017 -50.5253l-0.330017 -50.5196l-41.6609 -0.36816l-41.655 -0.375v129.85zM1352.78 125.089v129.809l82.23 -0.0269928q82.26 -0.0270081 92.24 -1.43201q66.53 -9.31099 69.98 -68.006
q2.79004 -47.473 -31.72 -66.554l-7.08997 -3.924q17.4299 -6.985 27.21 -24.9589q9.57996 -17.584 12.09 -49.5703q2.13 -27.1729 6.59998 -41.9834l0.940063 -3.1582h-41.22h-41.2201l-1.6499 6.9375q-1.65002 6.92871 -3.22009 19.9971
q-4.29993 35.8027 -6.56995 42.0341q-4.88 13.3965 -15.6901 18.1582q-5.97998 2.6211 -33.1399 2.6553l-27.17 0.0274048v-44.9073v-44.9023h-41.3h-41.2999v129.805zM1501.32 145.438q22.01 10.664 10.8601 32.98q-7.74011 15.488 -56.51 14.448l-19.5701 -0.414001
l-0.390015 -25.715l-0.399902 -25.715l29.3799 0.453003q29.38 0.453995 36.63 3.963zM743.069 344.384q-7.60596 3.71701 -7.60596 5.30399q0 6.99802 44.196 41.248q47.381 36.686 93.841 54.878l6.81097 4.17999q-1.55096 0.928009 -16.021 0.397003
q-14.47 -0.531982 -25.21 -1.91699q-39.382 -5.05399 -117.387 -30.823q-34.554 -11.419 -72.453 -17.036q-91.873 -13.632 -160.373 11.379q-8.21899 3.00201 -13.736 8.90903l-5.51102 5.90198l27.499 0.899994q38.468 1.26401 88.36 17.594q73.03 23.911 164.476 30.645
q62.625 4.61099 111.575 -3.638q38.75 -6.517 47.659 -11.113q2.021 -1.03699 14.491 2.32001q67.98 18.276 145.08 13.069q94.3199 -6.367 175.59 -32.799q45.48 -14.786 81.98 -15.854q27.9 -0.815979 27.9 -1.80099q0 -0.992981 -6.10999 -6.85699
q-8.18994 -7.841 -38.48 -14.207q-35.65 -7.483 -78.59 -7.56799q-39.7201 -0.072998 -73.9 6.255q-24.4601 4.51999 -72 19.668q-62.34 19.852 -93.19 24.255q-38.43 5.48199 -45.88 2.71198l20.89 -11.579q24.48 -11.655 48.17 -26.478q40.86 -25.563 67.45 -54.034
q7.91003 -8.45001 7.91003 -9.27402q-9.18994 -4.66998 -13.8 -6.75l-4.35999 -1.97598l-18.8199 18.476q-50.44 49.534 -95.8 71.444q-32.18 15.537 -45.02 15.537q-12.09 0 -44.639 -15.459q-43.6219 -20.714 -93.087 -68.393q-22.214 -21.4 -23.253 -21.311
q-1.03302 0.0780029 -8.65204 3.79501zM505.782 474.809q-17.486 2.30902 -44.12 11.183q-52.936 17.646 -87.842 48.473q-19.882 17.556 -28.936 34.865l-3.539 6.758l18.481 -8.95502q30.474 -14.758 64.089 -21.074q83.58 -15.678 142.183 -33.048
q42.199 -12.515 44.526 -10.378q1.70197 1.56799 -20.476 15.755q-28.85 18.448 -46.495 35.135q-28.22 26.684 -44.462 86.586q-8.53 31.453 -18.062 45.452q-5.14999 7.55402 -4.444 8.237q6.013 5.82404 43.901 -29.644q60.103 -56.254 79.939 -93.41
q15.905 -29.806 38.512 -56.818q12.628 -15.083 12.067 -15.62q-4.51801 -4.362 -61.274 -15.4q-58.804 -11.429 -84.048 -8.09702zM1271.63 476.101q-43.24 5.659 -82.53 16.633q-18.0399 5.039 -18.66 5.63998q-0.629883 0.597015 3.97009 5.91101
q29.51 34.199 45.46 63.854q12.26 22.787 21.25 33.3781q51.04 60.088 83.78 83.2q17 12.008 20.2 8.901q0.830078 -0.799011 -5 -9.61298q-9.66992 -14.614 -19.9399 -50.91q-14.41 -50.904 -39.55 -76.614q-17.86 -18.286 -51.51 -39.86q-17.51 -11.228 -18 -12.861
q-1.18994 -3.95102 35.89 6.84698q18.45 5.37201 37.6801 10.948q32.5299 9.414 71.74 16.763q28.62 5.35999 41.77 7.828q31.0599 5.83698 61.99 20.462l20.1499 9.53003l-3.77991 -6.56299q-8.98999 -15.604 -24.53 -30.471q-36.11 -34.561 -94.9301 -53.9
q-44.14 -14.514 -85.45 -9.103zM472.454 572.924q-16.61 5.96399 -50.597 11.81q-45.108 7.77997 -86.877 31.825q-18.969 10.914 -33.249 24.182q-52.252 48.551 -64.656 102.832q-5.36499 23.54 -2.082 23.54q1.09601 0 25.088 -23.58q34.76 -34.164 66.514 -53.329
q28.752 -17.359 63.062 -49.479q30.034 -28.119 41.838 -30.863q14.028 -3.258 6.763 12.77q-2.15298 4.763 -7.10498 14.672q-14.786 29.61 -21.497 49.339q-15.993 46.993 -14.867 116.957l0.148987 9.12l3.60703 -4.20996q25.451 -29.715 48.143 -76.265
q16.514 -33.887 25.001 -99.854q6.241 -48.396 8.17401 -57.884q0.936005 -4.58405 -7.409 -1.58301zM1342.63 572.964q0 2.15802 2.82996 23.445q2.95007 22.171 5.91003 45.808q7.06995 56.543 21.36 86.304q24.65 51.341 49.3201 77.889l5.87 6.31l-0.48999 -27.365
q-1.38 -76.361 -35.5701 -144.553q-11.63 -23.154 -11.95 -27.364q-0.320068 -4.19598 5.70996 -3.94501q14.09 0.592041 50.3101 34.299q34.3099 31.925 58.1 45.652q30 17.298 67.0599 53.368l26.4401 25.739l-0.0200195 -6.685q-0.119995 -32.315 -29.6 -76.324
q-29.4701 -44.002 -65.29 -65.335q-44.6801 -26.603 -89.84 -34.836q-37.3401 -6.80096 -53.98 -12.491q-6.17004 -2.11298 -6.17004 0.0839844zM1183.23 686.029q-10.87 1.06903 -20.28 5.64398q-9.40991 4.57202 -10.5499 9.48505q-1.15002 4.90601 -0.290039 78.587
q1.42004 120.694 -12.51 146.645q-17.9 33.35 -26.51 58.4q-8.32996 24.2 -32.62 121.67q-8.85999 35.54 -23.14 72.98q-28.0199 73.5 -27.9099 104.8q0.0699463 21.36 8.09998 33.11q3.73999 5.47998 9.15002 5.46997q24.64 -0.0699463 43.83 -38.58
q9.51001 -19.04 28.3 -75.08q15.6499 -46.6901 28.6699 -59.67q11.2001 -11.15 22.0901 -8.5q12.35 3.01001 12.36 41.51q0 47.66 -41.04 100.72q-13.67 17.67 -74.3 61.62q-58.95 42.73 -84.53 66.9301q-40.92 38.72 -51.64 74.54q-9 30.0599 4.74005 41.8899
q16.6 14.3101 113.32 -79.26q26.8401 -25.97 63.03 -56.0099q147.38 -122.33 179.16 -174.1q7.90002 -12.86 10.0399 -32.12q1.43005 -12.89 1.41003 -62.33q-0.0300293 -49.4301 -1.5 -80.38q-4.64001 -98.42 -6.45996 -118.311q-0.700073 -7.729 -1.56006 -21.75
q-0.849976 -13.9691 -5.79993 -59.649q-8.97009 -82.798 -10.12 -110.156q-1.59009 -37.228 -3.1001 -38.615q-1.22998 -1.12299 -22.95 -4.716q-43.25 -7.15497 -67.39 -4.77399zM593.448 687.868q-12.488 2.01801 -26.806 4.54901l-14.493 2.56201l-0.368958 16.769
q-0.65802 30.398 -10.504 117.813q-7.59399 67.399 -12.321 163.489q-0.814026 16.49 -1.435 28.77q-0.650024 12.7599 -1.42303 40.7q-0.755981 27.27 -1.55896 50.51q-2.151 62.1 4.22198 87.99q5.51599 22.4199 50.485 69.9q36.775 38.8099 141.006 125.73
q40.5891 33.86 52.882 46.91q31.177 33.1 67.787 61.5499q26.3 20.42 41.22 24.23q6.84998 1.73999 10.549 -1.63q19.791 -18 -5.20905 -64.5499q-11.27 -20.9601 -38.2 -47.16q-32.07 -31.23 -96.426 -76.95q-47.938 -34.0601 -60.259 -48.12
q-39.903 -45.55 -47.176 -94.64q-7.17303 -48.5 12.023 -55.03q18.277 -6.22998 34.465 26.17q5.89301 11.7799 21.088 56.58q31.927 94.11 63.572 98.3099q6.823 0.910034 10.273 -2.23999q9.56195 -8.68994 10.607 -32.33q1.43695 -32.33 -27.435 -108.47
q-14.817 -39.0701 -39.565 -138.51q-15.91 -63.98 -34.685 -98.95q-20.384 -37.97 -20.413 -149.508q-0.0289917 -95.608 -13.377 -101.83q-8.38501 -3.89899 -32.298 -4.25201q-23.909 -0.346008 -36.226 1.638zM860.72 687.712q-2.79999 1.98401 -3.53094 58.824
q-0.729004 56.844 -1.92902 58.004q-1.21002 1.17004 -15.94 1.97003q-22.97 1.25 -27.57 10.59q-2.45001 4.98004 -2.39001 162.39q0.0700073 166.9 7.46002 180.95q8.92999 16.9901 37.18 31.3501q21.52 10.9299 27.3 21.97q7.60004 14.51 -5.63 33.74
q-19.14 27.86 -18.77 52.16q0.569946 37.5599 16.49 50.5399q17.27 14.0701 46.54 11.28q21.27 -2.03003 32.61 -14.0599q16.64 -17.63 14.42 -53.9301q-1.28003 -20.66 -14.67 -40.16q-12.66 -18.4099 -12.72 -27.21q-0.109985 -12.66 10.71 -22.48
q4.72998 -4.31006 20.5309 -12.3101q28.369 -14.36 36.309 -30.6q8.09003 -16.58 7.67999 -183.51q-0.380005 -157.61 -2.94 -161.37q-5.51996 -8.15997 -26.72 -9.32996q-14.78 -0.809998 -16.35 -2.33002q-1.54999 -1.52002 -1.88 -57.04
q-0.309998 -55.521 -3.07996 -58.478q-2.75 -2.95001 -51.53 -2.95001q-48.76 0 -51.58 1.98999zM340.122 734.826q-69.723 28.521 -115.477 101.744q-37.207 59.56 -36.903 103.38l0.0399933 6.08997l6.12401 -11.229q12.98 -23.791 54.639 -63.861
q48.887 -47.01 71.666 -79.861q12.576 -14.489 14.348 -15.581q1.875 9.04303 -4.87698 23.88q-7.96899 17.512 -7.862 56.842q0.109985 40.64 10.285 76.3q9.203 32.2599 9.203 43.8q0 16.19 9.43298 -7.10004q6.12399 -15.12 10.066 -34.21q8.70398 -42.15 8.56 -90.03
q-0.0979919 -33.65 -3.09 -51.215q-10.989 -64.564 -11.927 -64.509q-0.718018 0.0380249 -14.228 5.56zM1466.62 730.975q-0.550049 1.72101 -2.27002 12.984q-1.69995 11.071 -5.19995 28.525q-7.83008 39.006 -7.82007 72.476q0.0600586 96.22 23.41 132.65
l3.14001 4.91003l1.01001 -4.20905q1.01001 -4.19098 2.76001 -15.1219q1.76001 -10.939 6.62 -27.359q14.04 -47.41 11.6699 -92.24q-1.60999 -30.42 -9.3999 -45.877q-6.44006 -12.748 -3.58008 -23.065q0.830078 -2.995 14.8301 17.067q25.0499 35.865 73 80.795
q39.1899 36.73 53.1599 61.59l6.04004 1.41003q-2.67004 -62.96 -59.6799 -130.93q-26.29 -31.34 -56.3301 -51.059q-8.76001 -5.75098 -20.85 -11.775q-12.08 -6.03094 -21.03 -9.23895q-8.95996 -3.20905 -9.47998 -1.53204zM277.268 900.3q-47.516 29.18 -85.174 114.24
q-24.724 55.86 -22.809 100.59l6.12399 27.37q1.396 -3.39001 5.269 -13.01q8.242 -20.42 24.482 -45.33q10.329 -15.85 15.93 -26.4601q16.319 -31 35.498 -93.41q6.74799 -21.99 13.35 -27.7599l3.61801 16.14q0.773987 18.63 4.67899 35.46
q9.99701 43.0599 18.607 55.4301q3.42899 4.93994 14.728 25.2699q22.63 40.7001 26.909 40.7001q1.01999 0 2.00699 -4.56006q7.85901 -36.13 1.021 -66.46q-7.46799 -33.13 -31.892 -72.72q-15.484 -25.08 -21.089 -51.34q-3.681 -17.25 -4.173 -17.73
q-0.494995 -0.469971 -7.08499 3.58002zM1535.61 901.43q-1.35999 5.33002 -3.77002 17.87q-4.10999 21.29 -19.13 45.83q-35.4299 57.88 -35.5599 103.39l7.04993 40.78q5.36011 -4.30005 23.8401 -37.2101q13.3199 -23.6899 16.46 -28.5299
q14.22 -21.9601 22.4301 -71.9991q1.55994 -9.57098 1.83997 -23.351q0.27002 -13.79 1.96997 -13.149q6.16003 2.289 14.89 31.329q9.01001 29.97 22.62 63.15q12.3199 29.97 27.52 53.3199q17.88 27.47 26.21 49.8201l6.18005 8.95996q4.57996 -11.48 4.57996 -32.28
q0 -84.9399 -70.16 -172.299q-22.98 -28.6219 -40.0399 -37.9109l-5.58008 -3.03003zM252.676 1046.72q-32.043 62.3301 -32.158 138.58q-0.0390015 28.76 4.577 50.21q8.825 40.9399 21.209 65.92q12.008 24.21 19.541 24.21q0.945984 0 0.398987 -26.3101
q-0.543976 -26.3199 2.73001 -45.97q3.267 -19.62 3.86801 -42.86q0.593994 -23.23 -4.664 -63.67q-5.258 -40.46 -4.526 -41.1599q1.25101 -1.21008 9.48199 19.99q14.401 37.12 55.359 75.85q9.70798 9.17993 24.305 21.26q14.601 12.08 25.461 20.0499
q10.866 7.96008 10.866 6.42004q0 -0.859985 -4.88 -10.29q-4.87698 -9.42993 -13.224 -31.8999q-8.32098 -22.42 -14.138 -33.67q-14.723 -28.48 -35.234 -49.8q-44.273 -46.0299 -56.554 -84.5699q-2.57501 -8.07996 -3.44 -8.07996q-0.871002 0 -8.979 15.7899z
M1556.66 1038.37q-11.8401 36.37 -47.63 75.09q-41.13 44.48 -59.16 94.9501q-7.48999 20.96 -12.41 30.7899q-4.90991 9.79004 -4.43994 10.25q0.469971 0.440063 18.4399 -12.7899q77.26 -56.92 99.89 -117.66l6.48999 -8.52002q-0.75 5.08997 -5.22998 43.25
q-6.63 56.5601 -0.47998 96.13q3.80994 24.59 3.73999 50.17l2.79004 24.14q21.9 -11.3401 38.61 -93.8401q14.8099 -73.1599 -13.37 -150.28q-17.9601 -49.12 -23.89 -49.12q-0.940063 0 -3.34998 7.43994zM297.728 1206.73q-17.442 62.71 -3.54498 121.01
q11.108 46.58 37.512 78.77q17.103 20.87 30.83 24.95q3.11902 0.930054 -1.129 -12.1q-12.887 -39.59 -17.199 -76.89q-2.73599 -23.73 -17.487 -61.3099q-5.84598 -14.87 -4.48398 -16.2001q1.362 -1.30994 16.338 17.4q38.523 48.16 82.264 68.14
q19.68 9.01001 24.088 11.03q7.24402 3.31995 11.955 6.30994l4.70898 2.06006q0 -0.930054 -4.43399 -9.62q-18.906 -37.03 -60.679 -78.0601q-9.60202 -9.42993 -35.643 -28.1q-26.036 -18.6801 -43.74 -36.01l-17.706 -17.3199zM1504.21 1218.23
q-17.38 16.98 -42.96 35.54q-36.42 26.39 -64.88 60.66q-36.34 43.7599 -36.34 54.61l6.88 -2.46008q6.89001 -3.89001 11.95 -6.17993q62.36 -28.09 99.54 -73.03q19.46 -23.55 20.71 -22.79q1.93005 1.15002 -5.68994 19.5601q-16.02 38.74 -16.02 53.8099
q0 28.9701 -17.15 81.3601q-4.25 12.98 -3.33997 12.96q7.15002 -0.0800781 22.95 -15.01q36.89 -34.8 49.28 -98.64q2.57996 -13.33 2.47998 -44.91q-0.0999756 -31.58 -3.93994 -49.25q-4.31006 -19.87 -6.36011 -20.4099q-2.04993 -0.540039 -17.11 14.1799z
M365.418 1336.43q-1.104 1.06995 -0.86499 7.91992q0.235992 6.84998 1.53998 11.4601q7.06302 24.95 32.707 51.2699q55.992 57.49 85.185 57.49q2.233 0 2.21701 -7.37q-0.0310059 -16.76 -30.203 -50.87q-16.292 -18.4299 -35.718 -29.6899
q-29.919 -17.34 -44.353 -31.63q-9.582 -9.46997 -10.51 -8.57996zM1444.8 1345.88q-13.4801 13.39 -43.7201 30.76q-16.1699 9.29004 -27.8099 21.6q-38.05 40.22 -38.3201 57.83q-0.109985 7.02002 0.860107 7.95007q8.29993 8.05994 70.87 -42.59
q46.72 -37.8201 50.0199 -73.0901q1.4801 -15.7799 -11.8999 -2.45996z" />
  </g>

</svg>
