<?xml version="1.0" encoding="UTF-8" standalone="no"?>
<!-- Created with Inkscape (http://www.inkscape.org/) -->

<svg
   xmlns:dc="http://purl.org/dc/elements/1.1/"
   xmlns:cc="http://creativecommons.org/ns#"
   xmlns:rdf="http://www.w3.org/1999/02/22-rdf-syntax-ns#"
   xmlns:svg="http://www.w3.org/2000/svg"
   xmlns="http://www.w3.org/2000/svg"
   xmlns:sodipodi="http://sodipodi.sourceforge.net/DTD/sodipodi-0.dtd"
   xmlns:inkscape="http://www.inkscape.org/namespaces/inkscape"
   width="64px"
   height="64px"
   id="svg2985"
   version="1.1"
   inkscape:version="0.48.3.1 r9886"
   sodipodi:docname="New document 2">
  <defs
     id="defs2987" />
  <sodipodi:namedview
     id="base"
     pagecolor="#ffffff"
     bordercolor="#666666"
     borderopacity="1.0"
     inkscape:pageopacity="0.0"
     inkscape:pageshadow="2"
     inkscape:zoom="5.5"
     inkscape:cx="32"
     inkscape:cy="32"
     inkscape:current-layer="layer1"
     showgrid="true"
     inkscape:document-units="px"
     inkscape:grid-bbox="true"
     inkscape:window-width="843"
     inkscape:window-height="663"
     inkscape:window-x="221"
     inkscape:window-y="0"
     inkscape:window-maximized="0" />
  <metadata
     id="metadata2990">
    <rdf:RDF>
      <cc:Work
         rdf:about="">
        <dc:format>image/svg+xml</dc:format>
        <dc:type
           rdf:resource="http://purl.org/dc/dcmitype/StillImage" />
        <dc:title></dc:title>
      </cc:Work>
    </rdf:RDF>
  </metadata>
  <g
     id="layer1"
     inkscape:label="Layer 1"
     inkscape:groupmode="layer">
    <path
       style="fill:#000000"
       d="m 8.1026574,40.121309 c -0.30521,-0.350011 -0.323476,-0.766135 -0.241237,-5.495648 0.09211,-5.297418 0.158995,-5.756225 0.899021,-6.167258 0.712621,-0.395811 1.142169,0.182172 2.3734766,3.193655 0.6368,1.557456 1.218207,2.902098 1.292018,2.988092 0.07381,0.08599 0.194687,-1.160217 0.268612,-2.76936 0.07393,-1.609142 0.219165,-3.033146 0.322752,-3.164451 0.239237,-0.303265 0.922433,-0.308654 1.210634,-0.0096 0.121458,0.126053 0.220834,0.426864 0.220834,0.668466 0,0.553664 0.187171,0.551245 1.968805,-0.02544 0.789648,-0.255596 2.181039,-0.646089 3.091979,-0.867764 l 1.656257,-0.403045 0.326311,0.416908 c 0.187296,0.239299 0.280012,0.568296 0.217635,0.77227 -0.132744,0.434061 -0.248187,0.436207 1.68379,-0.03131 1.498374,-0.362592 1.61916,-0.366695 1.939428,-0.06589 0.394126,0.370174 0.443918,0.893154 0.111501,1.171118 -0.19361,0.16189 -2.201309,0.76635 -3.789772,1.140992 -0.398799,0.09406 -0.422245,0.168045 -0.311567,0.983239 0.170225,1.253806 0.284267,1.580063 0.528505,1.51197 2.993643,-0.834608 3.832661,-0.985413 3.99777,-0.718558 0.441778,0.71401 0.113937,0.970752 -1.946143,1.524055 -2.111091,0.567005 -2.036665,0.47379 -1.658158,2.07675 0.176308,0.746662 0.378688,1.357567 0.449728,1.357567 0.29428,0 3.245779,-0.813856 3.362821,-0.927274 0.0699,-0.06775 0.264758,-0.982628 0.433006,-2.033076 0.504896,-3.15229 1.38008,-7.048933 1.646779,-7.332048 0.137505,-0.145972 0.671753,-0.307461 1.187217,-0.358864 1.227487,-0.122408 2.347109,0.324936 3.307263,1.321413 0.816846,0.847746 1.036923,1.581942 0.887266,2.959955 -0.116359,1.071394 -0.981108,2.077012 -2.062559,2.398554 -0.407735,0.121229 -0.763927,0.235523 -0.791532,0.253983 -0.07536,0.0504 0.963196,2.325377 1.627898,3.565948 0.634422,1.184051 0.614501,1.564621 -0.09956,1.902279 -0.682708,0.322831 -0.970513,-0.03874 -2.397921,-3.01257 -0.680823,-1.418397 -1.272076,-2.543385 -1.313904,-2.499975 -0.04183,0.04342 -0.201951,0.843088 -0.355826,1.777059 -0.153875,0.933973 -0.323147,1.84911 -0.376158,2.033639 -0.113003,0.393368 -1.322518,0.99402 -2.371157,1.177533 -0.404863,0.07085 -1.386124,0.349431 -2.180583,0.619066 -1.245782,0.422813 -1.480304,0.453052 -1.705011,0.219845 -0.265888,-0.275948 -0.843784,-2.539733 -1.646321,-6.449125 -0.534854,-2.605417 -0.543684,-2.830825 -0.129525,-3.305777 0.311143,-0.356817 0.300328,-0.36284 -0.414065,-0.230613 -0.403453,0.07468 -0.790124,0.189809 -0.859266,0.255852 -0.06914,0.06604 -0.221825,2.053855 -0.339297,4.417361 -0.117471,2.363506 -0.286862,4.490661 -0.37642,4.727011 -0.2015,0.531769 -0.741266,0.554192 -1.181712,0.04909 -0.301719,-0.346008 -0.320557,-0.645754 -0.207044,-3.294584 0.06868,-1.60267 0.176569,-3.464594 0.239754,-4.137611 l 0.114879,-1.223666 -0.442438,0.135424 c -0.243339,0.07448 -0.742993,0.183845 -1.110343,0.243024 l -0.667907,0.107599 -0.128964,1.887846 c -0.07093,1.038316 -0.07036,2.745669 0.0014,3.794118 0.109704,1.605918 0.08236,1.982075 -0.173522,2.38738 -0.42368,0.671089 -1.1551,0.648636 -1.437062,-0.04412 -0.117578,-0.288873 -0.81971,-1.832997 -1.560297,-3.431387 -0.740587,-1.59839 -1.3465206,-3.00008 -1.3465206,-3.114866 0,-0.114786 -0.08772,-0.152438 -0.19493,-0.08367 -0.127885,0.08203 -0.181456,1.298685 -0.155756,3.537416 0.04077,3.551923 -0.04291,3.999712 -0.747497,3.999712 -0.17435,0 -0.465597,-0.170409 -0.647215,-0.378684 z M 31.744599,32.385582 c 0.579101,-0.543906 0.508962,-1.80298 -0.135171,-2.426484 -1.094695,-1.059641 -1.996893,-1.222556 -2.178046,-0.393304 -0.0631,0.288874 -0.236961,1.036999 -0.386356,1.6625 -0.254544,1.065757 -0.250441,1.153787 0.06522,1.399828 0.468775,0.365382 2.152101,0.210401 2.634352,-0.24254 z M 5.0398386,39.799501 C 4.6460435,39.30289 4.7455559,29.56732 5.1509915,28.925138 c 0.33208,-0.525989 0.9350865,-0.593198 1.4004809,-0.156089 0.295152,0.277213 0.312847,0.718662 0.220096,5.490974 -0.05548,2.854238 -0.175593,5.33993 -0.266933,5.523757 -0.2132685,0.429219 -1.1291137,0.439048 -1.4647968,0.01573 z M 55.547197,39.92037 c -1.774511,-0.36836 -2.891225,-1.533291 -2.547438,-2.657442 0.226385,-0.74025 0.82555,-0.684387 1.556119,0.145084 0.80078,0.909178 1.654395,1.151449 2.841565,0.806486 1.133678,-0.329418 1.760568,-0.918056 1.892866,-1.77737 0.182973,-1.188424 -0.680959,-1.899659 -2.576831,-2.121403 -1.905201,-0.222833 -2.882602,-1.071489 -2.882602,-2.502894 0,-0.986252 0.737481,-2.133261 1.87219,-2.91182 0.683097,-0.468695 0.940841,-0.528906 2.264063,-0.528906 1.800219,0 2.547209,0.367012 2.45388,1.205649 l -0.05712,0.513264 -1.595846,-0.06038 c -1.731405,-0.06552 -2.458255,0.167869 -2.993697,0.961247 -0.677376,1.003673 -0.220247,1.435083 1.799555,1.698292 1.614514,0.210395 2.584543,0.825093 3.076428,1.9495 0.665033,1.520177 0.270947,3.176073 -1.018346,4.279023 -0.992621,0.849156 -2.747018,1.279371 -4.084788,1.001674 z M 36.977798,39.373851 c -0.90472,-0.426447 -1.549779,-1.224462 -1.549779,-1.917262 0,-1.114173 0.832115,-1.278134 1.54738,-0.304897 1.076412,1.464639 3.591231,1.172614 4.519485,-0.524808 0.604396,-1.105207 -0.505716,-2.303946 -2.349572,-2.537156 -1.993721,-0.252165 -2.903111,-1.080075 -2.845086,-2.590173 0.04854,-1.263373 1.036862,-2.523705 2.494977,-3.181665 1.107737,-0.499859 3.616259,-0.07659 3.887083,0.655862 0.05805,0.157014 0.01499,0.46111 -0.0957,0.675769 -0.180214,0.349473 -0.300426,0.374323 -1.14952,0.237639 -1.948579,-0.313675 -2.861127,-0.0057 -3.406674,1.149886 -0.389144,0.824275 0.143476,1.251001 1.796511,1.439324 0.899666,0.102494 1.513203,0.291125 1.944492,0.597827 2.388881,1.698813 1.551841,5.599802 -1.389402,6.475252 -0.994399,0.295978 -2.57691,0.214349 -3.40419,-0.175598 z m 9.388765,-0.220597 c -1.455459,-0.58119 -1.737116,-0.949316 -1.737116,-2.270418 0,-0.999386 -0.06412,-1.190592 -0.598091,-1.783393 -1.648687,-1.830338 -1.631924,-2.341066 0.15142,-4.613125 0.512889,-0.653444 0.914047,-1.015027 0.988119,-0.890638 0.08391,0.140892 0.24151,0.09797 0.481733,-0.131189 1.11206,-1.060838 2.786511,-1.527428 3.577533,-0.996891 0.203333,0.136375 0.07973,0.185911 -0.469272,0.188066 -0.806191,0.0031 -1.186985,0.261959 -1.186985,0.806703 0,0.296136 -0.05184,0.311801 -0.363461,0.109826 -0.501654,-0.325137 -0.858088,0.02983 -0.577101,0.574723 0.15637,0.303233 0.136332,0.407837 -0.09585,0.500301 -0.185257,0.07378 -0.258257,0.256966 -0.197882,0.496567 0.05262,0.208813 0.02057,0.37966 -0.07114,0.37966 -0.09174,0 -0.166798,0.118396 -0.166798,0.2631 0,0.144705 -0.124218,0.370093 -0.276045,0.500862 -0.357754,0.308142 -0.353496,1.39145 0.0083,2.117605 0.250168,0.502067 0.371308,0.56539 1.007144,0.526454 0.397531,-0.02434 0.764508,-9.2e-4 0.815508,0.05199 0.05101,0.05293 0.178125,0.721087 0.282486,1.484791 0.239696,1.754072 0.426825,2.121853 1.079614,2.121853 0.405374,0 0.59771,-0.158775 0.925442,-0.763962 0.422318,-0.779839 0.758226,-0.99137 0.758226,-0.477476 0,0.281626 0.365667,0.422971 0.370569,0.143243 0.0016,-0.07878 0.05715,-0.358107 0.123928,-0.620718 0.106455,-0.418622 0.08548,-0.446905 -0.170155,-0.229464 -0.575437,0.489467 -0.659037,-0.702144 -0.09403,-1.340237 0.315179,-0.355948 0.689832,-1.057947 0.689832,-1.292564 0,-0.10647 -0.202338,-0.193582 -0.449638,-0.193582 -0.46719,0 -1.02498,-0.624103 -1.019491,-1.14069 0.0016,-0.160456 0.178209,-0.0079 0.392226,0.338978 0.45586,0.738876 1.03984,0.765696 1.376026,0.0632 l 0.216314,-0.452032 0.275204,0.452032 c 0.151366,0.248616 0.330814,0.645409 0.398785,0.881759 0.221081,0.768792 0.521413,0.487312 0.407561,-0.381981 l -0.106258,-0.811712 0.252816,0.668466 c 0.405765,1.072863 0.332602,1.864973 -0.273858,2.96506 -0.654895,1.187927 -1.764629,2.279911 -2.824634,2.779457 -1.001049,0.471757 -2.684529,0.461134 -3.900974,-0.02462 z m 2.495541,-7.581495 c -0.253042,-0.03532 -0.640816,-0.157993 -0.86172,-0.272626 -0.220908,-0.114633 -0.53146,-0.156728 -0.690109,-0.09354 -0.158648,0.06318 -0.288456,0.04082 -0.288456,-0.04969 0,-0.221158 0.541746,-0.425596 0.758825,-0.286359 0.09544,0.06122 0.471881,0.149709 0.836535,0.196648 0.825693,0.106287 1.324981,0.359832 0.955175,0.485054 -0.137598,0.04659 -0.45721,0.05582 -0.71025,0.02051 z"
       id="path3055"
       inkscape:connector-curvature="0" />
  </g>
</svg>
