<?xml version="1.0" encoding="UTF-8" standalone="no"?>
<!-- Created with Inkscape (http://www.inkscape.org/) -->

<svg
   xmlns:dc="http://purl.org/dc/elements/1.1/"
   xmlns:cc="http://creativecommons.org/ns#"
   xmlns:rdf="http://www.w3.org/1999/02/22-rdf-syntax-ns#"
   xmlns:svg="http://www.w3.org/2000/svg"
   xmlns="http://www.w3.org/2000/svg"
   xmlns:sodipodi="http://sodipodi.sourceforge.net/DTD/sodipodi-0.dtd"
   xmlns:inkscape="http://www.inkscape.org/namespaces/inkscape"
   width="64px"
   height="64px"
   id="svg3079"
   version="1.1"
   inkscape:version="0.48.3.1 r9886"
   sodipodi:docname="orga-handicap-international.svg">
  <defs
     id="defs3081" />
  <sodipodi:namedview
     id="base"
     pagecolor="#ffffff"
     bordercolor="#666666"
     borderopacity="1.0"
     inkscape:pageopacity="0.0"
     inkscape:pageshadow="2"
     inkscape:zoom="1.8319513"
     inkscape:cx="134.15341"
     inkscape:cy="43.412873"
     inkscape:current-layer="layer1"
     showgrid="true"
     inkscape:document-units="px"
     inkscape:grid-bbox="true"
     inkscape:window-width="819"
     inkscape:window-height="670"
     inkscape:window-x="16"
     inkscape:window-y="0"
     inkscape:window-maximized="0" />
  <metadata
     id="metadata3084">
    <rdf:RDF>
      <cc:Work
         rdf:about="">
        <dc:format>image/svg+xml</dc:format>
        <dc:type
           rdf:resource="http://purl.org/dc/dcmitype/StillImage" />
        <dc:title></dc:title>
      </cc:Work>
    </rdf:RDF>
  </metadata>
  <g
     id="layer1"
     inkscape:label="Layer 1"
     inkscape:groupmode="layer">
    <path
       style="fill:#000000"
       d="m 43.300532,45.322517 c -1.160023,-1.15649 -1.142044,-2.686673 0.04813,-4.096814 0.970156,-1.149453 1.928597,-1.356881 3.506338,-0.758851 1.011932,0.383565 1.688096,2.195658 1.393188,3.733681 -0.391519,2.041858 -3.351658,2.71313 -4.947663,1.121984 z M 51.0282,44.11874 c -0.595481,-0.593674 -1.082702,-1.322429 -1.082702,-1.619455 0,-2.796713 3.392728,-4.329134 5.464183,-2.468051 1.400529,1.258295 0.293309,4.739222 -1.507461,4.739222 -0.370345,0 -0.92489,0.09623 -1.232328,0.213847 -0.345126,0.132035 -0.973205,-0.19911 -1.641692,-0.865563 z M 37.673483,40.442753 c -1.08432,-0.806532 -1.25708,-1.932882 -0.589351,-3.842501 0.740472,-2.117655 2.940956,-2.472915 4.632383,-0.747881 2.83284,2.889136 -0.794028,7.007023 -4.043032,4.590382 z M 5.5154329,39.809002 C 4.8903164,39.637029 4.5857015,39.273056 4.5072577,38.604375 c -0.1046719,-0.89227 -0.02236,-0.954821 1.1963077,-0.909146 0.7844808,0.02941 1.4373055,-0.153477 1.6297274,-0.456542 0.1765557,-0.278075 0.3234761,-2.640536 0.3264966,-5.249915 0.00592,-5.135843 0.1114299,-5.399024 1.9769761,-4.932228 l 0.8949655,0.223938 0,4.827085 c 0,5.903734 -0.366652,7.075084 -2.3899509,7.635203 -0.7547487,0.208941 -1.4528913,0.364766 -1.5514265,0.346278 -0.098529,-0.01849 -0.5822488,-0.144509 -1.0749207,-0.280046 z m 7.1661391,-6.284045 c 0,-7.281327 -0.401669,-6.717188 4.65799,-6.542091 3.026366,0.10473 3.046327,0.111605 3.158986,1.087742 l 0.113375,0.982344 -2.531947,0 -2.531947,0 0,1.410196 0,1.410196 1.88111,0.107976 c 1.754519,0.100708 1.88874,0.174081 1.994487,1.090316 0.111667,0.967534 0.08331,0.982344 -1.88111,0.982344 l -1.994487,0 0,1.964688 0,1.964688 2.508148,0 c 2.436487,0 2.508149,0.02552 2.508149,0.89304 l 0,0.893041 -3.941377,0 -3.941377,0 0,-6.244475 z m 9.397292,-0.09611 0.09785,-6.340584 1.433227,0 1.433227,0 2.403556,4.643808 2.403554,4.643809 0.01503,-4.533423 c 0.0092,-2.783393 0.161199,-4.623489 0.39369,-4.766742 0.208273,-0.128325 0.776392,-0.133802 1.262498,-0.01218 l 0.883826,0.221148 -0.098,6.153063 -0.098,6.153062 -1.612387,0.09824 -1.61238,0.09824 -2.328991,-4.562784 -2.328998,-4.562785 -0.100283,4.553858 -0.100274,4.553859 -1.072483,0 -1.072485,0 0.09784,-6.340584 z m 33.957851,4.871405 c -1.429465,-0.544374 -2.258966,-1.946891 -1.991651,-3.367472 0.279706,-1.486408 1.377884,-2.311397 3.056724,-2.296309 1.601781,0.0144 2.455436,0.659136 2.738063,2.067967 0.333088,1.660356 -0.107179,2.845152 -1.282387,3.451024 -1.18694,0.611923 -1.280063,0.617272 -2.520749,0.14479 z M 38.748399,32.971651 c -0.706482,-0.430448 -1.604276,-2.079779 -1.501145,-2.757747 0.03738,-0.245587 0.08808,-0.599961 0.112712,-0.787499 0.02464,-0.187539 0.472342,-0.767229 0.994902,-1.288202 0.78076,-0.778382 1.17189,-0.911345 2.194283,-0.745939 1.836098,0.297051 2.588514,1.143191 2.588514,2.910943 0,1.010097 -0.218548,1.693926 -0.672173,2.103201 -0.841864,0.759558 -2.887599,1.070643 -3.717093,0.565243 z m 13.662658,-2.135017 c -0.31903,-0.185838 -0.773336,-0.803093 -1.00957,-1.371677 -0.550248,-1.324381 0.196418,-3.285541 1.599965,-4.20238 0.936745,-0.611908 1.013295,-0.605966 2.530421,0.196413 1.205046,0.63733 1.612826,1.084499 1.775031,1.946493 0.2607,1.385444 -0.288618,2.909828 -1.229482,3.411829 -0.872264,0.465399 -2.882403,0.475992 -3.666365,0.01932 z m -7.374819,-2.485441 c -1.845699,-1.119019 -1.95484,-3.093642 -0.258791,-4.682142 1.958226,-1.83406 4.809746,-0.410244 4.809746,2.401598 0,1.207139 -0.173009,1.644603 -0.806193,2.03853 -1.428937,0.888998 -2.55735,0.961924 -3.744762,0.242014 z"
       id="path3502"
       inkscape:connector-curvature="0" />
  </g>
</svg>
