<?xml version="1.0" encoding="UTF-8" standalone="no"?>
<!-- Created with Inkscape (http://www.inkscape.org/) -->

<svg
   xmlns:dc="http://purl.org/dc/elements/1.1/"
   xmlns:cc="http://creativecommons.org/ns#"
   xmlns:rdf="http://www.w3.org/1999/02/22-rdf-syntax-ns#"
   xmlns:svg="http://www.w3.org/2000/svg"
   xmlns="http://www.w3.org/2000/svg"
   xmlns:sodipodi="http://sodipodi.sourceforge.net/DTD/sodipodi-0.dtd"
   xmlns:inkscape="http://www.inkscape.org/namespaces/inkscape"
   width="64px"
   height="64px"
   id="svg3079"
   version="1.1"
   inkscape:version="0.48.3.1 r9886"
   sodipodi:docname="orga-relief.svg">
  <defs
     id="defs3081" />
  <sodipodi:namedview
     id="base"
     pagecolor="#ffffff"
     bordercolor="#666666"
     borderopacity="1.0"
     inkscape:pageopacity="0.0"
     inkscape:pageshadow="2"
     inkscape:zoom="1.8319513"
     inkscape:cx="134.15341"
     inkscape:cy="43.412873"
     inkscape:current-layer="layer1"
     showgrid="true"
     inkscape:document-units="px"
     inkscape:grid-bbox="true"
     inkscape:window-width="819"
     inkscape:window-height="670"
     inkscape:window-x="16"
     inkscape:window-y="0"
     inkscape:window-maximized="0" />
  <metadata
     id="metadata3084">
    <rdf:RDF>
      <cc:Work
         rdf:about="">
        <dc:format>image/svg+xml</dc:format>
        <dc:type
           rdf:resource="http://purl.org/dc/dcmitype/StillImage" />
        <dc:title></dc:title>
      </cc:Work>
    </rdf:RDF>
  </metadata>
  <g
     id="layer1"
     inkscape:label="Layer 1"
     inkscape:groupmode="layer">
    <path
       style="fill:#000000"
       d="m 44.657423,46.026705 c -0.308062,-0.07889 -0.534167,-0.343874 -0.644229,-0.755014 -0.122778,-0.458669 -0.131042,-0.605053 -0.130923,-2.321953 0,-1.413029 0.0053,-1.631077 0.04511,-1.886206 0.09175,-0.587829 0.227196,-0.886116 0.490773,-1.080819 0.121853,-0.09001 0.17558,-0.09568 1.039114,-0.109736 0.954224,-0.01555 1.081958,0.0024 1.279781,0.179823 0.211516,0.189714 0.345634,0.529226 0.420844,1.065361 0.05069,0.361169 0.07623,2.465587 0.03817,3.141264 -0.06609,1.173038 -0.281237,1.655305 -0.791271,1.773635 -0.230883,0.05357 -1.531867,0.04884 -1.747385,-0.0063 z m 1.614322,-1.658726 c 0.125113,-0.168595 0.143438,-0.345725 0.144452,-1.39605 0.0018,-0.899032 -0.0024,-0.965802 -0.05395,-1.154887 -0.09944,-0.36377 -0.126632,-0.376272 -0.818843,-0.376272 -0.685465,0 -0.723624,0.01649 -0.822073,0.355052 -0.04617,0.158669 -0.05252,0.267835 -0.06001,1.027661 -0.01162,1.183248 0.03367,1.506956 0.225275,1.609549 0.04315,0.0231 0.357307,0.03832 0.698134,0.03383 0.58193,-0.0076 0.62379,-0.01375 0.687002,-0.09888 z m -28.73581,-1.418241 0,-3.040122 0.38147,0 0.38147,0 0,3.040122 0,3.040121 -0.38147,0 -0.38147,0 0,-3.040121 z m 1.289443,2.96992 c 0.0082,-0.03862 0.01494,-1.406666 0.01494,-3.040122 l 0,-2.96992 0.574763,0 0.574751,0 0.217533,0.676813 c 0.408669,1.271548 0.929486,2.895467 1.039216,3.240311 0.122108,0.383694 0.146283,0.430894 0.146911,0.286831 0,-0.05428 0.0018,-1.022367 0.0035,-2.151317 l 0.0029,-2.052638 0.369176,0 0.369157,0 0,2.96992 c 0,1.633456 0.0067,3.00151 0.01493,3.040122 0.0134,0.06282 -0.04725,0.07019 -0.575752,0.07019 l -0.590662,0 -0.109048,-0.343956 c -0.518286,-1.634719 -1.23868,-3.862705 -1.266294,-3.916317 -0.02911,-0.05653 -0.03314,0.250765 -0.02727,2.097034 l 0.0068,2.163269 -0.390267,-1.5e-5 c -0.345742,-1.4e-5 -0.388555,-0.008 -0.375323,-0.07021 z m 4.666457,-2.215439 0,-2.285638 -0.51684,0 -0.516839,0 0,-0.754484 0,-0.754481 1.415149,0 1.415131,0 0,0.732292 c 0,0.402762 0.0029,0.743807 0.0061,0.757879 0.0035,0.01406 -0.229206,0.02335 -0.516839,0.0206 l -0.522987,-0.005 0,2.287219 0,2.287218 -0.38147,0 -0.38147,0 0,-2.285638 z m 2.11656,-0.754481 0,-3.040122 1.328995,0 1.328995,0 0,0.709578 0,0.709582 -0.953672,0.01164 -0.95369,0.01164 -0.0048,0.454909 -0.0048,0.454909 0.908957,0 0.908968,0 0,0.643531 0,0.64353 -0.897847,0 -0.897835,0 -0.01387,0.09985 c -0.0076,0.05493 -0.01056,0.269617 -0.0066,0.477098 l 0.0073,0.377243 0.978298,0.01164 0.978297,0.01164 0,0.731783 0,0.731782 -1.35362,0 -1.353602,0 0,-3.040121 z m 3.125614,0 0,-3.040122 1.175972,0 c 1.261064,0 1.343915,0.01239 1.517616,0.226025 0.113607,0.139754 0.224291,0.519815 0.260453,0.894406 0.03527,0.365201 0.01903,1.711774 -0.02366,1.956117 -0.03581,0.205338 -0.172455,0.488054 -0.271692,0.562177 l -0.07258,0.0542 0.103617,0.09852 c 0.113321,0.107771 0.198728,0.303493 0.241168,0.552695 0.01506,0.0883 0.03314,0.51505 0.04026,0.948322 l 0.01281,0.787769 -0.384535,0 -0.384523,0 0,-0.437753 c 0,-0.593142 -0.03279,-0.890022 -0.112042,-1.015735 -0.06185,-0.09807 -0.07441,-0.09987 -0.701501,-0.09987 l -0.638514,0 0,0.776671 0,0.776675 -0.381464,0 -0.38147,0 0,-3.040121 z m 2.158247,-0.173684 c 0.06787,-0.105262 0.06906,-0.115495 0.06906,-0.59449 0,-0.758424 -0.0048,-0.762378 -0.867548,-0.762735 l -0.596816,-2.22e-4 0,0.732295 0,0.732292 0.663123,0 0.663133,0 0.06905,-0.107106 z m 1.311915,0.17288 0,-3.040925 0.58208,0.01194 0.58209,0.01194 0.697689,2.171779 0.697707,2.17178 0,-2.182875 0,-2.182873 0.38147,0 0.38147,0 0,3.040122 0,3.040121 -0.584521,-8.83e-4 -0.584503,-8.84e-4 -0.14473,-0.454002 c -0.227149,-0.712685 -0.867359,-2.705042 -1.065732,-3.316674 l -0.179924,-0.554766 0,2.16359 0,2.163589 -0.38147,0 -0.381489,0 0,-3.040924 z m 3.726082,2.230967 c 0.09748,-0.445479 0.397204,-1.813534 0.66605,-3.040123 l 0.488811,-2.230162 0.486185,0 0.486204,0 0.362588,1.653203 c 0.293194,1.33672 0.907575,4.124971 0.96349,4.372634 0.01011,0.04479 -0.07579,0.05402 -0.413139,0.04438 l -0.425907,-0.01209 -0.113767,-0.510386 -0.113768,-0.510386 -0.748872,0 -0.748873,0 -0.110998,0.521184 -0.110999,0.521183 -0.422125,2.21e-4 -0.422114,2.21e-4 0.177234,-0.80996 z m 2.073416,-1.686493 c -0.03468,-0.246138 -0.429423,-2.036103 -0.441345,-2.001319 -0.01417,0.04122 -0.435914,2.059337 -0.435914,2.08571 0,0.0085 0.200544,0.01548 0.445666,0.01548 l 0.44566,0 -0.01398,-0.09987 z m 2.488533,0.221907 -0.0064,-2.274545 -0.522987,-0.01194 -0.522987,-0.01194 0,-0.7536 0,-0.753598 1.427445,0 1.427443,0 0,0.75358 0,0.753583 -0.510674,0.01194 -0.510692,0.01194 -0.0064,2.274545 -0.0064,2.274544 -0.381037,0 -0.38102,0 -0.0064,-2.274544 z m 2.147092,-0.765577 0,-3.040122 0.381487,0 0.38147,0 0,3.040122 0,3.040121 -0.38147,0 -0.381487,0 0,-3.040121 z m 4.996061,0 0,-3.040122 0.584521,6.62e-4 0.584514,6.62e-4 0.07384,0.236708 c 0.04061,0.130187 0.350698,1.098576 0.689112,2.151976 l 0.615276,1.915269 0.0064,-2.152577 0.0064,-2.152579 0.381227,0 0.381251,0 0,3.040926 0,3.040927 -0.582878,-0.01194 -0.582897,-0.01194 -0.256374,-0.798864 C 49.394657,44.72947 49.179608,44.060419 49.057802,43.682068 48.935997,43.303717 48.74054,42.694582 48.623453,42.328438 l -0.212903,-0.665721 -0.0064,2.16359 -0.0064,2.163591 -0.381227,0 -0.381251,0 0,-3.040122 z m 3.575031,2.962456 c 0.0067,-0.04272 0.19675,-0.916478 0.422399,-1.941686 0.225625,-1.025209 0.517716,-2.357969 0.649066,-2.961687 l 0.238821,-1.097668 0.491248,0.01028 0.491247,0.01028 0.07746,0.355052 c 0.04262,0.195276 0.339297,1.55 0.659327,3.010492 0.320032,1.460495 0.581866,2.664256 0.581866,2.675024 0,0.01073 -0.189096,0.01406 -0.420223,0.0074 l -0.420223,-0.01209 -0.112485,-0.521481 -0.112476,-0.521481 -0.745012,0 -0.745002,0 -0.114882,0.532576 -0.114887,0.532575 -0.419197,0 c -0.387452,0 -0.418266,-0.0059 -0.407045,-0.07766 z m 2.250484,-2.374405 c -0.007,-0.03052 -0.108734,-0.504837 -0.226207,-1.054056 -0.117477,-0.54922 -0.216625,-1.004055 -0.220331,-1.010746 -0.0059,-0.01058 -0.191882,0.849309 -0.39399,1.820706 l -0.06232,0.299575 0.457724,0 c 0.35649,0 0.454939,-0.01224 0.445127,-0.05547 z m 1.607061,-0.588051 0,-3.040122 0.38147,0 0.38147,0 0,2.263448 0,2.263449 0.836781,0 0.836781,0 0,0.776673 0,0.776673 -1.218251,0 -1.218251,0 0,-3.040121 z M 8.3396419,44.403226 c 0.00896,-0.823828 0.016424,-2.226834 0.016663,-3.117788 l 4.513e-4,-1.61992 0.3160048,-0.776675 C 8.8465688,38.461672 9.190822,37.61288 9.437777,37.002637 c 0.2469487,-0.610243 0.4577947,-1.115478 0.4685545,-1.122744 0.010734,-0.0073 0.1942235,0.422121 0.4077135,0.954198 0.213484,0.532075 0.452537,1.127182 0.531221,1.322462 0.07868,0.195276 0.248526,0.617188 0.377422,0.937579 l 0.234357,0.582529 0,3.112217 0,3.112219 -1.5667911,0 -1.5667907,0 0.016246,-1.497871 z M 5.0915175,42.073551 C 4.981319,41.725523 4.7889214,41.121226 4.663974,40.73067 3.9232518,38.415344 3.7510043,37.855388 3.7697372,37.82362 c 0.019321,-0.0328 0.7192559,-0.760418 2.3142939,-2.405891 l 0.6444775,-0.664856 1.2652856,0.24835 c 0.6959106,0.136596 1.2835913,0.248351 1.305958,0.248351 0.022353,0 0.040663,0.0222 0.040663,0.04935 0,0.04195 -0.3018968,1.276418 -0.9229353,3.773979 L 8.2779086,39.634209 7.7201175,40.210477 C 7.4133352,40.527426 6.7538005,41.21019 6.2544903,41.727731 5.7551812,42.245273 5.3343301,42.677177 5.3192665,42.687522 5.3042081,42.697951 5.201717,42.421581 5.0915133,42.07355 z m 9.2797375,0.532231 c -0.09489,-0.09491 -0.497709,-0.523591 -0.576227,-0.613204 -0.02028,-0.02319 -0.20857,-0.219108 -0.418379,-0.435406 -0.209815,-0.216297 -0.597438,-0.619196 -0.861394,-0.895332 -0.263951,-0.276134 -0.590622,-0.615855 -0.725931,-0.754933 l -0.246018,-0.252873 -0.241128,-0.970648 c -0.132618,-0.533857 -0.267306,-1.080492 -0.2993,-1.214745 -0.05744,-0.241045 -0.08694,-0.363095 -0.378702,-1.566923 -0.09701,-0.400248 -0.13838,-0.61854 -0.119309,-0.629497 0.01607,-0.0092 0.211931,-0.0484 0.435274,-0.08706 0.223349,-0.03867 0.666347,-0.119516 0.984451,-0.179683 1.026428,-0.194142 1.11522,-0.208035 1.180098,-0.184635 0.03515,0.0127 0.211593,0.184218 0.392146,0.381217 0.180553,0.196999 0.332433,0.358179 0.337513,0.358179 0.0053,0 0.100751,0.09755 0.212619,0.216798 0.245994,0.262221 0.60853,0.641364 1.36227,1.424655 0.312525,0.324779 0.587745,0.61623 0.611576,0.647666 0.04612,0.06079 0.03764,0.08874 -1.098656,3.613601 -0.169184,0.524809 -0.326149,1.019107 -0.348824,1.098439 -0.04891,0.171049 -0.07066,0.175831 -0.202079,0.04438 z m 3.189289,-11.372721 0,-7.433876 2.86104,4.5e-5 c 2.358298,4.4e-5 2.895649,0.01103 3.057937,0.06289 1.091236,0.348253 1.46124,1.738835 1.406234,5.284996 -0.0342,2.20443 -0.19531,2.916042 -0.784424,3.464718 l -0.221879,0.206654 0.158863,0.120861 c 0.416107,0.316583 0.595713,0.710478 0.727745,1.596153 0.06197,0.415615 0.06378,0.468479 0.07756,2.260086 0.0078,1.008984 0.0096,1.842798 0.0042,1.852921 -0.0059,0.01013 -0.422648,0.01843 -0.9267,0.01843 l -0.916431,0 -0.01085,-1.364728 c -0.009,-1.107774 -0.01885,-1.414824 -0.05288,-1.630801 -0.05437,-0.345173 -0.109006,-0.509164 -0.210834,-0.632909 -0.188592,-0.229185 -0.21649,-0.23274 -1.826544,-0.23274 l -1.496803,0 0,1.930589 0,1.930589 -0.922918,0 -0.922922,0 0,-7.433878 z m 5.114991,-0.223812 c 0.167156,-0.08951 0.285209,-0.280671 0.335396,-0.5431 0.06962,-0.364118 0.09994,-1.099976 0.068,-1.650838 -0.04618,-0.797037 -0.141576,-1.077229 -0.419368,-1.232235 -0.127212,-0.07098 -0.280254,-0.07804 -1.690387,-0.07804 l -1.550488,0 -0.0064,1.786349 -0.0064,1.786351 1.570929,0 c 1.344153,0 1.589394,-0.0098 1.698799,-0.06849 z m 3.425074,0.223812 0,-7.433876 3.279431,-1.5e-5 3.279443,-1.7e-5 -0.0067,1.730666 -0.0067,1.730665 -2.34365,0.01134 -2.34365,0.01134 0,1.131725 0,1.131722 2.221144,0.01134 2.221157,0.01134 0,1.575302 0,1.575303 -2.228288,0 -2.228307,0 0.0072,1.16501 0.0071,1.165009 2.40573,0.01134 2.405747,0.01134 0,1.797225 0,1.797226 -3.334811,0 -3.334812,0 0,-7.433877 z m 7.752518,0 0,-7.433876 0.922916,0 0.922923,0 0,5.525479 0,5.525478 2.054506,0 2.054499,0 0.0067,1.889931 c 0.0035,1.039464 0.0024,1.898244 -0.0035,1.9084 -0.0059,0.01013 -1.348481,0.01846 -2.984098,0.01846 l -2.973841,0 0,-7.433877 z m 6.792668,0 0,-7.433876 0.929077,0 0.92907,-1e-6 -0.0063,7.433877 -0.0063,7.433877 -0.922769,0 -0.922781,0 0,-7.433877 z m 3.174847,0 0,-7.433876 3.279431,-1.5e-5 3.279431,-1.7e-5 -0.0067,1.730666 -0.0067,1.730665 -2.34365,0.01134 -2.343649,0.01134 0,1.131725 0,1.131722 2.221163,0.01134 2.221156,0.01134 0,1.575302 0,1.575303 -2.228306,0 -2.228288,0 0.0072,1.16501 0.0071,1.165009 2.405747,0.01134 2.405741,0.01134 0,1.797225 0,1.797226 -3.334812,0 -3.334812,0 0,-7.433877 z m 7.752499,0 0,-7.433876 3.113319,0 3.113307,0 0,1.797446 0,1.797444 -2.190383,0 -2.190402,0 0,1.353631 0,1.353631 2.091953,0 2.091946,0 0,1.730872 0,1.730874 -2.091946,0 -2.091953,0 0,2.551927 0,2.551928 -0.922917,0 -0.922924,0 0,-7.433877 z m 4.82379,7.283736 c -0.303942,-0.121118 -0.536029,-0.459177 -0.682726,-0.99446 -0.09209,-0.336022 -0.09253,-0.340129 -0.09253,-0.894639 0,-0.541063 0.0024,-0.56575 0.08191,-0.859136 0.10123,-0.373373 0.294516,-0.730706 0.487809,-0.901858 0.132098,-0.116961 0.166409,-0.127512 0.414727,-0.127512 0.242781,0 0.285375,0.01239 0.412688,0.11997 0.192914,0.163014 0.393979,0.534659 0.4928,0.910842 0.07577,0.288499 0.07896,0.323027 0.07896,0.855399 0,0.532373 -0.0029,0.566905 -0.07896,0.855399 -0.143531,0.546385 -0.422309,0.945604 -0.732569,1.049029 -0.173707,0.05791 -0.206934,0.05677 -0.382111,-0.013 z m 0.51234,-0.679909 c 0.151167,-0.12869 0.278901,-0.410085 0.328354,-0.723297 0.05223,-0.330549 0.03687,-0.838022 -0.03361,-1.115796 -0.120797,-0.475758 -0.312081,-0.701241 -0.596264,-0.702868 -0.211819,-0.0011 -0.343506,0.104023 -0.479937,0.383513 -0.123637,0.253306 -0.178881,0.551743 -0.177986,0.961569 0.0018,0.711648 0.211558,1.219656 0.54316,1.313898 0.155229,0.04412 0.262427,0.01391 0.416287,-0.117022 z m -0.06406,-0.182081 -0.105491,-0.01391 -0.09596,-0.374613 c -0.129892,-0.506945 -0.17299,-0.506292 -0.17299,0.0027 l 0,0.377242 -0.135369,0 -0.135357,0 0,-0.99858 0,-0.998579 0.232597,0 c 0.312335,0 0.456697,0.06013 0.545472,0.227208 0.06343,0.119395 0.07101,0.164555 0.07101,0.422874 0,0.270547 -0.0053,0.297562 -0.08038,0.41871 -0.04423,0.07122 -0.09681,0.129507 -0.116898,0.129507 -0.04956,0 -0.04974,-8.83e-4 0.06192,0.399433 0.05413,0.194194 0.09843,0.361372 0.09843,0.371508 0,0.03637 -0.06333,0.05023 -0.16699,0.03656 z m -0.103721,-1.251318 c 0.09287,-0.167484 0.03699,-0.301722 -0.141516,-0.339829 l -0.129204,-0.02759 0,0.228088 0,0.228088 0.110744,0 c 0.07794,0 0.125339,-0.0263 0.159976,-0.08876 z M 12.564481,34.535608 c -0.223348,-0.04473 -0.55006,-0.111429 -0.726031,-0.148219 -0.175971,-0.03679 -0.55252,-0.110734 -0.836781,-0.164314 -0.284261,-0.05358 -0.519863,-0.101302 -0.523556,-0.106048 -0.0064,-0.0082 0.12854,-0.563066 0.480198,-1.974147 0.08821,-0.353941 0.20164,-0.813289 0.25207,-1.020772 0.213455,-0.878149 0.326226,-1.312379 0.35321,-1.360057 0.01583,-0.02795 0.205951,-0.23422 0.422523,-0.458391 0.216579,-0.224172 0.410394,-0.42602 0.430698,-0.448552 0.02033,-0.02254 0.324868,-0.337337 0.676804,-0.699569 0.351942,-0.36223 0.816151,-0.841519 1.03158,-1.065086 0.215434,-0.223564 0.398176,-0.405828 0.406096,-0.405035 0.0079,8.85e-4 0.03153,0.06571 0.05246,0.144244 0.02093,0.07854 0.144078,0.472325 0.273643,0.875087 0.196109,0.609582 0.654307,2.04636 1.10886,3.477024 0.05305,0.167068 0.09134,0.328086 0.08502,0.357814 -0.0098,0.046 -0.521891,0.58644 -1.874734,1.978509 -0.148903,0.153215 -0.398087,0.412536 -0.55376,0.576268 -0.444711,0.467765 -0.518683,0.534257 -0.58761,0.528224 -0.0355,-0.0032 -0.247322,-0.04225 -0.470665,-0.08697 z M 6.3864135,34.257372 C 6.21758,34.077809 5.5589163,33.386843 4.9227194,32.721894 4.2865172,32.056946 3.7628718,31.507544 3.7590546,31.501001 c -0.00615,-0.01058 1.532099,-4.808312 1.5546137,-4.848912 0.00479,-0.0089 0.6782625,0.683514 1.4963527,1.538584 l 1.487425,1.554671 0.1200974,0.499762 c 0.066059,0.274869 0.3015061,1.238709 0.5232181,2.141869 0.2217183,0.903161 0.4051122,1.661299 0.4075424,1.68475 0.0024,0.02344 -0.06757,0.05798 -0.1555551,0.07675 -0.4194098,0.08945 -2.336447,0.435371 -2.4127894,0.435371 -0.06335,0 -0.1688992,-0.08756 -0.3935459,-0.326482 z M 9.771111,33.199855 C 9.7034263,33.026774 9.3575932,32.163937 9.0025803,31.282437 l -0.6454738,-1.602723 -4.45e-4,-2.196876 c -2.959e-4,-1.208283 0.00677,-2.601301 0.015652,-3.095599 l 0.016121,-0.898722 1.5465937,0 1.546594,0 0,3.100084 0,3.100089 -0.330643,0.816568 c -1.02685,2.535926 -1.2122641,2.986497 -1.2334449,2.997343 -0.012807,0.0067 -0.0787,-0.129658 -0.1463835,-0.302746 z"
       id="path3318"
       inkscape:connector-curvature="0" />
  </g>
</svg>
