<?xml version="1.0" standalone="no"?>
<!DOCTYPE svg PUBLIC "-//W3C//DTD SVG 1.1//EN" "http://www.w3.org/Graphics/SVG/1.1/DTD/svg11.dtd" >
<svg viewBox="0 -256 1792 1792">
  <g transform="matrix(1 0 0 -1 0 1536)">
   <path fill="currentColor"
d="M748 1564q53 0 66 -78q0 -37 -42 -58l-5 -346l-28 -10h-10l-9 10q-3 346 -9 346q-38 24 -38 68q0 55 75 68zM692 1350h14v-10q0 -10 -131 -34q-92 -31 -187 -127l61 -58l47 44h9v-15h5q0 136 163 136l33 10l5 -5v-48q0 -10 -38 -10v-5h10v-10l-24 5q-78 -107 -131 -107
l5 -5v-5l-9 -44q113 83 182 83l5 -5v-9l-89 -30l-89 -58v-10q42 -44 42 -53q78 82 173 82q103 34 103 88q-13 78 -75 78v58l10 10q75 0 126 -97l5 5h4q22 0 117 -78l47 53v10q-180 141 -304 141v20h5q146 0 322 -156q159 -181 159 -395q0 -289 -257 -462q-131 -73 -257 -73
q-246 0 -421 219q-112 156 -112 341q0 314 308 487q110 39 164 39zM1127 1301h5q100 -29 135 -93q33 -78 33 -97h-4q-86 71 -141 156zM351 1296q-96 -131 -150 -180l-19 -15h-5q28 117 71 142q0 17 103 53zM552 1218v-14q19 6 28 24v10h-5q-21 -10 -23 -20zM1267 1233h10
q93 -50 93 -151v-122h-9q0 21 -136 132q-28 54 -28 77v5l122 -107l14 -24h5v5q-35 155 -71 185zM210 1223q-31 -20 -70 -190v-5h5q0 26 117 117l14 24h9v-4q0 -63 -145 -185l-19 -30h-9v64l-5 48q2 117 98 161h5zM921 1174q0 -71 -14 -87v-5h5v10h9l42 -35q14 4 19 20
l-37 39q-19 0 -19 10v48h-5zM1099 1169l-51 -58q117 -133 117 -292h14v-5l4 5h47l5 -5h4l5 15q0 172 -145 340zM243 819h19q0 24 32 24l10 -19q22 0 32 107q46 120 94 170v5l-56 59q-131 -142 -131 -346zM463 1106l37 -39l24 44q-19 0 -19 34zM786 1145l51 -10v-19h-5
q-56 2 -56 15v4zM996 1131v-5l24 -20v5zM1375 1135h9q57 -85 57 -165v-20l-43 -175h-9q0 36 -107 190l-24 73h5q121 -109 121 -166h5v10l-5 49l10 136q-5 45 -19 64v4zM93 1111l-4 -63l9 -137l-5 -48v-10h5q0 66 122 180v-5q0 -56 -113 -219l-9 -39h-9l-47 161v44
q0 75 51 136zM341 819h66q43 165 93 214v10l-51 44q-108 -124 -108 -268zM903 1077l-47 -59l42 -29q10 0 42 39h5l-28 29l4 5v5zM996 1062l-14 -19q89 -121 89 -229h9l66 5v5q0 78 -61 209h-5l-18 -15q-41 41 -66 44zM912 970l70 -68l-5 -5l5 -5h5q2 19 14 19q9 -9 9 -43
l24 38l-5 20l-5 -5h-4l-33 29v5l9 10l14 -5l-33 20v4l14 5l-23 39zM514 1018q-63 -84 -65 -141v-5q18 0 18 -29q24 0 24 -10v-14h23v34l5 5v5h-23v-20l-10 10v5q61 69 61 83h5l4 -5h5v5l-5 4v5q14 0 14 20h-4zM762 984l-4 -331l-24 -10l-5 5l-4 244v73q3 15 33 15v4h-14
q-49 0 -103 -48h4l10 9q14 0 14 -29l42 20l4 -5v-10q0 -10 -28 -15l10 -9h23v-25q0 -8 -33 -19l10 -15v-5l-5 5l-5 -5h-4q-56 13 -56 44h-5v-5q0 -32 93 -58l5 -5v-54l-9 -9q-141 42 -141 78q-14 0 -18 78h-5q0 -23 -9 -34l4 -5v-5l-9 -39h28l14 -15v-5h-42v-5
q0 -56 47 -131l65 68q-9 0 -18 29l4 5h5q36 -43 89 -73l-10 -10q-19 0 -60 30l-57 -64l47 -39q0 -9 -14 -9l-47 34l-51 -54q46 -42 136 -88h4v5q-44 0 -51 69q0 42 98 68l-5 5v9l14 -9q52 14 52 29h-5l-4 -5h-5l-5 5v24l14 15l5 -34h5v19q0 16 -19 39v68l47 -34h14v5
q-19 0 -19 15l5 5l-42 9v5q0 11 23 15l-5 19l5 15l-5 -5h-4q-11 0 -19 44v34q24 34 33 34l4 -5v-10q0 -9 -14 -9v-5l42 -15l5 5v5l-5 19l5 5h5l18 -5l14 20h-4l-14 -10l-10 10v5h5l5 -5h4q0 15 14 15l-32 29l4 5h-4zM889 945v-4h4l14 14h-9zM912 941l-5 -5v-5l5 -15h9v15z
M1455 931h9l14 -102q0 -118 -112 -249v-5h-10v59q-51 179 -51 253h9l61 -127q14 -23 14 -73h5q0 22 56 181l5 34v29zM18 911h10v-14q0 -39 61 -190l4 -39h5q0 92 75 204v15h9q0 -60 -51 -268v-53h-10l-93 136l-19 112v29zM1038 877v-14h-9v9h-5q0 -19 -19 -19l5 -5v-5
l-14 -24l5 -5h47v5l-5 58h-5zM243 799v-5q0 -173 140 -340l52 53q-103 149 -103 205l-5 5q0 9 -14 9l-9 29h-5v-9h-9l-10 29q-12 0 -14 -24h-9l-5 24l5 24h-14zM491 799l5 -5l-5 -19l5 -29l-5 -44l9 -29l-4 -20q18 -53 28 -53l46 53q-56 58 -56 137v9h-23zM1005 799
q4 -24 24 -24v-15q0 -10 -33 -24q-23 -33 -23 -49l9 -9q0 -64 -42 -64l14 -14q50 0 94 170v29h-43zM996 551l28 -10l-4 -5v-5l14 -14q9 22 18 24l-9 25q12 39 19 39h4l5 -25h5q70 115 70 210v4l-5 5h-65q-8 0 -24 -102q-54 -104 -56 -146zM1048 502l56 -58q140 146 140 355
h-70q-8 0 -28 -131q-30 -78 -98 -166zM823 751q19 -34 19 -59h4v15q-14 44 -23 44zM1310 721h9v-24l14 -131v-10q0 -41 -19 -73v-5h5q9 32 126 161q24 40 24 58h9v-39q0 -128 -220 -263h-5v5q24 46 43 278q7 0 14 43zM168 712h9q19 -66 38 -273l23 -54h-4q-225 126 -225 278
v15h9q0 -33 131 -171l19 -39h5v5q-16 23 -24 88l19 131v20zM945 663v-5h14v10zM860 648l-4 -19h9l14 14v5h-19zM828 639q0 -15 -14 -15v-5h9q0 15 14 15v5h-9zM800 575v-5h42q0 12 51 35l5 4v20q-47 -40 -98 -54zM388 619l56 -92h5l28 29q-13 0 -42 39q-27 6 -47 24z
M720 585l5 -5v-83q0 -9 -24 -9v-5h24v-10q-87 0 -201 78l-19 5l-42 -49q141 -117 266 -117v-10l-9 -9q-126 0 -271 121l-52 -53q159 -146 304 -146l38 -5v-5q201 0 351 146l-56 59q-10 0 -71 -73q-42 -30 -60 -30l-10 10l-131 -24l-4 5v9q0 10 93 20v10h-14v4l5 25
q-32 12 -56 68l-33 24v-219l-5 -24h-14v102l-5 180l15 10h14v-19l-5 -20v-5h5q0 54 37 54q0 10 19 10l-10 9q-29 -18 -84 -29zM907 609v-9h14l-9 9h-5zM678 556v-5q37 15 37 29h-4q-30 -13 -33 -24zM1263 566h4q-14 -36 -37 -176l-51 -73h4q53 48 178 112l66 68v-5
q0 -84 -164 -189l-150 -35v5q46 55 94 215zM224 556q56 -52 108 -224l47 -68h-5q-163 24 -211 68q-103 96 -103 151v5q58 -78 183 -132l70 -49v5q-75 61 -75 180q-6 0 -14 64zM701 541v-5h19v5h-19zM762 517h14q31 -54 33 -83h-9q0 10 -38 49v34zM1005 512v-15l10 10l-5 5
h-5zM678 492v-4h19v4h-19zM1155 405h5v-5q-65 -156 -126 -156v-5h4q258 27 258 59l18 14h5q-80 -121 -192 -121h-19l-187 34v9q52 0 122 64q75 84 112 107zM332 395h4q165 -156 192 -156q33 -5 33 -14v-5q-157 -34 -196 -34h-5q-107 0 -183 107v5h5q53 -54 229 -54
q0 -7 42 -10h5v5q-69 0 -126 156zM678 229q66 -6 66 -14q30 14 74 14h5q73 0 229 -68l42 -5l94 20q-57 -68 -140 -68h-5q-81 0 -206 92l-19 5h-37v-5q72 -25 159 -117l-28 -24q-131 132 -168 132q-59 -16 -160 -132h-9l-23 24q87 94 159 117v5l-19 5q-27 0 -168 -93
q-43 -14 -89 -14q-69 0 -141 73h10q39 -24 89 -24q42 0 220 73z" />
  </g>

</svg>
