<?xml version="1.0" standalone="no"?>
<!DOCTYPE svg PUBLIC "-//W3C//DTD SVG 1.1//EN" "http://www.w3.org/Graphics/SVG/1.1/DTD/svg11.dtd" >
<svg viewBox="0 -256 1792 1792">
  <g transform="matrix(1 0 0 -1 0 1536)">
   <path fill="currentColor"
d="M772 1563q297 0 404 -404v-80q0 -321 -332 -450l-93 -12q-282 0 -404 358l-11 92v46q0 321 332 438zM585 1206v-12h73q38 81 93 81h31l73 -81h72v12q0 118 -166 173q-176 -41 -176 -173zM585 1171v-12q0 -51 62 -138v-11q-62 -77 -62 -150v-12l31 -11q43 0 94 92l41 11
h31l73 -92h72v23q0 59 -72 150q72 77 72 150h-72l-73 -81h-31q-49 0 -93 81h-73zM202 479q169 0 186 -219q0 -196 -207 -196q-132 0 -166 208q28 207 187 207zM813 468l21 -23v-12q0 -23 -41 -23l-11 -12v-23q0 -23 31 -23l11 -11v-23q0 -23 -31 -23l-11 -12v-184l-21 -23
h-41l-21 23l11 173l-42 46v11l62 127l11 12h72zM119 272v-24q0 -87 83 -115q93 27 93 139q-24 126 -62 126h-31q-83 0 -83 -126zM979 364q83 -9 83 -92v-173l-21 -23h-52l-10 11l-62 -23q-83 17 -83 92q0 102 145 116l-21 23h-31l-52 -12l-10 12v34q0 35 114 35zM1197 364
h21l62 -23l93 23q83 0 83 -92v-173l-21 -23h-41l-21 23v184l-21 23h-10l-21 -23v-184l-21 -23h-41l-21 23v184l-20 23l-32 -34v-173l-20 -23h-42l-20 23v219q13 46 93 46zM409 352h62q42 -24 42 -57h10l52 57h52l20 -23q-72 -69 -72 -127l72 -103v-23h-62q-25 0 -52 80
l-72 -80h-42l-10 11h-10l72 138l-62 104v23zM907 145l10 -12h41l21 23v58h-10q-62 0 -62 -69z" />
  </g>

</svg>
