<?xml version="1.0" encoding="UTF-8" standalone="no"?>
<!-- Created with Inkscape (http://www.inkscape.org/) -->

<svg
   xmlns:dc="http://purl.org/dc/elements/1.1/"
   xmlns:cc="http://creativecommons.org/ns#"
   xmlns:rdf="http://www.w3.org/1999/02/22-rdf-syntax-ns#"
   xmlns:svg="http://www.w3.org/2000/svg"
   xmlns="http://www.w3.org/2000/svg"
   xmlns:sodipodi="http://sodipodi.sourceforge.net/DTD/sodipodi-0.dtd"
   xmlns:inkscape="http://www.inkscape.org/namespaces/inkscape"
   width="64px"
   height="64px"
   id="svg3079"
   version="1.1"
   inkscape:version="0.48.3.1 r9886"
   sodipodi:docname="orga-thw.svg">
  <defs
     id="defs3081" />
  <sodipodi:namedview
     id="base"
     pagecolor="#ffffff"
     bordercolor="#666666"
     borderopacity="1.0"
     inkscape:pageopacity="0.0"
     inkscape:pageshadow="2"
     inkscape:zoom="1.3942051"
     inkscape:cx="-42.566586"
     inkscape:cy="13.322707"
     inkscape:current-layer="layer1"
     showgrid="true"
     inkscape:document-units="px"
     inkscape:grid-bbox="true"
     inkscape:window-width="819"
     inkscape:window-height="670"
     inkscape:window-x="16"
     inkscape:window-y="0"
     inkscape:window-maximized="0" />
  <metadata
     id="metadata3084">
    <rdf:RDF>
      <cc:Work
         rdf:about="">
        <dc:format>image/svg+xml</dc:format>
        <dc:type
           rdf:resource="http://purl.org/dc/dcmitype/StillImage" />
        <dc:title></dc:title>
      </cc:Work>
    </rdf:RDF>
  </metadata>
  <g
     id="layer1"
     inkscape:label="Layer 1"
     inkscape:groupmode="layer">
    <path
       style="fill:#000000"
       d="m 10.730522,51.138492 c 0,-0.480012 0.06428,-0.532138 0.656162,-0.532138 0.830475,0 1.581188,-0.503535 1.781235,-1.194757 0.09066,-0.313258 0.155069,-4.643846 0.155069,-10.426547 0,-10.98075 -0.01076,-11.10774 -0.978923,-11.551113 -0.290234,-0.132913 -0.772011,-0.24166 -1.07062,-0.24166 -0.471098,0 -0.542923,-0.0704 -0.542923,-0.532138 l 0,-0.532138 4.050729,0 4.05073,0 0,0.532138 c 0,0.458214 -0.07315,0.532303 -0.526596,0.533325 -1.00454,0.0023 -1.723771,0.402248 -2.025105,1.126214 -0.2585,0.62106 -0.283811,1.536075 -0.283811,10.260355 0,5.268167 0.0581,9.938405 0.129096,10.378304 0.16156,1.000971 0.710026,1.500907 1.805721,1.645944 0.696534,0.0922 0.827459,0.180452 0.871456,0.587425 l 0.05178,0.478924 -4.061998,0 -4.061998,0 0,-0.532138 z m 8.749575,0 c 0,-0.48409 0.06218,-0.532168 0.688624,-0.532468 0.378744,-1.83e-4 0.94382,-0.167806 1.255727,-0.372496 0.767169,-0.503463 0.942651,-1.480858 0.959137,-5.342181 l 0.01304,-3.05432 -0.563856,-1.202786 c -1.679906,-3.583495 -1.988504,-7.999449 -0.823747,-11.787649 0.222275,-0.722915 0.365745,-1.364822 0.318824,-1.426461 -0.04692,-0.06164 -0.46363,-0.162068 -0.926021,-0.223176 -0.717667,-0.09484 -0.848289,-0.181199 -0.892489,-0.59003 -0.04996,-0.462133 -0.0067,-0.478924 1.23369,-0.478924 l 1.285467,0 0.421775,-0.798208 c 0.231977,-0.439014 0.91634,-1.433073 1.520806,-2.209021 2.671735,-3.429679 6.216912,-5.664886 10.982812,-6.924582 2.232247,-0.590016 7.336384,-0.528677 9.640737,0.115856 7.330304,2.050306 12.519328,7.322408 13.854883,14.076698 0.16642,0.841658 0.270507,2.169611 0.266835,3.404419 -0.01364,4.594438 -1.78457,8.705882 -5.271619,12.238814 -0.634542,0.642891 -1.518278,1.550823 -1.963859,2.017628 -1.224556,1.282883 -2.826117,2.307506 -4.579155,2.929582 -1.521611,0.539954 -1.765979,0.562873 -6.843903,0.641806 -2.896272,0.04502 -5.575482,0.02093 -5.953803,-0.05357 -0.378319,-0.07449 -0.897868,-0.367577 -1.154553,-0.651316 -0.256686,-0.283738 -1.113762,-0.814361 -1.904613,-1.17916 -1.768505,-0.815768 -3.93671,-2.263307 -5.100431,-3.405155 l -0.8743,-0.857866 -0.04735,1.610463 c -0.07535,2.562582 0.447203,3.521965 1.918311,3.521965 0.575173,0 0.640494,0.05427 0.640494,0.532138 l 0,0.532138 -4.050731,0 -4.050729,0 0,-0.532138 z m 17.661182,-1.061898 c 0,-0.05723 -0.328297,-0.671146 -0.729549,-1.364261 -0.401251,-0.693115 -1.033391,-2.092071 -1.404756,-3.108789 l -0.67521,-1.848579 -0.904158,0.146979 c -0.497287,0.08084 -0.929934,0.17958 -0.961437,0.219424 -0.193018,0.244117 2.829146,5.328275 3.439157,5.785663 0.336994,0.25268 1.235953,0.376009 1.235953,0.169563 z m 7.538929,-0.609597 c 1.258675,-0.795167 2.361644,-1.826494 3.531744,-3.302343 1.274293,-1.607267 1.270502,-1.647922 -0.178174,-1.91078 -0.688469,-0.12492 -1.725696,-0.287514 -2.304951,-0.361317 l -1.05319,-0.13419 -0.48031,1.453245 c -0.487544,1.475137 -1.766797,4.165426 -2.0423,4.294989 -0.08298,0.03903 -0.150872,0.206648 -0.150872,0.372497 0,0.590011 1.443382,0.367903 2.678053,-0.412101 z m 2.144508,0.03329 c 1.5358,-0.750316 3.280505,-2.628358 3.935592,-4.23636 0.133781,-0.328384 0.07459,-0.404805 -0.4051,-0.523025 -0.530346,-0.130704 -0.614266,-0.06396 -1.500121,1.193008 -1.009482,1.432388 -2.034663,2.498483 -3.450319,3.588014 l -0.89116,0.685865 0.729132,-0.145421 c 0.401021,-0.07998 1.112911,-0.332916 1.581976,-0.562081 z m -8.73867,-3.172701 0.05361,-2.774793 -1.63339,0.05302 c -1.346601,0.04371 -1.633391,0.110682 -1.633391,0.381423 0,0.574931 1.123904,3.301732 1.888016,4.580679 0.684737,1.146091 0.756788,1.209533 1.004597,0.884552 0.214311,-0.28105 0.277527,-0.897285 0.320562,-3.124884 z m 4.210964,2.25723 c 0.781463,-1.314449 2.063695,-4.529234 1.895135,-4.751448 -0.06041,-0.07964 -0.869528,-0.17747 -1.798033,-0.217393 l -1.688191,-0.07259 0,2.367618 c 0,2.435447 0.250078,3.843934 0.682492,3.843934 0.117115,0 0.525984,-0.526555 0.908597,-1.170121 z m -11.3208,-1.030062 c -0.532373,-1.093033 -1.137852,-2.197011 -1.345507,-2.453288 l -0.377558,-0.465959 -1.645939,0.460419 c -0.905267,0.253226 -1.645941,0.529419 -1.645941,0.613758 0,0.514123 4.940223,3.777172 5.786451,3.821989 0.108045,0.0057 -0.239134,-0.883892 -0.771506,-1.976923 z M 27.169941,44.76928 c 0.955256,-0.283634 1.77847,-0.570401 1.829365,-0.637261 0.0509,-0.06686 -0.02038,-0.289775 -0.158388,-0.495366 -0.138009,-0.20559 -0.446619,-0.870671 -0.685802,-1.477956 -0.239181,-0.607284 -0.540058,-1.218828 -0.668613,-1.358986 -0.128556,-0.14016 -0.743063,-0.302708 -1.365574,-0.36122 l -1.131839,-0.106385 0,2.221008 c 0,1.443646 0.06805,2.310412 0.194435,2.476436 0.235252,0.309044 -0.0623,0.348033 1.986416,-0.26027 z m 27.819748,-1.118486 c 1.143637,-1.546745 2.294817,-3.704548 2.107584,-3.950507 -0.159609,-0.209679 -2.021761,-1.230623 -2.087374,-1.144427 -0.02363,0.03104 -0.15557,0.911249 -0.293196,1.956008 -0.137627,1.04476 -0.466285,2.508972 -0.730352,3.253806 -0.264069,0.744834 -0.480123,1.394753 -0.480123,1.444262 0,0.247297 0.663152,-0.449685 1.483461,-1.559142 z m -3.735257,0.19741 c 0.349753,-1.199905 0.650004,-3.062442 0.60106,-3.72853 -0.05005,-0.681099 -0.05377,-0.67721 -0.360241,0.37606 -0.170319,0.585351 -0.58252,1.657483 -0.916007,2.382512 -0.586073,1.274181 -0.594677,1.321231 -0.257432,1.407787 0.686767,0.176263 0.76422,0.1399 0.93262,-0.437829 z M 50.28779,42.673422 c 0.968061,-2.178893 1.750314,-4.947088 1.488883,-5.268789 -0.133767,-0.164605 -3.272273,-0.909273 -4.868792,-1.15521 -0.961912,-0.148178 -0.839164,-0.400521 -1.185459,2.437041 -0.107155,0.878028 -0.330892,2.171124 -0.497194,2.873547 -0.166301,0.702421 -0.303306,1.383092 -0.304457,1.512601 -0.0013,0.141075 0.761147,0.362925 1.901753,0.553393 3.034032,0.506646 2.786743,0.574626 3.465266,-0.952583 z m -16.102798,0.60619 c 0.02377,-0.03123 -0.05898,-0.437334 -0.183903,-0.902455 -0.222616,-0.828879 -0.630039,-3.198412 -0.831641,-4.836733 l -0.101736,-0.826757 -0.596192,0.763735 c -0.327903,0.420055 -0.973095,1.034189 -1.433758,1.364745 l -0.837569,0.601009 0.731264,1.590565 c 1.325952,2.884063 1.085865,2.61842 2.214858,2.450622 0.5475,-0.08137 1.014904,-0.173503 1.038677,-0.204731 z m 3.928463,-3.891862 0,-3.741284 -2.123253,0.151628 c -1.167791,0.08339 -2.232985,0.206942 -2.3671,0.27455 -0.194009,0.0978 -0.22144,0.344835 -0.134223,1.208731 0.148322,1.469139 0.684909,4.451067 0.952771,5.294759 l 0.218026,0.686718 1.726889,-0.06691 1.72689,-0.06691 0,-3.741284 z m 6.872451,1.586103 c 0.480266,-2.432179 0.694695,-4.724131 0.459817,-4.914829 -0.08873,-0.07204 -1.193248,-0.195687 -2.454494,-0.274781 l -2.293175,-0.143807 0.04444,3.704781 0.04444,3.70478 1.782321,0.106428 c 0.980277,0.05854 1.832805,0.05854 1.894506,0 0.0617,-0.05854 0.296665,-1.040693 0.522143,-2.182572 z M 22.3251,39.585825 c -0.05275,-0.0693 -0.17436,-0.02293 -0.270245,0.103037 -0.124434,0.163464 -0.11239,0.372665 0.04207,0.730802 l 0.216411,0.501777 0.05383,-0.604812 c 0.02961,-0.332646 0.01068,-0.661507 -0.04207,-0.730804 z m -0.198619,-0.569984 c 0.275586,-0.274366 0.293079,-0.645381 0.243044,-5.154969 -0.05394,-4.861406 -0.182446,-5.973746 -0.665694,-5.762135 -0.273523,0.119775 -0.761414,2.139986 -0.969277,4.01348 -0.136575,1.230986 -0.135221,2.043036 0.0054,3.231203 0.189805,1.603828 0.777271,3.987309 0.979695,3.974837 0.06044,-0.0038 0.243513,-0.139809 0.40684,-0.302416 z m 4.859118,0.149544 c 0.0392,-0.0878 0.03523,-0.470943 -0.0088,-0.851422 -0.09038,-0.780422 -0.319363,-0.855316 -1.361273,-0.445231 -0.536207,0.211044 -0.626409,0.333649 -0.626409,0.851421 0,0.596718 0.01298,0.604873 0.962614,0.604873 0.529437,0 0.994689,-0.07184 1.033895,-0.159641 z m 30.9233,-1.492299 c 0.316546,-1.203835 0.377192,-1.862233 0.377192,-4.095152 0,-2.269316 -0.05657,-2.864204 -0.384439,-4.044249 -0.211435,-0.760957 -0.409126,-1.419765 -0.439308,-1.464017 -0.03018,-0.04425 -0.622779,0.214279 -1.316873,0.574512 -0.694099,0.360234 -1.713681,0.827472 -2.26574,1.038307 l -1.003746,0.383336 0.643571,1.277132 c 0.74042,1.469321 1.199819,3.234998 1.363223,5.239486 l 0.114205,1.40095 1.158462,0.633585 c 0.63716,0.348472 1.207468,0.601405 1.267363,0.562078 0.05988,-0.03933 0.278634,-0.717016 0.48609,-1.505968 z M 28.98886,38.667348 c 0.6179,-0.39295 1.758115,-1.853425 1.604523,-2.055197 -0.09976,-0.13105 -3.08563,0.603092 -3.234665,0.795313 -0.078,0.100606 -0.09293,0.525323 -0.03317,0.943813 0.09202,0.644341 0.174158,0.760894 0.53625,0.760894 0.235174,0 0.742349,-0.200171 1.127058,-0.444823 z m -2.902389,-1.45785 0.631563,-0.223406 -0.147431,-1.331582 c -0.140973,-1.273256 -0.06067,-4.468411 0.128584,-5.116313 0.0621,-0.212601 -0.05754,-0.346826 -0.386079,-0.433145 -0.261835,-0.0688 -0.666855,-0.187987 -0.900041,-0.264871 l -0.423977,-0.139791 0,3.98367 c 0,3.376552 0.0355,3.965776 0.23291,3.866258 0.1281,-0.06457 0.517111,-0.217945 0.864471,-0.34082 z m 4.338912,-1.135462 c 0.577479,-0.101594 0.853181,-1.004596 0.870518,-2.851189 0.01566,-1.666178 -0.08223,-1.984635 -0.612617,-1.993387 -0.235534,-0.0039 -1.119802,-0.188686 -1.965039,-0.410664 -1.068044,-0.280493 -1.569632,-0.333796 -1.644453,-0.174757 -0.194442,0.413304 -0.329077,2.895164 -0.225171,4.150807 0.193865,2.342734 0.02603,2.169156 1.679154,1.736561 0.792281,-0.207325 1.646204,-0.413143 1.897608,-0.457371 z m 21.383885,-0.314335 c -0.147663,-1.315831 -0.635584,-3.216599 -1.079282,-4.204506 -0.316694,-0.705132 -0.403039,-0.770912 -0.853912,-0.650535 -0.275874,0.07366 -1.048438,0.229464 -1.716809,0.34624 -0.668371,0.116777 -1.41573,0.26471 -1.6608,0.328742 l -0.44558,0.11642 0,1.969399 0,1.969398 1.984857,0.366807 c 1.091673,0.201744 2.240054,0.447517 2.55196,0.546164 0.311906,0.09865 0.739435,0.189162 0.950065,0.201145 0.366179,0.02084 0.377991,-0.02253 0.269501,-0.989274 z m -14.627481,-0.477649 0.931668,-0.0013 0,-1.56454 0,-1.564542 -1.483154,-0.138301 c -2.699507,-0.251724 -2.566461,-0.296823 -2.574688,0.872761 -0.0039,0.556085 -0.108273,1.383946 -0.231912,1.839691 l -0.224799,0.828629 1.325607,-0.135573 c 0.729087,-0.07456 1.74486,-0.136147 2.257278,-0.136849 z m 8.54704,-1.724091 0,-1.935671 -0.769639,0.120544 c -0.423301,0.0663 -1.553455,0.182514 -2.511452,0.258255 l -1.741815,0.137711 0,1.56328 0,1.563281 1.579786,0.06959 c 0.868881,0.03827 1.999035,0.08963 2.511452,0.114136 l 0.931668,0.04455 0,-1.935671 z m -7.658973,-3.465519 c -0.129147,-2.243274 -0.484327,-2.793725 -1.90075,-2.945732 -0.447437,-0.04802 -0.578028,-0.161919 -0.618878,-0.539785 -0.05125,-0.473965 -0.03153,-0.478924 1.903842,-0.478924 l 1.95562,0 0,-0.925316 0,-0.925317 -2.385995,-0.126999 c -1.763399,-0.09386 -2.417405,-0.0607 -2.506371,0.127108 -0.06621,0.13976 -0.311665,1.303501 -0.545464,2.586092 -0.377428,2.070524 -0.402089,2.428498 -0.219952,3.192828 0.327284,1.373436 0.03661,1.257702 3.939356,1.568495 l 0.468967,0.03734 -0.09037,-1.569796 z m 6.70235,1.228778 c 1.020796,-0.133841 0.959954,0.108817 0.621648,-2.479315 l -0.187806,-1.436772 -1.993766,0 c -1.096571,0 -2.1091,0.05814 -2.250062,0.1292 -0.208852,0.105284 -0.256297,0.503993 -0.256297,2.153865 l 0,2.024665 1.579786,-0.136381 c 0.868881,-0.07501 1.987804,-0.189877 2.486497,-0.255262 z m 3.306046,-0.518869 c 1.984532,-0.346251 2.035638,-0.403181 1.202714,-1.339774 -0.730844,-0.821808 -1.976961,-1.534069 -3.094662,-1.768861 -0.563711,-0.118417 -0.657917,-0.08854 -0.578459,0.183479 0.05221,0.178712 0.141218,0.792156 0.19781,1.363207 0.18163,1.832753 0.23628,2.028284 0.536181,1.918346 0.152985,-0.05608 0.934372,-0.216459 1.736416,-0.356397 z M 30.98417,30.690395 c 0,-0.291357 -0.402372,-1.105004 -0.861754,-1.742579 -0.51936,-0.720816 -2.17684,-1.686754 -2.389357,-1.392459 -0.06714,0.09298 -0.232923,0.666542 -0.368396,1.274577 l -0.246315,1.105519 0.839214,0.219856 c 2.350382,0.615753 3.026608,0.735305 3.026608,0.535086 z m -3.948679,-2.008131 c 0.119398,-0.526817 0.218195,-1.029688 0.219548,-1.11749 0.0029,-0.190417 -1.642856,-0.215346 -2.009653,-0.03044 -0.170095,0.08574 -0.256296,0.395278 -0.256296,0.920308 0,0.731863 0.04551,0.808126 0.607609,1.018365 1.006479,0.376441 1.198133,0.27111 1.438792,-0.790743 z m 27.442912,0.290235 c 0.22279,-0.07195 0.932339,-0.414342 1.576773,-0.760879 l 1.171702,-0.630067 -0.22676,-0.576067 c -0.440929,-1.120122 -1.693075,-3.131767 -2.518483,-4.046084 l -0.836038,-0.926092 -1.770992,0.498486 c -0.974045,0.274167 -1.77099,0.561267 -1.77099,0.637998 0,0.07673 0.249329,0.683445 0.554064,1.348252 0.304735,0.664807 0.754322,1.945561 0.999083,2.846121 0.627905,2.310276 0.72141,2.425385 1.661154,2.044953 0.415478,-0.168196 0.937697,-0.364675 1.160487,-0.436621 z m -20.741354,-2.729809 0.43773,-2.236267 -0.501608,-0.10184 c -0.275884,-0.05601 -1.157825,-0.206835 -1.959869,-0.335163 -0.802045,-0.128329 -1.642346,-0.27851 -1.867336,-0.333738 -0.360692,-0.08854 -0.482787,0.06512 -1.032318,1.299208 -0.342782,0.769792 -0.596178,1.425453 -0.563102,1.457025 0.03308,0.03157 0.642885,0.181037 1.355127,0.332148 1.41385,0.299964 2.536936,0.943627 3.147955,1.804154 0.215716,0.303803 0.426743,0.507002 0.468951,0.451554 0.04221,-0.05545 0.273719,-1.107134 0.51447,-2.337081 z m 17.120373,-0.162703 c -1.13902,-3.085192 -1.023574,-2.979822 -2.860186,-2.610533 -0.846603,0.170227 -1.794474,0.312688 -2.10638,0.316581 -0.927581,0.01158 -1.05171,0.219246 -0.777346,1.300524 l 0.234325,0.923491 1.608251,0.35311 c 1.579644,0.346829 2.834291,0.876162 3.957675,1.669733 0.311905,0.220334 0.590813,0.315242 0.619792,0.210906 0.02898,-0.104335 -0.27528,-1.078051 -0.676131,-2.163812 z M 28.08551,25.223366 c 0.19168,-0.497549 0.49277,-1.173558 0.669087,-1.502242 0.176315,-0.328684 0.294392,-0.62189 0.262392,-0.65157 -0.032,-0.02968 -0.831733,-0.274216 -1.777181,-0.543413 -1.302178,-0.37077 -1.797929,-0.433957 -2.044516,-0.26059 -0.392666,0.276068 -2.63664,3.400495 -2.63664,3.671158 0,0.10521 1.165129,0.191292 2.589174,0.191292 l 2.589173,0 0.348511,-0.904635 z m 16.768429,0.381884 c -0.308003,-1.612125 -0.360248,-1.67476 -1.276372,-1.530192 -0.465455,0.07345 -1.520727,0.134378 -2.34505,0.135395 l -1.49877,0.0018 0,0.957849 0,0.957848 2.610032,0 2.610033,0 -0.09987,-0.52275 z m -5.444251,-5.664396 0,-3.845738 -0.364565,0.148698 c -1.069106,0.436061 -2.589683,2.659839 -3.610941,5.280849 l -0.75694,1.942647 0.867454,0.124947 c 0.477098,0.06872 1.541899,0.14056 2.366222,0.159641 l 1.49877,0.0347 0,-3.845739 z m 4.813257,3.553536 c 0.166273,-0.21843 -1.181876,-3.557512 -1.950933,-4.832053 -0.635983,-1.054001 -2.041849,-2.538533 -2.404015,-2.538533 -0.07384,0 -0.13425,1.737711 -0.13425,3.86158 l 0,3.861581 2.194131,-0.109988 c 1.206773,-0.06049 2.239553,-0.169658 2.295067,-0.242587 z m -8.315818,-4.046808 c 0.324503,-0.666403 0.915301,-1.63898 1.312888,-2.161282 0.801995,-1.053569 0.773541,-1.08595 -0.556426,-0.633216 -2.049221,0.697575 -4.113498,2.297148 -5.815209,4.50611 -1.066043,1.383812 -1.074387,1.403519 -0.672842,1.589245 0.223621,0.103432 1.244405,0.314056 2.268408,0.468054 l 1.861822,0.279996 0.505679,-1.418632 c 0.278123,-0.780248 0.77118,-1.963871 1.09568,-2.630275 z m 11.360977,3.692828 c 0.891161,-0.130907 1.724633,-0.282177 1.852159,-0.336158 0.551505,-0.233444 -2.650157,-3.851794 -4.470771,-5.052624 -0.755125,-0.498062 -2.946925,-1.414969 -3.382382,-1.414969 -0.09595,0 0.202086,0.510705 0.662302,1.1349 0.886475,1.202329 2.019857,3.56696 2.463683,5.140108 0.246959,0.875345 0.303859,0.939394 0.760819,0.856427 0.271644,-0.04932 1.22303,-0.196778 2.11419,-0.327684 z m 5.264934,-1.269155 0.694397,-0.245636 -0.792271,-0.745878 c -1.657593,-1.560529 -4.917224,-3.304976 -7.486569,-4.006566 -1.577497,-0.430754 -1.585322,-0.419342 -0.272958,0.398104 1.438427,0.895969 2.812247,2.248506 4.05073,3.987977 l 0.972175,1.365437 1.070051,-0.253902 c 0.588526,-0.139646 1.382527,-0.364437 1.764445,-0.499536 z M 30.676203,20.753406 c 1.294074,-1.666427 2.796043,-3.014061 4.263249,-3.825176 l 0.66255,-0.366277 -0.729131,0.130851 c -1.441383,0.258673 -4.162726,1.389744 -5.782255,2.403277 -1.706537,1.067985 -3.217895,2.303738 -3.064302,2.505509 0.131739,0.173063 2.38427,0.874214 2.866308,0.892202 0.315765,0.01178 0.758113,-0.419851 1.783581,-1.740386 z"
       id="path3200"
       inkscape:connector-curvature="0" />
  </g>
</svg>
