<?xml version="1.0" encoding="UTF-8" standalone="no"?>
<!-- Created with Inkscape (http://www.inkscape.org/) -->

<svg
   xmlns:dc="http://purl.org/dc/elements/1.1/"
   xmlns:cc="http://creativecommons.org/ns#"
   xmlns:rdf="http://www.w3.org/1999/02/22-rdf-syntax-ns#"
   xmlns:svg="http://www.w3.org/2000/svg"
   xmlns="http://www.w3.org/2000/svg"
   xmlns:sodipodi="http://sodipodi.sourceforge.net/DTD/sodipodi-0.dtd"
   xmlns:inkscape="http://www.inkscape.org/namespaces/inkscape"
   width="64px"
   height="64px"
   id="svg3063"
   version="1.1"
   inkscape:version="0.48.3.1 r9886"
   sodipodi:docname="New document 7">
  <defs
     id="defs3065" />
  <sodipodi:namedview
     id="base"
     pagecolor="#ffffff"
     bordercolor="#666666"
     borderopacity="1.0"
     inkscape:pageopacity="0.0"
     inkscape:pageshadow="2"
     inkscape:zoom="2.2706536"
     inkscape:cx="32"
     inkscape:cy="31.999999"
     inkscape:current-layer="layer1"
     showgrid="true"
     inkscape:document-units="px"
     inkscape:grid-bbox="true"
     inkscape:window-width="834"
     inkscape:window-height="655"
     inkscape:window-x="483"
     inkscape:window-y="83"
     inkscape:window-maximized="0" />
  <metadata
     id="metadata3068">
    <rdf:RDF>
      <cc:Work
         rdf:about="">
        <dc:format>image/svg+xml</dc:format>
        <dc:type
           rdf:resource="http://purl.org/dc/dcmitype/StillImage" />
        <dc:title></dc:title>
      </cc:Work>
    </rdf:RDF>
  </metadata>
  <g
     id="layer1"
     inkscape:label="Layer 1"
     inkscape:groupmode="layer">
    <path
       style="fill:#000000"
       d="M 29.590946,57.619589 C 27.708775,57.318737 24.337088,56.228614 22.577241,55.351946 15.177055,51.66554 9.9376937,44.467321 8.643013,36.208082 8.2495193,33.697842 8.5053747,28.291908 9.129117,25.937199 13.325021,10.097102 30.32853,2.1586208 44.673481,9.3424888 53.217417,13.621242 58.631237,22.550226 58.627354,32.356545 c -0.0039,9.931584 -5.808928,19.13284 -14.634369,23.196336 -3.339182,1.537456 -5.767159,2.091802 -9.603187,2.192564 -1.894931,0.04977 -4.054414,-0.0067 -4.798852,-0.125856 z m 7.947741,-0.859463 C 48.893335,54.786899 57.238773,45.241063 57.819296,33.562384 58.18145,26.276747 55.74684,19.841677 50.697907,14.739403 47.383914,11.390398 43.805453,9.3311588 39.311698,8.1871658 36.339963,7.4306378 31.571484,7.3131748 28.729614,7.9264938 19.607793,9.8951228 12.696251,16.426328 10.013841,25.612357 c -1.2194255,4.175966 -1.0997841,10.049552 0.291344,14.303168 2.158905,6.601209 6.583273,11.735938 12.764246,14.813606 4.307788,2.144967 9.566167,2.883064 14.469256,2.030995 z M 29.344852,55.79577 c -3.324032,-0.69862 -6.23229,-1.921013 -8.885802,-3.734864 -1.609053,-1.099897 -3.172851,-2.438597 -3.172851,-2.716144 0,-0.106578 2.132837,-2.317142 4.739637,-4.912354 4.391965,-4.372444 4.804363,-4.718573 5.62204,-4.718573 1.103018,0 1.765567,-0.675652 1.80621,-1.841938 0.02467,-0.70787 0.30655,-1.135783 1.614599,-2.450991 l 1.584714,-1.593391 1.54496,1.525931 c 1.243604,1.228283 1.544962,1.676328 1.544962,2.296973 0,1.19233 0.826183,2.063416 1.957048,2.063416 0.89389,0 1.153167,0.22159 5.642322,4.82209 l 4.705377,4.822083 0,-4.777861 0,-4.777861 0.615237,-0.533091 c 0.440523,-0.3817 0.615237,-0.780627 0.615237,-1.404767 0,-0.614778 -0.181324,-1.039151 -0.615237,-1.439897 -0.591848,-0.546607 -0.615237,-0.682604 -0.615237,-3.577501 0,-2.894897 0.02338,-3.030897 0.615237,-3.577504 0.433913,-0.400745 0.615237,-0.825116 0.615237,-1.439892 0,-0.624144 -0.174714,-1.023071 -0.615237,-1.404774 -0.593241,-0.51403 -0.615084,-0.63892 -0.610985,-3.493095 0.0041,-2.830611 0.03096,-2.985246 0.615238,-3.537539 1.262621,-1.193502 0.429241,-3.223731 -1.3233,-3.223731 -0.520015,0 -1.008005,0.212136 -1.41037,0.613108 -0.584352,0.58233 -0.756183,0.613108 -3.422957,0.613108 -2.666773,0 -2.838604,-0.03078 -3.422956,-0.613108 -0.831537,-0.82866 -2.071276,-0.82866 -2.852464,0 -0.558043,0.591953 -0.686502,0.613108 -3.723137,0.613108 -3.0267,0 -3.16832,-0.02308 -3.760388,-0.613108 -0.812878,-0.810065 -1.936646,-0.812321 -2.746259,-0.0055 -0.597883,0.595814 -0.695452,0.608892 -5.031248,0.674418 l -4.421539,0.06682 4.640743,4.636456 c 4.457384,4.453267 4.639763,4.673604 4.616002,5.57669 -0.03245,1.233215 0.727754,2.033384 1.900353,2.000262 0.716557,-0.02023 1.063041,0.202978 2.396991,1.544233 l 1.559356,1.567893 -1.222289,1.276382 c -1.705142,1.7806 -1.874658,1.893098 -2.62748,1.743683 -0.521278,-0.103465 -0.83611,0.0363 -1.441823,0.639878 -0.635626,0.633427 -0.75274,0.91411 -0.651512,1.561458 0.117058,0.748581 -0.11881,1.03228 -4.581135,5.51015 -2.587502,2.596514 -4.783997,4.720931 -4.881102,4.720931 -0.298353,0 -2.290061,-2.730813 -3.219611,-4.414377 -2.137093,-3.870628 -3.039951,-7.974993 -2.824576,-12.84046 0.163537,-3.694415 0.771648,-6.08428 2.388777,-9.38788 6.929359,-14.1558812 25.069687,-17.5930132 36.742354,-6.961778 3.69183,3.362446 6.580711,8.890258 7.335885,14.037063 0.35185,2.397974 0.159009,7.011789 -0.38601,9.235539 -0.985593,4.021368 -3.038787,7.747977 -5.96459,10.825907 -3.128981,3.291668 -6.763808,5.473322 -11.028929,6.619649 -2.519244,0.677088 -7.629217,0.874483 -9.959492,0.384723 z M 43.080703,42.476581 c -3.429198,-3.436078 -3.612164,-3.668377 -3.580964,-4.54649 0.04246,-1.195032 -0.682469,-1.961163 -1.895404,-2.00314 -0.722178,-0.025 -1.138236,-0.28771 -2.353516,-1.486148 -0.811941,-0.800692 -1.476257,-1.550216 -1.476257,-1.66561 0,-0.115402 0.619932,-0.85751 1.377629,-1.649124 1.250133,-1.306093 1.466711,-1.435755 2.340203,-1.401043 1.295641,0.05149 2.028954,-0.669804 2.04999,-2.01638 0.01459,-0.934129 0.1976,-1.168238 3.45744,-4.422921 1.893117,-1.890121 3.526572,-3.436583 3.6299,-3.436583 0.103328,0 0.187869,1.347759 0.187869,2.995015 0,2.960522 -0.0077,3.001104 -0.664939,3.523387 -0.910123,0.723195 -0.896969,2.174195 0.02689,2.966115 0.622377,0.533492 0.638048,0.621059 0.638048,3.565235 0,2.770828 -0.04109,3.043885 -0.501216,3.33024 -1.098287,0.683517 -1.08281,2.391023 0.02943,3.246347 0.447573,0.344191 0.481662,0.629483 0.418027,3.49847 l -0.06928,3.123716 -3.613842,-3.621086 z M 31.063706,30.268146 c -1.312557,-1.319746 -1.576841,-1.720482 -1.515977,-2.298711 0.110662,-1.051343 -0.842259,-2.038262 -1.968048,-2.038262 -0.811692,0 -1.144922,-0.263457 -3.929055,-3.106385 -1.67318,-1.708513 -3.253107,-3.352869 -3.510952,-3.654123 l -0.46881,-0.547738 2.974698,0 c 2.759088,0 2.986027,0.03557 3.130997,0.490746 0.374123,1.174683 2.604161,1.252513 3.126929,0.10913 0.270551,-0.59174 0.317843,-0.599876 3.486284,-0.599876 3.194712,0 3.214867,0.0036 3.741833,0.662157 0.40695,0.508599 0.744644,0.662156 1.45618,0.662156 0.701236,0 1.065261,-0.160921 1.497906,-0.662156 0.562104,-0.651225 0.620497,-0.662157 3.536483,-0.662157 1.630721,0 2.964945,0.07575 2.964945,0.168339 0,0.09259 -1.574715,1.747981 -3.499365,3.678648 -3.213219,3.223268 -3.57193,3.510307 -4.38681,3.510307 -1.155201,0 -1.957623,0.813577 -1.957623,1.984837 0,0.717076 -0.241032,1.087692 -1.544962,2.375557 l -1.54496,1.525923 -1.589693,-1.598392 z"
       id="path3050"
       inkscape:connector-curvature="0" />
  </g>
</svg>
