<?xml version="1.0" encoding="UTF-8" standalone="no"?>
<!-- Created with Inkscape (http://www.inkscape.org/) -->

<svg
   xmlns:dc="http://purl.org/dc/elements/1.1/"
   xmlns:cc="http://creativecommons.org/ns#"
   xmlns:rdf="http://www.w3.org/1999/02/22-rdf-syntax-ns#"
   xmlns:svg="http://www.w3.org/2000/svg"
   xmlns="http://www.w3.org/2000/svg"
   xmlns:sodipodi="http://sodipodi.sourceforge.net/DTD/sodipodi-0.dtd"
   xmlns:inkscape="http://www.inkscape.org/namespaces/inkscape"
   width="64px"
   height="64px"
   id="svg3079"
   version="1.1"
   inkscape:version="0.48.3.1 r9886"
   sodipodi:docname="orga-jhas.svg">
  <defs
     id="defs3081" />
  <sodipodi:namedview
     id="base"
     pagecolor="#ffffff"
     bordercolor="#666666"
     borderopacity="1.0"
     inkscape:pageopacity="0.0"
     inkscape:pageshadow="2"
     inkscape:zoom="1.8319513"
     inkscape:cx="88.023691"
     inkscape:cy="43.412873"
     inkscape:current-layer="layer1"
     showgrid="true"
     inkscape:document-units="px"
     inkscape:grid-bbox="true"
     inkscape:window-width="819"
     inkscape:window-height="670"
     inkscape:window-x="16"
     inkscape:window-y="0"
     inkscape:window-maximized="0" />
  <metadata
     id="metadata3084">
    <rdf:RDF>
      <cc:Work
         rdf:about="">
        <dc:format>image/svg+xml</dc:format>
        <dc:type
           rdf:resource="http://purl.org/dc/dcmitype/StillImage" />
        <dc:title></dc:title>
      </cc:Work>
    </rdf:RDF>
  </metadata>
  <g
     id="layer1"
     inkscape:label="Layer 1"
     inkscape:groupmode="layer">
    <path
       style="fill:#000000"
       d="m 25.353094,52.200102 c -2.045217,-1.211685 -3.387458,-2.616229 -4.446986,-4.653396 -0.821037,-1.578609 -0.863538,-3.45871 -0.168666,-7.46064 0.06606,-0.380436 1.373803,-1.776878 2.906096,-3.103205 l 2.785997,-2.411502 -1.945481,-1.135799 c -2.71509,-1.58511 -3.951622,-3.612798 -4.040695,-6.626007 -0.09622,-3.254763 0.855975,-3.36771 2.712612,-0.321764 1.025142,1.681818 2.087483,2.559619 4.172311,3.447542 1.538336,0.655176 2.938326,1.070799 3.111082,0.923606 0.172762,-0.147192 -0.659145,-3.052374 -1.848681,-6.455958 -2.10596,-6.025747 -3.809897,-11.271075 -3.809897,-11.72823 0,-0.638844 1.607731,-0.04223 4.1194,1.528672 1.543227,0.9652 2.968392,1.754909 3.167029,1.754909 0.198638,0 1.61966,-0.759821 3.157834,-1.68849 3.317629,-2.003022 4.375032,-1.908333 3.851397,0.344888 -0.338203,1.455311 -0.283374,1.533236 0.628903,0.893833 1.604947,-1.124888 3.90698,0.02008 3.90698,1.943228 0,0.833227 0.264818,1.514958 0.588485,1.514958 1.029662,0 0.639666,1.239117 -1.144363,3.635958 -1.038301,1.394959 -1.39211,2.216675 -0.882729,2.050131 0.656945,-0.214788 0.850121,0.194524 0.850121,1.801283 0,2.610885 -1.674283,5.447596 -4.11997,6.980397 l -1.883719,1.180595 2.179856,1.530931 c 6.256109,4.393719 5.663739,12.457579 -1.189559,16.19328 -1.643828,0.896047 -1.700276,0.898363 -0.897258,0.0368 1.078206,-1.156777 1.301313,-2.322428 0.444513,-2.322428 -0.450898,0 -0.43472,-0.186928 0.05208,-0.601683 0.790065,-0.673149 0.940194,-1.435407 0.264818,-1.344549 -0.24275,0.03266 -1.368229,-0.0087 -2.501064,-0.09195 -1.134643,-0.08336 0.05473,-0.293925 2.648186,-0.468833 l 4.707885,-0.317508 -4.287224,-0.09195 c -4.380736,-0.09395 -7.31193,0.781348 -6.954943,2.076853 0.08926,0.323907 0.0512,0.41969 -0.08455,0.212861 -0.54352,-0.828052 -2.940793,-0.328319 -3.607941,0.752104 -0.546321,0.88476 -0.619799,0.911806 -0.340569,0.125351 0.420138,-1.183306 0.428842,-1.244567 0.338533,-2.381661 -0.05438,-0.68479 -0.554248,-0.859836 -2.27651,-0.797212 -2.188561,0.07958 -2.190903,0.08192 -0.283073,0.283179 1.058067,0.111615 1.768016,0.417633 1.577677,0.68004 -0.190346,0.262407 -0.5926,0.347292 -0.893904,0.188632 -0.792555,-0.417341 -0.673475,0.465894 0.158361,1.174637 0.48679,0.414755 0.502967,0.601683 0.05208,0.601683 -1.004568,0 -0.532273,1.415576 0.747448,2.240273 1.608955,1.036866 0.244663,0.9527 -1.521883,-0.09389 z M 25.102017,49.7866 c -0.179306,-1.391723 -0.904273,-2.334932 -0.918726,-1.195306 -0.0075,0.593823 -0.0988,0.589356 -0.55649,-0.02726 -0.30111,-0.405672 -0.715445,-0.594472 -0.920739,-0.419557 -0.43296,0.368893 1.392793,2.912047 2.090584,2.912047 0.257945,0 0.395362,-0.571464 0.305371,-1.269923 z m 15.273641,-0.234285 c 0.519897,-0.856592 0.653083,-1.504207 0.309355,-1.504207 -0.331977,0 -0.607653,0.282039 -0.612608,0.626754 -0.006,0.417837 -0.199167,0.37605 -0.579476,-0.125351 -0.313757,-0.413657 -0.608318,-0.526473 -0.654578,-0.250701 -0.533604,3.180741 0.06926,3.672307 1.537307,1.253505 z m -6.767605,-4.57658 c 1.2e-5,-0.173062 -0.39721,-0.595544 -0.882711,-0.938849 -1.432533,-1.012965 -1.021316,-1.88887 1.176972,-2.507014 1.132836,-0.318545 2.059701,-0.787305 2.059701,-1.04169 0,-0.650653 -0.418042,-0.58079 -2.081499,0.347861 -0.798375,0.445708 -2.09169,0.706124 -2.874023,0.578701 -1.360249,-0.221549 -1.432262,-0.09807 -1.647383,2.824792 -0.123729,1.681057 -0.130049,3.225018 -0.01407,3.431023 0.22319,0.396373 4.262967,-2.157345 4.262996,-2.694824 z M 22.537185,47.20419 c -0.424816,-0.14484 -0.932385,-0.127027 -1.127933,0.03959 -0.195548,0.166612 0.152029,0.285118 0.772387,0.263347 0.685557,-0.02406 0.824998,-0.14287 0.355546,-0.302931 z m 1.06663,-1.191284 c 0,-0.298953 0.321454,-0.360217 0.735607,-0.140195 1.444238,0.767267 3.383792,0.556755 3.383792,-0.367264 0,-0.485975 -0.331023,-0.997396 -0.735607,-1.136491 -0.50485,-0.173568 -0.458701,-0.267727 0.147122,-0.300163 0.784645,-0.04201 0.784645,-0.101268 0,-0.53331 -0.588486,-0.324031 -0.637524,-0.488606 -0.147122,-0.493725 0.404584,-0.0042 0.735607,-0.346124 0.735607,-0.759782 0,-0.501402 -0.588485,-0.752104 -1.765457,-0.752104 -0.971001,0 -1.765457,0.234527 -1.765457,0.521172 0,0.302107 -0.338714,0.251584 -0.805836,-0.120199 -0.606176,-0.48246 -0.65379,-0.92569 -0.19217,-1.788907 0.383121,-0.716431 0.765631,-0.938031 1.01818,-0.589865 0.570172,0.786038 1.220937,-0.806191 0.753597,-1.843835 -0.312345,-0.693516 -0.524259,-0.638163 -1.439654,0.376052 -0.590375,0.654098 -1.079288,1.471309 -1.086486,1.816023 -0.0072,0.344715 -0.220146,0.626754 -0.473219,0.626754 -0.253072,0 -0.513948,0.553991 -0.579717,1.231092 -0.06577,0.677101 -0.154889,1.410402 -0.198043,1.629559 -0.04314,0.219157 -0.04708,1.018953 -0.0088,1.777324 0.05179,1.024797 0.371911,1.378858 1.24666,1.378858 0.647334,0 1.176971,-0.238948 1.176971,-0.530994 z m -1.471214,-1.474617 c -0.200038,-0.275772 -0.08326,-0.501403 0.25951,-0.501403 0.342769,0 0.623218,0.225631 0.623218,0.501403 0,0.275771 -0.116779,0.501403 -0.25951,0.501403 -0.142732,0 -0.42318,-0.225632 -0.623218,-0.501403 z m -0.294243,-1.223916 c 0,-0.121611 0.264818,-0.360558 0.588486,-0.530994 0.323667,-0.170436 0.588485,-0.07094 0.588485,0.22111 0,0.292047 -0.264818,0.530994 -0.588485,0.530994 -0.323668,0 -0.588486,-0.0995 -0.588486,-0.22111 z m 15.977499,0.989205 0.08839,-2.021602 0.352974,2.005611 c 0.320689,1.822147 0.527936,2.020012 2.265558,2.163037 1.97936,0.162922 2.164962,-0.08237 2.016105,-2.664439 -0.129561,-2.247339 -0.38424,-3.259118 -0.820367,-3.259118 -0.253072,0 -0.466022,-0.282039 -0.473219,-0.626754 -0.0072,-0.344714 -0.496111,-1.161925 -1.086486,-1.816023 -0.915395,-1.014215 -1.127309,-1.069568 -1.439659,-0.376052 -0.481835,1.069844 0.183072,2.630367 0.773776,1.816023 0.299498,-0.412888 0.530131,-0.351377 0.782362,0.208661 0.251701,0.558856 0.01442,0.794145 -0.800829,0.794145 -0.637177,0 -1.158504,-0.325131 -1.158504,-0.722513 0,-0.397383 -0.281708,-0.870855 -0.62602,-1.052161 -0.420414,-0.221381 -0.504391,0.222757 -0.255685,1.35229 0.339327,1.541104 0.215933,1.731595 -1.473662,2.274973 -1.648462,0.530147 -1.772556,0.706787 -1.170215,1.665715 0.370581,0.589974 0.530743,1.390281 0.355916,1.778459 -0.226455,0.502795 0.09901,0.676381 1.131652,0.603564 1.26419,-0.08915 1.460827,-0.360697 1.537913,-2.123816 z m -1.310381,0.861464 c -0.02477,-0.206828 -0.133586,-0.77001 -0.241833,-1.251516 -0.10824,-0.481505 0.04443,-1.002491 0.339274,-1.157747 0.294837,-0.155256 0.536069,0.407926 0.536069,1.251516 0,0.843589 -0.132409,1.533799 -0.294242,1.533799 -0.161834,0 -0.314505,-0.169223 -0.339268,-0.376052 z m 2.774639,-0.376052 c -0.186303,-0.413657 -0.08222,-0.752104 0.231287,-0.752104 0.313504,0 0.570013,0.338447 0.570013,0.752104 0,0.413658 -0.10408,0.752104 -0.231281,0.752104 -0.127207,0 -0.38371,-0.338446 -0.570019,-0.752104 z M 40.6699,44.56788 c 0,-0.292046 0.264819,-0.530994 0.588486,-0.530994 0.323667,0 0.588486,0.0995 0.588486,0.22111 0,0.121611 -0.264819,0.360558 -0.588486,0.530994 -0.323667,0.170437 -0.588486,0.07094 -0.588486,-0.22111 z m -1.765457,-1.224619 c 0,-0.105722 0.529637,-0.31023 1.176972,-0.454461 0.647334,-0.144232 1.176971,-0.05773 1.176971,0.192222 0,0.249954 -0.529637,0.454461 -1.176971,0.454461 -0.647335,0 -1.176972,-0.0865 -1.176972,-0.192222 z M 27.455159,40.563166 c -0.471253,-0.649663 1.775044,-1.176377 3.280608,-0.769241 1.452158,0.392695 4.182681,-0.682915 3.638414,-1.433246 -0.229829,-0.316833 0.03296,-0.379067 0.69147,-0.163763 0.584196,0.191003 1.568444,0.210371 2.187225,0.04304 0.951993,-0.257439 1.007129,-0.428247 0.358458,-1.110423 -0.646545,-0.679937 -0.628355,-0.745871 0.116138,-0.421036 0.485501,0.211834 0.273981,-0.07196 -0.470041,-0.63066 -2.00563,-1.506054 -3.841654,-0.760753 -4.301461,1.746103 -0.283762,1.54709 -0.375142,1.659422 -0.441364,0.542573 -0.05014,-0.845789 -0.331077,-1.278083 -0.703223,-1.082118 -0.340845,0.179481 -1.100156,-0.145649 -1.687365,-0.722513 -1.289949,-1.267236 -3.142378,-1.354801 -4.241328,-0.200491 -0.696626,0.731726 -0.686309,0.787425 0.07507,0.405155 0.779202,-0.391221 0.781398,-0.336922 0.01871,0.462986 -0.78235,0.820549 -0.754544,0.886059 0.294243,0.693223 0.63703,-0.117128 1.085474,-0.49837 0.996536,-0.847205 -0.08894,-0.348834 0.113995,-0.489066 0.450962,-0.311627 0.336967,0.177439 0.460308,0.532657 0.274093,0.789373 -0.186214,0.256716 -0.06643,0.466757 0.266178,0.466757 0.332612,0 0.434338,0.378357 0.226067,0.840795 -0.338838,0.752326 -0.425422,0.739137 -0.822897,-0.125351 -0.244322,-0.53138 -0.462832,-0.67079 -0.485583,-0.309801 -0.02278,0.36099 -0.324003,0.507511 -0.669456,0.325603 -0.345452,-0.181908 -0.769856,0.131138 -0.943118,0.695658 -0.173268,0.564519 -0.751285,1.125126 -1.284488,1.245792 -0.533197,0.120667 0.03925,0.245567 1.2721,0.277557 1.244794,0.0323 2.091466,-0.148744 1.904033,-0.40714 z m 3.84543,-1.749226 c -0.02554,-0.528561 0.113531,-0.824703 0.309085,-0.658091 0.195547,0.166612 0.216451,0.599072 0.04649,0.961022 -0.187862,0.399986 -0.32731,0.281175 -0.355545,-0.302931 z m 3.337333,-1.139517 c -1.503947,-0.334864 -1.258248,-0.958018 0.377732,-0.958018 0.913159,0 1.304461,0.228956 1.114009,0.651824 -0.161463,0.358503 -0.331441,0.62565 -0.377731,0.59366 -0.04631,-0.03199 -0.547592,-0.161349 -1.11401,-0.287466 z m 2.52777,-4.684601 c 2.011297,-1.220238 3.785193,-3.264032 4.337828,-4.997825 0.365067,-1.145311 0.339715,-1.16695 -0.293702,-0.250701 -1.31952,1.908729 -4.659317,3.597447 -4.659317,2.355915 0,-0.220989 1.432521,-2.4673 3.183383,-4.991801 l 3.183384,-4.590003 -2.29946,0.783913 c -1.264703,0.431153 -2.64805,0.669942 -3.074102,0.530644 -0.542113,-0.177245 -1.36378,1.273984 -2.737318,4.834642 -1.079478,2.798352 -2.189333,5.303455 -2.466339,5.566896 -0.896734,0.852804 -6.875525,-1.256973 -8.76896,-3.094362 -1.876145,-1.82061 -2.252364,-1.450104 -0.858883,0.845838 0.976504,1.608917 3.651836,3.398607 6.065198,4.057378 2.341402,0.639129 6.451741,0.124358 8.388288,-1.050534 z M 35.051463,21.616354 c 1.421487,-3.525571 2.784179,-6.845672 3.028194,-7.378005 0.328099,-0.715757 -0.295202,-0.48719 -2.392824,0.877455 -1.560077,1.014933 -3.234577,1.845332 -3.721114,1.845332 -0.486536,0 -2.075859,-0.831689 -3.531826,-1.848198 -1.455966,-1.016509 -2.507349,-1.524179 -2.336406,-1.128156 0.170944,0.396023 1.456332,4.048808 2.856421,8.117301 1.701448,4.944214 2.706016,7.153049 3.029319,6.660829 0.266042,-0.405037 1.646741,-3.620988 3.068236,-7.146558 z m 5.029952,-1.593157 c 0,-0.246267 -0.397228,-0.577632 -0.882729,-0.736368 -0.4855,-0.158735 -0.890779,-0.690546 -0.900624,-1.1818 -0.01701,-0.847758 -0.04943,-0.847009 -0.63773,0.01472 -0.34091,0.49935 -0.473578,1.232651 -0.29482,1.629559 0.349926,0.776951 2.715903,1.015554 2.715903,0.273893 z m 2.206992,-2.435044 c 0.32176,-0.823367 -1.522107,-1.411118 -2.312973,-0.737283 -0.338438,0.288361 -0.428358,0.782076 -0.199814,1.097145 0.519956,0.716814 2.185235,0.478326 2.512787,-0.359862 z M 29.652359,52.435381 c -1.35902,-1.497179 -1.41801,-2.043974 -0.11146,-1.033161 1.970957,1.524826 1.87518,1.511965 3.694755,0.496158 1.620314,-0.904565 1.629459,-0.903402 0.983265,0.125351 -0.737861,1.174686 -3.636741,1.436007 -4.56656,0.411652 z m 5.874153,-2.155025 C 35.125147,49.909093 35.031196,49.481883 35.317723,49.331 c 0.286528,-0.150877 0.687358,0.09512 0.890721,0.546665 0.486783,1.080814 0.220899,1.237823 -0.681932,0.402691 z M 14.720836,37.566713 C 10.120844,33.500515 9.2143228,31.309549 9.2033238,24.231476 c -0.0095,-6.152896 0.63896,-8.423418 3.1148902,-10.90551 1.3843,-1.38775 2.145024,-1.065649 4.440707,1.88026 2.455821,3.151403 1.97807,3.812554 -0.528278,0.731076 -1.187864,-1.460436 -1.783141,-1.845661 -2.130724,-1.378857 -0.880269,1.182206 -0.569454,1.987549 0.640772,1.660279 0.775059,-0.209593 1.334768,-3.08e-4 1.744748,0.652389 0.730252,1.162569 0.315647,1.594231 -1.531216,1.594231 -1.515321,0 -2.280005,1.035871 -1.705814,2.310764 0.30197,0.67047 0.67896,0.543572 2.23438,-0.752104 1.029115,-0.857263 2.284278,-1.557173 2.789252,-1.555356 0.586343,0.0021 0.348913,0.323157 -0.657021,0.88841 -1.489698,0.837089 -5.01082,4.204227 -3.643638,3.484301 0.427676,-0.225206 0.750331,0.6561 0.959396,2.620526 0.3597,3.379844 2.672955,7.451888 5.305416,9.339178 l 1.688712,1.210685 -1.039259,2.006958 c -1.394017,2.692066 -2.717815,2.595008 -6.164811,-0.451993 z m 2.453573,-1.090572 C 13.020783,32.93716 10.805829,27.514373 11.485695,22.548694 11.698791,20.99228 12.01,18.816326 12.177271,17.71324 l 0.304136,-2.005611 -0.988309,1.75491 c -0.704447,1.250875 -1.006281,3.195009 -1.0509,6.768937 -0.05602,4.488768 0.103615,5.30358 1.524013,7.778032 1.647777,2.870573 6.450715,7.485609 6.816729,6.550047 0.115055,-0.294075 -0.608788,-1.231611 -1.608531,-2.083414 z m 1.450517,-1.783603 C 15.957185,32.230345 14.37473,29.467556 13.634827,25.980397 l -0.583855,-2.751726 0.29372,2.986642 c 0.341039,3.467741 2.023296,6.624614 4.853129,9.107225 2.697636,2.36663 3.073378,1.812383 0.427105,-0.63 z m 25.173729,4.455671 c -0.200874,-0.4826 -0.770004,-1.278675 -1.264738,-1.769055 -0.825239,-0.817982 -0.701457,-1.066387 1.49912,-3.008417 3.50914,-3.096849 4.877234,-5.754615 5.000145,-9.71369 0.10036,-3.232696 0.03902,-3.386216 -1.906906,-4.77033 l -2.010596,-1.430139 1.039148,-1.644051 c 0.571537,-0.904229 1.65847,-2.305814 2.41541,-3.114635 1.216252,-1.299608 1.491976,-1.388755 2.371585,-0.766771 2.767576,1.956998 4.906786,9.294212 4.171556,14.307958 -0.50448,3.440204 -3.12892,8.086632 -6.040563,10.694479 -2.469797,2.212104 -4.650001,2.714209 -5.274161,1.214651 z m 8.291214,-7.14499 c 1.61254,-2.952114 1.74738,-12.254462 0.21804,-15.042083 l -0.962785,-1.75491 0.400123,1.75491 c 0.220072,0.9652 0.394492,4.236853 0.387602,7.27034 -0.0142,6.249802 -0.782905,8.087188 -5.023368,12.006799 -1.267251,1.171364 -2.109097,2.29741 -1.870772,2.502325 0.64854,0.55762 5.440379,-4.154637 6.85116,-6.737381 z m -3.466267,0.250702 c 1.599745,-2.332825 2.776822,-7.165461 2.015075,-8.273146 -0.348031,-0.506084 -0.527295,0.06796 -0.548034,1.75491 -0.03731,3.033133 -1.519087,5.974017 -4.360072,8.653312 -1.165031,1.098728 -2.118242,2.181777 -2.118242,2.406777 0,0.763206 3.628449,-2.525358 5.011273,-4.541853 z m 2.234909,-12.134493 c -0.296138,-1.881125 -0.436238,-2.029958 -1.41875,-1.507166 -0.825457,0.439221 -1.255611,0.439119 -1.771483,-4.19e-4 -0.960497,-0.818364 -0.203205,-2.15211 1.221955,-2.15211 0.803112,0 1.195438,-0.329104 1.195438,-1.002806 0,-1.528015 -0.973403,-1.20428 -2.638329,0.877455 l -1.503792,1.880261 1.923942,1.365369 c 1.058162,0.750954 2.12255,1.37144 2.3653,1.378858 0.24275,0.0074 0.441364,0.38954 0.441364,0.84916 0,0.459618 0.115408,0.737339 0.256468,0.617155 0.141054,-0.120183 0.108605,-1.157774 -0.07211,-2.305757 z M 29.166169,12.732835 c -1.753346,-2.27996 0.970572,-4.4348772 4.080036,-3.2277602 1.676786,0.6509402 2.129325,2.7411712 0.832654,3.8459612 -1.231494,1.049262 -3.887389,0.715051 -4.91269,-0.618201 z m 4.70878,-0.748 c 0.471536,-0.650064 -1.410123,-2.1230892 -2.48205,-1.943032 -0.492445,0.08272 -1.188553,0.558465 -1.546911,1.057217 -0.51968,0.723277 -0.426658,1.049175 0.459584,1.610131 1.105441,0.699701 2.783425,0.359196 3.569377,-0.724316 z"
       id="path3782"
       inkscape:connector-curvature="0" />
  </g>
</svg>
