<?xml version="1.0" standalone="no"?>
<!DOCTYPE svg PUBLIC "-//W3C//DTD SVG 1.1//EN" "http://www.w3.org/Graphics/SVG/1.1/DTD/svg11.dtd" >
<svg viewBox="0 -256 1792 1792">
  <g transform="matrix(1 0 0 -1 0 1536)">
   <path fill="currentColor"
d="M753 1445h45q287 -111 479 -288l45 29h75l45 -44q-51 -86 -90 -86q60 -253 60 -375q-125 -389 -225 -389l-30 29q165 137 165 346v72l-45 216h-15q-239 -164 -239 -447v-14q0 -129 74 -361q-170 -80 -329 -86q-734 100 -734 634v58q0 188 150 389l-15 72q50 0 359 159z
M334 1186q212 -274 434 -274h30q213 0 389 173q-92 109 -194 158q0 -288 -195 -288q-225 0 -225 303l15 43q-123 0 -254 -115zM214 1085q-90 -196 -90 -317v-44q0 -256 255 -446h14q0 151 90 403v43q0 81 -269 361z" />
  </g>

</svg>
