<?xml version="1.0" standalone="no"?>
<!DOCTYPE svg PUBLIC "-//W3C//DTD SVG 1.1//EN" "http://www.w3.org/Graphics/SVG/1.1/DTD/svg11.dtd" >
<svg viewBox="-157 -256 1796 1792">
  <g transform="matrix(1 0 0 -1 0 1536)">
   <path fill="currentColor"
d="M1340 976q278 0 417 -280q26 -49 39 -160h-9l-30 124h-65l-78 -297h56q13 71 26 71h52q13 0 26 -71q-126 -325 -442 -325q-223 0 -374 209q-42 63 -60 138h4q33 -31 74 -31q91 13 91 84v218h-57v-205q-4 -48 -34 -48q-35 4 -35 35v218h-26l-4 4h-5q55 163 217 263
q108 53 217 53zM-70 967h17q79 0 91 -107q-20 -93 -91 -93h-17q-87 18 -87 89v22q18 89 87 89zM286 967h17q75 0 91 -102q-17 -98 -91 -98h-17q-74 0 -91 102q20 98 91 98zM655 967h4q100 -10 100 -89v-22q-19 -89 -87 -89h-26q-62 0 -83 98v9q21 93 92 93zM668 669l4 -4v-5
l-4 -4l-18 4q-17 0 -74 -31l13 -13q23 18 96 35v-4l-4 -4v-5l39 -9l4 5q7 -18 13 -18l9 13q-33 22 -70 31v5h5q85 0 112 -120v-14q0 -93 -95 -128l-26 -5h-9q-87 0 -126 85l-8 40v22q0 95 130 124h9zM1093 656v-293h52v168h9q70 -156 82 -168h44v293h-53v-160h-8
q-56 143 -74 160h-52zM1306 656v-293h56v111l9 9h56v44l-9 9h-47l-9 9v53l9 9h73v49h-138zM1471 656v-293h56v93q0 12 65 22q48 26 48 93q0 72 -87 85h-82zM772 651q39 -18 48 -35v-40h-5q-35 23 -35 40h5l4 -5h4v5q-26 18 -26 35h5zM546 647h9q-10 -24 -31 -36h-4v5
q8 20 26 31zM598 607l13 -13q0 14 48 22v18q-34 0 -61 -27zM668 634l-5 -5v-13l48 -9v4q0 14 -43 23zM798 629v-4q5 -27 13 -27v5l-9 26h-4zM516 629h4l-9 -31h5l26 18v-9l-31 -31h5l4 4h4v-9l-21 -40h-5q-13 4 -13 36v22l9 9l4 -40l5 5h4l-4 22v18q3 26 13 26zM568 620
q-31 -50 -31 -75v-9h18q0 28 26 75zM750 620l-9 -13q26 -31 26 -71h18v9q0 41 -35 75zM616 585l8 -9l35 18l39 -18l9 13v5l-39 13v-9h-9v9h-4q-39 -10 -39 -22zM1536 611q47 -3 47 -40v-17q0 -40 -47 -40l-9 9v80zM-70 607h17q77 0 91 -102q-17 -98 -91 -98h-17
q-87 18 -87 89v22q18 89 87 89zM286 607h17q75 0 91 -102q-17 -98 -91 -98h-17q-74 0 -91 102q20 98 91 98zM563 540v-4h18q0 29 22 53l-14 9q-26 -22 -26 -58zM724 589q17 -21 17 -53h18v4q0 33 -31 49h-4zM828 594h9v-27q0 -32 -13 -36l-31 54h5q22 -12 22 -27h4zM603 580
l-14 -40v-4h5l26 35l-13 9h-4zM633 567l13 -4l13 4v13q-26 -4 -26 -13zM668 576l-5 -5v-4l22 -4l4 4v4l-21 9v-4zM707 571v-4l17 -9h4l-8 22h-5zM1718 576h9l17 -98h-39l-4 5h-5zM646 536l13 -13l-4 -5v-9h4l17 14q-5 26 -13 26h-4zM477 545q10 0 17 -36h4l13 36h9l-13 -67
h-4q-26 26 -26 49v18zM850 545q0 -40 -26 -62h-4l-14 57h9l9 -26q7 0 17 31h9zM537 527v-9l5 -22l17 13l-4 18h-18zM563 527v-18l18 18h-18zM594 523q11 -36 17 -36l9 13q-9 0 -17 27l-5 -4h-4zM741 527q0 -26 -17 -49v-4h9l4 -5l4 5q18 26 18 49v4h-18zM767 527
q0 -37 -26 -67l13 -13q31 40 31 71v9h-18zM620 518v-4l9 -9v4zM711 505l4 -18q10 0 13 22h-8l-5 -4h-4zM633 496l22 -9l4 4v5l-9 9h-8zM520 496h4v-9l5 -53h-5q-47 27 -47 57h4l30 -31q0 36 9 36zM802 496h9v-36l35 36v-5q0 -33 -48 -57h-5zM546 487v-4q16 -34 26 -36h4
l5 18zM620 487l-4 -4v-5q4 -13 26 -13l4 13zM603 460v-4q18 -22 52 -22l4 4l4 -4h13q0 14 -56 26v5zM533 460h9l26 -57l-5 -5q-41 0 -69 40v9q34 -27 48 -27zM789 460v-13l-9 -27h5l48 31v-8q-24 -40 -70 -40v-9l35 9v-5l-22 -18v-4l-56 9v4l43 40h4l-21 -35h13q18 66 30 66
zM576 438q47 -31 74 -31h5l4 4l4 -4h9q42 0 74 36l-13 8q-24 -26 -52 -26l-18 -5q-44 9 -74 31zM559 429h4l44 -40v-4l-31 -5h-17q-24 0 -35 18v5l39 -9h18q-22 23 -22 35zM620 389h22v-9l-53 -22h-4q-23 0 -26 13q39 0 61 18zM650 389h44q51 -18 73 -18q0 -13 -39 -13
l-39 22h-4l26 -26v-5h-9q-30 31 -47 31l-35 -31h-4v5q0 7 34 31v4zM-70 247h17q77 0 91 -102q0 -75 -82 -98h-26q-87 18 -87 89v22q18 89 87 89zM286 247h17q75 0 91 -102q-22 -98 -82 -98h-26q-74 0 -91 102q20 98 91 98zM655 247h4q100 -10 100 -89v-22q-19 -89 -87 -89
h-22q-69 0 -87 93q12 107 92 107z" />
  </g>

</svg>
