<?xml version="1.0" encoding="UTF-8" standalone="no"?>
<!-- Created with Inkscape (http://www.inkscape.org/) -->

<svg
   xmlns:dc="http://purl.org/dc/elements/1.1/"
   xmlns:cc="http://creativecommons.org/ns#"
   xmlns:rdf="http://www.w3.org/1999/02/22-rdf-syntax-ns#"
   xmlns:svg="http://www.w3.org/2000/svg"
   xmlns="http://www.w3.org/2000/svg"
   xmlns:sodipodi="http://sodipodi.sourceforge.net/DTD/sodipodi-0.dtd"
   xmlns:inkscape="http://www.inkscape.org/namespaces/inkscape"
   width="64px"
   height="64px"
   id="svg3063"
   version="1.1"
   inkscape:version="0.48.3.1 r9886"
   sodipodi:docname="orga-imc.svg">
  <defs
     id="defs3065" />
  <sodipodi:namedview
     id="base"
     pagecolor="#ffffff"
     bordercolor="#666666"
     borderopacity="1.0"
     inkscape:pageopacity="0.0"
     inkscape:pageshadow="2"
     inkscape:zoom="1.3685542"
     inkscape:cx="-44.72201"
     inkscape:cy="2.9804031"
     inkscape:current-layer="layer1"
     showgrid="true"
     inkscape:document-units="px"
     inkscape:grid-bbox="true"
     inkscape:window-width="834"
     inkscape:window-height="655"
     inkscape:window-x="483"
     inkscape:window-y="83"
     inkscape:window-maximized="0" />
  <metadata
     id="metadata3068">
    <rdf:RDF>
      <cc:Work
         rdf:about="">
        <dc:format>image/svg+xml</dc:format>
        <dc:type
           rdf:resource="http://purl.org/dc/dcmitype/StillImage" />
        <dc:title></dc:title>
      </cc:Work>
    </rdf:RDF>
  </metadata>
  <g
     id="layer1"
     inkscape:label="Layer 1"
     inkscape:groupmode="layer">
    <path
       style="fill:#000000"
       d="m 30.140413,53.673066 c 0,-0.148863 0.276439,-0.461352 0.614308,-0.694418 0.543793,-0.375122 0.515439,-0.699955 -0.247018,-2.829891 -0.473729,-1.323372 -0.762279,-2.499568 -0.641218,-2.613776 0.450343,-0.424846 1.059687,0.317996 1.315321,1.603492 0.383886,1.930426 0.825309,1.923092 1.344572,-0.02233 0.251382,-0.941823 0.636457,-1.712394 0.855719,-1.712394 0.608653,0 0.458335,1.091 -0.525747,3.815819 -0.710165,1.966372 -1.084336,2.505547 -1.805851,2.602217 -0.500548,0.06706 -0.910086,1.37e-4 -0.910086,-0.148726 z m 20.628606,-2.973832 0,-3.19141 1.71905,-0.0088 c 2.116305,-0.01084 3.134738,0.764015 3.134738,2.385028 0,1.539538 -1.207832,2.643206 -2.614962,2.389446 -0.863364,-0.1557 -1.025379,-0.04255 -1.025379,0.716123 0,0.546537 -0.23871,0.901041 -0.606724,0.901041 -0.490949,0 -0.606723,-0.60899 -0.606723,-3.191414 z m 3.154963,0.444024 c 1.210316,-1.141792 -0.05326,-3.598115 -1.334793,-2.594757 -0.994201,0.778396 -0.542184,3.052656 0.606723,3.052656 0.13348,0 0.461111,-0.206055 0.72807,-0.457899 z M 6.8771455,51.696552 c 0.1557951,-0.367273 0.4702839,-1.826823 0.6988613,-3.243446 0.3384538,-2.097575 0.5528548,-2.575678 1.1550308,-2.575678 0.541623,0 0.927026,0.561432 1.4406914,2.0987 0.385693,1.154286 0.806893,2.0987 0.935996,2.0987 0.129106,0 0.506153,-0.901487 0.837886,-2.003304 0.457995,-1.521196 0.808616,-2.031023 1.456946,-2.118489 0.767412,-0.103528 0.882301,0.128134 1.13543,2.289491 0.154897,1.32257 0.381221,2.791027 0.50295,3.263235 0.154666,0.59998 0.0396,0.858559 -0.382074,0.858559 -0.677508,0 -1.08847,-1.108156 -1.096706,-2.95726 -0.0083,-1.863738 -0.62573,-1.493251 -1.263801,0.758341 -0.810466,2.859922 -1.707648,2.868989 -2.6110364,0.02637 -0.625811,-1.96918 -0.737747,-2.109534 -1.006231,-1.2617 -0.166149,0.524675 -0.320232,1.512022 -0.34241,2.194096 -0.03232,0.994708 -0.208984,1.24014 -0.8925594,1.24014 -0.6499107,0 -0.7849912,-0.158527 -0.5689737,-0.667767 z m 9.4687285,-0.135145 c -0.652118,-0.615198 -0.792692,-1.083544 -0.601271,-2.003305 0.560945,-2.695323 4.144643,-2.950483 4.800968,-0.341832 0.201626,0.80139 0.08386,0.858558 -1.768534,0.858558 -2.078653,0 -2.544483,0.45361 -1.17558,1.144747 0.579574,0.292615 1.048179,0.287659 1.652574,-0.01748 1.039062,-0.524602 1.472069,-0.203268 0.782434,0.580642 -0.734629,0.835058 -2.695458,0.717473 -3.690591,-0.221317 z m 2.873512,-2.822115 c -0.276945,-0.314805 -0.731987,-0.572373 -1.011206,-0.572373 -0.279218,0 -0.734261,0.257568 -1.011205,0.572373 -0.432344,0.491447 -0.289371,0.572373 1.011205,0.572373 1.300577,0 1.44355,-0.08092 1.011206,-0.572373 z m 2.426895,1.240141 0,-2.448485 1.213448,0 c 1.253972,0 1.676716,0.768197 0.631057,1.146737 -0.3479,0.125946 -0.632902,0.860212 -0.707845,1.823684 -0.069,0.887063 -0.352975,1.683432 -0.631057,1.769696 -0.369228,0.114544 -0.505603,-0.503577 -0.505603,-2.291632 z m 3.640342,1.621724 c -2.065991,-1.949022 0.221167,-4.971944 3.000536,-3.965785 0.351896,0.127387 0.639806,0.470811 0.639806,0.763163 0,0.631828 -0.207843,0.657676 -1.211947,0.150722 -0.557405,-0.281421 -0.919983,-0.224508 -1.389097,0.21805 -1.365889,1.288557 -0.150274,3.228718 1.500699,2.395167 1.120881,-0.565912 1.725153,-0.205264 0.923384,0.551111 -0.924893,0.872533 -2.472565,0.82229 -3.463381,-0.112428 z m 10.295919,-0.173449 c -1.071474,-1.010806 -1.340775,-3.079194 -0.576347,-4.426671 1.050377,-1.85153 3.839129,-2.150755 5.236895,-0.561905 0.86668,0.985164 -0.263108,1.470723 -1.251805,0.538003 -0.964726,-0.910107 -1.374917,-0.902342 -2.379153,0.04504 -2.162376,2.039948 0.215961,5.538379 2.575048,3.78778 1.234396,-0.916002 1.890196,-0.279515 0.839989,0.815247 -1.02542,1.068921 -3.204864,0.972079 -4.444627,-0.197492 z m 6.524344,0.209142 c -1.031331,-1.075088 -0.709585,-3.112621 0.600511,-3.802888 2.104031,-1.108572 4.367353,0.599565 3.769917,2.84517 -0.45531,1.711395 -3.092949,2.2894 -4.370428,0.957718 z m 2.768245,-0.635323 c 0.806554,-0.760886 0.806808,-1.473849 8.08e-4,-2.23422 -0.479182,-0.452056 -0.82625,-0.502218 -1.415686,-0.204622 -0.873275,0.440898 -1.038069,1.880042 -0.295497,2.580573 0.639672,0.603457 0.947516,0.577944 1.710383,-0.141731 z m 2.658027,-1.053891 0,-2.416688 1.213448,0 c 1.393996,0 1.584006,0.61566 0.404483,1.310585 -0.589473,0.347286 -0.808965,0.889857 -0.808965,1.999691 0,0.837707 -0.182018,1.5231 -0.404483,1.5231 -0.227077,0 -0.404483,-1.059951 -0.404483,-2.416688 z m 8.876687,1.819387 c -0.463459,-0.526817 -0.343077,-0.583104 1.020182,-0.476978 1.944521,0.151374 2.313369,-0.593829 0.531518,-1.073848 -0.944494,-0.254435 -1.36692,-0.616751 -1.46404,-1.255694 -0.157595,-1.036785 0.49738,-1.542599 2.008276,-1.550901 1.1489,-0.0063 2.285366,0.910465 1.613925,1.301945 -0.217899,0.127041 -0.510505,0.05647 -0.650238,-0.156823 -0.32757,-0.500013 -1.701427,-0.502405 -2.028257,-0.0034 -0.138458,0.211354 0.07832,0.485018 0.481735,0.608142 3.188247,0.973076 3.571815,1.418028 2.21844,2.573469 -0.93511,0.79835 -3.042311,0.817673 -3.731541,0.03422 z m -31.757503,-9.1364 c -0.538896,-1.216739 -0.56306,-1.831066 -0.160563,-4.082216 0.440113,-2.461562 0.416492,-2.708907 -0.33227,-3.479581 -1.125169,-1.158093 -2.721144,-4.271702 -3.522424,-6.871964 -0.583348,-1.893032 -0.608863,-2.571099 -0.186062,-4.944268 0.525075,-2.947227 1.720163,-5.841543 3.341373,-8.092295 l 1.005803,-1.396366 0.499168,1.461241 c 0.274542,0.803682 0.637484,1.632953 0.806537,1.842822 0.748867,0.929674 3.275338,7.281705 3.493515,8.783366 l 0.240898,1.658015 2.881302,-2.740407 c 1.584718,-1.507225 3.900749,-3.303905 5.146732,-3.992622 2.539454,-1.403682 8.449182,-3.406631 11.01443,-3.733055 1.549139,-0.197126 1.439751,-0.109626 -1.347623,1.077965 -5.564663,2.370884 -9.138893,5.038559 -12.875558,9.609856 -1.79123,2.191321 -5.326153,7.707489 -5.326153,8.311341 0,0.162486 0.864582,0.295292 1.921293,0.295128 2.304126,-3.63e-4 5.99375,-1.556801 8.427048,-3.55489 3.469866,-2.849261 8.048141,-8.898814 9.726961,-12.852832 0.548188,-1.291108 0.560188,-1.245412 0.360755,1.373647 -0.223162,2.930691 -1.323662,5.90843 -3.108578,8.411205 -1.703704,2.388905 -5.862261,5.747318 -8.81377,7.117915 -2.371404,1.101211 -2.984591,1.220638 -6.186385,1.20489 l -3.554066,-0.01747 -0.416754,1.543808 c -0.607897,2.251867 -1.199602,3.558243 -1.838082,4.058134 -0.454371,0.355746 -0.685711,0.164238 -1.197527,-0.991357 z m 1.833499,-9.320309 c 0.230292,-0.405946 0.420273,-2.681129 0.422178,-5.05596 0.0028,-3.349143 -0.237973,-5.285103 -1.072679,-8.629002 -0.591879,-2.371116 -1.207732,-4.17409 -1.368558,-4.00661 -1.001604,1.043042 -2.56236,5.939598 -2.731935,8.570906 -0.217851,3.380382 0.374793,5.449303 2.328188,8.127718 1.397463,1.916147 1.80445,2.082944 2.422806,0.992948 z m 5.206453,-12.792449 c -0.900386,-1.86425 1.844182,-3.970916 2.854085,-2.190731 0.285452,0.503175 0.17051,1.013211 -0.429972,1.90791 -0.980903,1.461517 -1.808215,1.558039 -2.424113,0.282821 z"
       id="path3356"
       inkscape:connector-curvature="0" />
  </g>
</svg>
