<?xml version="1.0" encoding="UTF-8" standalone="no"?>
<!-- Created with Inkscape (http://www.inkscape.org/) -->

<svg
   xmlns:dc="http://purl.org/dc/elements/1.1/"
   xmlns:cc="http://creativecommons.org/ns#"
   xmlns:rdf="http://www.w3.org/1999/02/22-rdf-syntax-ns#"
   xmlns:svg="http://www.w3.org/2000/svg"
   xmlns="http://www.w3.org/2000/svg"
   xmlns:sodipodi="http://sodipodi.sourceforge.net/DTD/sodipodi-0.dtd"
   xmlns:inkscape="http://www.inkscape.org/namespaces/inkscape"
   width="64px"
   height="64px"
   id="svg3063"
   version="1.1"
   inkscape:version="0.48.3.1 r9886"
   sodipodi:docname="orga-mercycorps.svg">
  <defs
     id="defs3065" />
  <sodipodi:namedview
     id="base"
     pagecolor="#ffffff"
     bordercolor="#666666"
     borderopacity="1.0"
     inkscape:pageopacity="0.0"
     inkscape:pageshadow="2"
     inkscape:zoom="1.3685542"
     inkscape:cx="-44.72201"
     inkscape:cy="2.9804031"
     inkscape:current-layer="layer1"
     showgrid="true"
     inkscape:document-units="px"
     inkscape:grid-bbox="true"
     inkscape:window-width="834"
     inkscape:window-height="655"
     inkscape:window-x="483"
     inkscape:window-y="83"
     inkscape:window-maximized="0" />
  <metadata
     id="metadata3068">
    <rdf:RDF>
      <cc:Work
         rdf:about="">
        <dc:format>image/svg+xml</dc:format>
        <dc:type
           rdf:resource="http://purl.org/dc/dcmitype/StillImage" />
        <dc:title></dc:title>
      </cc:Work>
    </rdf:RDF>
  </metadata>
  <g
     id="layer1"
     inkscape:label="Layer 1"
     inkscape:groupmode="layer">
    <path
       style="fill:#000000"
       d="m 5.6387205,34.406728 0,-24.6852797 26.1466605,0 26.14666,0 0,24.6852797 0,24.68527 -26.14666,0 -26.1466605,0 0,-24.68527 z m 46.1728705,13.99833 c 1.11013,-0.30945 1.23974,-0.54458 1.23974,-2.24901 0,-1.91329 -0.0393,-1.94214 -2.02171,-1.48632 -1.26473,0.29079 -1.59756,0.31098 -2.42507,0.14711 -2.70342,-0.53536 -3.33069,-1.71066 -3.18451,-5.96676 0.0893,-2.60077 0.36701,-3.3246 1.56183,-4.0711 0.66091,-0.41293 0.86292,-0.45096 2.39515,-0.45096 0.9513,0 1.98666,0.0976 2.39941,0.22622 1.21592,0.37887 1.29453,0.27305 1.23745,-1.66591 l -0.0497,-1.68886 -0.69724,-0.32817 c -0.56652,-0.26665 -1.13029,-0.33863 -3.00702,-0.38395 -2.0105,-0.0486 -2.45091,-0.01 -3.39906,0.29923 -2.38208,0.77633 -3.46867,1.82922 -4.33042,4.19614 -0.39095,1.07382 -0.41941,1.38643 -0.41941,4.60791 0,3.17472 0.0321,3.54016 0.39432,4.49094 0.99604,2.61433 2.77236,4.0758 5.4451,4.47993 1.13123,0.17104 4.01977,0.0781 4.86115,-0.15644 z m -36.272,-0.20749 c 0.15228,-0.14378 0.20917,-1.39701 0.20917,-4.60792 0,-2.42574 0.0633,-4.41044 0.14078,-4.41044 0.0774,0 0.39035,0.46285 0.69536,1.02856 0.30502,0.5657 0.97685,1.76911 1.49296,2.67423 0.51612,0.90513 1.31443,2.31219 1.77404,3.12681 1.43961,2.5516 1.21217,2.38624 3.28209,2.38624 1.15478,0 1.85728,-0.0696 1.99271,-0.19748 0.15729,-0.14851 0.20917,-2.30736 0.20917,-8.70453 0,-7.60549 -0.0292,-8.51762 -0.27572,-8.60693 -0.15165,-0.0549 -1.04532,-0.0999 -1.98593,-0.0999 -1.39868,0 -1.72948,0.0474 -1.81601,0.26031 -0.0582,0.14317 -0.1058,2.17971 -0.1058,4.52564 0,2.73741 -0.0625,4.26532 -0.17453,4.26532 -0.096,0 -0.41442,-0.46285 -0.7076,-1.02856 -0.29319,-0.5657 -0.7106,-1.32477 -0.92759,-1.68682 -0.217,-0.36205 -0.85385,-1.47289 -1.41524,-2.46853 -0.56138,-0.99564 -1.30257,-2.25459 -1.64708,-2.79766 l -0.62638,-0.98742 -1.94805,-0.0464 c -1.73996,-0.0415 -1.96631,-0.0142 -2.11904,0.2552 -0.22804,0.40229 -0.25023,16.33864 -0.0235,16.90158 0.16436,0.40815 0.20248,0.41622 1.96733,0.41622 1.16736,0 1.87321,-0.0694 2.00889,-0.19748 z m 15.54175,-0.0416 c 0.14794,-0.1683 0.20407,-1.07505 0.18951,-3.06182 -0.0222,-3.03522 0.0415,-3.28368 0.84092,-3.27928 0.6324,0.003 0.81904,0.14585 1.29937,0.99122 1.22519,2.15627 1.80956,3.15974 2.51479,4.31837 l 0.77923,1.28019 2.20293,-0.0459 c 2.07102,-0.0432 2.206,-0.0662 2.25417,-0.38401 0.0302,-0.19917 -0.76787,-1.64958 -1.94221,-3.52986 -1.09639,-1.75548 -1.95543,-3.28529 -1.90897,-3.39958 0.0464,-0.1143 0.22294,-0.24931 0.3922,-0.30002 0.16925,-0.0507 0.65225,-0.41291 1.07334,-0.80487 1.03289,-0.96147 1.37765,-1.91976 1.37656,-3.82632 -10e-4,-2.43865 -0.88944,-3.88502 -2.94964,-4.80416 -0.97312,-0.43415 -0.9737,-0.43419 -5.50236,-0.43778 l -4.52913,-0.004 -0.14171,0.90513 c -0.0779,0.49782 -0.11849,4.31891 -0.0901,8.49132 0.0417,6.13367 0.0974,7.63827 0.29083,7.85815 0.32795,0.3728 3.52744,0.40008 3.85028,0.0328 z m 0.28691,-10.22444 c -0.0582,-0.14317 -0.1058,-0.91169 -0.1058,-1.70782 0,-1.81786 0.057,-1.87177 1.89636,-1.79291 1.55634,0.0667 2.00065,0.30683 2.26961,1.22646 0.21209,0.72519 -0.0647,1.833 -0.55439,2.21884 -0.53046,0.41796 -3.34036,0.46239 -3.50578,0.0554 z"
       id="path3439"
       inkscape:connector-curvature="0" />
  </g>
</svg>
