<?xml version="1.0" standalone="no"?>
<!DOCTYPE svg PUBLIC "-//W3C//DTD SVG 1.1//EN" "http://www.w3.org/Graphics/SVG/1.1/DTD/svg11.dtd" >
<svg viewBox="0 -256 1792 1792">
  <g transform="matrix(1 0 0 -1 0 1536)">
   <path fill="currentColor"
d="M706 1436h54q488 0 677 -560l11 -150q0 -434 -462 -646q-116 -43 -226 -43h-33q-430.644 0 -641 453q-50.0298 146.597 -44 228l8 108q30.0391 405.528 398 558q141.375 52 258 52zM72 758q0 -474.923 456 -642l180 -26q467.142 0 636 394q48.446 69 58 246
q0 486.802 -500 670l-174 22q-464.189 0 -628 -448zM727 1404q433 0 613 -463l33 -183q0 -451 -495 -624l-161 -22q-426 0 -613 485l-12 169q0 376.358 367 573q145 65 268 65zM663 1210q0 -65 75 -65h11l22 22v11q-76 0 -76 32v11l32 32h22l11 -11h11v22l-22 21h-11
q-75 0 -75 -75zM835 1275l-32 -140h32l32 129zM523 1242l43 -129l75 22q0 21 -43 21v11l22 32l-54 11q0 22 32 22v32zM932 1242l-65 -118l11 -11h11q21 0 21 32l11 11h22l10 -54v-32l33 -11l64 108l-21 21h-11l-22 -53h-21v21q0 80 -43 86zM373 1135l75 -97q64 22 64 86v11
q-20 39 -64 53q-69 -28 -75 -53zM459 1145l21 -21v-22l-21 -21q-23 5 -43 54l10 10h33zM1072 1081v-11l10 -54h-32q0 33 -21 33h-11q0 -61 54 -76l43 33l-11 53l11 11h10l22 -21h11v10l-33 43h-32zM254 1092v-43h22v10l-11 33h-11zM308 1081l-32 -65l97 -64h10l43 54l-10 10
h-11l-32 -21l-11 11l11 10v33h-11l-32 -22h-11v11l11 32l-11 11h-11zM663 1059v-10q197.909 0 237 -43l-43 21l33 -3l-119 35h-108zM426 801l2 -135l22 10q0 280.399 112 322q2.53571 21 90 40v11l-76 -17q-152.234 -80.2044 -150 -231zM900 1006q64 -50 64 -76h11v22
l-73 68zM641 984l11 -11v-118l-21 -22h-65l-54 11l-10 -86q0 -108 150 -108v-86l-11 -53h97q97 0 97 96l-11 43q112 22 162 65h21l22 -22q-97 -226 -248 -226v-10h33q236 118 236 290q63 76 97 76v10h-11q-41 0 -86 -86h-21q-15 0 -43 86l-65 22h-21l-65 -22l-11 11l11 43
q-18 97 -43 97h-151zM1168 887v-11q65 23 65 86h-22q-43 -17 -43 -75zM1115 941q-33 -39 -33 -75v-22h11q32 0 43 86l-11 11h-10zM222 909q0 -22 32 -22l11 -11v-10q0 -22 -54 -22l-10 -32l129 -54l10 32q-53 8 -53 33l64 10v22l-54 21v22h65v32h-118zM1211 844v-11h33
q55 0 64 33v10h-32q-65 -6 -65 -32zM1190 812v-11q11 -32 64 -32h33v11q-11 32 -65 32h-32zM1125 780v-11q28 -54 86 -54v22q0 28 -86 43zM1115 683l-22 -76h11l118 -32l22 75h-11l-43 -32v43h-11l-32 -21h-11v43h-21zM448 640v-11q105 -162 172 -162h11v11q-92 0 -172 162
h-11zM233 575q29 -71 64 -86h11q75 0 75 65q-14 75 -32 75zM340 586l11 -11v-21l-32 -33h-22l-21 22q0 18 64 43zM1029 500q1 -18 96 -76h22l32 76q-15 44 -54 64h-10q-59 0 -86 -64zM1093 532h22l32 -32v-11l-22 -22q-49 21 -53 44zM416 511l-76 -97q26 -65 76 -65
q29 0 86 86l-11 11h-11l-75 -65q-22 0 -22 33l54 75zM986 467l21 -75h-11l-86 22l-10 -11v-11l64 -107l32 10v11l-32 43v22l97 -22l21 22l-86 96h-10zM684 457v-11h87v11h-87zM523 263h32l11 43h22l10 -65l54 54h11l-11 -54v-10h32l11 129l-11 11h-10l-54 -54q-14 75 -32 75
q-22 0 -65 -129zM738 295q28 -64 76 -64q64 0 75 86v11q-28 53 -86 53q-65 -22 -65 -86zM814 349h10l33 -32v-11l-43 -43l-43 43z" />
  </g>

</svg>
