<svg xmlns="http://www.w3.org/2000/svg" xmlns:xlink="http://www.w3.org/1999/xlink" version="1.1" id="Your_Icon" x="0px" y="0px" width="30px" height="30px" viewBox="0 0 100 100" enable-background="new 0 0 100 100" xml:space="preserve">
<g>
	<path d="M37,76.873c0-0.928,0.709-1.676,1.594-1.676h4.027c0.877,0,1.586,0.748,1.586,1.676v4.24c0,0.926-0.709,1.68-1.586,1.68   h-4.027c-0.885,0-1.594-0.754-1.594-1.68V76.873z"/>
</g>
<path fill="#000000" d="M70.527,26.766L70.5,17.173C70.5,12.084,66.525,8,61.568,8H20.709C15.758,8,12,12.084,12,17.173v66.546  C12,88.809,15.758,93,20.709,93h40.859c4.957,0,8.932-4.191,8.932-9.281l0.027-15.453c1.287,0.701,2.779,1.086,4.312,1.086  c4.934,0,8.948-4.021,8.948-8.955c0-2.362-0.921-4.518-2.422-6.119c1.216-0.729,2.112-1.949,2.413-3.418l3.326-16.268  c0.287-1.406-0.025-2.882-0.855-4.05c-0.83-1.167-2.122-1.946-3.543-2.137L70.527,26.766z M20.709,12h40.859  c2.641,0,4.682,2.272,4.682,5.048l0.044,9.124l-5.052-0.686l0.008-5.25c0-1.394-1.1-2.236-2.41-2.236H23.449  C22.133,18,21,18.608,21,20.002v48.975C21,70.359,22.133,72,23.449,72H58.84C60.15,72,61,70.359,61,68.977V67h5v16.719  C66,86.488,64.209,89,61.568,89H20.709C18.08,89,16,86.488,16,83.719V17.173C16,14.397,18.08,12,20.709,12z M55.539,63  c-0.854,1-2.537,2.442-4.384,2.442c-2.733,0-4.957-2.305-4.957-5.038c0-2.65,2.095-4.883,4.724-5.013l1.256-3.991l-5.005-20.248  l-2.777-1.861c-0.116,0.03-0.253,0.056-0.409,0.056c-1.719,0-3.118-1.399-3.118-3.118c0-1.72,1.399-3.12,3.118-3.12  s3.117,1.399,3.117,3.118c0,0.125-0.016,0.239-0.038,0.344l2.259,1.509l32.84,4.389c0.3,0.04,0.57,0.203,0.746,0.45  c0.175,0.246,0.24,0.553,0.18,0.85l-3.326,16.265c-0.101,0.493-0.525,0.848-1.027,0.867l-22.772,0.875l-1.517,4.893  C55.138,57.28,55.642,58,55.904,59h14.349c0.655-2,2.483-3.396,4.587-3.396c2.674,0,4.85,2.152,4.85,4.825  c0,2.674-2.176,5.045-4.85,5.045c-1.838,0-3.496-1.474-4.32-2.474H55.539z"/>
</svg>
