<svg xmlns="http://www.w3.org/2000/svg" xmlns:xlink="http://www.w3.org/1999/xlink" xml:space="preserve" width="30px" height="30px" style="shape-rendering:geometricPrecision; text-rendering:geometricPrecision; image-rendering:optimizeQuality; fill-rule:evenodd; clip-rule:evenodd" viewBox="0 0 100 100">
 <defs>
  <style type="text/css">
   
    .fil0 {fill:none}
    .fil1 {fill:black}
   
  </style>
 </defs>
 <g id="Layer_x0020_1">
  <metadata id="CorelCorpID_0Corel-Layer"/>
  <rect class="fil0" width="100" height="100"/>
  <path class="fil1" d="M32.9719 65.3391l0.344885 0 0 0.288191c-0.282286,-0.0661423 -0.229136,-0.0685045 -0.344885,-0.288191zm24.1041 -7.82841c1.43623,0 1.09371,1.37954 0.725203,1.64765 -0.472445,0.342522 -2.18388,0.600005 -2.00671,-0.862212 0.0755911,-0.61654 0.621265,-0.785439 1.28151,-0.785439zm6.55753 -1.43859c0,-0.686226 0.131103,-0.805518 0.863393,-0.805518 2.22521,0 2.43191,4.27326 1.05119,5.59847 -1.13741,1.09253 -4.58626,1.26025 -4.61815,-0.131103 0.487799,-0.113387 1.54608,-0.724021 1.92403,-1.00985 1.80356,-1.3571 0.779534,-2.80632 0.779534,-3.652zm-23.8159 -0.28701c0,-1.49883 3.5705,-1.26615 4.60279,-1.26615 1.73387,0 4.15161,0.549217 5.63863,1.20592 0.771266,0.341341 1.49883,0.735833 2.19569,1.20001 0.253939,0.167718 0.432287,0.305908 0.66969,0.480712 1.07245,0.785439 3.11577,2.66695 3.11577,3.78901 0,0.609454 -0.0188978,1.11261 -0.675596,1.51064 -0.565752,0.342522 -2.55947,0.566934 -2.96931,-0.107481 -0.100394,-0.164175 -0.158269,-0.281105 -0.256301,-0.43583 -0.548036,-0.869298 -1.13032,-2.0634 -1.83427,-2.76734 -0.758274,-0.759455 -2.90672,-1.84844 -3.83743,-2.20514 -1.25788,-0.480712 -1.98781,-0.587012 -3.27168,-0.755911 -0.2126,-0.0283467 -0.40394,-0.00236222 -0.614178,-0.0188978 -0.623627,-0.0496067 -2.7638,-0.114568 -2.7638,-0.629533zm7.07604 -2.24529c-0.474807,0 -0.437011,-0.0862212 -0.805518,-0.172442 0.0496067,-0.590556 0.533862,-0.633076 1.20828,-0.633076 0.369688,0 0.144096,0.805518 -0.402759,0.805518zm15.6474 0.346066c-1.07245,0 -1.20828,-0.607091 -1.20828,-1.3819 0,-0.204332 0.758274,-0.812605 0.944889,-0.954338 0.222049,-0.165356 0.333073,-0.253939 0.583469,-0.394491 1.10906,-0.629533 1.4634,-0.0708667 1.4634,1.06064 0,0.284648 -0.889377,1.14922 -1.16339,1.42796 -0.168899,0.172442 -0.295278,0.242128 -0.620084,0.242128zm-15.7619 -3.05081c0,-1.02048 2.24647,-1.15158 3.39333,-1.15158 3.05554,0 6.87053,1.64647 9.42291,3.34963 0.266931,0.177167 0.501972,0.325987 0.751187,0.514965 1.3819,1.04292 2.65514,2.22167 2.65514,4.13625 0,1.09607 -1.09489,1.2945 -1.82482,1.39962 -1.00394,0.144096 -1.48702,-0.61654 -1.90395,-1.23899 -0.43583,-0.650793 -0.428744,-1.04765 -1.1693,-2.05277 -0.259845,-0.354333 -1.39726,-1.11733 -1.85553,-1.42324 -0.71221,-0.475988 -1.31103,-0.725203 -2.19923,-1.02284 -2.18506,-0.73347 -4.80712,-1.11615 -6.37446,-1.73742 -0.341341,-0.135828 -0.895283,-0.354333 -0.895283,-0.773628zm22.3773 -1.49647c0,-0.870479 0.98859,-0.805518 1.55316,-0.805518 1.69371,0 1.98663,2.66104 1.65946,3.96145 -0.196065,0.773628 -0.589375,1.33938 -1.23781,1.69726 -0.90355,0.49961 -3.06735,0.799613 -3.06735,0.327168 0,-0.481894 0.784258,-1.04528 1.04528,-1.37127 0.485437,-0.607091 0.565752,-1.40552 0.565752,-2.25592 0,-0.282286 -0.146458,-0.57402 -0.250396,-0.785439 -0.0673234,-0.139371 -0.268112,-0.618903 -0.268112,-0.767723zm-16.108 -0.805518c0.217325,0 0.23386,0.06378 0.346066,0.230317 -0.36142,0 -0.252758,-0.05315 -0.518508,-0.115749 0.0673234,-0.0968512 0.00826778,-0.114568 0.172442,-0.114568zm13.8639 -1.72679c0,-0.856306 0.204332,-1.55434 1.32403,-1.55434 0.663785,0 0.97796,0.314176 0.97796,0.97796 0,0.727565 -0.274018,1.24489 -0.923629,1.32521 -0.614178,0.0767723 -1.37836,-0.0188978 -1.37836,-0.748825zm-14.6115 -0.40394c0,-1.12324 2.17443,-1.26615 3.39451,-1.26615 3.01774,0 6.02958,0.514965 8.054,1.49765 0.269293,0.129922 0.51024,0.206695 0.780715,0.369688 1.33938,0.803156 0.974417,0.505516 2.17797,1.44686 0.80788,0.631895 2.04569,1.72324 2.04569,2.78742 0,0.48898 0.01063,1.0252 -0.483075,1.35828 -0.271656,0.184253 -0.692131,0.310632 -1.12678,0.310632 -1.41261,0 -1.52482,-1.75986 -2.41419,-2.87955 -0.209057,-0.264569 -1.18584,-0.964968 -1.50001,-1.14804 -1.42678,-0.825597 -2.64569,-0.955519 -4.25673,-1.09371 -0.80788,-0.0685045 -1.65356,-0.194883 -2.42482,-0.278742 -0.966149,-0.105119 -4.24728,-0.316538 -4.24728,-1.10434zm38.1983 -3.04963c0,-0.724021 0.0165356,-1.26615 1.26615,-1.26615 1.36537,0 2.09057,2.69057 2.28545,3.81381 0.452366,2.62089 0.0271656,4.6524 -1.42206,6.66147 -0.261026,0.36142 -0.985047,1.23781 -1.32403,1.49647 -0.383861,0.292916 -0.506697,0.69095 -1.49529,0.69095 -0.70158,0 -0.633076,-0.550398 -0.633076,-1.03702 0,-0.825597 1.84017,-1.18938 1.84017,-5.98587 0,-1.58151 -0.517327,-2.82994 -0.517327,-4.37366zm-33.3652 0.172442l0.97796 0 0 0.172442c0,0.0944889 -0.0342522,0.172442 -0.115749,0.172442 -0.331892,0 -0.72284,-0.153545 -0.862212,-0.344885zm14.8985 2.18742c-1.43741,0 -0.666147,0.105119 -2.20986,-1.01221 -0.569296,-0.412208 -0.942527,-0.582288 -1.45985,-0.898826 -1.30513,-0.793707 -3.89294,-1.58978 -5.47563,-1.65828l-1.08544 -0.0649611c-0.374412,-0.04252 -0.728746,-0.0259845 -1.15867,-0.0484256 -1.22009,-0.0661423 -3.47483,-0.11693 -4.66067,-0.11693 0.0933078,-1.10788 0.695675,-1.64647 1.51537,-2.05277 0.687407,-0.342522 1.96655,-0.655517 2.91616,-0.707486 3.39806,-0.184253 4.42917,-0.08504 7.55203,1.24844 1.55316,0.662604 3.17483,1.73742 4.56145,2.68703 0.376775,0.257482 0.689769,0.529138 0.989772,0.851582 0.198427,0.213781 0.185435,0.315357 0.131103,0.621265 -0.13819,0.792526 -0.770085,1.15158 -1.61576,1.15158zm1.61104 -4.25909c0.484256,-0.232679 1.50592,-0.0826778 1.9512,0.0625989 0.355515,0.115749 0.550398,0.27638 0.79725,0.525595 0.942527,0.948433 1.40552,5.33981 -2.34569,5.33981 -0.420476,0 -0.708667,-0.0968512 -1.03583,-0.172442 0,-0.272837 0.0295278,-0.266931 0.131103,-0.445279l0.636619 -1.20473c0.636619,-1.28505 0.80788,-1.71143 0.348428,-3.03428 -0.179529,-0.517327 -0.441736,-0.757093 -0.483075,-1.07127zm-1.61104 -0.518508c-1.23899,0 -0.535044,-1.67364 -0.229136,-2.12954 1.30277,0 1.09253,0.315357 1.09253,1.03583 0,0.582288 -0.284648,1.09371 -0.863393,1.09371zm-12.4253 -5.81225c0,-0.803156 0.00944889,-1.31458 0.530319,-1.94529 0.296459,-0.356696 0.666147,-0.695675 1.12087,-0.89292 1.17993,-0.516146 2.38585,-0.615359 3.87168,-0.615359 3.49018,0 6.52446,1.83663 9.06621,3.59058 0.740557,0.512602 2.84175,2.06576 2.84175,2.91262 0,1.19647 -2.11065,0.845676 -2.80868,0.39331 -0.420476,-0.274018 -0.628351,-0.522051 -0.974417,-0.868117 -0.154726,-0.154726 -0.302365,-0.323625 -0.465358,-0.454728 -0.688588,-0.549217 -0.0980323,-0.206695 -1.05473,-0.785439 -0.218506,-0.132285 -0.366145,-0.205513 -0.614178,-0.30827 -1.96655,-0.805518 -4.05594,-1.08426 -6.33548,-1.08426 -1.41379,0 -3.07443,0.694494 -4.25909,0.748825 -0.275199,0.0129922 -0.918905,0.178348 -0.918905,-0.69095zm2.87601 -8.34692c0,1.38308 0.518508,1.11261 0.518508,3.39688 0,0.245671 -0.301183,0.344885 -0.575201,0.344885 -0.305908,0 -0.823235,-1.29332 -0.94607,-1.58741 -0.734651,-1.78348 -0.780715,-0.898826 -0.780715,-2.72955 0,-0.963787 0.347247,-1.97246 1.24844,-2.3197 0.283467,-0.109843 1.20355,-0.2126 1.52954,-0.253939 1.78348,-0.222049 2.54766,-0.119292 4.31578,0.139371 2.14136,0.311813 4.84374,0.565752 6.50674,1.72088 1.213,0.842133 1.68545,1.89214 1.32403,3.8457 -0.22323,1.2071 -0.672053,1.94175 -1.35592,2.7886 -0.192521,0.237403 -0.416932,0.555122 -0.739376,0.640163 -0.0909456,-0.34016 -0.114568,0.0614178 -0.114568,-0.517327 0,-1.42678 0.759455,-3.16538 -0.174805,-4.77642 -0.771266,-1.32993 -2.58073,-2.0197 -4.15633,-2.22876 -1.96891,-0.262207 -6.60005,-0.479531 -6.60005,1.53663zm4.94768 -3.9709c-1.2756,0 -4.15988,-0.0944889 -5.23823,0.05315 -0.740557,0.101576 -1.34411,0.448822 -1.69017,0.957882 -0.51024,0.750006 -0.608273,1.68308 -0.608273,2.67286 0,1.24135 0.921267,2.46262 0.921267,3.62601 0,0.513784 0.05315,1.49647 -0.69095,1.49647 -2.09529,0 -1.91813,-5.15201 -2.99057,-5.87131 -0.249215,0.0661423 -0.389767,0.303546 -0.561028,0.475988 -0.211419,0.210238 -1.51064,1.4197 -1.51064,1.59686 0,0.317719 0.380318,0.698037 0.473626,1.07835 0.288191,1.15395 1.09489,6.06265 1.47048,6.58824 0.253939,0.354333 0.572839,0.441736 0.953157,0.65906 0.298821,0.171261 0.611816,0.557485 0.611816,0.998039 0,1.54371 -1.07245,2.07167 -2.589,2.07167 -0.778353,0 -1.72679,-2.21222 -2.0138,-2.93506 -0.66969,-1.68663 -0.862212,-3.16065 -0.862212,-5.12248 0,-0.866936 0.172442,-1.60631 0.172442,-2.47443 0,-0.625989 -1.1445,-0.162993 -1.37954,-0.0578745 -0.896464,0.402759 -1.76222,0.96733 -2.53348,1.55316 -0.662604,0.503154 -0.459452,0.81851 -0.459452,1.61222 0,2.45671 0.444098,5.0528 -1.59332,6.57879 -1.21655,0.910637 -2.90553,0.885834 -2.89727,2.1697 0.00354333,0.596461 0.107481,1.28741 0.171261,1.90513 0.101576,0.994496 1.01221,0.895283 2.07285,0.976779 6.08391,0.462996 4.58035,1.25316 4.54846,3.62129 -0.00236222,0.108662 -0.0649611,1.01339 -0.08504,1.06654 -0.198427,0.516146 -1.0382,0.431106 -1.46812,0.431106 -1.06654,0 -2.38939,-0.41457 -3.18073,-0.732289 -1.06772,-0.429925 -1.6571,-0.853944 -2.64805,-1.32166 -0.17008,-0.0803156 -0.576382,-0.328349 -0.604729,-0.0295278 -0.0779534,0.806699 0.970874,2.86656 1.28859,3.66145 0.323625,0.810243 1.01457,2.79569 -0.550398,2.79569 -0.957882,0 -1.64175,-2.31025 -1.86261,-2.97168 -0.199608,-0.596461 -0.390948,-1.2319 -0.64843,-1.76812 -0.193702,-0.401578 -0.357877,-0.811424 -0.664966,-1.11851 -0.473626,-0.475988 -1.06891,-0.0944889 -1.49883,0.203151 -0.246852,0.17008 -0.214962,0.408665 -0.214962,0.705124 0,1.96183 1.2071,3.27522 1.2071,4.83547 0,0.66969 0.177167,1.47521 -0.758274,1.53899 -0.942527,0.0649611 -1.48466,-1.4823 -1.73623,-2.20868 -0.487799,-1.40552 -0.562209,-1.68427 -0.862212,-3.10869 -0.122836,-0.583469 -0.753549,-0.538587 -1.24489,-0.538587 -0.597643,0 -1.21536,0.125198 -1.62049,0.335436 -0.264569,0.13819 -0.36142,0.204332 -0.591737,0.386224 -0.832684,0.660241 -0.473626,1.01694 -0.184253,2.02088 0.284648,0.985047 0.887015,3.62838 1.92757,4.00279 0.646068,0.23386 1.81773,-0.589375 2.36931,-0.362601 0.0980323,0.0413389 0.630714,0.302365 0.630714,0.408665 0,0.38268 -0.0696856,0.682683 -0.118111,1.03229 -0.0437011,0.321262 -0.0933078,0.772447 -0.150001,1.05828 -0.219687,1.09017 -3.06853,1.68308 -3.06853,4.29807 0,2.07285 4.65004,2.18742 5.98351,2.18742 1.72206,0 3.26814,-0.330711 4.92287,-0.657879 0.796069,-0.157088 1.49056,-0.374412 2.30907,-0.51024 0.780715,-0.128741 1.69371,-0.270475 2.54766,-0.270475 0.564571,0.842133 1.67009,1.9571 2.81813,1.9571 0.636619,0 1.27324,-0.0496067 1.82364,-0.305908 0.533862,-0.249215 0.969693,-0.640163 1.31694,-1.09961 0.120473,-0.15945 0.226773,-0.328349 0.311813,-0.493705 0.0803156,-0.154726 0.4252,-1.03702 0.575201,-1.03702 1.66064,0 1.43033,2.02088 0.845676,2.9764 -0.667328,1.09135 -1.94293,1.97364 -3.3768,1.97364 -1.69726,0 -3.17483,-1.26615 -4.77523,-1.26615 -0.862212,0 -0.820873,0.0944889 -1.58623,0.311813 -0.375594,0.1063 -0.679139,0.216143 -1.03702,0.343703 -1.36537,0.484256 -4.23783,0.983866 -5.80753,1.21182 -0.266931,0.0389767 -1.09961,0.100394 -1.32403,0.0661423 -0.897645,-0.140552 -1.48111,-0.0649611 -2.51104,-0.310632 -1.27914,-0.304727 -3.02955,-0.748825 -3.97208,-1.66537 -1.89332,-1.83899 -0.56339,-2.85002 0.0496067,-4.35476 0.147639,-0.36142 0.13819,-0.475988 0.13819,-0.955519 -0.459452,0.220868 -0.995677,0.275199 -1.81773,0.771266 -0.915362,0.553941 -1.70198,1.28623 -2.45317,2.03387l-0.633076 0.692131c-0.4252,0.479531 -0.568115,0.824416 -0.80788,1.43505 -0.651974,1.65828 -0.837408,3.53389 -0.165356,5.20634 0.793707,1.97364 2.77325,2.90199 4.79059,3.49609 1.08898,0.320081 2.34923,0.519689 3.50081,0.583469 0.32953,0.0177167 0.981504,0.0566934 1.28387,0.0968512 0.274018,0.0377956 2.1508,0.0448822 2.68821,0.0732289 0.259845,0.0141733 0.314176,0.0602367 0.630714,0.0602367l1.32285 0.0566934c4.45397,0.00708667 8.80164,-1.19883 12.9237,-2.67049 0.623627,-0.22323 1.21536,-0.44646 1.81183,-0.661423 1.4823,-0.535044 2.92207,-1.22481 4.36539,-1.84962 0.25512,-0.109843 0.7441,-0.634257 1.42796,-1.04646 1.05946,-0.640163 2.14136,-1.20001 3.25042,-1.75395 0.852763,-0.426381 1.6571,-0.86103 2.53112,-1.26733l1.68781 -0.78662c0.294097,-0.14882 0.56339,-0.258663 0.862212,-0.402759 1.4197,-0.682683 2.91735,-1.24371 4.38429,-1.83072 2.42128,-0.96733 4.92996,-1.79175 7.42211,-2.58782 1.86734,-0.597643 3.9142,-1.08308 5.80989,-1.67009 0.922448,-0.284648 1.84253,-0.588194 2.71183,-0.969693 0.824416,-0.36142 1.71616,-0.81851 2.34451,-1.45395 1.29568,-1.31222 2.12718,-3.08743 2.57837,-4.90161 0.181891,-0.728746 0.426381,-1.57678 0.426381,-2.39411 0,-1.84726 -0.236222,-3.70042 -0.772447,-5.0398 -0.533862,-1.33348 -1.42442,-2.55711 -3.25396,-2.55711 -1.54726,0 -2.97522,0.29764 -4.3146,0.517327l-4.22366 0.609454c-1.82482,0.263388 -3.01065,-0.327168 -4.49649,-0.748825 -0.412208,-0.11693 -0.536225,-0.1063 -0.791345,-0.416932 -0.126379,-0.155907 -0.161812,-0.172442 -0.281105,-0.351971 -0.300002,-0.447641 -0.620084,-1.07245 -0.620084,-1.79647 0.724021,-0.485437 1.94647,0.219687 2.55593,0.493705 0.937803,0.421657 2.92561,1.64647 3.98389,1.5071 2.34805,-0.310632 2.21222,-0.103938 4.78114,-0.746463 1.52954,-0.38268 4.90161,-1.41497 4.90161,-3.38388 0,-0.702761 -0.101576,-1.16576 -0.68032,-1.56379 -0.440555,-0.303546 -0.779534,-0.32953 -1.43859,-0.40394 -2.56419,-0.285829 -5.52642,2.37049 -8.58078,2.37049 -0.845676,0 -3.62483,0.196065 -3.62483,-0.805518 0,-0.985047 2.14372,-1.29214 3.16538,-1.37954 0.702761,-0.0602367 1.33938,-0.157088 2.04569,-0.256301 0.696856,-0.0980323 1.3193,-0.183072 2.00435,-0.296459 0.600005,-0.100394 1.27088,-0.238585 1.82482,-0.419295 0.948433,-0.312995 1.8071,-0.837408 2.53703,-1.48938 0.310632,-0.277561 1.36655,-1.15867 1.36655,-1.51182 0,-1.36537 -0.205513,-2.87837 -1.7256,-2.87837 -0.458271,0 -3.30475,1.26615 -4.0205,1.50356 -0.322443,0.107481 -0.655517,0.24449 -1.00158,0.379137 -2.61144,1.0193 -4.31696,1.4256 -6.2091,3.57286 -0.799613,0.905913 -1.28033,2.10592 -1.56379,3.2705 -0.158269,0.651974 -0.0354333,1.01457 -2.11419,-0.65906 -0.323625,-0.261026 -1.39726,-1.27206 -1.42206,-1.68072 -0.0307089,-0.506697 0.334255,-1.30985 0.579926,-1.71261 0.787801,-1.29332 0.784258,-1.41497 0.983866,-2.92916 0.240947,-1.83545 0.0555122,-3.45239 -1.58151,-4.43862 -1.17284,-0.708667 -3.27168,-1.06891 -4.53429,-1.73742 0.186616,-0.351971 0.583469,-0.486618 0.981504,-0.571658 3.07207,-0.666147 7.89691,-0.464177 11.0422,-0.464177 1.03465,0 2.67522,0.173623 2.70356,1.43859 -1.62757,1.09135 -5.46146,0.814967 -6.69927,2.44844 -0.240947,0.317719 -0.239766,0.405121 -0.311813,0.83977 -0.0555122,0.337798 -0.113387,0.688588 -0.162993,0.987409 -0.0661423,0.392129 -0.105119,1.12796 -0.245671,1.4823 -0.0507878,0.129922 -0.115749,0.230317 -0.181891,0.39331 -0.583469,1.43269 -1.02757,1.96537 -1.02757,3.69097 0,0.145277 0.0118111,0.166537 0.08504,0.259845 0.0307089,0.0366145 0.187797,0.137009 0.251577,0.157088 0.982685,0.321262 1.91222,-2.66341 2.38112,-3.16538 0.198427,-0.2126 1.96065,-0.838589 2.26301,-0.960244 1.54844,-0.618903 3.11223,-1.17757 4.68429,-1.75868 0.380318,-0.140552 0.819691,-0.245671 1.22954,-0.381499l2.39411 -0.827959c2.1508,-0.966149 3.02837,-3.06735 0.961425,-4.81775 -1.66301,-1.40789 -5.5087,-2.26183 -7.86384,-2.26183 -0.793707,0 -1.47875,0.0578745 -2.18978,0.112206 -2.0008,0.153545 -4.50948,0.331892 -6.47249,0.603548 -2.29844,0.3189 -4.48704,0.562209 -6.29651,1.93112 -0.178348,0.134647 -0.511421,0.401578 -0.57402,0.634257z"/>
  <path class="fil1" d="M40.4507 75.5262c-3.14412,0 -6.58234,-0.437011 -9.34023,-1.24489 -0.525595,-0.153545 -0.869298,-0.412208 -1.25907,-0.755911l-1.06064 -0.953157c-0.374412,-0.301183 -0.781896,-0.729927 -1.34174,-0.729927 -0.719297,0 -0.863393,1.40316 -0.863393,2.18742 0,2.48978 1.62521,3.75712 3.57523,4.48114 1.11143,0.412208 1.61694,0.525595 2.75317,0.525595 1.22009,0 1.21418,-1.84135 2.53112,-1.84135 0.597643,0 1.06064,1.60986 1.44568,2.12246 0.715754,0.957882 1.56379,1.15867 2.86892,1.15867 0.989772,0 3.652,-0.328349 4.09491,-1.19883 0.0507878,-0.101576 0.105119,-0.240947 0.161812,-0.355515 1.48702,-2.96341 1.36891,1.32403 3.68271,1.32403 1.81064,0 3.16184,-0.440555 4.43035,-1.09253 0.858668,-0.441736 0.709848,-0.750006 1.02639,-1.62049 0.367326,-1.01103 0.447641,-1.4882 1.61812,-1.4882 0.413389,0 0.836227,0.646068 1.0252,0.931897 0.304727,0.461815 0.609454,0.96733 1.16221,0.96733 0.677958,0 2.77325,-1.03702 3.31774,-1.34174 0.592918,-0.331892 0.894102,-0.470082 1.20828,-1.09489 0.257482,-0.512602 0.452366,-1.15985 0.592918,-1.76576 0.480712,0 0.426381,0.0283467 0.677958,0.301183 0.610635,0.667328 0.472445,1.1256 1.97009,0.737014 0.840952,-0.218506 2.29018,-0.693313 2.92325,-1.10434 0.728746,-0.473626 0.538587,-0.966149 0.526776,-2.46616 -0.00472445,-0.553941 -0.0814967,-0.518508 0.262207,-0.773628 0.550398,-0.411027 0.64843,-0.656698 1.22009,-0.0755911 0.622446,0.634257 0.650793,0.849219 1.50946,0.849219 0.578745,0 1.1882,-0.161812 1.59214,-0.363782 1.96183,-0.981504 1.45985,-2.82758 2.10474,-3.82208 0.133466,-0.207876 0.737014,-0.86103 0.938984,-1.01812l0.540949 -0.437011c0.186616,-0.140552 0.366145,-0.259845 0.59528,-0.38268 1.34647,-0.724021 2.10238,-0.88229 3.71932,-0.88229 1.28269,0 1.43269,2.12954 2.70475,2.12954 1.0382,0 1.73742,-0.146458 2.43073,-0.849219 0.438192,-0.444098 0.643706,-0.676777 0.904732,-1.28151 0.187797,-0.432287 0.01063,-0.459452 0.518508,-0.459452 0.910637,0 1.57088,1.3819 3.52444,-0.330711l0.576382 -0.688588c0.144096,-0.192521 0.441736,-0.598824 0.500791,-0.823235 1.3193,0 1.78348,0.424019 2.72364,0.0200789 1.07127,-0.461815 1.99372,-2.20514 1.99372,-3.3579 0,-0.87166 0.0685045,-2.24411 -0.527957,-2.80986 -0.448822,-0.424019 -0.662604,-0.115749 -1.43505,0.500791 -1.30159,1.03583 -1.22481,1.20001 -2.92561,1.96419 -1.85671,0.835046 -1.79765,0.768904 -3.61302,1.27796 -2.37167,0.667328 -5.25949,1.45867 -7.56974,2.21104 -1.12206,0.364964 -2.56065,0.741738 -3.76893,1.12087 -0.383861,0.120473 -0.472445,0.224411 -0.793707,0.415751 -0.816148,0.485437 -3.01302,1.71734 -3.92956,2.16852 -0.99922,0.491342 -2.17206,1.22009 -3.15593,1.73505 -0.773628,0.406302 -2.32443,0.941346 -3.36381,1.4693 -0.291735,0.147639 -0.532681,0.236222 -0.825597,0.383861l-1.66773 0.805518c-0.288191,0.144096 -0.553941,0.246852 -0.824416,0.383861 -1.02993,0.519689 -6.00832,3.06498 -6.60005,3.18073 -2.31025,0.451185 -3.93783,0.735833 -6.29651,1.06772 -2.34333,0.330711 -6.51265,0.98859 -8.79101,0.98859z"/>
  <path class="fil1" d="M27.5636 43.1791c0,1.49529 1.57088,3.68507 2.99294,3.68507 0.933078,0 1.64765,-0.312995 2.33506,-0.82914 0.579926,-0.43583 1.52954,-1.63584 2.20632,-1.70671l4.45633 -0.548036c3.58586,-0.500791 3.33546,-0.296459 2.62915,-2.39175 -0.0838589,-0.250396 -0.151182,-0.516146 -0.229136,-0.748825 -0.179529,-0.530319 0.00236222,-0.943708 -1.31103,-0.546855 -2.17206,0.655517 -3.71223,0.611816 -6.00241,0.611816 -1.43623,0 -2.88664,-0.979142 -4.68665,-0.65906 -1.70553,0.303546 -2.39057,1.55434 -2.39057,3.13349z"/>
  <path class="fil1" d="M3.00002 46.8641c0,1.91694 1.45159,4.38665 3.00593,5.50989 0.929535,0.672053 1.42796,0.302365 2.12954,-0.37205 0.334255,-0.322443 0.620084,-0.622446 0.948433,-0.950795 0.324806,-0.325987 1.68308,-1.60986 1.68308,-2.11537 0,-2.9516 -2.24647,-2.9575 -4.415,-3.23979 -0.672053,-0.0874023 -1.8449,-0.155907 -2.54648,-0.155907 -0.583469,0 -0.805518,0.715754 -0.805518,1.32403z"/>
  <path class="fil1" d="M13.3548 47.209c0,0.610635 0.342522,0.955519 0.674415,1.39726 0.353152,0.471264 0.532681,0.660241 0.764179,1.24962 0.625989,1.59214 1.38544,2.77207 1.91458,4.01224 0.232679,0.545674 1.00631,1.99608 1.34529,2.62561 0.466539,0.868117 0.258663,1.01694 1.39962,1.01694 1.47403,0 0.377956,-1.95238 0.134647,-2.43545 -0.787801,-1.56379 -0.767723,-4.18586 -0.767723,-6.02485 0,-0.592918 0.232679,-1.12442 0.402759,-1.55316 0.140552,-0.354333 0.460634,-1.03583 0.460634,-1.49647 0,-0.438192 -1.1504,0.184253 -1.39371,0.216143 -0.61654,0.0838589 -1.17993,0.07441 -1.79529,0.161812 -0.614178,0.0874023 -1.17639,0.0767723 -1.79175,0.164175 -0.579926,0.0814967 -1.34765,0.0519689 -1.34765,0.666147z"/>
  <path class="fil1" d="M9.32842 35.294c0,0.968512 0.367326,2.03033 0.566934,3.23152 0.248033,1.48938 0.68032,4.22838 1.43387,5.35752 0.824416,1.23426 1.6323,1.25316 2.889,1.25316 1.14804,0 3.50908,-0.194883 3.50908,-1.20828 0,-0.277561 -0.249215,-0.472445 -0.426381,-0.609454 -2.13309,-1.65119 -1.77757,-0.785439 -3.76184,-3.71814 -0.707486,-1.0441 -2.28899,-3.26577 -3.11813,-4.36303 -0.4252,-0.56339 -0.270475,-0.576382 -0.689769,-0.576382 -0.245671,0 -0.402759,0.356696 -0.402759,0.633076z"/>
  <path class="fil1" d="M36.8259 31.4376c0,1.7445 0.0673234,4.13271 0.82914,5.38823 0.936622,1.54135 2.21813,0.957882 3.11577,-0.289372 0.385042,-0.533862 0.66969,-1.06064 1.03702,-1.60986l0.407484 -0.571658c0.0814967,-0.101576 0.0685045,-0.1063 0.147639,-0.197246 0.155907,-0.174805 1.51182,-0.650793 1.84608,-0.800794 0.907094,-0.406302 2.45435,-0.667328 2.45435,-1.51537 0,-1.10316 -1.09371,-0.694494 -1.09607,-0.694494l-3.09806 0.296459c-0.937803,0.0779534 -1.50474,0.275199 -2.37167,0.00236222 -0.196065,-0.0614178 -3.27168,-1.28859 -3.27168,-0.00826778z"/>
  <path class="fil1" d="M20.6612 43.2948c1.4067,0 2.41183,-0.909456 3.17247,-1.94765 0.232679,-0.316538 1.11024,-1.5886 1.14213,-1.96655 -0.41457,-0.109843 -0.72284,-0.955519 -0.920086,-1.26615 -0.139371,-0.219687 -0.431106,-0.331892 -0.705124,-0.387405 -0.533862,-0.108662 -0.539768,-0.0271656 -1.02048,-0.0141733 -1.33938,0.0342522 -2.6823,0.40394 -3.58704,0.901188 -0.937803,0.514965 -1.59686,1.82718 -0.844495,2.95632 0.442917,0.662604 1.69253,1.72442 2.76262,1.72442z"/>
  <path class="fil1" d="M21.2943 48.4173c0,1.05828 0.164175,1.67009 1.36182,2.37876 0.590556,0.349609 1.63702,0.819691 2.38939,0.338979 0.86103,-0.549217 2.80632,-2.49333 2.80632,-3.52326 0,-1.30985 -1.26143,-1.72442 -2.30907,-1.83427 -1.05709,-0.109843 -2.6327,0.00354333 -3.37207,0.696856 -0.460634,0.431106 -0.876385,1.07717 -0.876385,1.94293z"/>
  <path class="fil1" d="M18.1289 30.5176c0,1.32285 0.274018,2.14136 0.715754,3.25632 0.334255,0.837408 1.01221,1.92403 2.04687,1.92403 0.557485,0 1.27088,-0.2126 1.73387,-0.394491 0.109843,-0.0437011 0.137009,-0.0413389 0.251577,-0.0933078 0.230317,-0.105119 0.200789,0.00590556 0.200789,-0.549217 0,-1.39489 -0.636619,-2.91971 -0.805518,-4.94886 -1.00513,-0.23386 -0.881109,-0.172442 -1.95592,-0.172442 -0.472445,0 -1.01457,0.0685045 -1.38308,0.171261 -0.183072,0.0507878 -0.407484,0.142915 -0.553941,0.250396 -0.175986,0.129922 -0.250396,0.274018 -0.250396,0.556304z"/>
  <path class="fil1" d="M3.00002 41.5114c0,0.298821 0.0543311,0.546855 0.217325,0.760636 0.14882,0.193702 0.30827,0.224411 0.582288,0.281105 0.674415,0.137009 3.86696,0.972055 4.37838,0.972055 0.225592,0 0.28701,-0.284648 0.28701,-0.518508 0,-0.11693 -0.23386,-0.668509 -0.28701,-0.804337 -0.102757,-0.257482 -0.194883,-0.555122 -0.281105,-0.813786 -0.187797,-0.565752 -0.360239,-1.06891 -0.5315,-1.65474 -0.164175,-0.561028 -0.302365,-1.11733 -0.429925,-1.75749 -0.1063,-0.5315 -0.0732289,-0.954338 -0.357877,-1.31103 -0.0448822,-0.0555122 -0.24449,-0.27638 -0.298821,-0.27638 -1.31103,0 -3.27877,4.10318 -3.27877,5.12248z"/>
  <path class="fil1" d="M31.2463 30.403l0 5.12248c0,1.09017 1.30749,1.20119 2.18742,1.20592 0.305908,0.00354333 0.366145,0.0732289 0.622446,0.0555122 0.441736,-0.03189 0.757093,-0.185435 0.757093,-0.686226 0,-1.76931 -0.524414,-3.45003 -0.629533,-4.89689 -0.0259845,-0.35079 0.02126,-0.716935 -0.157088,-0.936622 -0.401578,-0.496067 -1.59686,-0.497248 -2.32088,-0.497248 -0.348428,0 -0.459452,0.289372 -0.459452,0.633076z"/>
  <path class="fil1" d="M24.9758 30.2872c0,1.00867 0.131103,2.45907 0.263388,3.4205 0.310632,2.27482 -0.140552,2.10474 3.18782,2.10474 0.132285,0 0.172442,-0.0389767 0.172442,-0.172442l0 -5.46737c0,-0.810243 -0.660241,-0.863393 -1.20828,-0.863393 -0.889377,0 -2.41537,0.164175 -2.41537,0.97796z"/>
  <path class="fil1" d="M29.6931 57.5107c0.745281,0 2.589,-0.09567 2.589,-1.1504 0,-1.64529 -0.726384,-2.43191 -1.16339,-4.01696 -0.161812,-0.588194 -0.237403,-0.620084 -0.390948,-1.27796 -0.905913,0 -2.38703,0.88229 -2.92089,1.45159 -0.337798,0.359058 -0.23386,0.638981 -0.133466,1.1445 0.0803156,0.408665 0.196065,0.729927 0.328349,1.10906 0.181891,0.518508 1.02166,2.74018 1.69135,2.74018z"/>
  <path class="fil1" d="M9.32842 54.3453c0,0.497248 0.728746,1.11143 1.06891,1.34883 0.750006,0.52087 5.14374,2.67758 5.14374,1.01103 0,-0.727565 -2.78742,-5.18036 -3.39451,-5.18036 -0.653155,0 -2.81813,2.82049 -2.81813,2.82049z"/>
  <path class="fil1" d="M25.3785 58.0871c1.79175,0 1.15158,-1.22481 0.501972,-2.74727 -0.153545,-0.357877 -0.270475,-0.594099 -0.427562,-0.954338 -0.0826778,-0.190159 -0.401578,-0.845676 -0.592918,-0.845676l-2.41537 0c-0.320081,0 -0.442917,0.252758 -0.490161,0.551579 -0.0271656,0.17008 0.0909456,0.464177 0.147639,0.884653 0.0838589,0.611816 0.190159,1.2508 0.275199,1.85435 0.0448822,0.328349 0.0295278,0.651974 0.237403,0.798431 0.190159,0.131103 0.540949,0.226773 0.811424,0.282286 0.533862,0.109843 1.32166,0.175986 1.95238,0.175986z"/>
  <path class="fil1" d="M12.6072 32.705c0,0.392129 0.0484256,0.448822 0.210238,0.767723 0.114568,0.22323 0.161812,0.364964 0.268112,0.594099l0.845676 1.74568c0.0484256,0.0992134 0.0708667,0.164175 0.124017,0.277561 0.152363,0.317719 0.745281,1.26025 0.794888,1.44922 0.105119,0 0.300002,0.0118111 0.392129,-0.01063 0.235041,-0.0555122 0.87166,-0.88229 1.08898,-1.09725 0.445279,-0.439374 0.418114,-0.274018 0.418114,-0.849219 0,-1.04528 -0.930716,-2.71065 -1.27324,-3.79137 -0.139371,-0.441736 -0.0602367,-0.315357 -0.203151,-0.428744 -0.415751,-0.328349 -0.56339,-0.111024 -1.24725,0.230317 -0.324806,0.161812 -0.509059,0.277561 -0.810243,0.455909 -0.290553,0.171261 -0.608273,0.218506 -0.608273,0.656698z"/>
 </g>
</svg>
